{
 "asset": {
  "generator": "Khronos glTF Blender I/O v5.2.40",
  "version": "2.0"
 },
 "extensionsUsed": [
  "KHR_materials_emissive_strength"
 ],
 "scene": 0,
 "scenes": [
  {
   "name": "Scene",
   "nodes": [
    0,
    1
   ]
  }
 ],
 "nodes": [
  {
   "mesh": 0,
   "name": "Body"
  },
  {
   "mesh": 1,
   "name": "Emit_Lamp",
   "translation": [
    0,
    0.10000000149011612,
    0.05999999865889549
   ]
  }
 ],
 "materials": [
  {
   "doubleSided": true,
   "name": "painted_metal",
   "pbrMetallicRoughness": {
    "baseColorFactor": [
     1,
     1,
     1,
     1
    ],
    "metallicFactor": 1.0,
    "roughnessFactor": 1.0,
    "baseColorTexture": {
     "index": 0
    },
    "metallicRoughnessTexture": {
     "index": 1
    }
   },
   "normalTexture": {
    "index": 2
   },
   "occlusionTexture": {
    "index": 1,
    "strength": 0.8
   }
  },
  {
   "doubleSided": true,
   "name": "steel_bare",
   "pbrMetallicRoughness": {
    "baseColorFactor": [
     1,
     1,
     1,
     1
    ],
    "metallicFactor": 1.0,
    "roughnessFactor": 1.0,
    "baseColorTexture": {
     "index": 3
    },
    "metallicRoughnessTexture": {
     "index": 4
    }
   },
   "normalTexture": {
    "index": 5
   },
   "occlusionTexture": {
    "index": 4,
    "strength": 0.8
   }
  },
  {
   "doubleSided": true,
   "emissiveFactor": [
    1,
    0.1333333338852282,
    0.0666666669426141
   ],
   "extensions": {
    "KHR_materials_emissive_strength": {
     "emissiveStrength": 1.439999983310699
    }
   },
   "name": "emit_beacon_red",
   "pbrMetallicRoughness": {
    "baseColorFactor": [
     0,
     0,
     0,
     1
    ],
    "metallicFactor": 0,
    "roughnessFactor": 0.5
   }
  }
 ],
 "meshes": [
  {
   "name": "Body",
   "primitives": [
    {
     "attributes": {
      "POSITION": 0,
      "NORMAL": 1,
      "TEXCOORD_0": 2
     },
     "indices": 3,
     "material": 0
    },
    {
     "attributes": {
      "POSITION": 4,
      "NORMAL": 5,
      "TEXCOORD_0": 6
     },
     "indices": 7,
     "material": 1
    }
   ]
  },
  {
   "name": "Emit_Lamp",
   "primitives": [
    {
     "attributes": {
      "POSITION": 8,
      "NORMAL": 9,
      "TEXCOORD_0": 10
     },
     "indices": 11,
     "material": 2
    }
   ]
  }
 ],
 "accessors": [
  {
   "bufferView": 0,
   "componentType": 5126,
   "count": 712,
   "max": [
    0.07999999821186066,
    0.20000000298023224,
    0.06000000238418579
   ],
   "min": [
    -0.07999999821186066,
    0,
    0
   ],
   "type": "VEC3"
  },
  {
   "bufferView": 1,
   "componentType": 5126,
   "count": 712,
   "type": "VEC3"
  },
  {
   "bufferView": 2,
   "componentType": 5126,
   "count": 712,
   "type": "VEC2"
  },
  {
   "bufferView": 3,
   "componentType": 5123,
   "count": 1848,
   "type": "SCALAR"
  },
  {
   "bufferView": 4,
   "componentType": 5126,
   "count": 426,
   "max": [
    0.06175738945603371,
    0.18000000715255737,
    0.10999999940395355
   ],
   "min": [
    -0.06180422380566597,
    0.019999999552965164,
    0.02800000086426735
   ],
   "type": "VEC3"
  },
  {
   "bufferView": 5,
   "componentType": 5126,
   "count": 426,
   "type": "VEC3"
  },
  {
   "bufferView": 6,
   "componentType": 5126,
   "count": 426,
   "type": "VEC2"
  },
  {
   "bufferView": 7,
   "componentType": 5123,
   "count": 936,
   "type": "SCALAR"
  },
  {
   "bufferView": 8,
   "componentType": 5126,
   "count": 174,
   "max": [
    0.052000001072883606,
    0.0520000085234642,
    0.03399999812245369
   ],
   "min": [
    -0.05199998989701271,
    -0.05199999362230301,
    -0.04399999976158142
   ],
   "type": "VEC3"
  },
  {
   "bufferView": 9,
   "componentType": 5126,
   "count": 174,
   "type": "VEC3"
  },
  {
   "bufferView": 10,
   "componentType": 5126,
   "count": 174,
   "type": "VEC2"
  },
  {
   "bufferView": 11,
   "componentType": 5123,
   "count": 672,
   "type": "SCALAR"
  }
 ],
 "bufferViews": [
  {
   "buffer": 0,
   "byteLength": 8544,
   "byteOffset": 0,
   "target": 34962
  },
  {
   "buffer": 0,
   "byteLength": 8544,
   "byteOffset": 8544,
   "target": 34962
  },
  {
   "buffer": 0,
   "byteLength": 5696,
   "byteOffset": 17088,
   "target": 34962
  },
  {
   "buffer": 0,
   "byteLength": 3696,
   "byteOffset": 22784,
   "target": 34963
  },
  {
   "buffer": 0,
   "byteLength": 5112,
   "byteOffset": 26480,
   "target": 34962
  },
  {
   "buffer": 0,
   "byteLength": 5112,
   "byteOffset": 31592,
   "target": 34962
  },
  {
   "buffer": 0,
   "byteLength": 3408,
   "byteOffset": 36704,
   "target": 34962
  },
  {
   "buffer": 0,
   "byteLength": 1872,
   "byteOffset": 40112,
   "target": 34963
  },
  {
   "buffer": 0,
   "byteLength": 2088,
   "byteOffset": 41984,
   "target": 34962
  },
  {
   "buffer": 0,
   "byteLength": 2088,
   "byteOffset": 44072,
   "target": 34962
  },
  {
   "buffer": 0,
   "byteLength": 1392,
   "byteOffset": 46160,
   "target": 34962
  },
  {
   "buffer": 0,
   "byteLength": 1344,
   "byteOffset": 47552,
   "target": 34963
  }
 ],
 "buffers": [
  {
   "byteLength": 48896,
   "uri": "emergency_beacon.bin"
  }
 ],
 "images": [
  {
   "uri": "../../textures/painted_metal/painted_metal_albedo.jpg"
  },
  {
   "uri": "../../textures/painted_metal/painted_metal_orm.jpg"
  },
  {
   "uri": "../../textures/painted_metal/painted_metal_normal.png"
  },
  {
   "uri": "../../textures/steel_bare/steel_bare_albedo.jpg"
  },
  {
   "uri": "../../textures/steel_bare/steel_bare_orm.jpg"
  },
  {
   "uri": "../../textures/steel_bare/steel_bare_normal.png"
  }
 ],
 "textures": [
  {
   "source": 0,
   "sampler": 0
  },
  {
   "source": 1,
   "sampler": 0
  },
  {
   "source": 2,
   "sampler": 0
  },
  {
   "source": 3,
   "sampler": 0
  },
  {
   "source": 4,
   "sampler": 0
  },
  {
   "source": 5,
   "sampler": 0
  }
 ],
 "samplers": [
  {
   "magFilter": 9729,
   "minFilter": 9987,
   "wrapS": 10497,
   "wrapT": 10497
  }
 ]
}
