{
 "asset": {
  "generator": "Khronos glTF Blender I/O v5.2.40",
  "version": "2.0"
 },
 "scene": 0,
 "scenes": [
  {
   "name": "Scene",
   "nodes": [
    0
   ]
  }
 ],
 "nodes": [
  {
   "mesh": 0,
   "name": "Body",
   "translation": [
    -0.0674431324005127,
    0.06250638514757156,
    -0.01176878809928894
   ]
  }
 ],
 "materials": [
  {
   "doubleSided": true,
   "name": "concrete_rubble",
   "pbrMetallicRoughness": {
    "baseColorFactor": [
     1,
     1,
     1,
     1
    ],
    "metallicFactor": 1.0,
    "roughnessFactor": 1.0,
    "baseColorTexture": {
     "index": 0
    },
    "metallicRoughnessTexture": {
     "index": 1
    }
   },
   "normalTexture": {
    "index": 2
   },
   "occlusionTexture": {
    "index": 1,
    "strength": 0.8
   }
  },
  {
   "doubleSided": true,
   "name": "rusted_steel",
   "pbrMetallicRoughness": {
    "baseColorFactor": [
     1,
     1,
     1,
     1
    ],
    "metallicFactor": 1.0,
    "roughnessFactor": 1.0,
    "baseColorTexture": {
     "index": 3
    },
    "metallicRoughnessTexture": {
     "index": 4
    }
   },
   "normalTexture": {
    "index": 5
   },
   "occlusionTexture": {
    "index": 4,
    "strength": 0.8
   }
  }
 ],
 "meshes": [
  {
   "name": "Body",
   "primitives": [
    {
     "attributes": {
      "POSITION": 0,
      "NORMAL": 1,
      "TEXCOORD_0": 2
     },
     "indices": 3,
     "material": 0
    },
    {
     "attributes": {
      "POSITION": 4,
      "NORMAL": 5,
      "TEXCOORD_0": 6
     },
     "indices": 7,
     "material": 1
    }
   ]
  }
 ],
 "accessors": [
  {
   "bufferView": 0,
   "componentType": 5126,
   "count": 2903,
   "max": [
    2.3174431324005127,
    2.279538631439209,
    0.9117687940597534
   ],
   "min": [
    -2.1825568675994873,
    -0.06250638514757156,
    -0.8882312178611755
   ],
   "type": "VEC3"
  },
  {
   "bufferView": 1,
   "componentType": 5126,
   "count": 2903,
   "type": "VEC3"
  },
  {
   "bufferView": 2,
   "componentType": 5126,
   "count": 2903,
   "type": "VEC2"
  },
  {
   "bufferView": 3,
   "componentType": 5123,
   "count": 4560,
   "type": "SCALAR"
  },
  {
   "bufferView": 4,
   "componentType": 5126,
   "count": 968,
   "max": [
    1.7011512517929077,
    2.4374935626983643,
    0.6710318922996521
   ],
   "min": [
    -1.367797613143921,
    0.7222474813461304,
    -0.3796372413635254
   ],
   "type": "VEC3"
  },
  {
   "bufferView": 5,
   "componentType": 5126,
   "count": 968,
   "type": "VEC3"
  },
  {
   "bufferView": 6,
   "componentType": 5126,
   "count": 968,
   "type": "VEC2"
  },
  {
   "bufferView": 7,
   "componentType": 5123,
   "count": 2400,
   "type": "SCALAR"
  }
 ],
 "bufferViews": [
  {
   "buffer": 0,
   "byteLength": 34836,
   "byteOffset": 0,
   "target": 34962
  },
  {
   "buffer": 0,
   "byteLength": 34836,
   "byteOffset": 34836,
   "target": 34962
  },
  {
   "buffer": 0,
   "byteLength": 23224,
   "byteOffset": 69672,
   "target": 34962
  },
  {
   "buffer": 0,
   "byteLength": 9120,
   "byteOffset": 92896,
   "target": 34963
  },
  {
   "buffer": 0,
   "byteLength": 11616,
   "byteOffset": 102016,
   "target": 34962
  },
  {
   "buffer": 0,
   "byteLength": 11616,
   "byteOffset": 113632,
   "target": 34962
  },
  {
   "buffer": 0,
   "byteLength": 7744,
   "byteOffset": 125248,
   "target": 34962
  },
  {
   "buffer": 0,
   "byteLength": 4800,
   "byteOffset": 132992,
   "target": 34963
  }
 ],
 "buffers": [
  {
   "byteLength": 137792,
   "uri": "rubble_set.bin"
  }
 ],
 "images": [
  {
   "uri": "../../textures/concrete_rubble/concrete_rubble_albedo.jpg"
  },
  {
   "uri": "../../textures/concrete_rubble/concrete_rubble_orm.jpg"
  },
  {
   "uri": "../../textures/concrete_rubble/concrete_rubble_normal.png"
  },
  {
   "uri": "../../textures/rusted_steel/rusted_steel_albedo.jpg"
  },
  {
   "uri": "../../textures/rusted_steel/rusted_steel_orm.jpg"
  },
  {
   "uri": "../../textures/rusted_steel/rusted_steel_normal.png"
  }
 ],
 "textures": [
  {
   "source": 0,
   "sampler": 0
  },
  {
   "source": 1,
   "sampler": 0
  },
  {
   "source": 2,
   "sampler": 0
  },
  {
   "source": 3,
   "sampler": 0
  },
  {
   "source": 4,
   "sampler": 0
  },
  {
   "source": 5,
   "sampler": 0
  }
 ],
 "samplers": [
  {
   "magFilter": 9729,
   "minFilter": 9987,
   "wrapS": 10497,
   "wrapT": 10497
  }
 ]
}
