# Generated by svg_to_godot3d
mtllib geometry.mtl
s off
o Floor_001_l_chamber_3_floor_02
usemtl Floor
v -34.444000 -6.200000 36.221000
v -10.150000 -6.200000 36.221000
v -10.150000 -6.200000 56.221000
v -34.444000 -6.200000 56.221000
v -34.444000 -6.000000 36.221000
v -10.150000 -6.000000 36.221000
v -10.150000 -6.000000 56.221000
v -34.444000 -6.000000 56.221000
v -10.150000 -6.200000 36.221000
v -10.000000 -6.200000 36.221000
v -10.000000 -6.200000 38.040000
v -10.150000 -6.200000 38.040000
v -10.150000 -6.000000 36.221000
v -10.000000 -6.000000 36.221000
v -10.000000 -6.000000 38.040000
v -10.150000 -6.000000 38.040000
v -10.150000 -6.200000 38.040000
v -10.000000 -6.200000 38.040000
v -10.000000 -6.200000 51.374000
v -10.150000 -6.200000 51.374000
v -10.150000 -6.000000 38.040000
v -10.000000 -6.000000 38.040000
v -10.000000 -6.000000 51.374000
v -10.150000 -6.000000 51.374000
v -10.150000 -6.200000 51.374000
v -10.000000 -6.200000 51.374000
v -10.000000 -6.200000 56.221000
v -10.150000 -6.200000 56.221000
v -10.150000 -6.000000 51.374000
v -10.000000 -6.000000 51.374000
v -10.000000 -6.000000 56.221000
v -10.150000 -6.000000 56.221000
v -34.444000 -6.200000 36.221000
v -10.150000 -6.200000 36.221000
v -10.150000 -6.000000 36.221000
v -34.444000 -6.000000 36.221000
v -10.150000 -6.200000 56.221000
v -34.444000 -6.200000 56.221000
v -34.444000 -6.000000 56.221000
v -10.150000 -6.000000 56.221000
v -34.444000 -6.200000 56.221000
v -34.444000 -6.200000 36.221000
v -34.444000 -6.000000 36.221000
v -34.444000 -6.000000 56.221000
v -10.150000 -6.200000 36.221000
v -10.000000 -6.200000 36.221000
v -10.000000 -6.000000 36.221000
v -10.150000 -6.000000 36.221000
v -10.000000 -6.200000 36.221000
v -10.000000 -6.200000 38.040000
v -10.000000 -6.000000 38.040000
v -10.000000 -6.000000 36.221000
v -10.000000 -6.200000 38.040000
v -10.000000 -6.200000 51.374000
v -10.000000 -6.000000 51.374000
v -10.000000 -6.000000 38.040000
v -10.000000 -6.200000 51.374000
v -10.000000 -6.200000 56.221000
v -10.000000 -6.000000 56.221000
v -10.000000 -6.000000 51.374000
v -10.000000 -6.200000 56.221000
v -10.150000 -6.200000 56.221000
v -10.150000 -6.000000 56.221000
v -10.000000 -6.000000 56.221000
vn 0.000000 -1.000000 0.000000
vn 0.000000 -1.000000 0.000000
vn 0.000000 1.000000 0.000000
vn 0.000000 1.000000 -0.000000
vn 0.000000 -1.000000 0.000000
vn 0.000000 -1.000000 0.000000
vn 0.000000 1.000000 0.000000
vn 0.000000 1.000000 -0.000000
vn 0.000000 -1.000000 0.000000
vn 0.000000 -1.000000 0.000000
vn 0.000000 1.000000 0.000000
vn 0.000000 1.000000 -0.000000
vn 0.000000 -1.000000 0.000000
vn 0.000000 -1.000000 0.000000
vn 0.000000 1.000000 0.000000
vn 0.000000 1.000000 -0.000000
vn 0.000000 0.000000 -1.000000
vn 0.000000 0.000000 -1.000000
vn 0.000000 0.000000 1.000000
vn 0.000000 -0.000000 1.000000
vn -1.000000 0.000000 0.000000
vn -1.000000 0.000000 0.000000
vn 0.000000 0.000000 -1.000000
vn 0.000000 0.000000 -1.000000
vn 1.000000 0.000000 0.000000
vn 1.000000 0.000000 0.000000
vn 1.000000 0.000000 0.000000
vn 1.000000 0.000000 0.000000
vn 1.000000 0.000000 0.000000
vn 1.000000 0.000000 0.000000
vn 0.000000 0.000000 1.000000
vn 0.000000 -0.000000 1.000000
f 4//1 1//1 2//1
f 2//2 3//2 4//2
f 8//3 6//3 5//3
f 6//4 8//4 7//4
f 12//5 9//5 10//5
f 10//6 11//6 12//6
f 16//7 14//7 13//7
f 14//8 16//8 15//8
f 20//9 17//9 18//9
f 18//10 19//10 20//10
f 24//11 22//11 21//11
f 22//12 24//12 23//12
f 28//13 25//13 26//13
f 26//14 27//14 28//14
f 32//15 30//15 29//15
f 30//16 32//16 31//16
f 33//17 35//17 34//17
f 33//18 36//18 35//18
f 37//19 39//19 38//19
f 37//20 40//20 39//20
f 41//21 43//21 42//21
f 41//22 44//22 43//22
f 45//23 47//23 46//23
f 45//24 48//24 47//24
f 49//25 51//25 50//25
f 49//26 52//26 51//26
f 53//27 55//27 54//27
f 53//28 56//28 55//28
f 57//29 59//29 58//29
f 57//30 60//30 59//30
f 61//31 63//31 62//31
f 61//32 64//32 63//32
o Floor_002_l_chamber_3_floor_08
usemtl Floor
v -29.900000 -6.200000 25.075000
v -25.500000 -6.200000 25.075000
v -25.500000 -6.200000 30.620000
v -29.900000 -6.200000 30.620000
v -29.900000 -6.000000 25.075000
v -25.500000 -6.000000 25.075000
v -25.500000 -6.000000 30.620000
v -29.900000 -6.000000 30.620000
v -29.900000 -6.200000 25.075000
v -25.500000 -6.200000 25.075000
v -25.500000 -6.000000 25.075000
v -29.900000 -6.000000 25.075000
v -25.500000 -6.200000 25.075000
v -25.500000 -6.200000 30.620000
v -25.500000 -6.000000 30.620000
v -25.500000 -6.000000 25.075000
v -25.500000 -6.200000 30.620000
v -29.900000 -6.200000 30.620000
v -29.900000 -6.000000 30.620000
v -25.500000 -6.000000 30.620000
v -29.900000 -6.200000 30.620000
v -29.900000 -6.200000 25.075000
v -29.900000 -6.000000 25.075000
v -29.900000 -6.000000 30.620000
vn 0.000000 -1.000000 0.000000
vn 0.000000 -1.000000 0.000000
vn 0.000000 1.000000 0.000000
vn 0.000000 1.000000 -0.000000
vn 0.000000 0.000000 -1.000000
vn 0.000000 0.000000 -1.000000
vn 1.000000 0.000000 0.000000
vn 1.000000 0.000000 0.000000
vn 0.000000 0.000000 1.000000
vn 0.000000 -0.000000 1.000000
vn -1.000000 0.000000 0.000000
vn -1.000000 0.000000 0.000000
f 68//33 65//33 66//33
f 66//34 67//34 68//34
f 72//35 70//35 69//35
f 70//36 72//36 71//36
f 73//37 75//37 74//37
f 73//38 76//38 75//38
f 77//39 79//39 78//39
f 77//40 80//40 79//40
f 81//41 83//41 82//41
f 81//42 84//42 83//42
f 85//43 87//43 86//43
f 85//44 88//44 87//44
o Floor_003_l_chamber_3_floor_01
usemtl Floor
v -29.900000 -6.200000 30.620000
v -20.900000 -6.200000 30.620000
v -20.900000 -6.200000 36.221000
v -29.900000 -6.200000 36.221000
v -29.900000 -6.000000 30.620000
v -20.900000 -6.000000 30.620000
v -20.900000 -6.000000 36.221000
v -29.900000 -6.000000 36.221000
v -29.900000 -6.200000 30.620000
v -20.900000 -6.200000 30.620000
v -20.900000 -6.000000 30.620000
v -29.900000 -6.000000 30.620000
v -20.900000 -6.200000 30.620000
v -20.900000 -6.200000 36.221000
v -20.900000 -6.000000 36.221000
v -20.900000 -6.000000 30.620000
v -20.900000 -6.200000 36.221000
v -29.900000 -6.200000 36.221000
v -29.900000 -6.000000 36.221000
v -20.900000 -6.000000 36.221000
v -29.900000 -6.200000 36.221000
v -29.900000 -6.200000 30.620000
v -29.900000 -6.000000 30.620000
v -29.900000 -6.000000 36.221000
vn 0.000000 -1.000000 0.000000
vn 0.000000 -1.000000 0.000000
vn 0.000000 1.000000 0.000000
vn 0.000000 1.000000 -0.000000
vn 0.000000 0.000000 -1.000000
vn 0.000000 0.000000 -1.000000
vn 1.000000 0.000000 0.000000
vn 1.000000 0.000000 0.000000
vn 0.000000 0.000000 1.000000
vn 0.000000 -0.000000 1.000000
vn -1.000000 0.000000 0.000000
vn -1.000000 0.000000 0.000000
f 92//45 89//45 90//45
f 90//46 91//46 92//46
f 96//47 94//47 93//47
f 94//48 96//48 95//48
f 97//49 99//49 98//49
f 97//50 100//50 99//50
f 101//51 103//51 102//51
f 101//52 104//52 103//52
f 105//53 107//53 106//53
f 105//54 108//54 107//54
f 109//55 111//55 110//55
f 109//56 112//56 111//56
o Floor_004_l_chamber_3_floor_06
usemtl Floor
v -29.900000 -6.200000 56.221000
v -14.550000 -6.200000 56.221000
v -14.550000 -6.200000 61.820000
v -29.900000 -6.200000 61.820000
v -29.900000 -6.000000 56.221000
v -14.550000 -6.000000 56.221000
v -14.550000 -6.000000 61.820000
v -29.900000 -6.000000 61.820000
v -29.900000 -6.200000 56.221000
v -14.550000 -6.200000 56.221000
v -14.550000 -6.000000 56.221000
v -29.900000 -6.000000 56.221000
v -14.550000 -6.200000 56.221000
v -14.550000 -6.200000 61.820000
v -14.550000 -6.000000 61.820000
v -14.550000 -6.000000 56.221000
v -14.550000 -6.200000 61.820000
v -29.900000 -6.200000 61.820000
v -29.900000 -6.000000 61.820000
v -14.550000 -6.000000 61.820000
v -29.900000 -6.200000 61.820000
v -29.900000 -6.200000 56.221000
v -29.900000 -6.000000 56.221000
v -29.900000 -6.000000 61.820000
vn 0.000000 -1.000000 0.000000
vn 0.000000 -1.000000 0.000000
vn 0.000000 1.000000 0.000000
vn 0.000000 1.000000 -0.000000
vn 0.000000 0.000000 -1.000000
vn 0.000000 0.000000 -1.000000
vn 1.000000 0.000000 0.000000
vn 1.000000 0.000000 0.000000
vn 0.000000 0.000000 1.000000
vn 0.000000 -0.000000 1.000000
vn -1.000000 0.000000 0.000000
vn -1.000000 0.000000 0.000000
f 116//57 113//57 114//57
f 114//58 115//58 116//58
f 120//59 118//59 117//59
f 118//60 120//60 119//60
f 121//61 123//61 122//61
f 121//62 124//62 123//62
f 125//63 127//63 126//63
f 125//64 128//64 127//64
f 129//65 131//65 130//65
f 129//66 132//66 131//66
f 133//67 135//67 134//67
f 133//68 136//68 135//68
o Floor_005_l_chamber_3_floor_07
usemtl Floor
v -20.900000 -6.200000 30.620000
v -14.550000 -6.200000 30.620000
v -14.550000 -6.200000 36.221000
v -20.900000 -6.200000 36.221000
v -20.900000 -6.000000 30.620000
v -14.550000 -6.000000 30.620000
v -14.550000 -6.000000 36.221000
v -20.900000 -6.000000 36.221000
v -20.900000 -6.200000 30.620000
v -14.550000 -6.200000 30.620000
v -14.550000 -6.000000 30.620000
v -20.900000 -6.000000 30.620000
v -14.550000 -6.200000 30.620000
v -14.550000 -6.200000 36.221000
v -14.550000 -6.000000 36.221000
v -14.550000 -6.000000 30.620000
v -14.550000 -6.200000 36.221000
v -20.900000 -6.200000 36.221000
v -20.900000 -6.000000 36.221000
v -14.550000 -6.000000 36.221000
v -20.900000 -6.200000 36.221000
v -20.900000 -6.200000 30.620000
v -20.900000 -6.000000 30.620000
v -20.900000 -6.000000 36.221000
vn 0.000000 -1.000000 0.000000
vn 0.000000 -1.000000 0.000000
vn 0.000000 1.000000 0.000000
vn 0.000000 1.000000 -0.000000
vn 0.000000 0.000000 -1.000000
vn 0.000000 0.000000 -1.000000
vn 1.000000 0.000000 0.000000
vn 1.000000 0.000000 0.000000
vn 0.000000 0.000000 1.000000
vn 0.000000 -0.000000 1.000000
vn -1.000000 0.000000 0.000000
vn -1.000000 0.000000 0.000000
f 140//69 137//69 138//69
f 138//70 139//70 140//70
f 144//71 142//71 141//71
f 142//72 144//72 143//72
f 145//73 147//73 146//73
f 145//74 148//74 147//74
f 149//75 151//75 150//75
f 149//76 152//76 151//76
f 153//77 155//77 154//77
f 153//78 156//78 155//78
f 157//79 159//79 158//79
f 157//80 160//80 159//80
o Floor_006_l_chamber_3_floor_09
usemtl Floor
v -14.550000 -6.200000 30.620000
v -10.000000 -6.200000 30.620000
v -10.000000 -6.200000 36.221000
v -14.550000 -6.200000 36.221000
v -14.550000 -6.000000 30.620000
v -10.000000 -6.000000 30.620000
v -10.000000 -6.000000 36.221000
v -14.550000 -6.000000 36.221000
v -14.550000 -6.200000 30.620000
v -10.000000 -6.200000 30.620000
v -10.000000 -6.000000 30.620000
v -14.550000 -6.000000 30.620000
v -10.000000 -6.200000 30.620000
v -10.000000 -6.200000 36.221000
v -10.000000 -6.000000 36.221000
v -10.000000 -6.000000 30.620000
v -10.000000 -6.200000 36.221000
v -14.550000 -6.200000 36.221000
v -14.550000 -6.000000 36.221000
v -10.000000 -6.000000 36.221000
v -14.550000 -6.200000 36.221000
v -14.550000 -6.200000 30.620000
v -14.550000 -6.000000 30.620000
v -14.550000 -6.000000 36.221000
vn 0.000000 -1.000000 0.000000
vn 0.000000 -1.000000 0.000000
vn 0.000000 1.000000 0.000000
vn 0.000000 1.000000 -0.000000
vn 0.000000 0.000000 -1.000000
vn 0.000000 0.000000 -1.000000
vn 1.000000 0.000000 0.000000
vn 1.000000 0.000000 0.000000
vn 0.000000 0.000000 1.000000
vn 0.000000 -0.000000 1.000000
vn -1.000000 0.000000 0.000000
vn -1.000000 0.000000 0.000000
f 164//81 161//81 162//81
f 162//82 163//82 164//82
f 168//83 166//83 165//83
f 166//84 168//84 167//84
f 169//85 171//85 170//85
f 169//86 172//86 171//86
f 173//87 175//87 174//87
f 173//88 176//88 175//88
f 177//89 179//89 178//89
f 177//90 180//90 179//90
f 181//91 183//91 182//91
f 181//92 184//92 183//92
o Floor_007_l_chamber_3_floor_03
usemtl Floor
v -10.000000 -6.200000 25.075000
v -9.850000 -6.200000 25.075000
v -9.850000 -6.200000 30.620000
v -10.000000 -6.200000 30.620000
v -10.000000 -6.000000 25.075000
v -9.850000 -6.000000 25.075000
v -9.850000 -6.000000 30.620000
v -10.000000 -6.000000 30.620000
v -10.000000 -6.200000 30.620000
v -9.850000 -6.200000 30.620000
v -9.850000 -6.200000 36.221000
v -10.000000 -6.200000 36.221000
v -10.000000 -6.000000 30.620000
v -9.850000 -6.000000 30.620000
v -9.850000 -6.000000 36.221000
v -10.000000 -6.000000 36.221000
v -10.000000 -6.200000 36.221000
v -9.850000 -6.200000 36.221000
v -9.850000 -6.200000 38.040000
v -10.000000 -6.200000 38.040000
v -10.000000 -6.000000 36.221000
v -9.850000 -6.000000 36.221000
v -9.850000 -6.000000 38.040000
v -10.000000 -6.000000 38.040000
v -9.850000 -6.200000 25.075000
v -0.338000 -6.200000 25.075000
v -0.338000 -6.200000 38.040000
v -9.850000 -6.200000 38.040000
v -9.850000 -6.000000 25.075000
v -0.338000 -6.000000 25.075000
v -0.338000 -6.000000 38.040000
v -9.850000 -6.000000 38.040000
v -10.000000 -6.200000 25.075000
v -9.850000 -6.200000 25.075000
v -9.850000 -6.000000 25.075000
v -10.000000 -6.000000 25.075000
v -10.000000 -6.200000 30.620000
v -10.000000 -6.200000 25.075000
v -10.000000 -6.000000 25.075000
v -10.000000 -6.000000 30.620000
v -10.000000 -6.200000 36.221000
v -10.000000 -6.200000 30.620000
v -10.000000 -6.000000 30.620000
v -10.000000 -6.000000 36.221000
v -9.850000 -6.200000 38.040000
v -10.000000 -6.200000 38.040000
v -10.000000 -6.000000 38.040000
v -9.850000 -6.000000 38.040000
v -10.000000 -6.200000 38.040000
v -10.000000 -6.200000 36.221000
v -10.000000 -6.000000 36.221000
v -10.000000 -6.000000 38.040000
v -9.850000 -6.200000 25.075000
v -0.338000 -6.200000 25.075000
v -0.338000 -6.000000 25.075000
v -9.850000 -6.000000 25.075000
v -0.338000 -6.200000 25.075000
v -0.338000 -6.200000 38.040000
v -0.338000 -6.000000 38.040000
v -0.338000 -6.000000 25.075000
v -0.338000 -6.200000 38.040000
v -9.850000 -6.200000 38.040000
v -9.850000 -6.000000 38.040000
v -0.338000 -6.000000 38.040000
vn 0.000000 -1.000000 0.000000
vn 0.000000 -1.000000 0.000000
vn 0.000000 1.000000 0.000000
vn 0.000000 1.000000 -0.000000
vn 0.000000 -1.000000 0.000000
vn 0.000000 -1.000000 0.000000
vn 0.000000 1.000000 0.000000
vn 0.000000 1.000000 -0.000000
vn 0.000000 -1.000000 0.000000
vn 0.000000 -1.000000 0.000000
vn 0.000000 1.000000 0.000000
vn 0.000000 1.000000 -0.000000
vn 0.000000 -1.000000 0.000000
vn 0.000000 -1.000000 0.000000
vn 0.000000 1.000000 0.000000
vn 0.000000 1.000000 -0.000000
vn 0.000000 0.000000 -1.000000
vn 0.000000 0.000000 -1.000000
vn -1.000000 0.000000 0.000000
vn -1.000000 0.000000 0.000000
vn -1.000000 0.000000 0.000000
vn -1.000000 0.000000 0.000000
vn 0.000000 0.000000 1.000000
vn 0.000000 -0.000000 1.000000
vn -1.000000 0.000000 0.000000
vn -1.000000 0.000000 0.000000
vn 0.000000 0.000000 -1.000000
vn 0.000000 0.000000 -1.000000
vn 1.000000 0.000000 0.000000
vn 1.000000 0.000000 0.000000
vn 0.000000 0.000000 1.000000
vn 0.000000 -0.000000 1.000000
f 188//93 185//93 186//93
f 186//94 187//94 188//94
f 192//95 190//95 189//95
f 190//96 192//96 191//96
f 196//97 193//97 194//97
f 194//98 195//98 196//98
f 200//99 198//99 197//99
f 198//100 200//100 199//100
f 204//101 201//101 202//101
f 202//102 203//102 204//102
f 208//103 206//103 205//103
f 206//104 208//104 207//104
f 212//105 209//105 210//105
f 210//106 211//106 212//106
f 216//107 214//107 213//107
f 214//108 216//108 215//108
f 217//109 219//109 218//109
f 217//110 220//110 219//110
f 221//111 223//111 222//111
f 221//112 224//112 223//112
f 225//113 227//113 226//113
f 225//114 228//114 227//114
f 229//115 231//115 230//115
f 229//116 232//116 231//116
f 233//117 235//117 234//117
f 233//118 236//118 235//118
f 237//119 239//119 238//119
f 237//120 240//120 239//120
f 241//121 243//121 242//121
f 241//122 244//122 243//122
f 245//123 247//123 246//123
f 245//124 248//124 247//124
o Floor_008_l_chamber_3_floor_04
usemtl Floor
v -10.000000 -6.200000 38.040000
v -0.338000 -6.200000 38.040000
v -0.338000 -6.200000 51.374000
v -10.000000 -6.200000 51.374000
v -10.000000 -6.000000 38.040000
v -0.338000 -6.000000 38.040000
v -0.338000 -6.000000 51.374000
v -10.000000 -6.000000 51.374000
v -10.000000 -6.200000 38.040000
v -0.338000 -6.200000 38.040000
v -0.338000 -6.000000 38.040000
v -10.000000 -6.000000 38.040000
v -0.338000 -6.200000 38.040000
v -0.338000 -6.200000 51.374000
v -0.338000 -6.000000 51.374000
v -0.338000 -6.000000 38.040000
v -0.338000 -6.200000 51.374000
v -10.000000 -6.200000 51.374000
v -10.000000 -6.000000 51.374000
v -0.338000 -6.000000 51.374000
v -10.000000 -6.200000 51.374000
v -10.000000 -6.200000 38.040000
v -10.000000 -6.000000 38.040000
v -10.000000 -6.000000 51.374000
vn 0.000000 -1.000000 0.000000
vn 0.000000 -1.000000 0.000000
vn 0.000000 1.000000 0.000000
vn 0.000000 1.000000 -0.000000
vn 0.000000 0.000000 -1.000000
vn 0.000000 0.000000 -1.000000
vn 1.000000 0.000000 0.000000
vn 1.000000 0.000000 0.000000
vn 0.000000 0.000000 1.000000
vn 0.000000 -0.000000 1.000000
vn -1.000000 0.000000 0.000000
vn -1.000000 0.000000 0.000000
f 252//125 249//125 250//125
f 250//126 251//126 252//126
f 256//127 254//127 253//127
f 254//128 256//128 255//128
f 257//129 259//129 258//129
f 257//130 260//130 259//130
f 261//131 263//131 262//131
f 261//132 264//132 263//132
f 265//133 267//133 266//133
f 265//134 268//134 267//134
f 269//135 271//135 270//135
f 269//136 272//136 271//136
o Floor_009_l_chamber_3_floor_05
usemtl Floor
v -10.000000 -6.200000 51.374000
v -0.338000 -6.200000 51.374000
v -0.338000 -6.200000 56.221000
v -10.000000 -6.200000 56.221000
v -10.000000 -6.000000 51.374000
v -0.338000 -6.000000 51.374000
v -0.338000 -6.000000 56.221000
v -10.000000 -6.000000 56.221000
v -10.000000 -6.200000 51.374000
v -0.338000 -6.200000 51.374000
v -0.338000 -6.000000 51.374000
v -10.000000 -6.000000 51.374000
v -0.338000 -6.200000 51.374000
v -0.338000 -6.200000 56.221000
v -0.338000 -6.000000 56.221000
v -0.338000 -6.000000 51.374000
v -0.338000 -6.200000 56.221000
v -10.000000 -6.200000 56.221000
v -10.000000 -6.000000 56.221000
v -0.338000 -6.000000 56.221000
v -10.000000 -6.200000 56.221000
v -10.000000 -6.200000 51.374000
v -10.000000 -6.000000 51.374000
v -10.000000 -6.000000 56.221000
vn 0.000000 -1.000000 0.000000
vn 0.000000 -1.000000 0.000000
vn 0.000000 1.000000 0.000000
vn 0.000000 1.000000 -0.000000
vn 0.000000 0.000000 -1.000000
vn 0.000000 0.000000 -1.000000
vn 1.000000 0.000000 0.000000
vn 1.000000 0.000000 0.000000
vn 0.000000 0.000000 1.000000
vn 0.000000 -0.000000 1.000000
vn -1.000000 0.000000 0.000000
vn -1.000000 0.000000 0.000000
f 276//137 273//137 274//137
f 274//138 275//138 276//138
f 280//139 278//139 277//139
f 278//140 280//140 279//140
f 281//141 283//141 282//141
f 281//142 284//142 283//142
f 285//143 287//143 286//143
f 285//144 288//144 287//144
f 289//145 291//145 290//145
f 289//146 292//146 291//146
f 293//147 295//147 294//147
f 293//148 296//148 295//148
