# Generated by svg_to_godot3d
mtllib geometry.mtl
s off
o Ceiling_001_t_east_vertical_ceiling_01
usemtl Ceiling
v -7.030000 -7.000000 -4.890000
v -6.700000 -7.000000 -4.890000
v -6.700000 -7.000000 11.870000
v -7.030000 -7.000000 11.870000
v -7.030000 -6.800000 -4.890000
v -6.700000 -6.800000 -4.890000
v -6.700000 -6.800000 11.870000
v -7.030000 -6.800000 11.870000
v -6.700000 -7.000000 -4.890000
v -2.300000 -7.000000 -4.890000
v -2.300000 -7.000000 5.100000
v -6.700000 -7.000000 5.100000
v -6.700000 -6.800000 -4.890000
v -2.300000 -6.800000 -4.890000
v -2.300000 -6.800000 5.100000
v -6.700000 -6.800000 5.100000
v -6.700000 -7.000000 10.000000
v -2.300000 -7.000000 10.000000
v -2.300000 -7.000000 11.870000
v -6.700000 -7.000000 11.870000
v -6.700000 -6.800000 10.000000
v -2.300000 -6.800000 10.000000
v -2.300000 -6.800000 11.870000
v -6.700000 -6.800000 11.870000
v -2.300000 -7.000000 -4.890000
v -0.000000 -7.000000 -4.890000
v -0.000000 -7.000000 11.870000
v -2.300000 -7.000000 11.870000
v -2.300000 -6.800000 -4.890000
v -0.000000 -6.800000 -4.890000
v -0.000000 -6.800000 11.870000
v -2.300000 -6.800000 11.870000
v -7.030000 -7.000000 -4.890000
v -6.700000 -7.000000 -4.890000
v -6.700000 -6.800000 -4.890000
v -7.030000 -6.800000 -4.890000
v -6.700000 -7.000000 5.100000
v -6.700000 -7.000000 5.100000
v -6.700000 -6.800000 5.100000
v -6.700000 -6.800000 5.100000
v -6.700000 -7.000000 5.100000
v -6.700000 -7.000000 10.000000
v -6.700000 -6.800000 10.000000
v -6.700000 -6.800000 5.100000
v -6.700000 -7.000000 10.000000
v -6.700000 -7.000000 10.000000
v -6.700000 -6.800000 10.000000
v -6.700000 -6.800000 10.000000
v -6.700000 -7.000000 11.870000
v -7.030000 -7.000000 11.870000
v -7.030000 -6.800000 11.870000
v -6.700000 -6.800000 11.870000
v -7.030000 -7.000000 11.870000
v -7.030000 -7.000000 -4.890000
v -7.030000 -6.800000 -4.890000
v -7.030000 -6.800000 11.870000
v -6.700000 -7.000000 -4.890000
v -2.300000 -7.000000 -4.890000
v -2.300000 -6.800000 -4.890000
v -6.700000 -6.800000 -4.890000
v -2.300000 -7.000000 5.100000
v -6.700000 -7.000000 5.100000
v -6.700000 -6.800000 5.100000
v -2.300000 -6.800000 5.100000
v -6.700000 -7.000000 10.000000
v -2.300000 -7.000000 10.000000
v -2.300000 -6.800000 10.000000
v -6.700000 -6.800000 10.000000
v -2.300000 -7.000000 11.870000
v -6.700000 -7.000000 11.870000
v -6.700000 -6.800000 11.870000
v -2.300000 -6.800000 11.870000
v -2.300000 -7.000000 -4.890000
v -0.000000 -7.000000 -4.890000
v -0.000000 -6.800000 -4.890000
v -2.300000 -6.800000 -4.890000
v -0.000000 -7.000000 -4.890000
v -0.000000 -7.000000 11.870000
v -0.000000 -6.800000 11.870000
v -0.000000 -6.800000 -4.890000
v -0.000000 -7.000000 11.870000
v -2.300000 -7.000000 11.870000
v -2.300000 -6.800000 11.870000
v -0.000000 -6.800000 11.870000
v -2.300000 -7.000000 10.000000
v -2.300000 -7.000000 10.000000
v -2.300000 -6.800000 10.000000
v -2.300000 -6.800000 10.000000
v -2.300000 -7.000000 10.000000
v -2.300000 -7.000000 5.100000
v -2.300000 -6.800000 5.100000
v -2.300000 -6.800000 10.000000
v -2.300000 -7.000000 5.100000
v -2.300000 -7.000000 5.100000
v -2.300000 -6.800000 5.100000
v -2.300000 -6.800000 5.100000
vn 0.000000 -1.000000 0.000000
vn 0.000000 -1.000000 0.000000
vn 0.000000 1.000000 0.000000
vn 0.000000 1.000000 -0.000000
vn 0.000000 -1.000000 0.000000
vn 0.000000 -1.000000 0.000000
vn 0.000000 1.000000 0.000000
vn 0.000000 1.000000 -0.000000
vn 0.000000 -1.000000 0.000000
vn 0.000000 -1.000000 0.000000
vn 0.000000 1.000000 0.000000
vn 0.000000 1.000000 -0.000000
vn 0.000000 -1.000000 0.000000
vn 0.000000 -1.000000 0.000000
vn 0.000000 1.000000 0.000000
vn 0.000000 1.000000 -0.000000
vn 0.000000 0.000000 -1.000000
vn 0.000000 0.000000 -1.000000
vn 0.000000 1.000000 0.000000
vn 0.000000 1.000000 0.000000
vn 1.000000 0.000000 0.000000
vn 1.000000 0.000000 0.000000
vn 0.000000 1.000000 0.000000
vn 0.000000 1.000000 0.000000
vn 0.000000 0.000000 1.000000
vn 0.000000 -0.000000 1.000000
vn -1.000000 0.000000 0.000000
vn -1.000000 0.000000 0.000000
vn 0.000000 0.000000 -1.000000
vn 0.000000 0.000000 -1.000000
vn 0.000000 0.000000 1.000000
vn 0.000000 -0.000000 1.000000
vn 0.000000 0.000000 -1.000000
vn 0.000000 0.000000 -1.000000
vn 0.000000 0.000000 1.000000
vn 0.000000 -0.000000 1.000000
vn 0.000000 0.000000 -1.000000
vn 0.000000 0.000000 -1.000000
vn 1.000000 0.000000 0.000000
vn 1.000000 0.000000 0.000000
vn 0.000000 0.000000 1.000000
vn 0.000000 -0.000000 1.000000
vn 0.000000 1.000000 0.000000
vn 0.000000 1.000000 0.000000
vn -1.000000 0.000000 0.000000
vn -1.000000 0.000000 0.000000
vn 0.000000 1.000000 0.000000
vn 0.000000 1.000000 0.000000
f 4//1 1//1 2//1
f 2//2 3//2 4//2
f 8//3 6//3 5//3
f 6//4 8//4 7//4
f 12//5 9//5 10//5
f 10//6 11//6 12//6
f 16//7 14//7 13//7
f 14//8 16//8 15//8
f 20//9 17//9 18//9
f 18//10 19//10 20//10
f 24//11 22//11 21//11
f 22//12 24//12 23//12
f 28//13 25//13 26//13
f 26//14 27//14 28//14
f 32//15 30//15 29//15
f 30//16 32//16 31//16
f 33//17 35//17 34//17
f 33//18 36//18 35//18
f 37//19 39//19 38//19
f 37//20 40//20 39//20
f 41//21 43//21 42//21
f 41//22 44//22 43//22
f 45//23 47//23 46//23
f 45//24 48//24 47//24
f 49//25 51//25 50//25
f 49//26 52//26 51//26
f 53//27 55//27 54//27
f 53//28 56//28 55//28
f 57//29 59//29 58//29
f 57//30 60//30 59//30
f 61//31 63//31 62//31
f 61//32 64//32 63//32
f 65//33 67//33 66//33
f 65//34 68//34 67//34
f 69//35 71//35 70//35
f 69//36 72//36 71//36
f 73//37 75//37 74//37
f 73//38 76//38 75//38
f 77//39 79//39 78//39
f 77//40 80//40 79//40
f 81//41 83//41 82//41
f 81//42 84//42 83//42
f 85//43 87//43 86//43
f 85//44 88//44 87//44
f 89//45 91//45 90//45
f 89//46 92//46 91//46
f 93//47 95//47 94//47
f 93//48 96//48 95//48
o Ceiling_002_t_east_vertical_ceiling_02
usemtl Ceiling
v -7.030000 -7.000000 11.870000
v -0.000000 -7.000000 11.870000
v -0.000000 -7.000000 19.600000
v -7.030000 -7.000000 19.600000
v -7.030000 -6.800000 11.870000
v -0.000000 -6.800000 11.870000
v -0.000000 -6.800000 19.600000
v -7.030000 -6.800000 19.600000
v -7.030000 -7.000000 11.870000
v -0.000000 -7.000000 11.870000
v -0.000000 -6.800000 11.870000
v -7.030000 -6.800000 11.870000
v -0.000000 -7.000000 11.870000
v -0.000000 -7.000000 19.600000
v -0.000000 -6.800000 19.600000
v -0.000000 -6.800000 11.870000
v -0.000000 -7.000000 19.600000
v -7.030000 -7.000000 19.600000
v -7.030000 -6.800000 19.600000
v -0.000000 -6.800000 19.600000
v -7.030000 -7.000000 19.600000
v -7.030000 -7.000000 11.870000
v -7.030000 -6.800000 11.870000
v -7.030000 -6.800000 19.600000
vn 0.000000 -1.000000 0.000000
vn 0.000000 -1.000000 0.000000
vn 0.000000 1.000000 0.000000
vn 0.000000 1.000000 -0.000000
vn 0.000000 0.000000 -1.000000
vn 0.000000 0.000000 -1.000000
vn 1.000000 0.000000 0.000000
vn 1.000000 0.000000 0.000000
vn 0.000000 0.000000 1.000000
vn 0.000000 -0.000000 1.000000
vn -1.000000 0.000000 0.000000
vn -1.000000 0.000000 0.000000
f 100//49 97//49 98//49
f 98//50 99//50 100//50
f 104//51 102//51 101//51
f 102//52 104//52 103//52
f 105//53 107//53 106//53
f 105//54 108//54 107//54
f 109//55 111//55 110//55
f 109//56 112//56 111//56
f 113//57 115//57 114//57
f 113//58 116//58 115//58
f 117//59 119//59 118//59
f 117//60 120//60 119//60
o Ceiling_003_t_east_vertical_ceiling_03
usemtl Ceiling
v 2.400000 -7.000000 -4.890000
v 20.953000 -7.000000 -4.890000
v 20.953000 -7.000000 7.685000
v 2.400000 -7.000000 7.685000
v 2.400000 -6.800000 -4.890000
v 20.953000 -6.800000 -4.890000
v 20.953000 -6.800000 7.685000
v 2.400000 -6.800000 7.685000
v 2.400000 -7.000000 -4.890000
v 20.953000 -7.000000 -4.890000
v 20.953000 -6.800000 -4.890000
v 2.400000 -6.800000 -4.890000
v 20.953000 -7.000000 -4.890000
v 20.953000 -7.000000 7.685000
v 20.953000 -6.800000 7.685000
v 20.953000 -6.800000 -4.890000
v 20.953000 -7.000000 7.685000
v 2.400000 -7.000000 7.685000
v 2.400000 -6.800000 7.685000
v 20.953000 -6.800000 7.685000
v 2.400000 -7.000000 7.685000
v 2.400000 -7.000000 -4.890000
v 2.400000 -6.800000 -4.890000
v 2.400000 -6.800000 7.685000
vn 0.000000 -1.000000 0.000000
vn 0.000000 -1.000000 0.000000
vn 0.000000 1.000000 0.000000
vn 0.000000 1.000000 -0.000000
vn 0.000000 0.000000 -1.000000
vn 0.000000 0.000000 -1.000000
vn 1.000000 0.000000 0.000000
vn 1.000000 0.000000 0.000000
vn 0.000000 0.000000 1.000000
vn 0.000000 -0.000000 1.000000
vn -1.000000 0.000000 0.000000
vn -1.000000 0.000000 0.000000
f 124//61 121//61 122//61
f 122//62 123//62 124//62
f 128//63 126//63 125//63
f 126//64 128//64 127//64
f 129//65 131//65 130//65
f 129//66 132//66 131//66
f 133//67 135//67 134//67
f 133//68 136//68 135//68
f 137//69 139//69 138//69
f 137//70 140//70 139//70
f 141//71 143//71 142//71
f 141//72 144//72 143//72
o Ceiling_004_t_east_vertical_ceiling_03
usemtl Ceiling
v 20.953000 -7.000000 -4.890000
v 21.103000 -7.000000 -4.890000
v 21.103000 -7.000000 7.685000
v 20.953000 -7.000000 7.685000
v 20.953000 -6.800000 -4.890000
v 21.103000 -6.800000 -4.890000
v 21.103000 -6.800000 7.685000
v 20.953000 -6.800000 7.685000
v 20.953000 -7.000000 -4.890000
v 21.103000 -7.000000 -4.890000
v 21.103000 -6.800000 -4.890000
v 20.953000 -6.800000 -4.890000
v 21.103000 -7.000000 -4.890000
v 21.103000 -7.000000 7.685000
v 21.103000 -6.800000 7.685000
v 21.103000 -6.800000 -4.890000
v 21.103000 -7.000000 7.685000
v 20.953000 -7.000000 7.685000
v 20.953000 -6.800000 7.685000
v 21.103000 -6.800000 7.685000
v 20.953000 -7.000000 7.685000
v 20.953000 -7.000000 -4.890000
v 20.953000 -6.800000 -4.890000
v 20.953000 -6.800000 7.685000
vn 0.000000 -1.000000 0.000000
vn 0.000000 -1.000000 0.000000
vn 0.000000 1.000000 0.000000
vn 0.000000 1.000000 -0.000000
vn 0.000000 0.000000 -1.000000
vn 0.000000 0.000000 -1.000000
vn 1.000000 0.000000 0.000000
vn 1.000000 0.000000 0.000000
vn 0.000000 0.000000 1.000000
vn 0.000000 -0.000000 1.000000
vn -1.000000 0.000000 0.000000
vn -1.000000 0.000000 0.000000
f 148//73 145//73 146//73
f 146//74 147//74 148//74
f 152//75 150//75 149//75
f 150//76 152//76 151//76
f 153//77 155//77 154//77
f 153//78 156//78 155//78
f 157//79 159//79 158//79
f 157//80 160//80 159//80
f 161//81 163//81 162//81
f 161//82 164//82 163//82
f 165//83 167//83 166//83
f 165//84 168//84 167//84
o Ceiling_005_t_east_vertical_ceiling_04
usemtl Ceiling
v 2.400000 -7.000000 7.685000
v 6.070000 -7.000000 7.685000
v 6.070000 -7.000000 19.600000
v 2.400000 -7.000000 19.600000
v 2.400000 -6.800000 7.685000
v 6.070000 -6.800000 7.685000
v 6.070000 -6.800000 19.600000
v 2.400000 -6.800000 19.600000
v 2.400000 -7.000000 7.685000
v 6.070000 -7.000000 7.685000
v 6.070000 -6.800000 7.685000
v 2.400000 -6.800000 7.685000
v 6.070000 -7.000000 7.685000
v 6.070000 -7.000000 19.600000
v 6.070000 -6.800000 19.600000
v 6.070000 -6.800000 7.685000
v 6.070000 -7.000000 19.600000
v 2.400000 -7.000000 19.600000
v 2.400000 -6.800000 19.600000
v 6.070000 -6.800000 19.600000
v 2.400000 -7.000000 19.600000
v 2.400000 -7.000000 7.685000
v 2.400000 -6.800000 7.685000
v 2.400000 -6.800000 19.600000
vn 0.000000 -1.000000 0.000000
vn 0.000000 -1.000000 0.000000
vn 0.000000 1.000000 0.000000
vn 0.000000 1.000000 -0.000000
vn 0.000000 0.000000 -1.000000
vn 0.000000 0.000000 -1.000000
vn 1.000000 0.000000 0.000000
vn 1.000000 0.000000 0.000000
vn 0.000000 0.000000 1.000000
vn 0.000000 -0.000000 1.000000
vn -1.000000 0.000000 0.000000
vn -1.000000 0.000000 0.000000
f 172//85 169//85 170//85
f 170//86 171//86 172//86
f 176//87 174//87 173//87
f 174//88 176//88 175//88
f 177//89 179//89 178//89
f 177//90 180//90 179//90
f 181//91 183//91 182//91
f 181//92 184//92 183//92
f 185//93 187//93 186//93
f 185//94 188//94 187//94
f 189//95 191//95 190//95
f 189//96 192//96 191//96
o Ceiling_006_t_east_vertical_ceiling_05
usemtl Ceiling
v 6.070000 -7.000000 7.685000
v 20.953000 -7.000000 7.685000
v 20.953000 -7.000000 19.600000
v 6.070000 -7.000000 19.600000
v 6.070000 -6.800000 7.685000
v 20.953000 -6.800000 7.685000
v 20.953000 -6.800000 19.600000
v 6.070000 -6.800000 19.600000
v 6.070000 -7.000000 7.685000
v 20.953000 -7.000000 7.685000
v 20.953000 -6.800000 7.685000
v 6.070000 -6.800000 7.685000
v 20.953000 -7.000000 7.685000
v 20.953000 -7.000000 19.600000
v 20.953000 -6.800000 19.600000
v 20.953000 -6.800000 7.685000
v 20.953000 -7.000000 19.600000
v 6.070000 -7.000000 19.600000
v 6.070000 -6.800000 19.600000
v 20.953000 -6.800000 19.600000
v 6.070000 -7.000000 19.600000
v 6.070000 -7.000000 7.685000
v 6.070000 -6.800000 7.685000
v 6.070000 -6.800000 19.600000
vn 0.000000 -1.000000 0.000000
vn 0.000000 -1.000000 0.000000
vn 0.000000 1.000000 0.000000
vn 0.000000 1.000000 -0.000000
vn 0.000000 0.000000 -1.000000
vn 0.000000 0.000000 -1.000000
vn 1.000000 0.000000 0.000000
vn 1.000000 0.000000 0.000000
vn 0.000000 0.000000 1.000000
vn 0.000000 -0.000000 1.000000
vn -1.000000 0.000000 0.000000
vn -1.000000 0.000000 0.000000
f 196//97 193//97 194//97
f 194//98 195//98 196//98
f 200//99 198//99 197//99
f 198//100 200//100 199//100
f 201//101 203//101 202//101
f 201//102 204//102 203//102
f 205//103 207//103 206//103
f 205//104 208//104 207//104
f 209//105 211//105 210//105
f 209//106 212//106 211//106
f 213//107 215//107 214//107
f 213//108 216//108 215//108
o Ceiling_007_t_east_vertical_ceiling_05
usemtl Ceiling
v 20.953000 -7.000000 7.685000
v 21.103000 -7.000000 7.685000
v 21.103000 -7.000000 15.580000
v 20.953000 -7.000000 15.580000
v 20.953000 -6.800000 7.685000
v 21.103000 -6.800000 7.685000
v 21.103000 -6.800000 15.580000
v 20.953000 -6.800000 15.580000
v 20.953000 -7.000000 7.685000
v 21.103000 -7.000000 7.685000
v 21.103000 -6.800000 7.685000
v 20.953000 -6.800000 7.685000
v 21.103000 -7.000000 7.685000
v 21.103000 -7.000000 15.580000
v 21.103000 -6.800000 15.580000
v 21.103000 -6.800000 7.685000
v 21.103000 -7.000000 15.580000
v 20.953000 -7.000000 15.580000
v 20.953000 -6.800000 15.580000
v 21.103000 -6.800000 15.580000
v 20.953000 -7.000000 15.580000
v 20.953000 -7.000000 7.685000
v 20.953000 -6.800000 7.685000
v 20.953000 -6.800000 15.580000
vn 0.000000 -1.000000 0.000000
vn 0.000000 -1.000000 0.000000
vn 0.000000 1.000000 0.000000
vn 0.000000 1.000000 -0.000000
vn 0.000000 0.000000 -1.000000
vn 0.000000 0.000000 -1.000000
vn 1.000000 0.000000 0.000000
vn 1.000000 0.000000 0.000000
vn 0.000000 0.000000 1.000000
vn 0.000000 -0.000000 1.000000
vn -1.000000 0.000000 0.000000
vn -1.000000 0.000000 0.000000
f 220//109 217//109 218//109
f 218//110 219//110 220//110
f 224//111 222//111 221//111
f 222//112 224//112 223//112
f 225//113 227//113 226//113
f 225//114 228//114 227//114
f 229//115 231//115 230//115
f 229//116 232//116 231//116
f 233//117 235//117 234//117
f 233//118 236//118 235//118
f 237//119 239//119 238//119
f 237//120 240//120 239//120
o Ceiling_008_t_east_vertical_ceiling_05
usemtl Ceiling
v 20.953000 -7.000000 15.580000
v 21.103000 -7.000000 15.580000
v 21.103000 -7.000000 19.600000
v 20.953000 -7.000000 19.600000
v 20.953000 -6.800000 15.580000
v 21.103000 -6.800000 15.580000
v 21.103000 -6.800000 19.600000
v 20.953000 -6.800000 19.600000
v 20.953000 -7.000000 15.580000
v 21.103000 -7.000000 15.580000
v 21.103000 -6.800000 15.580000
v 20.953000 -6.800000 15.580000
v 21.103000 -7.000000 15.580000
v 21.103000 -7.000000 19.600000
v 21.103000 -6.800000 19.600000
v 21.103000 -6.800000 15.580000
v 21.103000 -7.000000 19.600000
v 20.953000 -7.000000 19.600000
v 20.953000 -6.800000 19.600000
v 21.103000 -6.800000 19.600000
v 20.953000 -7.000000 19.600000
v 20.953000 -7.000000 15.580000
v 20.953000 -6.800000 15.580000
v 20.953000 -6.800000 19.600000
vn 0.000000 -1.000000 0.000000
vn 0.000000 -1.000000 0.000000
vn 0.000000 1.000000 0.000000
vn 0.000000 1.000000 -0.000000
vn 0.000000 0.000000 -1.000000
vn 0.000000 0.000000 -1.000000
vn 1.000000 0.000000 0.000000
vn 1.000000 0.000000 0.000000
vn 0.000000 0.000000 1.000000
vn 0.000000 -0.000000 1.000000
vn -1.000000 0.000000 0.000000
vn -1.000000 0.000000 0.000000
f 244//121 241//121 242//121
f 242//122 243//122 244//122
f 248//123 246//123 245//123
f 246//124 248//124 247//124
f 249//125 251//125 250//125
f 249//126 252//126 251//126
f 253//127 255//127 254//127
f 253//128 256//128 255//128
f 257//129 259//129 258//129
f 257//130 260//130 259//130
f 261//131 263//131 262//131
f 261//132 264//132 263//132
o Ceiling_009_t_east_vertical_ceiling_06
usemtl Ceiling
v 21.103000 -7.000000 7.685000
v 21.120000 -7.000000 7.685000
v 21.120000 -7.000000 15.580000
v 21.103000 -7.000000 15.580000
v 21.103000 -6.800000 7.685000
v 21.120000 -6.800000 7.685000
v 21.120000 -6.800000 15.580000
v 21.103000 -6.800000 15.580000
v 21.103000 -7.000000 7.685000
v 21.120000 -7.000000 7.685000
v 21.120000 -6.800000 7.685000
v 21.103000 -6.800000 7.685000
v 21.120000 -7.000000 7.685000
v 21.120000 -7.000000 15.580000
v 21.120000 -6.800000 15.580000
v 21.120000 -6.800000 7.685000
v 21.120000 -7.000000 15.580000
v 21.103000 -7.000000 15.580000
v 21.103000 -6.800000 15.580000
v 21.120000 -6.800000 15.580000
v 21.103000 -7.000000 15.580000
v 21.103000 -7.000000 7.685000
v 21.103000 -6.800000 7.685000
v 21.103000 -6.800000 15.580000
vn 0.000000 -1.000000 0.000000
vn 0.000000 -1.000000 0.000000
vn 0.000000 1.000000 0.000000
vn 0.000000 1.000000 -0.000000
vn 0.000000 0.000000 -1.000000
vn 0.000000 0.000000 -1.000000
vn 1.000000 0.000000 0.000000
vn 1.000000 0.000000 0.000000
vn 0.000000 0.000000 1.000000
vn 0.000000 -0.000000 1.000000
vn -1.000000 0.000000 0.000000
vn -1.000000 0.000000 0.000000
f 268//133 265//133 266//133
f 266//134 267//134 268//134
f 272//135 270//135 269//135
f 270//136 272//136 271//136
f 273//137 275//137 274//137
f 273//138 276//138 275//138
f 277//139 279//139 278//139
f 277//140 280//140 279//140
f 281//141 283//141 282//141
f 281//142 284//142 283//142
f 285//143 287//143 286//143
f 285//144 288//144 287//144
o Ceiling_010_t_east_vertical_ceiling_06
usemtl Ceiling
v 21.120000 -7.000000 7.685000
v 21.253000 -7.000000 7.685000
v 21.253000 -7.000000 7.700000
v 21.120000 -7.000000 7.700000
v 21.120000 -6.800000 7.685000
v 21.253000 -6.800000 7.685000
v 21.253000 -6.800000 7.700000
v 21.120000 -6.800000 7.700000
v 21.120000 -7.000000 7.685000
v 21.253000 -7.000000 7.685000
v 21.253000 -6.800000 7.685000
v 21.120000 -6.800000 7.685000
v 21.253000 -7.000000 7.685000
v 21.253000 -7.000000 7.700000
v 21.253000 -6.800000 7.700000
v 21.253000 -6.800000 7.685000
v 21.253000 -7.000000 7.700000
v 21.120000 -7.000000 7.700000
v 21.120000 -6.800000 7.700000
v 21.253000 -6.800000 7.700000
v 21.120000 -7.000000 7.700000
v 21.120000 -7.000000 7.685000
v 21.120000 -6.800000 7.685000
v 21.120000 -6.800000 7.700000
vn 0.000000 -1.000000 0.000000
vn 0.000000 -1.000000 0.000000
vn 0.000000 1.000000 0.000000
vn 0.000000 1.000000 -0.000000
vn 0.000000 0.000000 -1.000000
vn 0.000000 0.000000 -1.000000
vn 1.000000 0.000000 0.000000
vn 1.000000 0.000000 0.000000
vn 0.000000 0.000000 1.000000
vn 0.000000 -0.000000 1.000000
vn -1.000000 0.000000 0.000000
vn -1.000000 0.000000 0.000000
f 292//145 289//145 290//145
f 290//146 291//146 292//146
f 296//147 294//147 293//147
f 294//148 296//148 295//148
f 297//149 299//149 298//149
f 297//150 300//150 299//150
f 301//151 303//151 302//151
f 301//152 304//152 303//152
f 305//153 307//153 306//153
f 305//154 308//154 307//154
f 309//155 311//155 310//155
f 309//156 312//156 311//156
o Ceiling_011_t_east_vertical_ceiling_06
usemtl Ceiling
v 21.120000 -7.000000 15.550000
v 21.253000 -7.000000 15.550000
v 21.253000 -7.000000 15.580000
v 21.120000 -7.000000 15.580000
v 21.120000 -6.800000 15.550000
v 21.253000 -6.800000 15.550000
v 21.253000 -6.800000 15.580000
v 21.120000 -6.800000 15.580000
v 21.120000 -7.000000 15.550000
v 21.253000 -7.000000 15.550000
v 21.253000 -6.800000 15.550000
v 21.120000 -6.800000 15.550000
v 21.253000 -7.000000 15.550000
v 21.253000 -7.000000 15.580000
v 21.253000 -6.800000 15.580000
v 21.253000 -6.800000 15.550000
v 21.253000 -7.000000 15.580000
v 21.120000 -7.000000 15.580000
v 21.120000 -6.800000 15.580000
v 21.253000 -6.800000 15.580000
v 21.120000 -7.000000 15.580000
v 21.120000 -7.000000 15.550000
v 21.120000 -6.800000 15.550000
v 21.120000 -6.800000 15.580000
vn 0.000000 -1.000000 0.000000
vn 0.000000 -1.000000 0.000000
vn 0.000000 1.000000 0.000000
vn 0.000000 1.000000 -0.000000
vn 0.000000 0.000000 -1.000000
vn 0.000000 0.000000 -1.000000
vn 1.000000 0.000000 0.000000
vn 1.000000 0.000000 0.000000
vn 0.000000 0.000000 1.000000
vn 0.000000 -0.000000 1.000000
vn -1.000000 0.000000 0.000000
vn -1.000000 0.000000 0.000000
f 316//157 313//157 314//157
f 314//158 315//158 316//158
f 320//159 318//159 317//159
f 318//160 320//160 319//160
f 321//161 323//161 322//161
f 321//162 324//162 323//162
f 325//163 327//163 326//163
f 325//164 328//164 327//164
f 329//165 331//165 330//165
f 329//166 332//166 331//166
f 333//167 335//167 334//167
f 333//168 336//168 335//168
o Ceiling_012_t_east_vertical_ceiling_06
usemtl Ceiling
v 21.253000 -7.000000 7.685000
v 31.090000 -7.000000 7.685000
v 31.090000 -7.000000 7.700000
v 21.253000 -7.000000 7.700000
v 21.253000 -6.800000 7.685000
v 31.090000 -6.800000 7.685000
v 31.090000 -6.800000 7.700000
v 21.253000 -6.800000 7.700000
v 21.253000 -7.000000 7.685000
v 31.090000 -7.000000 7.685000
v 31.090000 -6.800000 7.685000
v 21.253000 -6.800000 7.685000
v 31.090000 -7.000000 7.685000
v 31.090000 -7.000000 7.700000
v 31.090000 -6.800000 7.700000
v 31.090000 -6.800000 7.685000
v 31.090000 -7.000000 7.700000
v 21.253000 -7.000000 7.700000
v 21.253000 -6.800000 7.700000
v 31.090000 -6.800000 7.700000
v 21.253000 -7.000000 7.700000
v 21.253000 -7.000000 7.685000
v 21.253000 -6.800000 7.685000
v 21.253000 -6.800000 7.700000
vn 0.000000 -1.000000 0.000000
vn 0.000000 -1.000000 0.000000
vn 0.000000 1.000000 0.000000
vn 0.000000 1.000000 -0.000000
vn 0.000000 0.000000 -1.000000
vn 0.000000 0.000000 -1.000000
vn 1.000000 0.000000 0.000000
vn 1.000000 0.000000 0.000000
vn 0.000000 0.000000 1.000000
vn 0.000000 -0.000000 1.000000
vn -1.000000 0.000000 0.000000
vn -1.000000 0.000000 0.000000
f 340//169 337//169 338//169
f 338//170 339//170 340//170
f 344//171 342//171 341//171
f 342//172 344//172 343//172
f 345//173 347//173 346//173
f 345//174 348//174 347//174
f 349//175 351//175 350//175
f 349//176 352//176 351//176
f 353//177 355//177 354//177
f 353//178 356//178 355//178
f 357//179 359//179 358//179
f 357//180 360//180 359//180
o Ceiling_013_t_east_vertical_ceiling_06
usemtl Ceiling
v 21.253000 -7.000000 15.550000
v 31.090000 -7.000000 15.550000
v 31.090000 -7.000000 15.580000
v 21.253000 -7.000000 15.580000
v 21.253000 -6.800000 15.550000
v 31.090000 -6.800000 15.550000
v 31.090000 -6.800000 15.580000
v 21.253000 -6.800000 15.580000
v 21.253000 -7.000000 15.550000
v 31.090000 -7.000000 15.550000
v 31.090000 -6.800000 15.550000
v 21.253000 -6.800000 15.550000
v 31.090000 -7.000000 15.550000
v 31.090000 -7.000000 15.580000
v 31.090000 -6.800000 15.580000
v 31.090000 -6.800000 15.550000
v 31.090000 -7.000000 15.580000
v 21.253000 -7.000000 15.580000
v 21.253000 -6.800000 15.580000
v 31.090000 -6.800000 15.580000
v 21.253000 -7.000000 15.580000
v 21.253000 -7.000000 15.550000
v 21.253000 -6.800000 15.550000
v 21.253000 -6.800000 15.580000
vn 0.000000 -1.000000 0.000000
vn 0.000000 -1.000000 0.000000
vn 0.000000 1.000000 0.000000
vn 0.000000 1.000000 -0.000000
vn 0.000000 0.000000 -1.000000
vn 0.000000 0.000000 -1.000000
vn 1.000000 0.000000 0.000000
vn 1.000000 0.000000 0.000000
vn 0.000000 0.000000 1.000000
vn 0.000000 -0.000000 1.000000
vn -1.000000 0.000000 0.000000
vn -1.000000 0.000000 0.000000
f 364//181 361//181 362//181
f 362//182 363//182 364//182
f 368//183 366//183 365//183
f 366//184 368//184 367//184
f 369//185 371//185 370//185
f 369//186 372//186 371//186
f 373//187 375//187 374//187
f 373//188 376//188 375//188
f 377//189 379//189 378//189
f 377//190 380//190 379//190
f 381//191 383//191 382//191
f 381//192 384//192 383//192
o Ceiling_014_t_east_vertical_ceiling_06
usemtl Ceiling
v 31.090000 -7.000000 7.685000
v 31.105000 -7.000000 7.685000
v 31.105000 -7.000000 15.580000
v 31.090000 -7.000000 15.580000
v 31.090000 -6.800000 7.685000
v 31.105000 -6.800000 7.685000
v 31.105000 -6.800000 15.580000
v 31.090000 -6.800000 15.580000
v 31.090000 -7.000000 7.685000
v 31.105000 -7.000000 7.685000
v 31.105000 -6.800000 7.685000
v 31.090000 -6.800000 7.685000
v 31.105000 -7.000000 7.685000
v 31.105000 -7.000000 15.580000
v 31.105000 -6.800000 15.580000
v 31.105000 -6.800000 7.685000
v 31.105000 -7.000000 15.580000
v 31.090000 -7.000000 15.580000
v 31.090000 -6.800000 15.580000
v 31.105000 -6.800000 15.580000
v 31.090000 -7.000000 15.580000
v 31.090000 -7.000000 7.685000
v 31.090000 -6.800000 7.685000
v 31.090000 -6.800000 15.580000
vn 0.000000 -1.000000 0.000000
vn 0.000000 -1.000000 0.000000
vn 0.000000 1.000000 0.000000
vn 0.000000 1.000000 -0.000000
vn 0.000000 0.000000 -1.000000
vn 0.000000 0.000000 -1.000000
vn 1.000000 0.000000 0.000000
vn 1.000000 0.000000 0.000000
vn 0.000000 0.000000 1.000000
vn 0.000000 -0.000000 1.000000
vn -1.000000 0.000000 0.000000
vn -1.000000 0.000000 0.000000
f 388//193 385//193 386//193
f 386//194 387//194 388//194
f 392//195 390//195 389//195
f 390//196 392//196 391//196
f 393//197 395//197 394//197
f 393//198 396//198 395//198
f 397//199 399//199 398//199
f 397//200 400//200 399//200
f 401//201 403//201 402//201
f 401//202 404//202 403//202
f 405//203 407//203 406//203
f 405//204 408//204 407//204
o Ceiling_015_t_east_vertical_ceiling_07
usemtl Ceiling
v 21.103000 -7.000000 15.580000
v 21.120000 -7.000000 15.580000
v 21.120000 -7.000000 19.600000
v 21.103000 -7.000000 19.600000
v 21.103000 -6.800000 15.580000
v 21.120000 -6.800000 15.580000
v 21.120000 -6.800000 19.600000
v 21.103000 -6.800000 19.600000
v 21.103000 -7.000000 15.580000
v 21.120000 -7.000000 15.580000
v 21.120000 -6.800000 15.580000
v 21.103000 -6.800000 15.580000
v 21.120000 -7.000000 15.580000
v 21.120000 -7.000000 19.600000
v 21.120000 -6.800000 19.600000
v 21.120000 -6.800000 15.580000
v 21.120000 -7.000000 19.600000
v 21.103000 -7.000000 19.600000
v 21.103000 -6.800000 19.600000
v 21.120000 -6.800000 19.600000
v 21.103000 -7.000000 19.600000
v 21.103000 -7.000000 15.580000
v 21.103000 -6.800000 15.580000
v 21.103000 -6.800000 19.600000
vn 0.000000 -1.000000 0.000000
vn 0.000000 -1.000000 0.000000
vn 0.000000 1.000000 0.000000
vn 0.000000 1.000000 -0.000000
vn 0.000000 0.000000 -1.000000
vn 0.000000 0.000000 -1.000000
vn 1.000000 0.000000 0.000000
vn 1.000000 0.000000 0.000000
vn 0.000000 0.000000 1.000000
vn 0.000000 -0.000000 1.000000
vn -1.000000 0.000000 0.000000
vn -1.000000 0.000000 0.000000
f 412//205 409//205 410//205
f 410//206 411//206 412//206
f 416//207 414//207 413//207
f 414//208 416//208 415//208
f 417//209 419//209 418//209
f 417//210 420//210 419//210
f 421//211 423//211 422//211
f 421//212 424//212 423//212
f 425//213 427//213 426//213
f 425//214 428//214 427//214
f 429//215 431//215 430//215
f 429//216 432//216 431//216
o Ceiling_016_t_east_vertical_ceiling_07
usemtl Ceiling
v 21.120000 -7.000000 15.580000
v 21.253000 -7.000000 15.580000
v 21.253000 -7.000000 19.600000
v 21.120000 -7.000000 19.600000
v 21.120000 -6.800000 15.580000
v 21.253000 -6.800000 15.580000
v 21.253000 -6.800000 19.600000
v 21.120000 -6.800000 19.600000
v 21.120000 -7.000000 15.580000
v 21.253000 -7.000000 15.580000
v 21.253000 -6.800000 15.580000
v 21.120000 -6.800000 15.580000
v 21.253000 -7.000000 15.580000
v 21.253000 -7.000000 19.600000
v 21.253000 -6.800000 19.600000
v 21.253000 -6.800000 15.580000
v 21.253000 -7.000000 19.600000
v 21.120000 -7.000000 19.600000
v 21.120000 -6.800000 19.600000
v 21.253000 -6.800000 19.600000
v 21.120000 -7.000000 19.600000
v 21.120000 -7.000000 15.580000
v 21.120000 -6.800000 15.580000
v 21.120000 -6.800000 19.600000
vn 0.000000 -1.000000 0.000000
vn 0.000000 -1.000000 0.000000
vn 0.000000 1.000000 0.000000
vn 0.000000 1.000000 -0.000000
vn 0.000000 0.000000 -1.000000
vn 0.000000 0.000000 -1.000000
vn 1.000000 0.000000 0.000000
vn 1.000000 0.000000 0.000000
vn 0.000000 0.000000 1.000000
vn 0.000000 -0.000000 1.000000
vn -1.000000 0.000000 0.000000
vn -1.000000 0.000000 0.000000
f 436//217 433//217 434//217
f 434//218 435//218 436//218
f 440//219 438//219 437//219
f 438//220 440//220 439//220
f 441//221 443//221 442//221
f 441//222 444//222 443//222
f 445//223 447//223 446//223
f 445//224 448//224 447//224
f 449//225 451//225 450//225
f 449//226 452//226 451//226
f 453//227 455//227 454//227
f 453//228 456//228 455//228
o Ceiling_017_t_east_vertical_ceiling_07
usemtl Ceiling
v 21.253000 -7.000000 15.580000
v 31.090000 -7.000000 15.580000
v 31.090000 -7.000000 19.600000
v 21.253000 -7.000000 19.600000
v 21.253000 -6.800000 15.580000
v 31.090000 -6.800000 15.580000
v 31.090000 -6.800000 19.600000
v 21.253000 -6.800000 19.600000
v 21.253000 -7.000000 15.580000
v 31.090000 -7.000000 15.580000
v 31.090000 -6.800000 15.580000
v 21.253000 -6.800000 15.580000
v 31.090000 -7.000000 15.580000
v 31.090000 -7.000000 19.600000
v 31.090000 -6.800000 19.600000
v 31.090000 -6.800000 15.580000
v 31.090000 -7.000000 19.600000
v 21.253000 -7.000000 19.600000
v 21.253000 -6.800000 19.600000
v 31.090000 -6.800000 19.600000
v 21.253000 -7.000000 19.600000
v 21.253000 -7.000000 15.580000
v 21.253000 -6.800000 15.580000
v 21.253000 -6.800000 19.600000
vn 0.000000 -1.000000 0.000000
vn 0.000000 -1.000000 0.000000
vn 0.000000 1.000000 0.000000
vn 0.000000 1.000000 -0.000000
vn 0.000000 0.000000 -1.000000
vn 0.000000 0.000000 -1.000000
vn 1.000000 0.000000 0.000000
vn 1.000000 0.000000 0.000000
vn 0.000000 0.000000 1.000000
vn 0.000000 -0.000000 1.000000
vn -1.000000 0.000000 0.000000
vn -1.000000 0.000000 0.000000
f 460//229 457//229 458//229
f 458//230 459//230 460//230
f 464//231 462//231 461//231
f 462//232 464//232 463//232
f 465//233 467//233 466//233
f 465//234 468//234 467//234
f 469//235 471//235 470//235
f 469//236 472//236 471//236
f 473//237 475//237 474//237
f 473//238 476//238 475//238
f 477//239 479//239 478//239
f 477//240 480//240 479//240
o Ceiling_018_t_east_vertical_ceiling_07
usemtl Ceiling
v 31.090000 -7.000000 15.580000
v 31.105000 -7.000000 15.580000
v 31.105000 -7.000000 19.600000
v 31.090000 -7.000000 19.600000
v 31.090000 -6.800000 15.580000
v 31.105000 -6.800000 15.580000
v 31.105000 -6.800000 19.600000
v 31.090000 -6.800000 19.600000
v 31.090000 -7.000000 15.580000
v 31.105000 -7.000000 15.580000
v 31.105000 -6.800000 15.580000
v 31.090000 -6.800000 15.580000
v 31.105000 -7.000000 15.580000
v 31.105000 -7.000000 19.600000
v 31.105000 -6.800000 19.600000
v 31.105000 -6.800000 15.580000
v 31.105000 -7.000000 19.600000
v 31.090000 -7.000000 19.600000
v 31.090000 -6.800000 19.600000
v 31.105000 -6.800000 19.600000
v 31.090000 -7.000000 19.600000
v 31.090000 -7.000000 15.580000
v 31.090000 -6.800000 15.580000
v 31.090000 -6.800000 19.600000
vn 0.000000 -1.000000 0.000000
vn 0.000000 -1.000000 0.000000
vn 0.000000 1.000000 0.000000
vn 0.000000 1.000000 -0.000000
vn 0.000000 0.000000 -1.000000
vn 0.000000 0.000000 -1.000000
vn 1.000000 0.000000 0.000000
vn 1.000000 0.000000 0.000000
vn 0.000000 0.000000 1.000000
vn 0.000000 -0.000000 1.000000
vn -1.000000 0.000000 0.000000
vn -1.000000 0.000000 0.000000
f 484//241 481//241 482//241
f 482//242 483//242 484//242
f 488//243 486//243 485//243
f 486//244 488//244 487//244
f 489//245 491//245 490//245
f 489//246 492//246 491//246
f 493//247 495//247 494//247
f 493//248 496//248 495//248
f 497//249 499//249 498//249
f 497//250 500//250 499//250
f 501//251 503//251 502//251
f 501//252 504//252 503//252
