# Generated by svg_to_godot3d
mtllib geometry.mtl
s off
o Ceiling_001_c_04dc20344c
usemtl Ceiling
v -102.400000 -1.000000 46.400000
v -72.000000 -1.000000 46.400000
v -72.000000 -1.000000 60.000000
v -102.400000 -1.000000 60.000000
v -102.400000 -0.800000 46.400000
v -72.000000 -0.800000 46.400000
v -72.000000 -0.800000 60.000000
v -102.400000 -0.800000 60.000000
v -102.400000 -1.000000 46.400000
v -72.000000 -1.000000 46.400000
v -72.000000 -0.800000 46.400000
v -102.400000 -0.800000 46.400000
v -72.000000 -1.000000 46.400000
v -72.000000 -1.000000 60.000000
v -72.000000 -0.800000 60.000000
v -72.000000 -0.800000 46.400000
v -72.000000 -1.000000 60.000000
v -102.400000 -1.000000 60.000000
v -102.400000 -0.800000 60.000000
v -72.000000 -0.800000 60.000000
v -102.400000 -1.000000 60.000000
v -102.400000 -1.000000 46.400000
v -102.400000 -0.800000 46.400000
v -102.400000 -0.800000 60.000000
vn 0.000000 -1.000000 0.000000
vn 0.000000 -1.000000 0.000000
vn 0.000000 1.000000 0.000000
vn 0.000000 1.000000 -0.000000
vn 0.000000 0.000000 -1.000000
vn 0.000000 0.000000 -1.000000
vn 1.000000 0.000000 0.000000
vn 1.000000 0.000000 0.000000
vn 0.000000 0.000000 1.000000
vn 0.000000 -0.000000 1.000000
vn -1.000000 0.000000 0.000000
vn -1.000000 0.000000 0.000000
f 4//1 1//1 2//1
f 2//2 3//2 4//2
f 8//3 6//3 5//3
f 6//4 8//4 7//4
f 9//5 11//5 10//5
f 9//6 12//6 11//6
f 13//7 15//7 14//7
f 13//8 16//8 15//8
f 17//9 19//9 18//9
f 17//10 20//10 19//10
f 21//11 23//11 22//11
f 21//12 24//12 23//12
o Ceiling_002_c_62870c5613
usemtl Ceiling
v -96.700000 -1.000000 43.000000
v -85.300000 -1.000000 43.000000
v -85.300000 -1.000000 46.400000
v -96.700000 -1.000000 46.400000
v -96.700000 -0.800000 43.000000
v -85.300000 -0.800000 43.000000
v -85.300000 -0.800000 46.400000
v -96.700000 -0.800000 46.400000
v -96.700000 -1.000000 43.000000
v -85.300000 -1.000000 43.000000
v -85.300000 -0.800000 43.000000
v -96.700000 -0.800000 43.000000
v -85.300000 -1.000000 43.000000
v -85.300000 -1.000000 46.400000
v -85.300000 -0.800000 46.400000
v -85.300000 -0.800000 43.000000
v -85.300000 -1.000000 46.400000
v -96.700000 -1.000000 46.400000
v -96.700000 -0.800000 46.400000
v -85.300000 -0.800000 46.400000
v -96.700000 -1.000000 46.400000
v -96.700000 -1.000000 43.000000
v -96.700000 -0.800000 43.000000
v -96.700000 -0.800000 46.400000
vn 0.000000 -1.000000 0.000000
vn 0.000000 -1.000000 0.000000
vn 0.000000 1.000000 0.000000
vn 0.000000 1.000000 -0.000000
vn 0.000000 0.000000 -1.000000
vn 0.000000 0.000000 -1.000000
vn 1.000000 0.000000 0.000000
vn 1.000000 0.000000 0.000000
vn 0.000000 0.000000 1.000000
vn 0.000000 -0.000000 1.000000
vn -1.000000 0.000000 0.000000
vn -1.000000 0.000000 0.000000
f 28//13 25//13 26//13
f 26//14 27//14 28//14
f 32//15 30//15 29//15
f 30//16 32//16 31//16
f 33//17 35//17 34//17
f 33//18 36//18 35//18
f 37//19 39//19 38//19
f 37//20 40//20 39//20
f 41//21 43//21 42//21
f 41//22 44//22 43//22
f 45//23 47//23 46//23
f 45//24 48//24 47//24
o Ceiling_003_c_48b6dfb10f
usemtl Ceiling
v -85.300000 -1.000000 43.000000
v -72.000000 -1.000000 43.000000
v -72.000000 -1.000000 46.400000
v -85.300000 -1.000000 46.400000
v -85.300000 -0.800000 43.000000
v -72.000000 -0.800000 43.000000
v -72.000000 -0.800000 46.400000
v -85.300000 -0.800000 46.400000
v -85.300000 -1.000000 43.000000
v -72.000000 -1.000000 43.000000
v -72.000000 -0.800000 43.000000
v -85.300000 -0.800000 43.000000
v -72.000000 -1.000000 43.000000
v -72.000000 -1.000000 46.400000
v -72.000000 -0.800000 46.400000
v -72.000000 -0.800000 43.000000
v -72.000000 -1.000000 46.400000
v -85.300000 -1.000000 46.400000
v -85.300000 -0.800000 46.400000
v -72.000000 -0.800000 46.400000
v -85.300000 -1.000000 46.400000
v -85.300000 -1.000000 43.000000
v -85.300000 -0.800000 43.000000
v -85.300000 -0.800000 46.400000
vn 0.000000 -1.000000 0.000000
vn 0.000000 -1.000000 0.000000
vn 0.000000 1.000000 0.000000
vn 0.000000 1.000000 -0.000000
vn 0.000000 0.000000 -1.000000
vn 0.000000 0.000000 -1.000000
vn 1.000000 0.000000 0.000000
vn 1.000000 0.000000 0.000000
vn 0.000000 0.000000 1.000000
vn 0.000000 -0.000000 1.000000
vn -1.000000 0.000000 0.000000
vn -1.000000 0.000000 0.000000
f 52//25 49//25 50//25
f 50//26 51//26 52//26
f 56//27 54//27 53//27
f 54//28 56//28 55//28
f 57//29 59//29 58//29
f 57//30 60//30 59//30
f 61//31 63//31 62//31
f 61//32 64//32 63//32
f 65//33 67//33 66//33
f 65//34 68//34 67//34
f 69//35 71//35 70//35
f 69//36 72//36 71//36
