# Generated by svg_to_godot3d
mtllib geometry.mtl
s off
o Wall_23_l_central_core_wall_07
usemtl Wall
v -1.857000 -3.900000 1.851000
v -1.857000 -3.900000 2.851000
v -1.857000 -2.600000 2.851000
v -1.857000 -2.600000 1.851000
v -2.157000 -3.900000 1.851000
v -2.157000 -3.900000 2.851000
v -2.157000 -2.600000 2.851000
v -2.157000 -2.600000 1.851000
vn 1.000000 0.000000 0.000000
vn 1.000000 0.000000 0.000000
vn -1.000000 0.000000 0.000000
vn -1.000000 0.000000 0.000000
vn 0.000000 -1.000000 0.000000
vn 0.000000 -1.000000 0.000000
vn 0.000000 1.000000 0.000000
vn 0.000000 1.000000 -0.000000
vn 0.000000 0.000000 -1.000000
vn 0.000000 0.000000 -1.000000
vn 0.000000 -0.000000 1.000000
vn 0.000000 0.000000 1.000000
f 1//1 3//1 2//1
f 1//2 4//2 3//2
f 5//3 6//3 7//3
f 5//4 7//4 8//4
f 1//5 2//5 6//5
f 1//6 6//6 5//6
f 4//7 8//7 7//7
f 4//8 7//8 3//8
f 1//9 5//9 8//9
f 1//10 8//10 4//10
f 2//11 3//11 7//11
f 2//12 7//12 6//12
