# Generated by svg_to_godot3d
mtllib geometry.mtl
s off
o Ceiling_007_u_medbay_ceiling_sanitary_airlock
usemtl Ceiling
v -82.088000 3.400000 7.000000
v -80.000000 3.400000 7.000000
v -80.000000 3.400000 9.667000
v -82.088000 3.400000 9.667000
v -82.088000 3.600000 7.000000
v -80.000000 3.600000 7.000000
v -80.000000 3.600000 9.667000
v -82.088000 3.600000 9.667000
v -82.088000 3.400000 7.000000
v -80.000000 3.400000 7.000000
v -80.000000 3.600000 7.000000
v -82.088000 3.600000 7.000000
v -80.000000 3.400000 7.000000
v -80.000000 3.400000 9.667000
v -80.000000 3.600000 9.667000
v -80.000000 3.600000 7.000000
v -80.000000 3.400000 9.667000
v -82.088000 3.400000 9.667000
v -82.088000 3.600000 9.667000
v -80.000000 3.600000 9.667000
v -82.088000 3.400000 9.667000
v -82.088000 3.400000 7.000000
v -82.088000 3.600000 7.000000
v -82.088000 3.600000 9.667000
vn 0.000000 -1.000000 0.000000
vn 0.000000 -1.000000 0.000000
vn 0.000000 1.000000 0.000000
vn 0.000000 1.000000 -0.000000
vn 0.000000 0.000000 -1.000000
vn 0.000000 0.000000 -1.000000
vn 1.000000 0.000000 0.000000
vn 1.000000 0.000000 0.000000
vn 0.000000 0.000000 1.000000
vn 0.000000 -0.000000 1.000000
vn -1.000000 0.000000 0.000000
vn -1.000000 0.000000 0.000000
f 4//1 1//1 2//1
f 2//2 3//2 4//2
f 8//3 6//3 5//3
f 6//4 8//4 7//4
f 9//5 11//5 10//5
f 9//6 12//6 11//6
f 13//7 15//7 14//7
f 13//8 16//8 15//8
f 17//9 19//9 18//9
f 17//10 20//10 19//10
f 21//11 23//11 22//11
f 21//12 24//12 23//12
