# Generated by svg_to_godot3d
mtllib geometry.mtl
s off
o Wall_1_u_medbay_wall_west
usemtl Wall
v -93.850000 0.000000 7.150500
v -93.850000 0.000000 11.205000
v -93.850000 3.400000 11.205000
v -93.850000 3.400000 7.150500
v -94.150000 0.000000 7.150500
v -94.150000 0.000000 11.205000
v -94.150000 3.400000 11.205000
v -94.150000 3.400000 7.150500
vn 1.000000 0.000000 0.000000
vn 1.000000 0.000000 0.000000
vn -1.000000 0.000000 0.000000
vn -1.000000 0.000000 0.000000
vn 0.000000 -1.000000 0.000000
vn 0.000000 -1.000000 0.000000
vn 0.000000 1.000000 0.000000
vn 0.000000 1.000000 -0.000000
vn 0.000000 0.000000 -1.000000
vn 0.000000 0.000000 -1.000000
vn 0.000000 -0.000000 1.000000
vn 0.000000 0.000000 1.000000
f 1//1 3//1 2//1
f 1//2 4//2 3//2
f 5//3 6//3 7//3
f 5//4 7//4 8//4
f 1//5 2//5 6//5
f 1//6 6//6 5//6
f 4//7 8//7 7//7
f 4//8 7//8 3//8
f 1//9 5//9 8//9
f 1//10 8//10 4//10
f 2//11 3//11 7//11
f 2//12 7//12 6//12
o Wall_2_u_medbay_wall_west
usemtl Wall
v -93.850000 0.000000 11.205000
v -93.850000 0.000000 14.849500
v -93.850000 3.400000 14.849500
v -93.850000 3.400000 11.205000
v -94.150000 0.000000 11.205000
v -94.150000 0.000000 14.849500
v -94.150000 3.400000 14.849500
v -94.150000 3.400000 11.205000
vn 1.000000 0.000000 0.000000
vn 1.000000 0.000000 0.000000
vn -1.000000 0.000000 0.000000
vn -1.000000 0.000000 0.000000
vn 0.000000 -1.000000 0.000000
vn 0.000000 -1.000000 0.000000
vn 0.000000 1.000000 0.000000
vn 0.000000 1.000000 -0.000000
vn 0.000000 0.000000 -1.000000
vn 0.000000 0.000000 -1.000000
vn 0.000000 -0.000000 1.000000
vn 0.000000 0.000000 1.000000
f 9//13 11//13 10//13
f 9//14 12//14 11//14
f 13//15 14//15 15//15
f 13//16 15//16 16//16
f 9//17 10//17 14//17
f 9//18 14//18 13//18
f 12//19 16//19 15//19
f 12//20 15//20 11//20
f 9//21 13//21 16//21
f 9//22 16//22 12//22
f 10//23 11//23 15//23
f 10//24 15//24 14//24
o Wall_3_u_medbay_wall_east
usemtl Wall
v -79.850000 0.000000 6.850000
v -79.850000 0.000000 9.667000
v -79.850000 3.400000 9.667000
v -79.850000 3.400000 6.850000
v -80.150000 0.000000 6.850000
v -80.150000 0.000000 9.667000
v -80.150000 3.400000 9.667000
v -80.150000 3.400000 6.850000
vn 1.000000 0.000000 0.000000
vn 1.000000 0.000000 0.000000
vn -1.000000 0.000000 0.000000
vn -1.000000 0.000000 0.000000
vn 0.000000 -1.000000 0.000000
vn 0.000000 -1.000000 0.000000
vn 0.000000 1.000000 0.000000
vn 0.000000 1.000000 -0.000000
vn 0.000000 0.000000 -1.000000
vn 0.000000 0.000000 -1.000000
vn 0.000000 -0.000000 1.000000
vn 0.000000 0.000000 1.000000
f 17//25 19//25 18//25
f 17//26 20//26 19//26
f 21//27 22//27 23//27
f 21//28 23//28 24//28
f 17//29 18//29 22//29
f 17//30 22//30 21//30
f 20//31 24//31 23//31
f 20//32 23//32 19//32
f 17//33 21//33 24//33
f 17//34 24//34 20//34
f 18//35 19//35 23//35
f 18//36 23//36 22//36
o Wall_4_u_medbay_wall_east
usemtl Wall
v -79.850000 0.000000 9.667000
v -79.850000 0.000000 11.050000
v -79.850000 3.400000 11.050000
v -79.850000 3.400000 9.667000
v -80.150000 0.000000 9.667000
v -80.150000 0.000000 11.050000
v -80.150000 3.400000 11.050000
v -80.150000 3.400000 9.667000
vn 1.000000 0.000000 0.000000
vn 1.000000 0.000000 0.000000
vn -1.000000 0.000000 0.000000
vn -1.000000 0.000000 0.000000
vn 0.000000 -1.000000 0.000000
vn 0.000000 -1.000000 0.000000
vn 0.000000 1.000000 0.000000
vn 0.000000 1.000000 -0.000000
vn 0.000000 0.000000 -1.000000
vn 0.000000 0.000000 -1.000000
vn 0.000000 -0.000000 1.000000
vn 0.000000 0.000000 1.000000
f 25//37 27//37 26//37
f 25//38 28//38 27//38
f 29//39 30//39 31//39
f 29//40 31//40 32//40
f 25//41 26//41 30//41
f 25//42 30//42 29//42
f 28//43 32//43 31//43
f 28//44 31//44 27//44
f 25//45 29//45 32//45
f 25//46 32//46 28//46
f 26//47 27//47 31//47
f 26//48 31//48 30//48
o Wall_5_u_medbay_wall_east
usemtl Wall
v -79.850000 0.000000 12.250000
v -79.850000 0.000000 12.744000
v -79.850000 3.400000 12.744000
v -79.850000 3.400000 12.250000
v -80.150000 0.000000 12.250000
v -80.150000 0.000000 12.744000
v -80.150000 3.400000 12.744000
v -80.150000 3.400000 12.250000
vn 1.000000 0.000000 0.000000
vn 1.000000 0.000000 0.000000
vn -1.000000 0.000000 0.000000
vn -1.000000 0.000000 0.000000
vn 0.000000 -1.000000 0.000000
vn 0.000000 -1.000000 0.000000
vn 0.000000 1.000000 0.000000
vn 0.000000 1.000000 -0.000000
vn 0.000000 0.000000 -1.000000
vn 0.000000 0.000000 -1.000000
vn 0.000000 -0.000000 1.000000
vn 0.000000 0.000000 1.000000
f 33//49 35//49 34//49
f 33//50 36//50 35//50
f 37//51 38//51 39//51
f 37//52 39//52 40//52
f 33//53 34//53 38//53
f 33//54 38//54 37//54
f 36//55 40//55 39//55
f 36//56 39//56 35//56
f 33//57 37//57 40//57
f 33//58 40//58 36//58
f 34//59 35//59 39//59
f 34//60 39//60 38//60
o Wall_6_u_medbay_wall_east
usemtl Wall
v -79.850000 0.000000 12.744000
v -79.850000 0.000000 14.849500
v -79.850000 3.400000 14.849500
v -79.850000 3.400000 12.744000
v -80.150000 0.000000 12.744000
v -80.150000 0.000000 14.849500
v -80.150000 3.400000 14.849500
v -80.150000 3.400000 12.744000
vn 1.000000 0.000000 0.000000
vn 1.000000 0.000000 0.000000
vn -1.000000 0.000000 0.000000
vn -1.000000 0.000000 0.000000
vn 0.000000 -1.000000 0.000000
vn 0.000000 -1.000000 0.000000
vn 0.000000 1.000000 0.000000
vn 0.000000 1.000000 -0.000000
vn 0.000000 0.000000 -1.000000
vn 0.000000 0.000000 -1.000000
vn 0.000000 -0.000000 1.000000
vn 0.000000 0.000000 1.000000
f 41//61 43//61 42//61
f 41//62 44//62 43//62
f 45//63 46//63 47//63
f 45//64 47//64 48//64
f 41//65 42//65 46//65
f 41//66 46//66 45//66
f 44//67 48//67 47//67
f 44//68 47//68 43//68
f 41//69 45//69 48//69
f 41//70 48//70 44//70
f 42//71 43//71 47//71
f 42//72 47//72 46//72
o Wall_7_u_medbay_wall_east
usemtl Wall
v -79.850000 2.400000 11.050000
v -79.850000 2.400000 12.250000
v -79.850000 3.400000 12.250000
v -79.850000 3.400000 11.050000
v -80.150000 2.400000 11.050000
v -80.150000 2.400000 12.250000
v -80.150000 3.400000 12.250000
v -80.150000 3.400000 11.050000
vn 1.000000 0.000000 0.000000
vn 1.000000 0.000000 0.000000
vn -1.000000 0.000000 0.000000
vn -1.000000 0.000000 0.000000
vn 0.000000 -1.000000 0.000000
vn 0.000000 -1.000000 0.000000
vn 0.000000 1.000000 0.000000
vn 0.000000 1.000000 -0.000000
vn 0.000000 0.000000 -1.000000
vn 0.000000 0.000000 -1.000000
vn 0.000000 -0.000000 1.000000
vn 0.000000 0.000000 1.000000
f 49//73 51//73 50//73
f 49//74 52//74 51//74
f 53//75 54//75 55//75
f 53//76 55//76 56//76
f 49//77 50//77 54//77
f 49//78 54//78 53//78
f 52//79 56//79 55//79
f 52//80 55//80 51//80
f 49//81 53//81 56//81
f 49//82 56//82 52//82
f 50//83 51//83 55//83
f 50//84 55//84 54//84
o Wall_8_u_medbay_wall_north
usemtl Wall
v -94.150000 0.000000 6.850000
v -86.632000 0.000000 6.850000
v -86.632000 3.400000 6.850000
v -94.150000 3.400000 6.850000
v -94.150000 0.000000 7.150000
v -86.632000 0.000000 7.150000
v -86.632000 3.400000 7.150000
v -94.150000 3.400000 7.150000
vn 0.000000 0.000000 -1.000000
vn 0.000000 0.000000 -1.000000
vn 0.000000 0.000000 1.000000
vn 0.000000 0.000000 1.000000
vn 0.000000 -1.000000 0.000000
vn 0.000000 -1.000000 0.000000
vn 0.000000 1.000000 0.000000
vn 0.000000 1.000000 0.000000
vn -1.000000 0.000000 0.000000
vn -1.000000 0.000000 0.000000
vn 1.000000 0.000000 0.000000
vn 1.000000 0.000000 0.000000
f 57//85 59//85 58//85
f 57//86 60//86 59//86
f 61//87 62//87 63//87
f 61//88 63//88 64//88
f 57//89 58//89 62//89
f 57//90 62//90 61//90
f 60//91 64//91 63//91
f 60//92 63//92 59//92
f 57//93 61//93 64//93
f 57//94 64//94 60//94
f 58//95 59//95 63//95
f 58//96 63//96 62//96
o Wall_9_u_medbay_wall_north
usemtl Wall
v -86.632000 0.000000 6.850000
v -84.298000 0.000000 6.850000
v -84.298000 3.400000 6.850000
v -86.632000 3.400000 6.850000
v -86.632000 0.000000 7.150000
v -84.298000 0.000000 7.150000
v -84.298000 3.400000 7.150000
v -86.632000 3.400000 7.150000
vn 0.000000 0.000000 -1.000000
vn 0.000000 0.000000 -1.000000
vn 0.000000 0.000000 1.000000
vn 0.000000 0.000000 1.000000
vn 0.000000 -1.000000 0.000000
vn 0.000000 -1.000000 0.000000
vn 0.000000 1.000000 0.000000
vn 0.000000 1.000000 0.000000
vn -1.000000 0.000000 0.000000
vn -1.000000 0.000000 0.000000
vn 1.000000 0.000000 0.000000
vn 1.000000 0.000000 0.000000
f 65//97 67//97 66//97
f 65//98 68//98 67//98
f 69//99 70//99 71//99
f 69//100 71//100 72//100
f 65//101 66//101 70//101
f 65//102 70//102 69//102
f 68//103 72//103 71//103
f 68//104 71//104 67//104
f 65//105 69//105 72//105
f 65//106 72//106 68//106
f 66//107 67//107 71//107
f 66//108 71//108 70//108
o Wall_10_u_medbay_wall_north
usemtl Wall
v -84.298000 0.000000 6.850000
v -82.088000 0.000000 6.850000
v -82.088000 3.400000 6.850000
v -84.298000 3.400000 6.850000
v -84.298000 0.000000 7.150000
v -82.088000 0.000000 7.150000
v -82.088000 3.400000 7.150000
v -84.298000 3.400000 7.150000
vn 0.000000 0.000000 -1.000000
vn 0.000000 0.000000 -1.000000
vn 0.000000 0.000000 1.000000
vn 0.000000 0.000000 1.000000
vn 0.000000 -1.000000 0.000000
vn 0.000000 -1.000000 0.000000
vn 0.000000 1.000000 0.000000
vn 0.000000 1.000000 0.000000
vn -1.000000 0.000000 0.000000
vn -1.000000 0.000000 0.000000
vn 1.000000 0.000000 0.000000
vn 1.000000 0.000000 0.000000
f 73//109 75//109 74//109
f 73//110 76//110 75//110
f 77//111 78//111 79//111
f 77//112 79//112 80//112
f 73//113 74//113 78//113
f 73//114 78//114 77//114
f 76//115 80//115 79//115
f 76//116 79//116 75//116
f 73//117 77//117 80//117
f 73//118 80//118 76//118
f 74//119 75//119 79//119
f 74//120 79//120 78//120
o Wall_11_u_medbay_wall_north
usemtl Wall
v -82.088000 0.000000 6.850000
v -80.150500 0.000000 6.850000
v -80.150500 3.400000 6.850000
v -82.088000 3.400000 6.850000
v -82.088000 0.000000 7.150000
v -80.150500 0.000000 7.150000
v -80.150500 3.400000 7.150000
v -82.088000 3.400000 7.150000
vn 0.000000 0.000000 -1.000000
vn 0.000000 0.000000 -1.000000
vn 0.000000 0.000000 1.000000
vn 0.000000 0.000000 1.000000
vn 0.000000 -1.000000 0.000000
vn 0.000000 -1.000000 0.000000
vn 0.000000 1.000000 0.000000
vn 0.000000 1.000000 0.000000
vn -1.000000 0.000000 0.000000
vn -1.000000 0.000000 0.000000
vn 1.000000 0.000000 0.000000
vn 1.000000 0.000000 0.000000
f 81//121 83//121 82//121
f 81//122 84//122 83//122
f 85//123 86//123 87//123
f 85//124 87//124 88//124
f 81//125 82//125 86//125
f 81//126 86//126 85//126
f 84//127 88//127 87//127
f 84//128 87//128 83//128
f 81//129 85//129 88//129
f 81//130 88//130 84//130
f 82//131 83//131 87//131
f 82//132 87//132 86//132
o Wall_12_u_medbay_wall_south
usemtl Wall
v -94.150000 0.000000 14.850000
v -86.632000 0.000000 14.850000
v -86.632000 3.400000 14.850000
v -94.150000 3.400000 14.850000
v -94.150000 0.000000 15.150000
v -86.632000 0.000000 15.150000
v -86.632000 3.400000 15.150000
v -94.150000 3.400000 15.150000
vn 0.000000 0.000000 -1.000000
vn 0.000000 0.000000 -1.000000
vn 0.000000 0.000000 1.000000
vn 0.000000 0.000000 1.000000
vn 0.000000 -1.000000 0.000000
vn 0.000000 -1.000000 0.000000
vn 0.000000 1.000000 0.000000
vn 0.000000 1.000000 0.000000
vn -1.000000 0.000000 0.000000
vn -1.000000 0.000000 0.000000
vn 1.000000 0.000000 0.000000
vn 1.000000 0.000000 0.000000
f 89//133 91//133 90//133
f 89//134 92//134 91//134
f 93//135 94//135 95//135
f 93//136 95//136 96//136
f 89//137 90//137 94//137
f 89//138 94//138 93//138
f 92//139 96//139 95//139
f 92//140 95//140 91//140
f 89//141 93//141 96//141
f 89//142 96//142 92//142
f 90//143 91//143 95//143
f 90//144 95//144 94//144
o Wall_13_u_medbay_wall_south
usemtl Wall
v -86.632000 0.000000 14.850000
v -84.298000 0.000000 14.850000
v -84.298000 3.400000 14.850000
v -86.632000 3.400000 14.850000
v -86.632000 0.000000 15.150000
v -84.298000 0.000000 15.150000
v -84.298000 3.400000 15.150000
v -86.632000 3.400000 15.150000
vn 0.000000 0.000000 -1.000000
vn 0.000000 0.000000 -1.000000
vn 0.000000 0.000000 1.000000
vn 0.000000 0.000000 1.000000
vn 0.000000 -1.000000 0.000000
vn 0.000000 -1.000000 0.000000
vn 0.000000 1.000000 0.000000
vn 0.000000 1.000000 0.000000
vn -1.000000 0.000000 0.000000
vn -1.000000 0.000000 0.000000
vn 1.000000 0.000000 0.000000
vn 1.000000 0.000000 0.000000
f 97//145 99//145 98//145
f 97//146 100//146 99//146
f 101//147 102//147 103//147
f 101//148 103//148 104//148
f 97//149 98//149 102//149
f 97//150 102//150 101//150
f 100//151 104//151 103//151
f 100//152 103//152 99//152
f 97//153 101//153 104//153
f 97//154 104//154 100//154
f 98//155 99//155 103//155
f 98//156 103//156 102//156
o Wall_14_u_medbay_wall_south
usemtl Wall
v -84.298000 0.000000 14.850000
v -79.850000 0.000000 14.850000
v -79.850000 3.400000 14.850000
v -84.298000 3.400000 14.850000
v -84.298000 0.000000 15.150000
v -79.850000 0.000000 15.150000
v -79.850000 3.400000 15.150000
v -84.298000 3.400000 15.150000
vn 0.000000 0.000000 -1.000000
vn 0.000000 0.000000 -1.000000
vn 0.000000 0.000000 1.000000
vn 0.000000 0.000000 1.000000
vn 0.000000 -1.000000 0.000000
vn 0.000000 -1.000000 0.000000
vn 0.000000 1.000000 0.000000
vn 0.000000 1.000000 0.000000
vn -1.000000 0.000000 0.000000
vn -1.000000 0.000000 0.000000
vn 1.000000 0.000000 0.000000
vn 1.000000 0.000000 0.000000
f 105//157 107//157 106//157
f 105//158 108//158 107//158
f 109//159 110//159 111//159
f 109//160 111//160 112//160
f 105//161 106//161 110//161
f 105//162 110//162 109//162
f 108//163 112//163 111//163
f 108//164 111//164 107//164
f 105//165 109//165 112//165
f 105//166 112//166 108//166
f 106//167 107//167 111//167
f 106//168 111//168 110//168
o Wall_15_u_medbay_wall_west_corridor
usemtl Wall
v -86.482000 0.000000 7.150500
v -86.482000 0.000000 8.615000
v -86.482000 3.400000 8.615000
v -86.482000 3.400000 7.150500
v -86.782000 0.000000 7.150500
v -86.782000 0.000000 8.615000
v -86.782000 3.400000 8.615000
v -86.782000 3.400000 7.150500
vn 1.000000 0.000000 0.000000
vn 1.000000 0.000000 0.000000
vn -1.000000 0.000000 0.000000
vn -1.000000 0.000000 0.000000
vn 0.000000 -1.000000 0.000000
vn 0.000000 -1.000000 0.000000
vn 0.000000 1.000000 0.000000
vn 0.000000 1.000000 -0.000000
vn 0.000000 0.000000 -1.000000
vn 0.000000 0.000000 -1.000000
vn 0.000000 -0.000000 1.000000
vn 0.000000 0.000000 1.000000
f 113//169 115//169 114//169
f 113//170 116//170 115//170
f 117//171 118//171 119//171
f 117//172 119//172 120//172
f 113//173 114//173 118//173
f 113//174 118//174 117//174
f 116//175 120//175 119//175
f 116//176 119//176 115//176
f 113//177 117//177 120//177
f 113//178 120//178 116//178
f 114//179 115//179 119//179
f 114//180 119//180 118//180
o Wall_16_u_medbay_wall_west_corridor
usemtl Wall
v -86.482000 0.000000 9.815000
v -86.482000 0.000000 11.205000
v -86.482000 3.400000 11.205000
v -86.482000 3.400000 9.815000
v -86.782000 0.000000 9.815000
v -86.782000 0.000000 11.205000
v -86.782000 3.400000 11.205000
v -86.782000 3.400000 9.815000
vn 1.000000 0.000000 0.000000
vn 1.000000 0.000000 0.000000
vn -1.000000 0.000000 0.000000
vn -1.000000 0.000000 0.000000
vn 0.000000 -1.000000 0.000000
vn 0.000000 -1.000000 0.000000
vn 0.000000 1.000000 0.000000
vn 0.000000 1.000000 -0.000000
vn 0.000000 0.000000 -1.000000
vn 0.000000 0.000000 -1.000000
vn 0.000000 -0.000000 1.000000
vn 0.000000 0.000000 1.000000
f 121//181 123//181 122//181
f 121//182 124//182 123//182
f 125//183 126//183 127//183
f 125//184 127//184 128//184
f 121//185 122//185 126//185
f 121//186 126//186 125//186
f 124//187 128//187 127//187
f 124//188 127//188 123//188
f 121//189 125//189 128//189
f 121//190 128//190 124//190
f 122//191 123//191 127//191
f 122//192 127//192 126//192
o Wall_17_u_medbay_wall_west_corridor
usemtl Wall
v -86.482000 0.000000 11.205000
v -86.482000 0.000000 12.431000
v -86.482000 3.400000 12.431000
v -86.482000 3.400000 11.205000
v -86.782000 0.000000 11.205000
v -86.782000 0.000000 12.431000
v -86.782000 3.400000 12.431000
v -86.782000 3.400000 11.205000
vn 1.000000 0.000000 0.000000
vn 1.000000 0.000000 0.000000
vn -1.000000 0.000000 0.000000
vn -1.000000 0.000000 0.000000
vn 0.000000 -1.000000 0.000000
vn 0.000000 -1.000000 0.000000
vn 0.000000 1.000000 0.000000
vn 0.000000 1.000000 -0.000000
vn 0.000000 0.000000 -1.000000
vn 0.000000 0.000000 -1.000000
vn 0.000000 -0.000000 1.000000
vn 0.000000 0.000000 1.000000
f 129//193 131//193 130//193
f 129//194 132//194 131//194
f 133//195 134//195 135//195
f 133//196 135//196 136//196
f 129//197 130//197 134//197
f 129//198 134//198 133//198
f 132//199 136//199 135//199
f 132//200 135//200 131//200
f 129//201 133//201 136//201
f 129//202 136//202 132//202
f 130//203 131//203 135//203
f 130//204 135//204 134//204
o Wall_18_u_medbay_wall_west_corridor
usemtl Wall
v -86.482000 0.000000 13.631000
v -86.482000 0.000000 14.849500
v -86.482000 3.400000 14.849500
v -86.482000 3.400000 13.631000
v -86.782000 0.000000 13.631000
v -86.782000 0.000000 14.849500
v -86.782000 3.400000 14.849500
v -86.782000 3.400000 13.631000
vn 1.000000 0.000000 0.000000
vn 1.000000 0.000000 0.000000
vn -1.000000 0.000000 0.000000
vn -1.000000 0.000000 0.000000
vn 0.000000 -1.000000 0.000000
vn 0.000000 -1.000000 0.000000
vn 0.000000 1.000000 0.000000
vn 0.000000 1.000000 -0.000000
vn 0.000000 0.000000 -1.000000
vn 0.000000 0.000000 -1.000000
vn 0.000000 -0.000000 1.000000
vn 0.000000 0.000000 1.000000
f 137//205 139//205 138//205
f 137//206 140//206 139//206
f 141//207 142//207 143//207
f 141//208 143//208 144//208
f 137//209 138//209 142//209
f 137//210 142//210 141//210
f 140//211 144//211 143//211
f 140//212 143//212 139//212
f 137//213 141//213 144//213
f 137//214 144//214 140//214
f 138//215 139//215 143//215
f 138//216 143//216 142//216
o Wall_19_u_medbay_wall_west_corridor
usemtl Wall
v -86.482000 2.400000 8.615000
v -86.482000 2.400000 9.815000
v -86.482000 3.400000 9.815000
v -86.482000 3.400000 8.615000
v -86.782000 2.400000 8.615000
v -86.782000 2.400000 9.815000
v -86.782000 3.400000 9.815000
v -86.782000 3.400000 8.615000
vn 1.000000 0.000000 0.000000
vn 1.000000 0.000000 0.000000
vn -1.000000 0.000000 0.000000
vn -1.000000 0.000000 0.000000
vn 0.000000 -1.000000 0.000000
vn 0.000000 -1.000000 0.000000
vn 0.000000 1.000000 0.000000
vn 0.000000 1.000000 -0.000000
vn 0.000000 0.000000 -1.000000
vn 0.000000 0.000000 -1.000000
vn 0.000000 -0.000000 1.000000
vn 0.000000 0.000000 1.000000
f 145//217 147//217 146//217
f 145//218 148//218 147//218
f 149//219 150//219 151//219
f 149//220 151//220 152//220
f 145//221 146//221 150//221
f 145//222 150//222 149//222
f 148//223 152//223 151//223
f 148//224 151//224 147//224
f 145//225 149//225 152//225
f 145//226 152//226 148//226
f 146//227 147//227 151//227
f 146//228 151//228 150//228
o Wall_20_u_medbay_wall_west_corridor
usemtl Wall
v -86.482000 2.400000 12.431000
v -86.482000 2.400000 13.631000
v -86.482000 3.400000 13.631000
v -86.482000 3.400000 12.431000
v -86.782000 2.400000 12.431000
v -86.782000 2.400000 13.631000
v -86.782000 3.400000 13.631000
v -86.782000 3.400000 12.431000
vn 1.000000 0.000000 0.000000
vn 1.000000 0.000000 0.000000
vn -1.000000 0.000000 0.000000
vn -1.000000 0.000000 0.000000
vn 0.000000 -1.000000 0.000000
vn 0.000000 -1.000000 0.000000
vn 0.000000 1.000000 0.000000
vn 0.000000 1.000000 -0.000000
vn 0.000000 0.000000 -1.000000
vn 0.000000 0.000000 -1.000000
vn 0.000000 -0.000000 1.000000
vn 0.000000 0.000000 1.000000
f 153//229 155//229 154//229
f 153//230 156//230 155//230
f 157//231 158//231 159//231
f 157//232 159//232 160//232
f 153//233 154//233 158//233
f 153//234 158//234 157//234
f 156//235 160//235 159//235
f 156//236 159//236 155//236
f 153//237 157//237 160//237
f 153//238 160//238 156//238
f 154//239 155//239 159//239
f 154//240 159//240 158//240
o Wall_21_u_medbay_wall_east_corridor
usemtl Wall
v -84.148000 0.000000 7.150500
v -84.148000 0.000000 7.631000
v -84.148000 3.400000 7.631000
v -84.148000 3.400000 7.150500
v -84.448000 0.000000 7.150500
v -84.448000 0.000000 7.631000
v -84.448000 3.400000 7.631000
v -84.448000 3.400000 7.150500
vn 1.000000 0.000000 0.000000
vn 1.000000 0.000000 0.000000
vn -1.000000 0.000000 0.000000
vn -1.000000 0.000000 0.000000
vn 0.000000 -1.000000 0.000000
vn 0.000000 -1.000000 0.000000
vn 0.000000 1.000000 0.000000
vn 0.000000 1.000000 -0.000000
vn 0.000000 0.000000 -1.000000
vn 0.000000 0.000000 -1.000000
vn 0.000000 -0.000000 1.000000
vn 0.000000 0.000000 1.000000
f 161//241 163//241 162//241
f 161//242 164//242 163//242
f 165//243 166//243 167//243
f 165//244 167//244 168//244
f 161//245 162//245 166//245
f 161//246 166//246 165//246
f 164//247 168//247 167//247
f 164//248 167//248 163//248
f 161//249 165//249 168//249
f 161//250 168//250 164//250
f 162//251 163//251 167//251
f 162//252 167//252 166//252
o Wall_22_u_medbay_wall_east_corridor
usemtl Wall
v -84.148000 0.000000 8.831000
v -84.148000 0.000000 9.667000
v -84.148000 3.400000 9.667000
v -84.148000 3.400000 8.831000
v -84.448000 0.000000 8.831000
v -84.448000 0.000000 9.667000
v -84.448000 3.400000 9.667000
v -84.448000 3.400000 8.831000
vn 1.000000 0.000000 0.000000
vn 1.000000 0.000000 0.000000
vn -1.000000 0.000000 0.000000
vn -1.000000 0.000000 0.000000
vn 0.000000 -1.000000 0.000000
vn 0.000000 -1.000000 0.000000
vn 0.000000 1.000000 0.000000
vn 0.000000 1.000000 -0.000000
vn 0.000000 0.000000 -1.000000
vn 0.000000 0.000000 -1.000000
vn 0.000000 -0.000000 1.000000
vn 0.000000 0.000000 1.000000
f 169//253 171//253 170//253
f 169//254 172//254 171//254
f 173//255 174//255 175//255
f 173//256 175//256 176//256
f 169//257 170//257 174//257
f 169//258 174//258 173//258
f 172//259 176//259 175//259
f 172//260 175//260 171//260
f 169//261 173//261 176//261
f 169//262 176//262 172//262
f 170//263 171//263 175//263
f 170//264 175//264 174//264
o Wall_23_u_medbay_wall_east_corridor
usemtl Wall
v -84.148000 0.000000 9.667000
v -84.148000 0.000000 10.256000
v -84.148000 3.400000 10.256000
v -84.148000 3.400000 9.667000
v -84.448000 0.000000 9.667000
v -84.448000 0.000000 10.256000
v -84.448000 3.400000 10.256000
v -84.448000 3.400000 9.667000
vn 1.000000 0.000000 0.000000
vn 1.000000 0.000000 0.000000
vn -1.000000 0.000000 0.000000
vn -1.000000 0.000000 0.000000
vn 0.000000 -1.000000 0.000000
vn 0.000000 -1.000000 0.000000
vn 0.000000 1.000000 0.000000
vn 0.000000 1.000000 -0.000000
vn 0.000000 0.000000 -1.000000
vn 0.000000 0.000000 -1.000000
vn 0.000000 -0.000000 1.000000
vn 0.000000 0.000000 1.000000
f 177//265 179//265 178//265
f 177//266 180//266 179//266
f 181//267 182//267 183//267
f 181//268 183//268 184//268
f 177//269 178//269 182//269
f 177//270 182//270 181//270
f 180//271 184//271 183//271
f 180//272 183//272 179//272
f 177//273 181//273 184//273
f 177//274 184//274 180//274
f 178//275 179//275 183//275
f 178//276 183//276 182//276
o Wall_24_u_medbay_wall_east_corridor
usemtl Wall
v -84.148000 0.000000 11.456000
v -84.148000 0.000000 12.744000
v -84.148000 3.400000 12.744000
v -84.148000 3.400000 11.456000
v -84.448000 0.000000 11.456000
v -84.448000 0.000000 12.744000
v -84.448000 3.400000 12.744000
v -84.448000 3.400000 11.456000
vn 1.000000 0.000000 0.000000
vn 1.000000 0.000000 0.000000
vn -1.000000 0.000000 0.000000
vn -1.000000 0.000000 0.000000
vn 0.000000 -1.000000 0.000000
vn 0.000000 -1.000000 0.000000
vn 0.000000 1.000000 0.000000
vn 0.000000 1.000000 -0.000000
vn 0.000000 0.000000 -1.000000
vn 0.000000 0.000000 -1.000000
vn 0.000000 -0.000000 1.000000
vn 0.000000 0.000000 1.000000
f 185//277 187//277 186//277
f 185//278 188//278 187//278
f 189//279 190//279 191//279
f 189//280 191//280 192//280
f 185//281 186//281 190//281
f 185//282 190//282 189//282
f 188//283 192//283 191//283
f 188//284 191//284 187//284
f 185//285 189//285 192//285
f 185//286 192//286 188//286
f 186//287 187//287 191//287
f 186//288 191//288 190//288
o Wall_25_u_medbay_wall_east_corridor
usemtl Wall
v -84.148000 0.000000 12.744000
v -84.148000 0.000000 13.231000
v -84.148000 3.400000 13.231000
v -84.148000 3.400000 12.744000
v -84.448000 0.000000 12.744000
v -84.448000 0.000000 13.231000
v -84.448000 3.400000 13.231000
v -84.448000 3.400000 12.744000
vn 1.000000 0.000000 0.000000
vn 1.000000 0.000000 0.000000
vn -1.000000 0.000000 0.000000
vn -1.000000 0.000000 0.000000
vn 0.000000 -1.000000 0.000000
vn 0.000000 -1.000000 0.000000
vn 0.000000 1.000000 0.000000
vn 0.000000 1.000000 -0.000000
vn 0.000000 0.000000 -1.000000
vn 0.000000 0.000000 -1.000000
vn 0.000000 -0.000000 1.000000
vn 0.000000 0.000000 1.000000
f 193//289 195//289 194//289
f 193//290 196//290 195//290
f 197//291 198//291 199//291
f 197//292 199//292 200//292
f 193//293 194//293 198//293
f 193//294 198//294 197//294
f 196//295 200//295 199//295
f 196//296 199//296 195//296
f 193//297 197//297 200//297
f 193//298 200//298 196//298
f 194//299 195//299 199//299
f 194//300 199//300 198//300
o Wall_26_u_medbay_wall_east_corridor
usemtl Wall
v -84.148000 0.000000 14.431000
v -84.148000 0.000000 14.849500
v -84.148000 3.400000 14.849500
v -84.148000 3.400000 14.431000
v -84.448000 0.000000 14.431000
v -84.448000 0.000000 14.849500
v -84.448000 3.400000 14.849500
v -84.448000 3.400000 14.431000
vn 1.000000 0.000000 0.000000
vn 1.000000 0.000000 0.000000
vn -1.000000 0.000000 0.000000
vn -1.000000 0.000000 0.000000
vn 0.000000 -1.000000 0.000000
vn 0.000000 -1.000000 0.000000
vn 0.000000 1.000000 0.000000
vn 0.000000 1.000000 -0.000000
vn 0.000000 0.000000 -1.000000
vn 0.000000 0.000000 -1.000000
vn 0.000000 -0.000000 1.000000
vn 0.000000 0.000000 1.000000
f 201//301 203//301 202//301
f 201//302 204//302 203//302
f 205//303 206//303 207//303
f 205//304 207//304 208//304
f 201//305 202//305 206//305
f 201//306 206//306 205//306
f 204//307 208//307 207//307
f 204//308 207//308 203//308
f 201//309 205//309 208//309
f 201//310 208//310 204//310
f 202//311 203//311 207//311
f 202//312 207//312 206//312
o Wall_27_u_medbay_wall_east_corridor
usemtl Wall
v -84.148000 2.400000 7.631000
v -84.148000 2.400000 8.831000
v -84.148000 3.400000 8.831000
v -84.148000 3.400000 7.631000
v -84.448000 2.400000 7.631000
v -84.448000 2.400000 8.831000
v -84.448000 3.400000 8.831000
v -84.448000 3.400000 7.631000
vn 1.000000 0.000000 0.000000
vn 1.000000 0.000000 0.000000
vn -1.000000 0.000000 0.000000
vn -1.000000 0.000000 0.000000
vn 0.000000 -1.000000 0.000000
vn 0.000000 -1.000000 0.000000
vn 0.000000 1.000000 0.000000
vn 0.000000 1.000000 -0.000000
vn 0.000000 0.000000 -1.000000
vn 0.000000 0.000000 -1.000000
vn 0.000000 -0.000000 1.000000
vn 0.000000 0.000000 1.000000
f 209//313 211//313 210//313
f 209//314 212//314 211//314
f 213//315 214//315 215//315
f 213//316 215//316 216//316
f 209//317 210//317 214//317
f 209//318 214//318 213//318
f 212//319 216//319 215//319
f 212//320 215//320 211//320
f 209//321 213//321 216//321
f 209//322 216//322 212//322
f 210//323 211//323 215//323
f 210//324 215//324 214//324
o Wall_28_u_medbay_wall_east_corridor
usemtl Wall
v -84.148000 2.400000 10.256000
v -84.148000 2.400000 11.456000
v -84.148000 3.400000 11.456000
v -84.148000 3.400000 10.256000
v -84.448000 2.400000 10.256000
v -84.448000 2.400000 11.456000
v -84.448000 3.400000 11.456000
v -84.448000 3.400000 10.256000
vn 1.000000 0.000000 0.000000
vn 1.000000 0.000000 0.000000
vn -1.000000 0.000000 0.000000
vn -1.000000 0.000000 0.000000
vn 0.000000 -1.000000 0.000000
vn 0.000000 -1.000000 0.000000
vn 0.000000 1.000000 0.000000
vn 0.000000 1.000000 -0.000000
vn 0.000000 0.000000 -1.000000
vn 0.000000 0.000000 -1.000000
vn 0.000000 -0.000000 1.000000
vn 0.000000 0.000000 1.000000
f 217//325 219//325 218//325
f 217//326 220//326 219//326
f 221//327 222//327 223//327
f 221//328 223//328 224//328
f 217//329 218//329 222//329
f 217//330 222//330 221//330
f 220//331 224//331 223//331
f 220//332 223//332 219//332
f 217//333 221//333 224//333
f 217//334 224//334 220//334
f 218//335 219//335 223//335
f 218//336 223//336 222//336
o Wall_29_u_medbay_wall_east_corridor
usemtl Wall
v -84.148000 2.400000 13.231000
v -84.148000 2.400000 14.431000
v -84.148000 3.400000 14.431000
v -84.148000 3.400000 13.231000
v -84.448000 2.400000 13.231000
v -84.448000 2.400000 14.431000
v -84.448000 3.400000 14.431000
v -84.448000 3.400000 13.231000
vn 1.000000 0.000000 0.000000
vn 1.000000 0.000000 0.000000
vn -1.000000 0.000000 0.000000
vn -1.000000 0.000000 0.000000
vn 0.000000 -1.000000 0.000000
vn 0.000000 -1.000000 0.000000
vn 0.000000 1.000000 0.000000
vn 0.000000 1.000000 -0.000000
vn 0.000000 0.000000 -1.000000
vn 0.000000 0.000000 -1.000000
vn 0.000000 -0.000000 1.000000
vn 0.000000 0.000000 1.000000
f 225//337 227//337 226//337
f 225//338 228//338 227//338
f 229//339 230//339 231//339
f 229//340 231//340 232//340
f 225//341 226//341 230//341
f 225//342 230//342 229//342
f 228//343 232//343 231//343
f 228//344 231//344 227//344
f 225//345 229//345 232//345
f 225//346 232//346 228//346
f 226//347 227//347 231//347
f 226//348 231//348 230//348
o Wall_30_u_medbay_wall_procedure_observation
usemtl Wall
v -93.849500 0.000000 11.055000
v -86.782500 0.000000 11.055000
v -86.782500 3.400000 11.055000
v -93.849500 3.400000 11.055000
v -93.849500 0.000000 11.355000
v -86.782500 0.000000 11.355000
v -86.782500 3.400000 11.355000
v -93.849500 3.400000 11.355000
vn 0.000000 0.000000 -1.000000
vn 0.000000 0.000000 -1.000000
vn 0.000000 0.000000 1.000000
vn 0.000000 0.000000 1.000000
vn 0.000000 -1.000000 0.000000
vn 0.000000 -1.000000 0.000000
vn 0.000000 1.000000 0.000000
vn 0.000000 1.000000 0.000000
vn -1.000000 0.000000 0.000000
vn -1.000000 0.000000 0.000000
vn 1.000000 0.000000 0.000000
vn 1.000000 0.000000 0.000000
f 233//349 235//349 234//349
f 233//350 236//350 235//350
f 237//351 238//351 239//351
f 237//352 239//352 240//352
f 233//353 234//353 238//353
f 233//354 238//354 237//354
f 236//355 240//355 239//355
f 236//356 239//356 235//356
f 233//357 237//357 240//357
f 233//358 240//358 236//358
f 234//359 235//359 239//359
f 234//360 239//360 238//360
o Wall_31_u_medbay_wall_store_airlock
usemtl Wall
v -81.938000 0.000000 7.150500
v -81.938000 0.000000 9.516500
v -81.938000 3.400000 9.516500
v -81.938000 3.400000 7.150500
v -82.238000 0.000000 7.150500
v -82.238000 0.000000 9.516500
v -82.238000 3.400000 9.516500
v -82.238000 3.400000 7.150500
vn 1.000000 0.000000 0.000000
vn 1.000000 0.000000 0.000000
vn -1.000000 0.000000 0.000000
vn -1.000000 0.000000 0.000000
vn 0.000000 -1.000000 0.000000
vn 0.000000 -1.000000 0.000000
vn 0.000000 1.000000 0.000000
vn 0.000000 1.000000 -0.000000
vn 0.000000 0.000000 -1.000000
vn 0.000000 0.000000 -1.000000
vn 0.000000 -0.000000 1.000000
vn 0.000000 0.000000 1.000000
f 241//361 243//361 242//361
f 241//362 244//362 243//362
f 245//363 246//363 247//363
f 245//364 247//364 248//364
f 241//365 242//365 246//365
f 241//366 246//366 245//366
f 244//367 248//367 247//367
f 244//368 247//368 243//368
f 241//369 245//369 248//369
f 241//370 248//370 244//370
f 242//371 243//371 247//371
f 242//372 247//372 246//372
o Wall_32_u_medbay_wall_north_triage
usemtl Wall
v -84.147500 0.000000 9.517000
v -82.088000 0.000000 9.517000
v -82.088000 3.400000 9.517000
v -84.147500 3.400000 9.517000
v -84.147500 0.000000 9.817000
v -82.088000 0.000000 9.817000
v -82.088000 3.400000 9.817000
v -84.147500 3.400000 9.817000
vn 0.000000 0.000000 -1.000000
vn 0.000000 0.000000 -1.000000
vn 0.000000 0.000000 1.000000
vn 0.000000 0.000000 1.000000
vn 0.000000 -1.000000 0.000000
vn 0.000000 -1.000000 0.000000
vn 0.000000 1.000000 0.000000
vn 0.000000 1.000000 0.000000
vn -1.000000 0.000000 0.000000
vn -1.000000 0.000000 0.000000
vn 1.000000 0.000000 0.000000
vn 1.000000 0.000000 0.000000
f 249//373 251//373 250//373
f 249//374 252//374 251//374
f 253//375 254//375 255//375
f 253//376 255//376 256//376
f 249//377 250//377 254//377
f 249//378 254//378 253//378
f 252//379 256//379 255//379
f 252//380 255//380 251//380
f 249//381 253//381 256//381
f 249//382 256//382 252//382
f 250//383 251//383 255//383
f 250//384 255//384 254//384
o Wall_33_u_medbay_wall_north_triage
usemtl Wall
v -82.088000 0.000000 9.517000
v -81.632000 0.000000 9.517000
v -81.632000 3.400000 9.517000
v -82.088000 3.400000 9.517000
v -82.088000 0.000000 9.817000
v -81.632000 0.000000 9.817000
v -81.632000 3.400000 9.817000
v -82.088000 3.400000 9.817000
vn 0.000000 0.000000 -1.000000
vn 0.000000 0.000000 -1.000000
vn 0.000000 0.000000 1.000000
vn 0.000000 0.000000 1.000000
vn 0.000000 -1.000000 0.000000
vn 0.000000 -1.000000 0.000000
vn 0.000000 1.000000 0.000000
vn 0.000000 1.000000 0.000000
vn -1.000000 0.000000 0.000000
vn -1.000000 0.000000 0.000000
vn 1.000000 0.000000 0.000000
vn 1.000000 0.000000 0.000000
f 257//385 259//385 258//385
f 257//386 260//386 259//386
f 261//387 262//387 263//387
f 261//388 263//388 264//388
f 257//389 258//389 262//389
f 257//390 262//390 261//390
f 260//391 264//391 263//391
f 260//392 263//392 259//392
f 257//393 261//393 264//393
f 257//394 264//394 260//394
f 258//395 259//395 263//395
f 258//396 263//396 262//396
o Wall_34_u_medbay_wall_north_triage
usemtl Wall
v -80.432000 0.000000 9.517000
v -80.150500 0.000000 9.517000
v -80.150500 3.400000 9.517000
v -80.432000 3.400000 9.517000
v -80.432000 0.000000 9.817000
v -80.150500 0.000000 9.817000
v -80.150500 3.400000 9.817000
v -80.432000 3.400000 9.817000
vn 0.000000 0.000000 -1.000000
vn 0.000000 0.000000 -1.000000
vn 0.000000 0.000000 1.000000
vn 0.000000 0.000000 1.000000
vn 0.000000 -1.000000 0.000000
vn 0.000000 -1.000000 0.000000
vn 0.000000 1.000000 0.000000
vn 0.000000 1.000000 0.000000
vn -1.000000 0.000000 0.000000
vn -1.000000 0.000000 0.000000
vn 1.000000 0.000000 0.000000
vn 1.000000 0.000000 0.000000
f 265//397 267//397 266//397
f 265//398 268//398 267//398
f 269//399 270//399 271//399
f 269//400 271//400 272//400
f 265//401 266//401 270//401
f 265//402 270//402 269//402
f 268//403 272//403 271//403
f 268//404 271//404 267//404
f 265//405 269//405 272//405
f 265//406 272//406 268//406
f 266//407 267//407 271//407
f 266//408 271//408 270//408
o Wall_35_u_medbay_wall_north_triage
usemtl Wall
v -81.632000 2.400000 9.517000
v -80.432000 2.400000 9.517000
v -80.432000 3.400000 9.517000
v -81.632000 3.400000 9.517000
v -81.632000 2.400000 9.817000
v -80.432000 2.400000 9.817000
v -80.432000 3.400000 9.817000
v -81.632000 3.400000 9.817000
vn 0.000000 0.000000 -1.000000
vn 0.000000 0.000000 -1.000000
vn 0.000000 0.000000 1.000000
vn 0.000000 0.000000 1.000000
vn 0.000000 -1.000000 0.000000
vn 0.000000 -1.000000 0.000000
vn 0.000000 1.000000 0.000000
vn 0.000000 1.000000 0.000000
vn -1.000000 0.000000 0.000000
vn -1.000000 0.000000 0.000000
vn 1.000000 0.000000 0.000000
vn 1.000000 0.000000 0.000000
f 273//409 275//409 274//409
f 273//410 276//410 275//410
f 277//411 278//411 279//411
f 277//412 279//412 280//412
f 273//413 274//413 278//413
f 273//414 278//414 277//414
f 276//415 280//415 279//415
f 276//416 279//416 275//416
f 273//417 277//417 280//417
f 273//418 280//418 276//418
f 274//419 275//419 279//419
f 274//420 279//420 278//420
o Wall_36_u_medbay_wall_north_medical_post
usemtl Wall
v -84.147500 0.000000 12.594000
v -80.150500 0.000000 12.594000
v -80.150500 3.400000 12.594000
v -84.147500 3.400000 12.594000
v -84.147500 0.000000 12.894000
v -80.150500 0.000000 12.894000
v -80.150500 3.400000 12.894000
v -84.147500 3.400000 12.894000
vn 0.000000 0.000000 -1.000000
vn 0.000000 0.000000 -1.000000
vn 0.000000 0.000000 1.000000
vn 0.000000 0.000000 1.000000
vn 0.000000 -1.000000 0.000000
vn 0.000000 -1.000000 0.000000
vn 0.000000 1.000000 0.000000
vn 0.000000 1.000000 0.000000
vn -1.000000 0.000000 0.000000
vn -1.000000 0.000000 0.000000
vn 1.000000 0.000000 0.000000
vn 1.000000 0.000000 0.000000
f 281//421 283//421 282//421
f 281//422 284//422 283//422
f 285//423 286//423 287//423
f 285//424 287//424 288//424
f 281//425 282//425 286//425
f 281//426 286//426 285//426
f 284//427 288//427 287//427
f 284//428 287//428 283//428
f 281//429 285//429 288//429
f 281//430 288//430 284//430
f 282//431 283//431 287//431
f 282//432 287//432 286//432
