# Generated by svg_to_godot3d
mtllib geometry.mtl
s off
o Ceiling_001_c_cbb1bf191a
usemtl Ceiling
v -57.000000 3.400000 -13.000000
v -45.150000 3.400000 -13.000000
v -45.150000 3.400000 -6.000000
v -57.000000 3.400000 -6.000000
v -57.000000 3.600000 -13.000000
v -45.150000 3.600000 -13.000000
v -45.150000 3.600000 -6.000000
v -57.000000 3.600000 -6.000000
v -57.000000 3.400000 -13.000000
v -45.150000 3.400000 -13.000000
v -45.150000 3.600000 -13.000000
v -57.000000 3.600000 -13.000000
v -45.150000 3.400000 -13.000000
v -45.150000 3.400000 -6.000000
v -45.150000 3.600000 -6.000000
v -45.150000 3.600000 -13.000000
v -45.150000 3.400000 -6.000000
v -57.000000 3.400000 -6.000000
v -57.000000 3.600000 -6.000000
v -45.150000 3.600000 -6.000000
v -57.000000 3.400000 -6.000000
v -57.000000 3.400000 -13.000000
v -57.000000 3.600000 -13.000000
v -57.000000 3.600000 -6.000000
vn 0.000000 -1.000000 0.000000
vn 0.000000 -1.000000 0.000000
vn 0.000000 1.000000 0.000000
vn 0.000000 1.000000 -0.000000
vn 0.000000 0.000000 -1.000000
vn 0.000000 0.000000 -1.000000
vn 1.000000 0.000000 0.000000
vn 1.000000 0.000000 0.000000
vn 0.000000 0.000000 1.000000
vn 0.000000 -0.000000 1.000000
vn -1.000000 0.000000 0.000000
vn -1.000000 0.000000 0.000000
f 4//1 1//1 2//1
f 2//2 3//2 4//2
f 8//3 6//3 5//3
f 6//4 8//4 7//4
f 9//5 11//5 10//5
f 9//6 12//6 11//6
f 13//7 15//7 14//7
f 13//8 16//8 15//8
f 17//9 19//9 18//9
f 17//10 20//10 19//10
f 21//11 23//11 22//11
f 21//12 24//12 23//12
o Ceiling_002_c_cbb1bf191a
usemtl Ceiling
v -45.150000 3.400000 -13.000000
v -45.000000 3.400000 -13.000000
v -45.000000 3.400000 -8.520000
v -45.150000 3.400000 -8.520000
v -45.150000 3.600000 -13.000000
v -45.000000 3.600000 -13.000000
v -45.000000 3.600000 -8.520000
v -45.150000 3.600000 -8.520000
v -45.150000 3.400000 -13.000000
v -45.000000 3.400000 -13.000000
v -45.000000 3.600000 -13.000000
v -45.150000 3.600000 -13.000000
v -45.000000 3.400000 -13.000000
v -45.000000 3.400000 -8.520000
v -45.000000 3.600000 -8.520000
v -45.000000 3.600000 -13.000000
v -45.000000 3.400000 -8.520000
v -45.150000 3.400000 -8.520000
v -45.150000 3.600000 -8.520000
v -45.000000 3.600000 -8.520000
v -45.150000 3.400000 -8.520000
v -45.150000 3.400000 -13.000000
v -45.150000 3.600000 -13.000000
v -45.150000 3.600000 -8.520000
vn 0.000000 -1.000000 0.000000
vn 0.000000 -1.000000 0.000000
vn 0.000000 1.000000 0.000000
vn 0.000000 1.000000 -0.000000
vn 0.000000 0.000000 -1.000000
vn 0.000000 0.000000 -1.000000
vn 1.000000 0.000000 0.000000
vn 1.000000 0.000000 0.000000
vn 0.000000 0.000000 1.000000
vn 0.000000 -0.000000 1.000000
vn -1.000000 0.000000 0.000000
vn -1.000000 0.000000 0.000000
f 28//13 25//13 26//13
f 26//14 27//14 28//14
f 32//15 30//15 29//15
f 30//16 32//16 31//16
f 33//17 35//17 34//17
f 33//18 36//18 35//18
f 37//19 39//19 38//19
f 37//20 40//20 39//20
f 41//21 43//21 42//21
f 41//22 44//22 43//22
f 45//23 47//23 46//23
f 45//24 48//24 47//24
o Ceiling_003_c_cbb1bf191a
usemtl Ceiling
v -45.150000 3.400000 -8.520000
v -45.000000 3.400000 -8.520000
v -45.000000 3.400000 -6.000000
v -45.150000 3.400000 -6.000000
v -45.150000 3.600000 -8.520000
v -45.000000 3.600000 -8.520000
v -45.000000 3.600000 -6.000000
v -45.150000 3.600000 -6.000000
v -45.150000 3.400000 -8.520000
v -45.000000 3.400000 -8.520000
v -45.000000 3.600000 -8.520000
v -45.150000 3.600000 -8.520000
v -45.000000 3.400000 -8.520000
v -45.000000 3.400000 -6.000000
v -45.000000 3.600000 -6.000000
v -45.000000 3.600000 -8.520000
v -45.000000 3.400000 -6.000000
v -45.150000 3.400000 -6.000000
v -45.150000 3.600000 -6.000000
v -45.000000 3.600000 -6.000000
v -45.150000 3.400000 -6.000000
v -45.150000 3.400000 -8.520000
v -45.150000 3.600000 -8.520000
v -45.150000 3.600000 -6.000000
vn 0.000000 -1.000000 0.000000
vn 0.000000 -1.000000 0.000000
vn 0.000000 1.000000 0.000000
vn 0.000000 1.000000 -0.000000
vn 0.000000 0.000000 -1.000000
vn 0.000000 0.000000 -1.000000
vn 1.000000 0.000000 0.000000
vn 1.000000 0.000000 0.000000
vn 0.000000 0.000000 1.000000
vn 0.000000 -0.000000 1.000000
vn -1.000000 0.000000 0.000000
vn -1.000000 0.000000 0.000000
f 52//25 49//25 50//25
f 50//26 51//26 52//26
f 56//27 54//27 53//27
f 54//28 56//28 55//28
f 57//29 59//29 58//29
f 57//30 60//30 59//30
f 61//31 63//31 62//31
f 61//32 64//32 63//32
f 65//33 67//33 66//33
f 65//34 68//34 67//34
f 69//35 71//35 70//35
f 69//36 72//36 71//36
o Ceiling_004_c_fb82381e6d
usemtl Ceiling
v -45.000000 3.400000 -8.520000
v -44.850000 3.400000 -8.520000
v -44.850000 3.400000 -6.000000
v -45.000000 3.400000 -6.000000
v -45.000000 3.600000 -8.520000
v -44.850000 3.600000 -8.520000
v -44.850000 3.600000 -6.000000
v -45.000000 3.600000 -6.000000
v -45.000000 3.400000 -8.520000
v -44.850000 3.400000 -8.520000
v -44.850000 3.600000 -8.520000
v -45.000000 3.600000 -8.520000
v -44.850000 3.400000 -8.520000
v -44.850000 3.400000 -6.000000
v -44.850000 3.600000 -6.000000
v -44.850000 3.600000 -8.520000
v -44.850000 3.400000 -6.000000
v -45.000000 3.400000 -6.000000
v -45.000000 3.600000 -6.000000
v -44.850000 3.600000 -6.000000
v -45.000000 3.400000 -6.000000
v -45.000000 3.400000 -8.520000
v -45.000000 3.600000 -8.520000
v -45.000000 3.600000 -6.000000
vn 0.000000 -1.000000 0.000000
vn 0.000000 -1.000000 0.000000
vn 0.000000 1.000000 0.000000
vn 0.000000 1.000000 -0.000000
vn 0.000000 0.000000 -1.000000
vn 0.000000 0.000000 -1.000000
vn 1.000000 0.000000 0.000000
vn 1.000000 0.000000 0.000000
vn 0.000000 0.000000 1.000000
vn 0.000000 -0.000000 1.000000
vn -1.000000 0.000000 0.000000
vn -1.000000 0.000000 0.000000
f 76//37 73//37 74//37
f 74//38 75//38 76//38
f 80//39 78//39 77//39
f 78//40 80//40 79//40
f 81//41 83//41 82//41
f 81//42 84//42 83//42
f 85//43 87//43 86//43
f 85//44 88//44 87//44
f 89//45 91//45 90//45
f 89//46 92//46 91//46
f 93//47 95//47 94//47
f 93//48 96//48 95//48
o Ceiling_005_c_fb82381e6d
usemtl Ceiling
v -45.000000 3.400000 -6.000000
v -44.850000 3.400000 -6.000000
v -44.850000 3.400000 15.000000
v -45.000000 3.400000 15.000000
v -45.000000 3.600000 -6.000000
v -44.850000 3.600000 -6.000000
v -44.850000 3.600000 15.000000
v -45.000000 3.600000 15.000000
v -45.000000 3.400000 -6.000000
v -44.850000 3.400000 -6.000000
v -44.850000 3.600000 -6.000000
v -45.000000 3.600000 -6.000000
v -44.850000 3.400000 -6.000000
v -44.850000 3.400000 15.000000
v -44.850000 3.600000 15.000000
v -44.850000 3.600000 -6.000000
v -44.850000 3.400000 15.000000
v -45.000000 3.400000 15.000000
v -45.000000 3.600000 15.000000
v -44.850000 3.600000 15.000000
v -45.000000 3.400000 15.000000
v -45.000000 3.400000 -6.000000
v -45.000000 3.600000 -6.000000
v -45.000000 3.600000 15.000000
vn 0.000000 -1.000000 0.000000
vn 0.000000 -1.000000 0.000000
vn 0.000000 1.000000 0.000000
vn 0.000000 1.000000 -0.000000
vn 0.000000 0.000000 -1.000000
vn 0.000000 0.000000 -1.000000
vn 1.000000 0.000000 0.000000
vn 1.000000 0.000000 0.000000
vn 0.000000 0.000000 1.000000
vn 0.000000 -0.000000 1.000000
vn -1.000000 0.000000 0.000000
vn -1.000000 0.000000 0.000000
f 100//49 97//49 98//49
f 98//50 99//50 100//50
f 104//51 102//51 101//51
f 102//52 104//52 103//52
f 105//53 107//53 106//53
f 105//54 108//54 107//54
f 109//55 111//55 110//55
f 109//56 112//56 111//56
f 113//57 115//57 114//57
f 113//58 116//58 115//58
f 117//59 119//59 118//59
f 117//60 120//60 119//60
o Ceiling_006_c_fb82381e6d
usemtl Ceiling
v -44.850000 3.400000 -8.520000
v -42.150000 3.400000 -8.520000
v -42.150000 3.400000 15.000000
v -44.850000 3.400000 15.000000
v -44.850000 3.600000 -8.520000
v -42.150000 3.600000 -8.520000
v -42.150000 3.600000 15.000000
v -44.850000 3.600000 15.000000
v -44.850000 3.400000 -8.520000
v -42.150000 3.400000 -8.520000
v -42.150000 3.600000 -8.520000
v -44.850000 3.600000 -8.520000
v -42.150000 3.400000 -8.520000
v -42.150000 3.400000 15.000000
v -42.150000 3.600000 15.000000
v -42.150000 3.600000 -8.520000
v -42.150000 3.400000 15.000000
v -44.850000 3.400000 15.000000
v -44.850000 3.600000 15.000000
v -42.150000 3.600000 15.000000
v -44.850000 3.400000 15.000000
v -44.850000 3.400000 -8.520000
v -44.850000 3.600000 -8.520000
v -44.850000 3.600000 15.000000
vn 0.000000 -1.000000 0.000000
vn 0.000000 -1.000000 0.000000
vn 0.000000 1.000000 0.000000
vn 0.000000 1.000000 -0.000000
vn 0.000000 0.000000 -1.000000
vn 0.000000 0.000000 -1.000000
vn 1.000000 0.000000 0.000000
vn 1.000000 0.000000 0.000000
vn 0.000000 0.000000 1.000000
vn 0.000000 -0.000000 1.000000
vn -1.000000 0.000000 0.000000
vn -1.000000 0.000000 0.000000
f 124//61 121//61 122//61
f 122//62 123//62 124//62
f 128//63 126//63 125//63
f 126//64 128//64 127//64
f 129//65 131//65 130//65
f 129//66 132//66 131//66
f 133//67 135//67 134//67
f 133//68 136//68 135//68
f 137//69 139//69 138//69
f 137//70 140//70 139//70
f 141//71 143//71 142//71
f 141//72 144//72 143//72
o Ceiling_007_c_fb82381e6d
usemtl Ceiling
v -42.150000 3.400000 -8.520000
v -42.000000 3.400000 -8.520000
v -42.000000 3.400000 -2.480000
v -42.150000 3.400000 -2.480000
v -42.150000 3.600000 -8.520000
v -42.000000 3.600000 -8.520000
v -42.000000 3.600000 -2.480000
v -42.150000 3.600000 -2.480000
v -42.150000 3.400000 -8.520000
v -42.000000 3.400000 -8.520000
v -42.000000 3.600000 -8.520000
v -42.150000 3.600000 -8.520000
v -42.000000 3.400000 -8.520000
v -42.000000 3.400000 -2.480000
v -42.000000 3.600000 -2.480000
v -42.000000 3.600000 -8.520000
v -42.000000 3.400000 -2.480000
v -42.150000 3.400000 -2.480000
v -42.150000 3.600000 -2.480000
v -42.000000 3.600000 -2.480000
v -42.150000 3.400000 -2.480000
v -42.150000 3.400000 -8.520000
v -42.150000 3.600000 -8.520000
v -42.150000 3.600000 -2.480000
vn 0.000000 -1.000000 0.000000
vn 0.000000 -1.000000 0.000000
vn 0.000000 1.000000 0.000000
vn 0.000000 1.000000 -0.000000
vn 0.000000 0.000000 -1.000000
vn 0.000000 0.000000 -1.000000
vn 1.000000 0.000000 0.000000
vn 1.000000 0.000000 0.000000
vn 0.000000 0.000000 1.000000
vn 0.000000 -0.000000 1.000000
vn -1.000000 0.000000 0.000000
vn -1.000000 0.000000 0.000000
f 148//73 145//73 146//73
f 146//74 147//74 148//74
f 152//75 150//75 149//75
f 150//76 152//76 151//76
f 153//77 155//77 154//77
f 153//78 156//78 155//78
f 157//79 159//79 158//79
f 157//80 160//80 159//80
f 161//81 163//81 162//81
f 161//82 164//82 163//82
f 165//83 167//83 166//83
f 165//84 168//84 167//84
o Ceiling_008_c_fb82381e6d
usemtl Ceiling
v -42.150000 3.400000 -2.480000
v -42.000000 3.400000 -2.480000
v -42.000000 3.400000 5.040000
v -42.150000 3.400000 5.040000
v -42.150000 3.600000 -2.480000
v -42.000000 3.600000 -2.480000
v -42.000000 3.600000 5.040000
v -42.150000 3.600000 5.040000
v -42.150000 3.400000 -2.480000
v -42.000000 3.400000 -2.480000
v -42.000000 3.600000 -2.480000
v -42.150000 3.600000 -2.480000
v -42.000000 3.400000 -2.480000
v -42.000000 3.400000 5.040000
v -42.000000 3.600000 5.040000
v -42.000000 3.600000 -2.480000
v -42.000000 3.400000 5.040000
v -42.150000 3.400000 5.040000
v -42.150000 3.600000 5.040000
v -42.000000 3.600000 5.040000
v -42.150000 3.400000 5.040000
v -42.150000 3.400000 -2.480000
v -42.150000 3.600000 -2.480000
v -42.150000 3.600000 5.040000
vn 0.000000 -1.000000 0.000000
vn 0.000000 -1.000000 0.000000
vn 0.000000 1.000000 0.000000
vn 0.000000 1.000000 -0.000000
vn 0.000000 0.000000 -1.000000
vn 0.000000 0.000000 -1.000000
vn 1.000000 0.000000 0.000000
vn 1.000000 0.000000 0.000000
vn 0.000000 0.000000 1.000000
vn 0.000000 -0.000000 1.000000
vn -1.000000 0.000000 0.000000
vn -1.000000 0.000000 0.000000
f 172//85 169//85 170//85
f 170//86 171//86 172//86
f 176//87 174//87 173//87
f 174//88 176//88 175//88
f 177//89 179//89 178//89
f 177//90 180//90 179//90
f 181//91 183//91 182//91
f 181//92 184//92 183//92
f 185//93 187//93 186//93
f 185//94 188//94 187//94
f 189//95 191//95 190//95
f 189//96 192//96 191//96
o Ceiling_009_c_fb82381e6d
usemtl Ceiling
v -42.150000 3.400000 5.040000
v -42.000000 3.400000 5.040000
v -42.000000 3.400000 6.800000
v -42.150000 3.400000 6.800000
v -42.150000 3.600000 5.040000
v -42.000000 3.600000 5.040000
v -42.000000 3.600000 6.800000
v -42.150000 3.600000 6.800000
v -42.150000 3.400000 5.040000
v -42.000000 3.400000 5.040000
v -42.000000 3.600000 5.040000
v -42.150000 3.600000 5.040000
v -42.000000 3.400000 5.040000
v -42.000000 3.400000 6.800000
v -42.000000 3.600000 6.800000
v -42.000000 3.600000 5.040000
v -42.000000 3.400000 6.800000
v -42.150000 3.400000 6.800000
v -42.150000 3.600000 6.800000
v -42.000000 3.600000 6.800000
v -42.150000 3.400000 6.800000
v -42.150000 3.400000 5.040000
v -42.150000 3.600000 5.040000
v -42.150000 3.600000 6.800000
vn 0.000000 -1.000000 0.000000
vn 0.000000 -1.000000 0.000000
vn 0.000000 1.000000 0.000000
vn 0.000000 1.000000 -0.000000
vn 0.000000 0.000000 -1.000000
vn 0.000000 0.000000 -1.000000
vn 1.000000 0.000000 0.000000
vn 1.000000 0.000000 0.000000
vn 0.000000 0.000000 1.000000
vn 0.000000 -0.000000 1.000000
vn -1.000000 0.000000 0.000000
vn -1.000000 0.000000 0.000000
f 196//97 193//97 194//97
f 194//98 195//98 196//98
f 200//99 198//99 197//99
f 198//100 200//100 199//100
f 201//101 203//101 202//101
f 201//102 204//102 203//102
f 205//103 207//103 206//103
f 205//104 208//104 207//104
f 209//105 211//105 210//105
f 209//106 212//106 211//106
f 213//107 215//107 214//107
f 213//108 216//108 215//108
o Ceiling_010_c_fb82381e6d
usemtl Ceiling
v -42.150000 3.400000 6.800000
v -42.000000 3.400000 6.800000
v -42.000000 3.400000 13.000000
v -42.150000 3.400000 13.000000
v -42.150000 3.600000 6.800000
v -42.000000 3.600000 6.800000
v -42.000000 3.600000 13.000000
v -42.150000 3.600000 13.000000
v -42.150000 3.400000 6.800000
v -42.000000 3.400000 6.800000
v -42.000000 3.600000 6.800000
v -42.150000 3.600000 6.800000
v -42.000000 3.400000 6.800000
v -42.000000 3.400000 13.000000
v -42.000000 3.600000 13.000000
v -42.000000 3.600000 6.800000
v -42.000000 3.400000 13.000000
v -42.150000 3.400000 13.000000
v -42.150000 3.600000 13.000000
v -42.000000 3.600000 13.000000
v -42.150000 3.400000 13.000000
v -42.150000 3.400000 6.800000
v -42.150000 3.600000 6.800000
v -42.150000 3.600000 13.000000
vn 0.000000 -1.000000 0.000000
vn 0.000000 -1.000000 0.000000
vn 0.000000 1.000000 0.000000
vn 0.000000 1.000000 -0.000000
vn 0.000000 0.000000 -1.000000
vn 0.000000 0.000000 -1.000000
vn 1.000000 0.000000 0.000000
vn 1.000000 0.000000 0.000000
vn 0.000000 0.000000 1.000000
vn 0.000000 -0.000000 1.000000
vn -1.000000 0.000000 0.000000
vn -1.000000 0.000000 0.000000
f 220//109 217//109 218//109
f 218//110 219//110 220//110
f 224//111 222//111 221//111
f 222//112 224//112 223//112
f 225//113 227//113 226//113
f 225//114 228//114 227//114
f 229//115 231//115 230//115
f 229//116 232//116 231//116
f 233//117 235//117 234//117
f 233//118 236//118 235//118
f 237//119 239//119 238//119
f 237//120 240//120 239//120
o Ceiling_011_c_fb82381e6d
usemtl Ceiling
v -42.150000 3.400000 13.000000
v -42.000000 3.400000 13.000000
v -42.000000 3.400000 15.000000
v -42.150000 3.400000 15.000000
v -42.150000 3.600000 13.000000
v -42.000000 3.600000 13.000000
v -42.000000 3.600000 15.000000
v -42.150000 3.600000 15.000000
v -42.150000 3.400000 13.000000
v -42.000000 3.400000 13.000000
v -42.000000 3.600000 13.000000
v -42.150000 3.600000 13.000000
v -42.000000 3.400000 13.000000
v -42.000000 3.400000 15.000000
v -42.000000 3.600000 15.000000
v -42.000000 3.600000 13.000000
v -42.000000 3.400000 15.000000
v -42.150000 3.400000 15.000000
v -42.150000 3.600000 15.000000
v -42.000000 3.600000 15.000000
v -42.150000 3.400000 15.000000
v -42.150000 3.400000 13.000000
v -42.150000 3.600000 13.000000
v -42.150000 3.600000 15.000000
vn 0.000000 -1.000000 0.000000
vn 0.000000 -1.000000 0.000000
vn 0.000000 1.000000 0.000000
vn 0.000000 1.000000 -0.000000
vn 0.000000 0.000000 -1.000000
vn 0.000000 0.000000 -1.000000
vn 1.000000 0.000000 0.000000
vn 1.000000 0.000000 0.000000
vn 0.000000 0.000000 1.000000
vn 0.000000 -0.000000 1.000000
vn -1.000000 0.000000 0.000000
vn -1.000000 0.000000 0.000000
f 244//121 241//121 242//121
f 242//122 243//122 244//122
f 248//123 246//123 245//123
f 246//124 248//124 247//124
f 249//125 251//125 250//125
f 249//126 252//126 251//126
f 253//127 255//127 254//127
f 253//128 256//128 255//128
f 257//129 259//129 258//129
f 257//130 260//130 259//130
f 261//131 263//131 262//131
f 261//132 264//132 263//132
o Ceiling_012_c_66d4dfa390
usemtl Ceiling
v -42.000000 3.400000 -13.000000
v -41.850000 3.400000 -13.000000
v -41.850000 3.400000 -8.520000
v -42.000000 3.400000 -8.520000
v -42.000000 3.600000 -13.000000
v -41.850000 3.600000 -13.000000
v -41.850000 3.600000 -8.520000
v -42.000000 3.600000 -8.520000
v -42.000000 3.400000 -13.000000
v -41.850000 3.400000 -13.000000
v -41.850000 3.600000 -13.000000
v -42.000000 3.600000 -13.000000
v -41.850000 3.400000 -13.000000
v -41.850000 3.400000 -8.520000
v -41.850000 3.600000 -8.520000
v -41.850000 3.600000 -13.000000
v -41.850000 3.400000 -8.520000
v -42.000000 3.400000 -8.520000
v -42.000000 3.600000 -8.520000
v -41.850000 3.600000 -8.520000
v -42.000000 3.400000 -8.520000
v -42.000000 3.400000 -13.000000
v -42.000000 3.600000 -13.000000
v -42.000000 3.600000 -8.520000
vn 0.000000 -1.000000 0.000000
vn 0.000000 -1.000000 0.000000
vn 0.000000 1.000000 0.000000
vn 0.000000 1.000000 -0.000000
vn 0.000000 0.000000 -1.000000
vn 0.000000 0.000000 -1.000000
vn 1.000000 0.000000 0.000000
vn 1.000000 0.000000 0.000000
vn 0.000000 0.000000 1.000000
vn 0.000000 -0.000000 1.000000
vn -1.000000 0.000000 0.000000
vn -1.000000 0.000000 0.000000
f 268//133 265//133 266//133
f 266//134 267//134 268//134
f 272//135 270//135 269//135
f 270//136 272//136 271//136
f 273//137 275//137 274//137
f 273//138 276//138 275//138
f 277//139 279//139 278//139
f 277//140 280//140 279//140
f 281//141 283//141 282//141
f 281//142 284//142 283//142
f 285//143 287//143 286//143
f 285//144 288//144 287//144
o Ceiling_013_c_66d4dfa390
usemtl Ceiling
v -42.000000 3.400000 -8.520000
v -41.850000 3.400000 -8.520000
v -41.850000 3.400000 -2.480000
v -42.000000 3.400000 -2.480000
v -42.000000 3.600000 -8.520000
v -41.850000 3.600000 -8.520000
v -41.850000 3.600000 -2.480000
v -42.000000 3.600000 -2.480000
v -42.000000 3.400000 -8.520000
v -41.850000 3.400000 -8.520000
v -41.850000 3.600000 -8.520000
v -42.000000 3.600000 -8.520000
v -41.850000 3.400000 -8.520000
v -41.850000 3.400000 -2.480000
v -41.850000 3.600000 -2.480000
v -41.850000 3.600000 -8.520000
v -41.850000 3.400000 -2.480000
v -42.000000 3.400000 -2.480000
v -42.000000 3.600000 -2.480000
v -41.850000 3.600000 -2.480000
v -42.000000 3.400000 -2.480000
v -42.000000 3.400000 -8.520000
v -42.000000 3.600000 -8.520000
v -42.000000 3.600000 -2.480000
vn 0.000000 -1.000000 0.000000
vn 0.000000 -1.000000 0.000000
vn 0.000000 1.000000 0.000000
vn 0.000000 1.000000 -0.000000
vn 0.000000 0.000000 -1.000000
vn 0.000000 0.000000 -1.000000
vn 1.000000 0.000000 0.000000
vn 1.000000 0.000000 0.000000
vn 0.000000 0.000000 1.000000
vn 0.000000 -0.000000 1.000000
vn -1.000000 0.000000 0.000000
vn -1.000000 0.000000 0.000000
f 292//145 289//145 290//145
f 290//146 291//146 292//146
f 296//147 294//147 293//147
f 294//148 296//148 295//148
f 297//149 299//149 298//149
f 297//150 300//150 299//150
f 301//151 303//151 302//151
f 301//152 304//152 303//152
f 305//153 307//153 306//153
f 305//154 308//154 307//154
f 309//155 311//155 310//155
f 309//156 312//156 311//156
o Ceiling_014_c_66d4dfa390
usemtl Ceiling
v -41.850000 3.400000 -13.000000
v -33.000000 3.400000 -13.000000
v -33.000000 3.400000 -2.480000
v -41.850000 3.400000 -2.480000
v -41.850000 3.600000 -13.000000
v -33.000000 3.600000 -13.000000
v -33.000000 3.600000 -2.480000
v -41.850000 3.600000 -2.480000
v -41.850000 3.400000 -13.000000
v -33.000000 3.400000 -13.000000
v -33.000000 3.600000 -13.000000
v -41.850000 3.600000 -13.000000
v -33.000000 3.400000 -13.000000
v -33.000000 3.400000 -2.480000
v -33.000000 3.600000 -2.480000
v -33.000000 3.600000 -13.000000
v -33.000000 3.400000 -2.480000
v -41.850000 3.400000 -2.480000
v -41.850000 3.600000 -2.480000
v -33.000000 3.600000 -2.480000
v -41.850000 3.400000 -2.480000
v -41.850000 3.400000 -13.000000
v -41.850000 3.600000 -13.000000
v -41.850000 3.600000 -2.480000
vn 0.000000 -1.000000 0.000000
vn 0.000000 -1.000000 0.000000
vn 0.000000 1.000000 0.000000
vn 0.000000 1.000000 -0.000000
vn 0.000000 0.000000 -1.000000
vn 0.000000 0.000000 -1.000000
vn 1.000000 0.000000 0.000000
vn 1.000000 0.000000 0.000000
vn 0.000000 0.000000 1.000000
vn 0.000000 -0.000000 1.000000
vn -1.000000 0.000000 0.000000
vn -1.000000 0.000000 0.000000
f 316//157 313//157 314//157
f 314//158 315//158 316//158
f 320//159 318//159 317//159
f 318//160 320//160 319//160
f 321//161 323//161 322//161
f 321//162 324//162 323//162
f 325//163 327//163 326//163
f 325//164 328//164 327//164
f 329//165 331//165 330//165
f 329//166 332//166 331//166
f 333//167 335//167 334//167
f 333//168 336//168 335//168
o Ceiling_015_c_7fc94e06f6
usemtl Ceiling
v -42.000000 3.400000 -2.480000
v -41.850000 3.400000 -2.480000
v -41.850000 3.400000 5.040000
v -42.000000 3.400000 5.040000
v -42.000000 3.600000 -2.480000
v -41.850000 3.600000 -2.480000
v -41.850000 3.600000 5.040000
v -42.000000 3.600000 5.040000
v -42.000000 3.400000 -2.480000
v -41.850000 3.400000 -2.480000
v -41.850000 3.600000 -2.480000
v -42.000000 3.600000 -2.480000
v -41.850000 3.400000 -2.480000
v -41.850000 3.400000 5.040000
v -41.850000 3.600000 5.040000
v -41.850000 3.600000 -2.480000
v -41.850000 3.400000 5.040000
v -42.000000 3.400000 5.040000
v -42.000000 3.600000 5.040000
v -41.850000 3.600000 5.040000
v -42.000000 3.400000 5.040000
v -42.000000 3.400000 -2.480000
v -42.000000 3.600000 -2.480000
v -42.000000 3.600000 5.040000
vn 0.000000 -1.000000 0.000000
vn 0.000000 -1.000000 0.000000
vn 0.000000 1.000000 0.000000
vn 0.000000 1.000000 -0.000000
vn 0.000000 0.000000 -1.000000
vn 0.000000 0.000000 -1.000000
vn 1.000000 0.000000 0.000000
vn 1.000000 0.000000 0.000000
vn 0.000000 0.000000 1.000000
vn 0.000000 -0.000000 1.000000
vn -1.000000 0.000000 0.000000
vn -1.000000 0.000000 0.000000
f 340//169 337//169 338//169
f 338//170 339//170 340//170
f 344//171 342//171 341//171
f 342//172 344//172 343//172
f 345//173 347//173 346//173
f 345//174 348//174 347//174
f 349//175 351//175 350//175
f 349//176 352//176 351//176
f 353//177 355//177 354//177
f 353//178 356//178 355//178
f 357//179 359//179 358//179
f 357//180 360//180 359//180
o Ceiling_016_c_7fc94e06f6
usemtl Ceiling
v -41.850000 3.400000 -2.480000
v -37.550000 3.400000 -2.480000
v -37.550000 3.400000 5.040000
v -41.850000 3.400000 5.040000
v -41.850000 3.600000 -2.480000
v -37.550000 3.600000 -2.480000
v -37.550000 3.600000 5.040000
v -41.850000 3.600000 5.040000
v -41.850000 3.400000 -2.480000
v -37.550000 3.400000 -2.480000
v -37.550000 3.600000 -2.480000
v -41.850000 3.600000 -2.480000
v -37.550000 3.400000 -2.480000
v -37.550000 3.400000 5.040000
v -37.550000 3.600000 5.040000
v -37.550000 3.600000 -2.480000
v -37.550000 3.400000 5.040000
v -41.850000 3.400000 5.040000
v -41.850000 3.600000 5.040000
v -37.550000 3.600000 5.040000
v -41.850000 3.400000 5.040000
v -41.850000 3.400000 -2.480000
v -41.850000 3.600000 -2.480000
v -41.850000 3.600000 5.040000
vn 0.000000 -1.000000 0.000000
vn 0.000000 -1.000000 0.000000
vn 0.000000 1.000000 0.000000
vn 0.000000 1.000000 -0.000000
vn 0.000000 0.000000 -1.000000
vn 0.000000 0.000000 -1.000000
vn 1.000000 0.000000 0.000000
vn 1.000000 0.000000 0.000000
vn 0.000000 0.000000 1.000000
vn 0.000000 -0.000000 1.000000
vn -1.000000 0.000000 0.000000
vn -1.000000 0.000000 0.000000
f 364//181 361//181 362//181
f 362//182 363//182 364//182
f 368//183 366//183 365//183
f 366//184 368//184 367//184
f 369//185 371//185 370//185
f 369//186 372//186 371//186
f 373//187 375//187 374//187
f 373//188 376//188 375//188
f 377//189 379//189 378//189
f 377//190 380//190 379//190
f 381//191 383//191 382//191
f 381//192 384//192 383//192
o Ceiling_017_c_7fc94e06f6
usemtl Ceiling
v -37.550000 3.400000 -2.480000
v -37.400000 3.400000 -2.480000
v -37.400000 3.400000 5.040000
v -37.550000 3.400000 5.040000
v -37.550000 3.600000 -2.480000
v -37.400000 3.600000 -2.480000
v -37.400000 3.600000 5.040000
v -37.550000 3.600000 5.040000
v -37.550000 3.400000 -2.480000
v -37.400000 3.400000 -2.480000
v -37.400000 3.600000 -2.480000
v -37.550000 3.600000 -2.480000
v -37.400000 3.400000 -2.480000
v -37.400000 3.400000 5.040000
v -37.400000 3.600000 5.040000
v -37.400000 3.600000 -2.480000
v -37.400000 3.400000 5.040000
v -37.550000 3.400000 5.040000
v -37.550000 3.600000 5.040000
v -37.400000 3.600000 5.040000
v -37.550000 3.400000 5.040000
v -37.550000 3.400000 -2.480000
v -37.550000 3.600000 -2.480000
v -37.550000 3.600000 5.040000
vn 0.000000 -1.000000 0.000000
vn 0.000000 -1.000000 0.000000
vn 0.000000 1.000000 0.000000
vn 0.000000 1.000000 -0.000000
vn 0.000000 0.000000 -1.000000
vn 0.000000 0.000000 -1.000000
vn 1.000000 0.000000 0.000000
vn 1.000000 0.000000 0.000000
vn 0.000000 0.000000 1.000000
vn 0.000000 -0.000000 1.000000
vn -1.000000 0.000000 0.000000
vn -1.000000 0.000000 0.000000
f 388//193 385//193 386//193
f 386//194 387//194 388//194
f 392//195 390//195 389//195
f 390//196 392//196 391//196
f 393//197 395//197 394//197
f 393//198 396//198 395//198
f 397//199 399//199 398//199
f 397//200 400//200 399//200
f 401//201 403//201 402//201
f 401//202 404//202 403//202
f 405//203 407//203 406//203
f 405//204 408//204 407//204
o Ceiling_018_c_1494dff385
usemtl Ceiling
v -42.000000 3.400000 5.040000
v -41.850000 3.400000 5.040000
v -41.850000 3.400000 6.800000
v -42.000000 3.400000 6.800000
v -42.000000 3.600000 5.040000
v -41.850000 3.600000 5.040000
v -41.850000 3.600000 6.800000
v -42.000000 3.600000 6.800000
v -42.000000 3.400000 5.040000
v -41.850000 3.400000 5.040000
v -41.850000 3.600000 5.040000
v -42.000000 3.600000 5.040000
v -41.850000 3.400000 5.040000
v -41.850000 3.400000 6.800000
v -41.850000 3.600000 6.800000
v -41.850000 3.600000 5.040000
v -41.850000 3.400000 6.800000
v -42.000000 3.400000 6.800000
v -42.000000 3.600000 6.800000
v -41.850000 3.600000 6.800000
v -42.000000 3.400000 6.800000
v -42.000000 3.400000 5.040000
v -42.000000 3.600000 5.040000
v -42.000000 3.600000 6.800000
vn 0.000000 -1.000000 0.000000
vn 0.000000 -1.000000 0.000000
vn 0.000000 1.000000 0.000000
vn 0.000000 1.000000 -0.000000
vn 0.000000 0.000000 -1.000000
vn 0.000000 0.000000 -1.000000
vn 1.000000 0.000000 0.000000
vn 1.000000 0.000000 0.000000
vn 0.000000 0.000000 1.000000
vn 0.000000 -0.000000 1.000000
vn -1.000000 0.000000 0.000000
vn -1.000000 0.000000 0.000000
f 412//205 409//205 410//205
f 410//206 411//206 412//206
f 416//207 414//207 413//207
f 414//208 416//208 415//208
f 417//209 419//209 418//209
f 417//210 420//210 419//210
f 421//211 423//211 422//211
f 421//212 424//212 423//212
f 425//213 427//213 426//213
f 425//214 428//214 427//214
f 429//215 431//215 430//215
f 429//216 432//216 431//216
o Ceiling_019_c_1494dff385
usemtl Ceiling
v -41.850000 3.400000 5.040000
v -33.000000 3.400000 5.040000
v -33.000000 3.400000 6.800000
v -41.850000 3.400000 6.800000
v -41.850000 3.600000 5.040000
v -33.000000 3.600000 5.040000
v -33.000000 3.600000 6.800000
v -41.850000 3.600000 6.800000
v -41.850000 3.400000 5.040000
v -33.000000 3.400000 5.040000
v -33.000000 3.600000 5.040000
v -41.850000 3.600000 5.040000
v -33.000000 3.400000 5.040000
v -33.000000 3.400000 6.800000
v -33.000000 3.600000 6.800000
v -33.000000 3.600000 5.040000
v -33.000000 3.400000 6.800000
v -41.850000 3.400000 6.800000
v -41.850000 3.600000 6.800000
v -33.000000 3.600000 6.800000
v -41.850000 3.400000 6.800000
v -41.850000 3.400000 5.040000
v -41.850000 3.600000 5.040000
v -41.850000 3.600000 6.800000
vn 0.000000 -1.000000 0.000000
vn 0.000000 -1.000000 0.000000
vn 0.000000 1.000000 0.000000
vn 0.000000 1.000000 -0.000000
vn 0.000000 0.000000 -1.000000
vn 0.000000 0.000000 -1.000000
vn 1.000000 0.000000 0.000000
vn 1.000000 0.000000 0.000000
vn 0.000000 0.000000 1.000000
vn 0.000000 -0.000000 1.000000
vn -1.000000 0.000000 0.000000
vn -1.000000 0.000000 0.000000
f 436//217 433//217 434//217
f 434//218 435//218 436//218
f 440//219 438//219 437//219
f 438//220 440//220 439//220
f 441//221 443//221 442//221
f 441//222 444//222 443//222
f 445//223 447//223 446//223
f 445//224 448//224 447//224
f 449//225 451//225 450//225
f 449//226 452//226 451//226
f 453//227 455//227 454//227
f 453//228 456//228 455//228
o Ceiling_020_c_b1791beace
usemtl Ceiling
v -42.000000 3.400000 6.800000
v -41.850000 3.400000 6.800000
v -41.850000 3.400000 13.000000
v -42.000000 3.400000 13.000000
v -42.000000 3.600000 6.800000
v -41.850000 3.600000 6.800000
v -41.850000 3.600000 13.000000
v -42.000000 3.600000 13.000000
v -42.000000 3.400000 6.800000
v -41.850000 3.400000 6.800000
v -41.850000 3.600000 6.800000
v -42.000000 3.600000 6.800000
v -41.850000 3.400000 6.800000
v -41.850000 3.400000 13.000000
v -41.850000 3.600000 13.000000
v -41.850000 3.600000 6.800000
v -41.850000 3.400000 13.000000
v -42.000000 3.400000 13.000000
v -42.000000 3.600000 13.000000
v -41.850000 3.600000 13.000000
v -42.000000 3.400000 13.000000
v -42.000000 3.400000 6.800000
v -42.000000 3.600000 6.800000
v -42.000000 3.600000 13.000000
vn 0.000000 -1.000000 0.000000
vn 0.000000 -1.000000 0.000000
vn 0.000000 1.000000 0.000000
vn 0.000000 1.000000 -0.000000
vn 0.000000 0.000000 -1.000000
vn 0.000000 0.000000 -1.000000
vn 1.000000 0.000000 0.000000
vn 1.000000 0.000000 0.000000
vn 0.000000 0.000000 1.000000
vn 0.000000 -0.000000 1.000000
vn -1.000000 0.000000 0.000000
vn -1.000000 0.000000 0.000000
f 460//229 457//229 458//229
f 458//230 459//230 460//230
f 464//231 462//231 461//231
f 462//232 464//232 463//232
f 465//233 467//233 466//233
f 465//234 468//234 467//234
f 469//235 471//235 470//235
f 469//236 472//236 471//236
f 473//237 475//237 474//237
f 473//238 476//238 475//238
f 477//239 479//239 478//239
f 477//240 480//240 479//240
o Ceiling_021_c_b1791beace
usemtl Ceiling
v -41.850000 3.400000 6.800000
v -39.150000 3.400000 6.800000
v -39.150000 3.400000 13.000000
v -41.850000 3.400000 13.000000
v -41.850000 3.600000 6.800000
v -39.150000 3.600000 6.800000
v -39.150000 3.600000 13.000000
v -41.850000 3.600000 13.000000
v -41.850000 3.400000 6.800000
v -39.150000 3.400000 6.800000
v -39.150000 3.600000 6.800000
v -41.850000 3.600000 6.800000
v -39.150000 3.400000 6.800000
v -39.150000 3.400000 13.000000
v -39.150000 3.600000 13.000000
v -39.150000 3.600000 6.800000
v -39.150000 3.400000 13.000000
v -41.850000 3.400000 13.000000
v -41.850000 3.600000 13.000000
v -39.150000 3.600000 13.000000
v -41.850000 3.400000 13.000000
v -41.850000 3.400000 6.800000
v -41.850000 3.600000 6.800000
v -41.850000 3.600000 13.000000
vn 0.000000 -1.000000 0.000000
vn 0.000000 -1.000000 0.000000
vn 0.000000 1.000000 0.000000
vn 0.000000 1.000000 -0.000000
vn 0.000000 0.000000 -1.000000
vn 0.000000 0.000000 -1.000000
vn 1.000000 0.000000 0.000000
vn 1.000000 0.000000 0.000000
vn 0.000000 0.000000 1.000000
vn 0.000000 -0.000000 1.000000
vn -1.000000 0.000000 0.000000
vn -1.000000 0.000000 0.000000
f 484//241 481//241 482//241
f 482//242 483//242 484//242
f 488//243 486//243 485//243
f 486//244 488//244 487//244
f 489//245 491//245 490//245
f 489//246 492//246 491//246
f 493//247 495//247 494//247
f 493//248 496//248 495//248
f 497//249 499//249 498//249
f 497//250 500//250 499//250
f 501//251 503//251 502//251
f 501//252 504//252 503//252
o Ceiling_022_c_b1791beace
usemtl Ceiling
v -39.150000 3.400000 6.800000
v -39.000000 3.400000 6.800000
v -39.000000 3.400000 13.000000
v -39.150000 3.400000 13.000000
v -39.150000 3.600000 6.800000
v -39.000000 3.600000 6.800000
v -39.000000 3.600000 13.000000
v -39.150000 3.600000 13.000000
v -39.150000 3.400000 6.800000
v -39.000000 3.400000 6.800000
v -39.000000 3.600000 6.800000
v -39.150000 3.600000 6.800000
v -39.000000 3.400000 6.800000
v -39.000000 3.400000 13.000000
v -39.000000 3.600000 13.000000
v -39.000000 3.600000 6.800000
v -39.000000 3.400000 13.000000
v -39.150000 3.400000 13.000000
v -39.150000 3.600000 13.000000
v -39.000000 3.600000 13.000000
v -39.150000 3.400000 13.000000
v -39.150000 3.400000 6.800000
v -39.150000 3.600000 6.800000
v -39.150000 3.600000 13.000000
vn 0.000000 -1.000000 0.000000
vn 0.000000 -1.000000 0.000000
vn 0.000000 1.000000 0.000000
vn 0.000000 1.000000 -0.000000
vn 0.000000 0.000000 -1.000000
vn 0.000000 0.000000 -1.000000
vn 1.000000 0.000000 0.000000
vn 1.000000 0.000000 0.000000
vn 0.000000 0.000000 1.000000
vn 0.000000 -0.000000 1.000000
vn -1.000000 0.000000 0.000000
vn -1.000000 0.000000 0.000000
f 508//253 505//253 506//253
f 506//254 507//254 508//254
f 512//255 510//255 509//255
f 510//256 512//256 511//256
f 513//257 515//257 514//257
f 513//258 516//258 515//258
f 517//259 519//259 518//259
f 517//260 520//260 519//260
f 521//261 523//261 522//261
f 521//262 524//262 523//262
f 525//263 527//263 526//263
f 525//264 528//264 527//264
o Ceiling_023_c_86d5c1f1f3
usemtl Ceiling
v -39.000000 3.400000 6.800000
v -38.850000 3.400000 6.800000
v -38.850000 3.400000 13.000000
v -39.000000 3.400000 13.000000
v -39.000000 3.600000 6.800000
v -38.850000 3.600000 6.800000
v -38.850000 3.600000 13.000000
v -39.000000 3.600000 13.000000
v -39.000000 3.400000 6.800000
v -38.850000 3.400000 6.800000
v -38.850000 3.600000 6.800000
v -39.000000 3.600000 6.800000
v -38.850000 3.400000 6.800000
v -38.850000 3.400000 13.000000
v -38.850000 3.600000 13.000000
v -38.850000 3.600000 6.800000
v -38.850000 3.400000 13.000000
v -39.000000 3.400000 13.000000
v -39.000000 3.600000 13.000000
v -38.850000 3.600000 13.000000
v -39.000000 3.400000 13.000000
v -39.000000 3.400000 6.800000
v -39.000000 3.600000 6.800000
v -39.000000 3.600000 13.000000
vn 0.000000 -1.000000 0.000000
vn 0.000000 -1.000000 0.000000
vn 0.000000 1.000000 0.000000
vn 0.000000 1.000000 -0.000000
vn 0.000000 0.000000 -1.000000
vn 0.000000 0.000000 -1.000000
vn 1.000000 0.000000 0.000000
vn 1.000000 0.000000 0.000000
vn 0.000000 0.000000 1.000000
vn 0.000000 -0.000000 1.000000
vn -1.000000 0.000000 0.000000
vn -1.000000 0.000000 0.000000
f 532//265 529//265 530//265
f 530//266 531//266 532//266
f 536//267 534//267 533//267
f 534//268 536//268 535//268
f 537//269 539//269 538//269
f 537//270 540//270 539//270
f 541//271 543//271 542//271
f 541//272 544//272 543//272
f 545//273 547//273 546//273
f 545//274 548//274 547//274
f 549//275 551//275 550//275
f 549//276 552//276 551//276
o Ceiling_024_c_86d5c1f1f3
usemtl Ceiling
v -38.850000 3.400000 6.800000
v -36.350000 3.400000 6.800000
v -36.350000 3.400000 13.000000
v -38.850000 3.400000 13.000000
v -38.850000 3.600000 6.800000
v -36.350000 3.600000 6.800000
v -36.350000 3.600000 13.000000
v -38.850000 3.600000 13.000000
v -38.850000 3.400000 6.800000
v -36.350000 3.400000 6.800000
v -36.350000 3.600000 6.800000
v -38.850000 3.600000 6.800000
v -36.350000 3.400000 6.800000
v -36.350000 3.400000 13.000000
v -36.350000 3.600000 13.000000
v -36.350000 3.600000 6.800000
v -36.350000 3.400000 13.000000
v -38.850000 3.400000 13.000000
v -38.850000 3.600000 13.000000
v -36.350000 3.600000 13.000000
v -38.850000 3.400000 13.000000
v -38.850000 3.400000 6.800000
v -38.850000 3.600000 6.800000
v -38.850000 3.600000 13.000000
vn 0.000000 -1.000000 0.000000
vn 0.000000 -1.000000 0.000000
vn 0.000000 1.000000 0.000000
vn 0.000000 1.000000 -0.000000
vn 0.000000 0.000000 -1.000000
vn 0.000000 0.000000 -1.000000
vn 1.000000 0.000000 0.000000
vn 1.000000 0.000000 0.000000
vn 0.000000 0.000000 1.000000
vn 0.000000 -0.000000 1.000000
vn -1.000000 0.000000 0.000000
vn -1.000000 0.000000 0.000000
f 556//277 553//277 554//277
f 554//278 555//278 556//278
f 560//279 558//279 557//279
f 558//280 560//280 559//280
f 561//281 563//281 562//281
f 561//282 564//282 563//282
f 565//283 567//283 566//283
f 565//284 568//284 567//284
f 569//285 571//285 570//285
f 569//286 572//286 571//286
f 573//287 575//287 574//287
f 573//288 576//288 575//288
o Ceiling_025_c_86d5c1f1f3
usemtl Ceiling
v -36.350000 3.400000 6.800000
v -36.200000 3.400000 6.800000
v -36.200000 3.400000 13.000000
v -36.350000 3.400000 13.000000
v -36.350000 3.600000 6.800000
v -36.200000 3.600000 6.800000
v -36.200000 3.600000 13.000000
v -36.350000 3.600000 13.000000
v -36.350000 3.400000 6.800000
v -36.200000 3.400000 6.800000
v -36.200000 3.600000 6.800000
v -36.350000 3.600000 6.800000
v -36.200000 3.400000 6.800000
v -36.200000 3.400000 13.000000
v -36.200000 3.600000 13.000000
v -36.200000 3.600000 6.800000
v -36.200000 3.400000 13.000000
v -36.350000 3.400000 13.000000
v -36.350000 3.600000 13.000000
v -36.200000 3.600000 13.000000
v -36.350000 3.400000 13.000000
v -36.350000 3.400000 6.800000
v -36.350000 3.600000 6.800000
v -36.350000 3.600000 13.000000
vn 0.000000 -1.000000 0.000000
vn 0.000000 -1.000000 0.000000
vn 0.000000 1.000000 0.000000
vn 0.000000 1.000000 -0.000000
vn 0.000000 0.000000 -1.000000
vn 0.000000 0.000000 -1.000000
vn 1.000000 0.000000 0.000000
vn 1.000000 0.000000 0.000000
vn 0.000000 0.000000 1.000000
vn 0.000000 -0.000000 1.000000
vn -1.000000 0.000000 0.000000
vn -1.000000 0.000000 0.000000
f 580//289 577//289 578//289
f 578//290 579//290 580//290
f 584//291 582//291 581//291
f 582//292 584//292 583//292
f 585//293 587//293 586//293
f 585//294 588//294 587//294
f 589//295 591//295 590//295
f 589//296 592//296 591//296
f 593//297 595//297 594//297
f 593//298 596//298 595//298
f 597//299 599//299 598//299
f 597//300 600//300 599//300
o Ceiling_026_c_a45fa046bb
usemtl Ceiling
v -37.400000 3.400000 -2.480000
v -37.250000 3.400000 -2.480000
v -37.250000 3.400000 5.040000
v -37.400000 3.400000 5.040000
v -37.400000 3.600000 -2.480000
v -37.250000 3.600000 -2.480000
v -37.250000 3.600000 5.040000
v -37.400000 3.600000 5.040000
v -37.400000 3.400000 -2.480000
v -37.250000 3.400000 -2.480000
v -37.250000 3.600000 -2.480000
v -37.400000 3.600000 -2.480000
v -37.250000 3.400000 -2.480000
v -37.250000 3.400000 5.040000
v -37.250000 3.600000 5.040000
v -37.250000 3.600000 -2.480000
v -37.250000 3.400000 5.040000
v -37.400000 3.400000 5.040000
v -37.400000 3.600000 5.040000
v -37.250000 3.600000 5.040000
v -37.400000 3.400000 5.040000
v -37.400000 3.400000 -2.480000
v -37.400000 3.600000 -2.480000
v -37.400000 3.600000 5.040000
vn 0.000000 -1.000000 0.000000
vn 0.000000 -1.000000 0.000000
vn 0.000000 1.000000 0.000000
vn 0.000000 1.000000 -0.000000
vn 0.000000 0.000000 -1.000000
vn 0.000000 0.000000 -1.000000
vn 1.000000 0.000000 0.000000
vn 1.000000 0.000000 0.000000
vn 0.000000 0.000000 1.000000
vn 0.000000 -0.000000 1.000000
vn -1.000000 0.000000 0.000000
vn -1.000000 0.000000 0.000000
f 604//301 601//301 602//301
f 602//302 603//302 604//302
f 608//303 606//303 605//303
f 606//304 608//304 607//304
f 609//305 611//305 610//305
f 609//306 612//306 611//306
f 613//307 615//307 614//307
f 613//308 616//308 615//308
f 617//309 619//309 618//309
f 617//310 620//310 619//310
f 621//311 623//311 622//311
f 621//312 624//312 623//312
o Ceiling_027_c_a45fa046bb
usemtl Ceiling
v -37.250000 3.400000 -2.480000
v -33.000000 3.400000 -2.480000
v -33.000000 3.400000 5.040000
v -37.250000 3.400000 5.040000
v -37.250000 3.600000 -2.480000
v -33.000000 3.600000 -2.480000
v -33.000000 3.600000 5.040000
v -37.250000 3.600000 5.040000
v -37.250000 3.400000 -2.480000
v -33.000000 3.400000 -2.480000
v -33.000000 3.600000 -2.480000
v -37.250000 3.600000 -2.480000
v -33.000000 3.400000 -2.480000
v -33.000000 3.400000 5.040000
v -33.000000 3.600000 5.040000
v -33.000000 3.600000 -2.480000
v -33.000000 3.400000 5.040000
v -37.250000 3.400000 5.040000
v -37.250000 3.600000 5.040000
v -33.000000 3.600000 5.040000
v -37.250000 3.400000 5.040000
v -37.250000 3.400000 -2.480000
v -37.250000 3.600000 -2.480000
v -37.250000 3.600000 5.040000
vn 0.000000 -1.000000 0.000000
vn 0.000000 -1.000000 0.000000
vn 0.000000 1.000000 0.000000
vn 0.000000 1.000000 -0.000000
vn 0.000000 0.000000 -1.000000
vn 0.000000 0.000000 -1.000000
vn 1.000000 0.000000 0.000000
vn 1.000000 0.000000 0.000000
vn 0.000000 0.000000 1.000000
vn 0.000000 -0.000000 1.000000
vn -1.000000 0.000000 0.000000
vn -1.000000 0.000000 0.000000
f 628//313 625//313 626//313
f 626//314 627//314 628//314
f 632//315 630//315 629//315
f 630//316 632//316 631//316
f 633//317 635//317 634//317
f 633//318 636//318 635//318
f 637//319 639//319 638//319
f 637//320 640//320 639//320
f 641//321 643//321 642//321
f 641//322 644//322 643//322
f 645//323 647//323 646//323
f 645//324 648//324 647//324
o Ceiling_028_c_f7e8824c3a
usemtl Ceiling
v -36.200000 3.400000 6.800000
v -36.050000 3.400000 6.800000
v -36.050000 3.400000 13.000000
v -36.200000 3.400000 13.000000
v -36.200000 3.600000 6.800000
v -36.050000 3.600000 6.800000
v -36.050000 3.600000 13.000000
v -36.200000 3.600000 13.000000
v -36.200000 3.400000 6.800000
v -36.050000 3.400000 6.800000
v -36.050000 3.600000 6.800000
v -36.200000 3.600000 6.800000
v -36.050000 3.400000 6.800000
v -36.050000 3.400000 13.000000
v -36.050000 3.600000 13.000000
v -36.050000 3.600000 6.800000
v -36.050000 3.400000 13.000000
v -36.200000 3.400000 13.000000
v -36.200000 3.600000 13.000000
v -36.050000 3.600000 13.000000
v -36.200000 3.400000 13.000000
v -36.200000 3.400000 6.800000
v -36.200000 3.600000 6.800000
v -36.200000 3.600000 13.000000
vn 0.000000 -1.000000 0.000000
vn 0.000000 -1.000000 0.000000
vn 0.000000 1.000000 0.000000
vn 0.000000 1.000000 -0.000000
vn 0.000000 0.000000 -1.000000
vn 0.000000 0.000000 -1.000000
vn 1.000000 0.000000 0.000000
vn 1.000000 0.000000 0.000000
vn 0.000000 0.000000 1.000000
vn 0.000000 -0.000000 1.000000
vn -1.000000 0.000000 0.000000
vn -1.000000 0.000000 0.000000
f 652//325 649//325 650//325
f 650//326 651//326 652//326
f 656//327 654//327 653//327
f 654//328 656//328 655//328
f 657//329 659//329 658//329
f 657//330 660//330 659//330
f 661//331 663//331 662//331
f 661//332 664//332 663//332
f 665//333 667//333 666//333
f 665//334 668//334 667//334
f 669//335 671//335 670//335
f 669//336 672//336 671//336
o Ceiling_029_c_f7e8824c3a
usemtl Ceiling
v -36.050000 3.400000 6.800000
v -33.000000 3.400000 6.800000
v -33.000000 3.400000 13.000000
v -36.050000 3.400000 13.000000
v -36.050000 3.600000 6.800000
v -33.000000 3.600000 6.800000
v -33.000000 3.600000 13.000000
v -36.050000 3.600000 13.000000
v -36.050000 3.400000 6.800000
v -33.000000 3.400000 6.800000
v -33.000000 3.600000 6.800000
v -36.050000 3.600000 6.800000
v -33.000000 3.400000 6.800000
v -33.000000 3.400000 13.000000
v -33.000000 3.600000 13.000000
v -33.000000 3.600000 6.800000
v -33.000000 3.400000 13.000000
v -36.050000 3.400000 13.000000
v -36.050000 3.600000 13.000000
v -33.000000 3.600000 13.000000
v -36.050000 3.400000 13.000000
v -36.050000 3.400000 6.800000
v -36.050000 3.600000 6.800000
v -36.050000 3.600000 13.000000
vn 0.000000 -1.000000 0.000000
vn 0.000000 -1.000000 0.000000
vn 0.000000 1.000000 0.000000
vn 0.000000 1.000000 -0.000000
vn 0.000000 0.000000 -1.000000
vn 0.000000 0.000000 -1.000000
vn 1.000000 0.000000 0.000000
vn 1.000000 0.000000 0.000000
vn 0.000000 0.000000 1.000000
vn 0.000000 -0.000000 1.000000
vn -1.000000 0.000000 0.000000
vn -1.000000 0.000000 0.000000
f 676//337 673//337 674//337
f 674//338 675//338 676//338
f 680//339 678//339 677//339
f 678//340 680//340 679//340
f 681//341 683//341 682//341
f 681//342 684//342 683//342
f 685//343 687//343 686//343
f 685//344 688//344 687//344
f 689//345 691//345 690//345
f 689//346 692//346 691//346
f 693//347 695//347 694//347
f 693//348 696//348 695//348
