# Generated by svg_to_godot3d
mtllib geometry.mtl
s off
o Floor_001_u_chamber_4_floor_08
usemtl Floor
v -107.783000 -0.200000 34.040000
v -99.400000 -0.200000 34.040000
v -99.400000 -0.200000 36.663000
v -107.783000 -0.200000 36.663000
v -107.783000 0.000000 34.040000
v -99.400000 0.000000 34.040000
v -99.400000 0.000000 36.663000
v -107.783000 0.000000 36.663000
v -107.783000 -0.200000 34.040000
v -99.400000 -0.200000 34.040000
v -99.400000 0.000000 34.040000
v -107.783000 0.000000 34.040000
v -99.400000 -0.200000 34.040000
v -99.400000 -0.200000 36.663000
v -99.400000 0.000000 36.663000
v -99.400000 0.000000 34.040000
v -99.400000 -0.200000 36.663000
v -107.783000 -0.200000 36.663000
v -107.783000 0.000000 36.663000
v -99.400000 0.000000 36.663000
v -107.783000 -0.200000 36.663000
v -107.783000 -0.200000 34.040000
v -107.783000 0.000000 34.040000
v -107.783000 0.000000 36.663000
vn 0.000000 -1.000000 0.000000
vn 0.000000 -1.000000 0.000000
vn 0.000000 1.000000 0.000000
vn 0.000000 1.000000 -0.000000
vn 0.000000 0.000000 -1.000000
vn 0.000000 0.000000 -1.000000
vn 1.000000 0.000000 0.000000
vn 1.000000 0.000000 0.000000
vn 0.000000 0.000000 1.000000
vn 0.000000 -0.000000 1.000000
vn -1.000000 0.000000 0.000000
vn -1.000000 0.000000 0.000000
f 4//1 1//1 2//1
f 2//2 3//2 4//2
f 8//3 6//3 5//3
f 6//4 8//4 7//4
f 9//5 11//5 10//5
f 9//6 12//6 11//6
f 13//7 15//7 14//7
f 13//8 16//8 15//8
f 17//9 19//9 18//9
f 17//10 20//10 19//10
f 21//11 23//11 22//11
f 21//12 24//12 23//12
o Floor_002_u_chamber_4_floor_05
usemtl Floor
v -107.783000 -0.200000 36.663000
v -103.635000 -0.200000 36.663000
v -103.635000 -0.200000 55.844000
v -107.783000 -0.200000 55.844000
v -107.783000 0.000000 36.663000
v -103.635000 0.000000 36.663000
v -103.635000 0.000000 55.844000
v -107.783000 0.000000 55.844000
v -107.783000 -0.200000 36.663000
v -103.635000 -0.200000 36.663000
v -103.635000 0.000000 36.663000
v -107.783000 0.000000 36.663000
v -103.635000 -0.200000 36.663000
v -103.635000 -0.200000 55.844000
v -103.635000 0.000000 55.844000
v -103.635000 0.000000 36.663000
v -103.635000 -0.200000 55.844000
v -107.783000 -0.200000 55.844000
v -107.783000 0.000000 55.844000
v -103.635000 0.000000 55.844000
v -107.783000 -0.200000 55.844000
v -107.783000 -0.200000 36.663000
v -107.783000 0.000000 36.663000
v -107.783000 0.000000 55.844000
vn 0.000000 -1.000000 0.000000
vn 0.000000 -1.000000 0.000000
vn 0.000000 1.000000 0.000000
vn 0.000000 1.000000 -0.000000
vn 0.000000 0.000000 -1.000000
vn 0.000000 0.000000 -1.000000
vn 1.000000 0.000000 0.000000
vn 1.000000 0.000000 0.000000
vn 0.000000 0.000000 1.000000
vn 0.000000 -0.000000 1.000000
vn -1.000000 0.000000 0.000000
vn -1.000000 0.000000 0.000000
f 28//13 25//13 26//13
f 26//14 27//14 28//14
f 32//15 30//15 29//15
f 30//16 32//16 31//16
f 33//17 35//17 34//17
f 33//18 36//18 35//18
f 37//19 39//19 38//19
f 37//20 40//20 39//20
f 41//21 43//21 42//21
f 41//22 44//22 43//22
f 45//23 47//23 46//23
f 45//24 48//24 47//24
o Floor_003_u_chamber_4_floor_06
usemtl Floor
v -103.635000 -0.200000 36.663000
v -78.746000 -0.200000 36.663000
v -78.746000 -0.200000 55.844000
v -103.635000 -0.200000 55.844000
v -103.635000 0.000000 36.663000
v -78.746000 0.000000 36.663000
v -78.746000 0.000000 55.844000
v -103.635000 0.000000 55.844000
v -103.635000 -0.200000 36.663000
v -78.746000 -0.200000 36.663000
v -78.746000 0.000000 36.663000
v -103.635000 0.000000 36.663000
v -78.746000 -0.200000 36.663000
v -78.746000 -0.200000 55.844000
v -78.746000 0.000000 55.844000
v -78.746000 0.000000 36.663000
v -78.746000 -0.200000 55.844000
v -103.635000 -0.200000 55.844000
v -103.635000 0.000000 55.844000
v -78.746000 0.000000 55.844000
v -103.635000 -0.200000 55.844000
v -103.635000 -0.200000 36.663000
v -103.635000 0.000000 36.663000
v -103.635000 0.000000 55.844000
vn 0.000000 -1.000000 0.000000
vn 0.000000 -1.000000 0.000000
vn 0.000000 1.000000 0.000000
vn 0.000000 1.000000 -0.000000
vn 0.000000 0.000000 -1.000000
vn 0.000000 0.000000 -1.000000
vn 1.000000 0.000000 0.000000
vn 1.000000 0.000000 0.000000
vn 0.000000 0.000000 1.000000
vn 0.000000 -0.000000 1.000000
vn -1.000000 0.000000 0.000000
vn -1.000000 0.000000 0.000000
f 52//25 49//25 50//25
f 50//26 51//26 52//26
f 56//27 54//27 53//27
f 54//28 56//28 55//28
f 57//29 59//29 58//29
f 57//30 60//30 59//30
f 61//31 63//31 62//31
f 61//32 64//32 63//32
f 65//33 67//33 66//33
f 65//34 68//34 67//34
f 69//35 71//35 70//35
f 69//36 72//36 71//36
o Floor_004_u_chamber_4_floor_02
usemtl Floor
v -99.400000 -0.200000 28.959000
v -99.250000 -0.200000 28.959000
v -99.250000 -0.200000 34.040000
v -99.400000 -0.200000 34.040000
v -99.400000 0.000000 28.959000
v -99.250000 0.000000 28.959000
v -99.250000 0.000000 34.040000
v -99.400000 0.000000 34.040000
v -99.400000 -0.200000 34.040000
v -99.250000 -0.200000 34.040000
v -99.250000 -0.200000 36.663000
v -99.400000 -0.200000 36.663000
v -99.400000 0.000000 34.040000
v -99.250000 0.000000 34.040000
v -99.250000 0.000000 36.663000
v -99.400000 0.000000 36.663000
v -99.250000 -0.200000 28.959000
v -92.976000 -0.200000 28.959000
v -92.976000 -0.200000 36.663000
v -99.250000 -0.200000 36.663000
v -99.250000 0.000000 28.959000
v -92.976000 0.000000 28.959000
v -92.976000 0.000000 36.663000
v -99.250000 0.000000 36.663000
v -99.400000 -0.200000 28.959000
v -99.250000 -0.200000 28.959000
v -99.250000 0.000000 28.959000
v -99.400000 0.000000 28.959000
v -99.400000 -0.200000 34.040000
v -99.400000 -0.200000 28.959000
v -99.400000 0.000000 28.959000
v -99.400000 0.000000 34.040000
v -99.250000 -0.200000 36.663000
v -99.400000 -0.200000 36.663000
v -99.400000 0.000000 36.663000
v -99.250000 0.000000 36.663000
v -99.400000 -0.200000 36.663000
v -99.400000 -0.200000 34.040000
v -99.400000 0.000000 34.040000
v -99.400000 0.000000 36.663000
v -99.250000 -0.200000 28.959000
v -92.976000 -0.200000 28.959000
v -92.976000 0.000000 28.959000
v -99.250000 0.000000 28.959000
v -92.976000 -0.200000 28.959000
v -92.976000 -0.200000 36.663000
v -92.976000 0.000000 36.663000
v -92.976000 0.000000 28.959000
v -92.976000 -0.200000 36.663000
v -99.250000 -0.200000 36.663000
v -99.250000 0.000000 36.663000
v -92.976000 0.000000 36.663000
vn 0.000000 -1.000000 0.000000
vn 0.000000 -1.000000 0.000000
vn 0.000000 1.000000 0.000000
vn 0.000000 1.000000 -0.000000
vn 0.000000 -1.000000 0.000000
vn 0.000000 -1.000000 0.000000
vn 0.000000 1.000000 0.000000
vn 0.000000 1.000000 -0.000000
vn 0.000000 -1.000000 0.000000
vn 0.000000 -1.000000 0.000000
vn 0.000000 1.000000 0.000000
vn 0.000000 1.000000 -0.000000
vn 0.000000 0.000000 -1.000000
vn 0.000000 0.000000 -1.000000
vn -1.000000 0.000000 0.000000
vn -1.000000 0.000000 0.000000
vn 0.000000 0.000000 1.000000
vn 0.000000 -0.000000 1.000000
vn -1.000000 0.000000 0.000000
vn -1.000000 0.000000 0.000000
vn 0.000000 0.000000 -1.000000
vn 0.000000 0.000000 -1.000000
vn 1.000000 0.000000 0.000000
vn 1.000000 0.000000 0.000000
vn 0.000000 0.000000 1.000000
vn 0.000000 -0.000000 1.000000
f 76//37 73//37 74//37
f 74//38 75//38 76//38
f 80//39 78//39 77//39
f 78//40 80//40 79//40
f 84//41 81//41 82//41
f 82//42 83//42 84//42
f 88//43 86//43 85//43
f 86//44 88//44 87//44
f 92//45 89//45 90//45
f 90//46 91//46 92//46
f 96//47 94//47 93//47
f 94//48 96//48 95//48
f 97//49 99//49 98//49
f 97//50 100//50 99//50
f 101//51 103//51 102//51
f 101//52 104//52 103//52
f 105//53 107//53 106//53
f 105//54 108//54 107//54
f 109//55 111//55 110//55
f 109//56 112//56 111//56
f 113//57 115//57 114//57
f 113//58 116//58 115//58
f 117//59 119//59 118//59
f 117//60 120//60 119//60
f 121//61 123//61 122//61
f 121//62 124//62 123//62
o Floor_005_u_chamber_4_floor_01
usemtl Floor
v -94.990000 -0.200000 25.100000
v -88.650000 -0.200000 25.100000
v -88.650000 -0.200000 28.959000
v -94.990000 -0.200000 28.959000
v -94.990000 0.000000 25.100000
v -88.650000 0.000000 25.100000
v -88.650000 0.000000 28.959000
v -94.990000 0.000000 28.959000
v -94.990000 -0.200000 25.100000
v -88.650000 -0.200000 25.100000
v -88.650000 0.000000 25.100000
v -94.990000 0.000000 25.100000
v -88.650000 -0.200000 25.100000
v -88.650000 -0.200000 28.959000
v -88.650000 0.000000 28.959000
v -88.650000 0.000000 25.100000
v -88.650000 -0.200000 28.959000
v -94.990000 -0.200000 28.959000
v -94.990000 0.000000 28.959000
v -88.650000 0.000000 28.959000
v -94.990000 -0.200000 28.959000
v -94.990000 -0.200000 25.100000
v -94.990000 0.000000 25.100000
v -94.990000 0.000000 28.959000
vn 0.000000 -1.000000 0.000000
vn 0.000000 -1.000000 0.000000
vn 0.000000 1.000000 0.000000
vn 0.000000 1.000000 -0.000000
vn 0.000000 0.000000 -1.000000
vn 0.000000 0.000000 -1.000000
vn 1.000000 0.000000 0.000000
vn 1.000000 0.000000 0.000000
vn 0.000000 0.000000 1.000000
vn 0.000000 -0.000000 1.000000
vn -1.000000 0.000000 0.000000
vn -1.000000 0.000000 0.000000
f 128//63 125//63 126//63
f 126//64 127//64 128//64
f 132//65 130//65 129//65
f 130//66 132//66 131//66
f 133//67 135//67 134//67
f 133//68 136//68 135//68
f 137//69 139//69 138//69
f 137//70 140//70 139//70
f 141//71 143//71 142//71
f 141//72 144//72 143//72
f 145//73 147//73 146//73
f 145//74 148//74 147//74
o Floor_006_u_chamber_4_floor_03
usemtl Floor
v -92.976000 -0.200000 28.959000
v -86.927000 -0.200000 28.959000
v -86.927000 -0.200000 36.663000
v -92.976000 -0.200000 36.663000
v -92.976000 0.000000 28.959000
v -86.927000 0.000000 28.959000
v -86.927000 0.000000 36.663000
v -92.976000 0.000000 36.663000
v -92.976000 -0.200000 28.959000
v -86.927000 -0.200000 28.959000
v -86.927000 0.000000 28.959000
v -92.976000 0.000000 28.959000
v -86.927000 -0.200000 28.959000
v -86.927000 -0.200000 36.663000
v -86.927000 0.000000 36.663000
v -86.927000 0.000000 28.959000
v -86.927000 -0.200000 36.663000
v -92.976000 -0.200000 36.663000
v -92.976000 0.000000 36.663000
v -86.927000 0.000000 36.663000
v -92.976000 -0.200000 36.663000
v -92.976000 -0.200000 28.959000
v -92.976000 0.000000 28.959000
v -92.976000 0.000000 36.663000
vn 0.000000 -1.000000 0.000000
vn 0.000000 -1.000000 0.000000
vn 0.000000 1.000000 0.000000
vn 0.000000 1.000000 -0.000000
vn -0.000000 0.000000 -1.000000
vn -0.000000 0.000000 -1.000000
vn 1.000000 0.000000 0.000000
vn 1.000000 0.000000 0.000000
vn 0.000000 0.000000 1.000000
vn 0.000000 -0.000000 1.000000
vn -1.000000 0.000000 0.000000
vn -1.000000 0.000000 0.000000
f 152//75 149//75 150//75
f 150//76 151//76 152//76
f 156//77 154//77 153//77
f 154//78 156//78 155//78
f 157//79 159//79 158//79
f 157//80 160//80 159//80
f 161//81 163//81 162//81
f 161//82 164//82 163//82
f 165//83 167//83 166//83
f 165//84 168//84 167//84
f 169//85 171//85 170//85
f 169//86 172//86 171//86
o Floor_007_u_chamber_4_floor_07
usemtl Floor
v -92.976000 -0.200000 55.844000
v -82.260000 -0.200000 55.844000
v -82.260000 -0.200000 61.800000
v -92.976000 -0.200000 61.800000
v -92.976000 0.000000 55.844000
v -82.260000 0.000000 55.844000
v -82.260000 0.000000 61.800000
v -92.976000 0.000000 61.800000
v -92.976000 -0.200000 55.844000
v -82.260000 -0.200000 55.844000
v -82.260000 0.000000 55.844000
v -92.976000 0.000000 55.844000
v -82.260000 -0.200000 55.844000
v -82.260000 -0.200000 61.800000
v -82.260000 0.000000 61.800000
v -82.260000 0.000000 55.844000
v -82.260000 -0.200000 61.800000
v -92.976000 -0.200000 61.800000
v -92.976000 0.000000 61.800000
v -82.260000 0.000000 61.800000
v -92.976000 -0.200000 61.800000
v -92.976000 -0.200000 55.844000
v -92.976000 0.000000 55.844000
v -92.976000 0.000000 61.800000
vn 0.000000 -1.000000 0.000000
vn 0.000000 -1.000000 0.000000
vn 0.000000 1.000000 0.000000
vn 0.000000 1.000000 -0.000000
vn 0.000000 0.000000 -1.000000
vn 0.000000 0.000000 -1.000000
vn 1.000000 0.000000 0.000000
vn 1.000000 0.000000 0.000000
vn 0.000000 0.000000 1.000000
vn 0.000000 -0.000000 1.000000
vn -1.000000 0.000000 0.000000
vn -1.000000 0.000000 0.000000
f 176//87 173//87 174//87
f 174//88 175//88 176//88
f 180//89 178//89 177//89
f 178//90 180//90 179//90
f 181//91 183//91 182//91
f 181//92 184//92 183//92
f 185//93 187//93 186//93
f 185//94 188//94 187//94
f 189//95 191//95 190//95
f 189//96 192//96 191//96
f 193//97 195//97 194//97
f 193//98 196//98 195//98
o Floor_008_u_chamber_4_floor_04
usemtl Floor
v -86.927000 -0.200000 28.959000
v -82.260000 -0.200000 28.959000
v -82.260000 -0.200000 36.663000
v -86.927000 -0.200000 36.663000
v -86.927000 0.000000 28.959000
v -82.260000 0.000000 28.959000
v -82.260000 0.000000 36.663000
v -86.927000 0.000000 36.663000
v -86.927000 -0.200000 28.959000
v -82.260000 -0.200000 28.959000
v -82.260000 0.000000 28.959000
v -86.927000 0.000000 28.959000
v -82.260000 -0.200000 28.959000
v -82.260000 -0.200000 36.663000
v -82.260000 0.000000 36.663000
v -82.260000 0.000000 28.959000
v -82.260000 -0.200000 36.663000
v -86.927000 -0.200000 36.663000
v -86.927000 0.000000 36.663000
v -82.260000 0.000000 36.663000
v -86.927000 -0.200000 36.663000
v -86.927000 -0.200000 28.959000
v -86.927000 0.000000 28.959000
v -86.927000 0.000000 36.663000
vn 0.000000 -1.000000 0.000000
vn 0.000000 -1.000000 0.000000
vn 0.000000 1.000000 0.000000
vn 0.000000 1.000000 -0.000000
vn 0.000000 0.000000 -1.000000
vn 0.000000 0.000000 -1.000000
vn 1.000000 0.000000 0.000000
vn 1.000000 0.000000 0.000000
vn 0.000000 0.000000 1.000000
vn 0.000000 -0.000000 1.000000
vn -1.000000 0.000000 0.000000
vn -1.000000 0.000000 0.000000
f 200//99 197//99 198//99
f 198//100 199//100 200//100
f 204//101 202//101 201//101
f 202//102 204//102 203//102
f 205//103 207//103 206//103
f 205//104 208//104 207//104
f 209//105 211//105 210//105
f 209//106 212//106 211//106
f 213//107 215//107 214//107
f 213//108 216//108 215//108
f 217//109 219//109 218//109
f 217//110 220//110 219//110
