{
 "asset": {
  "generator": "Khronos glTF Blender I/O v5.2.40",
  "version": "2.0"
 },
 "scene": 0,
 "scenes": [
  {
   "name": "Scene",
   "nodes": [
    0,
    1
   ]
  }
 ],
 "nodes": [
  {
   "mesh": 0,
   "name": "Body"
  },
  {
   "mesh": 1,
   "name": "Needle",
   "translation": [
    0,
    0,
    0.07649999856948853
   ]
  }
 ],
 "materials": [
  {
   "doubleSided": true,
   "name": "steel_bare",
   "pbrMetallicRoughness": {
    "baseColorFactor": [
     1,
     1,
     1,
     1
    ],
    "metallicFactor": 1.0,
    "roughnessFactor": 1.0,
    "baseColorTexture": {
     "index": 0
    },
    "metallicRoughnessTexture": {
     "index": 1
    }
   },
   "normalTexture": {
    "index": 2
   },
   "occlusionTexture": {
    "index": 1,
    "strength": 0.8
   }
  },
  {
   "doubleSided": true,
   "name": "painted_metal",
   "pbrMetallicRoughness": {
    "baseColorFactor": [
     1,
     1,
     1,
     1
    ],
    "metallicFactor": 1.0,
    "roughnessFactor": 1.0,
    "baseColorTexture": {
     "index": 3
    },
    "metallicRoughnessTexture": {
     "index": 4
    }
   },
   "normalTexture": {
    "index": 5
   },
   "occlusionTexture": {
    "index": 4,
    "strength": 0.8
   }
  },
  {
   "doubleSided": true,
   "name": "chrome_dull",
   "pbrMetallicRoughness": {
    "baseColorFactor": [
     0.550000011920929,
     0.5600000023841858,
     0.5799999833106995,
     1
    ],
    "roughnessFactor": 0.3499999940395355
   }
  },
  {
   "doubleSided": true,
   "name": "plastic_panel",
   "pbrMetallicRoughness": {
    "baseColorFactor": [
     1,
     1,
     1,
     1
    ],
    "metallicFactor": 1.0,
    "roughnessFactor": 1.0,
    "baseColorTexture": {
     "index": 6
    },
    "metallicRoughnessTexture": {
     "index": 7
    }
   },
   "normalTexture": {
    "index": 8
   },
   "occlusionTexture": {
    "index": 7,
    "strength": 0.8
   }
  },
  {
   "doubleSided": true,
   "name": "instrument_faces",
   "pbrMetallicRoughness": {
    "baseColorFactor": [
     1,
     1,
     1,
     1
    ],
    "metallicFactor": 0.0,
    "roughnessFactor": 0.7,
    "baseColorTexture": {
     "index": 9
    }
   },
   "alphaMode": "BLEND"
  },
  {
   "alphaMode": "BLEND",
   "doubleSided": true,
   "name": "glass_dirty",
   "pbrMetallicRoughness": {
    "baseColorFactor": [
     0.07999999821186066,
     0.10000000149011612,
     0.10999999940395355,
     0.2800000011920929
    ],
    "metallicFactor": 0,
    "roughnessFactor": 0.25
   }
  },
  {
   "doubleSided": true,
   "name": "red_paint_worn",
   "pbrMetallicRoughness": {
    "baseColorFactor": [
     0.36000001430511475,
     0.07000000029802322,
     0.05000000074505806,
     1
    ],
    "metallicFactor": 0,
    "roughnessFactor": 0.6499999761581421
   }
  }
 ],
 "meshes": [
  {
   "name": "Body",
   "primitives": [
    {
     "attributes": {
      "POSITION": 0,
      "NORMAL": 1,
      "TEXCOORD_0": 2
     },
     "indices": 3,
     "material": 0
    },
    {
     "attributes": {
      "POSITION": 4,
      "NORMAL": 5,
      "TEXCOORD_0": 6
     },
     "indices": 7,
     "material": 1
    },
    {
     "attributes": {
      "POSITION": 8,
      "NORMAL": 9,
      "TEXCOORD_0": 10
     },
     "indices": 11,
     "material": 2
    },
    {
     "attributes": {
      "POSITION": 12,
      "NORMAL": 13,
      "TEXCOORD_0": 14
     },
     "indices": 15,
     "material": 3
    },
    {
     "attributes": {
      "POSITION": 16,
      "NORMAL": 17,
      "TEXCOORD_0": 18
     },
     "indices": 19,
     "material": 4
    },
    {
     "attributes": {
      "POSITION": 20,
      "NORMAL": 21,
      "TEXCOORD_0": 22
     },
     "indices": 15,
     "material": 5
    }
   ]
  },
  {
   "name": "Needle",
   "primitives": [
    {
     "attributes": {
      "POSITION": 23,
      "NORMAL": 24,
      "TEXCOORD_0": 25
     },
     "indices": 26,
     "material": 6
    }
   ]
  }
 ],
 "accessors": [
  {
   "bufferView": 0,
   "componentType": 5126,
   "count": 112,
   "max": [
    0.029247837141156197,
    0.029999999329447746,
    0.08799999952316284
   ],
   "min": [
    -0.029247837141156197,
    -0.029999999329447746,
    0
   ],
   "type": "VEC3"
  },
  {
   "bufferView": 1,
   "componentType": 5126,
   "count": 112,
   "type": "VEC3"
  },
  {
   "bufferView": 2,
   "componentType": 5126,
   "count": 112,
   "type": "VEC2"
  },
  {
   "bufferView": 3,
   "componentType": 5123,
   "count": 264,
   "type": "SCALAR"
  },
  {
   "bufferView": 4,
   "componentType": 5126,
   "count": 808,
   "max": [
    0.09455214440822601,
    0.09455214440822601,
    0.07000000029802322
   ],
   "min": [
    -0.09455214440822601,
    -0.09455214440822601,
    0.020000001415610313
   ],
   "type": "VEC3"
  },
  {
   "bufferView": 5,
   "componentType": 5126,
   "count": 808,
   "type": "VEC3"
  },
  {
   "bufferView": 6,
   "componentType": 5126,
   "count": 808,
   "type": "VEC2"
  },
  {
   "bufferView": 7,
   "componentType": 5123,
   "count": 2340,
   "type": "SCALAR"
  },
  {
   "bufferView": 8,
   "componentType": 5126,
   "count": 840,
   "max": [
    0.09866410493850708,
    0.09866410493850708,
    0.07400000095367432
   ],
   "min": [
    -0.09866410493850708,
    -0.09866410493850708,
    0.06200000271201134
   ],
   "type": "VEC3"
  },
  {
   "bufferView": 9,
   "componentType": 5126,
   "count": 840,
   "type": "VEC3"
  },
  {
   "bufferView": 10,
   "componentType": 5126,
   "count": 840,
   "type": "VEC2"
  },
  {
   "bufferView": 11,
   "componentType": 5123,
   "count": 2340,
   "type": "SCALAR"
  },
  {
   "bufferView": 12,
   "componentType": 5126,
   "count": 120,
   "max": [
    0.08299999684095383,
    0.08299999684095383,
    0.07579999417066574
   ],
   "min": [
    -0.08299999684095383,
    -0.08299999684095383,
    0.07180000096559525
   ],
   "type": "VEC3"
  },
  {
   "bufferView": 13,
   "componentType": 5126,
   "count": 120,
   "type": "VEC3"
  },
  {
   "bufferView": 14,
   "componentType": 5126,
   "count": 120,
   "type": "VEC2"
  },
  {
   "bufferView": 15,
   "componentType": 5123,
   "count": 324,
   "type": "SCALAR"
  },
  {
   "bufferView": 16,
   "componentType": 5126,
   "count": 4,
   "max": [
    0.09099999815225601,
    0.09099999815225601,
    0.07649999856948853
   ],
   "min": [
    -0.09099999815225601,
    -0.09099999815225601,
    0.07649999856948853
   ],
   "type": "VEC3"
  },
  {
   "bufferView": 17,
   "componentType": 5126,
   "count": 4,
   "type": "VEC3"
  },
  {
   "bufferView": 18,
   "componentType": 5126,
   "count": 4,
   "type": "VEC2"
  },
  {
   "bufferView": 19,
   "componentType": 5123,
   "count": 6,
   "type": "SCALAR"
  },
  {
   "bufferView": 20,
   "componentType": 5126,
   "count": 120,
   "max": [
    0.09099999815225601,
    0.09099999815225601,
    0.08100000023841858
   ],
   "min": [
    -0.09099999815225601,
    -0.09099999815225601,
    0.07799999415874481
   ],
   "type": "VEC3"
  },
  {
   "bufferView": 21,
   "componentType": 5126,
   "count": 120,
   "type": "VEC3"
  },
  {
   "bufferView": 22,
   "componentType": 5126,
   "count": 120,
   "type": "VEC2"
  },
  {
   "bufferView": 23,
   "componentType": 5126,
   "count": 48,
   "max": [
    0.03065503016114235,
    0.05140267312526703,
    0.002500005066394806
   ],
   "min": [
    -0.03065503016114235,
    -0.018726009875535965,
    -0.0005000010132789612
   ],
   "type": "VEC3"
  },
  {
   "bufferView": 24,
   "componentType": 5126,
   "count": 48,
   "type": "VEC3"
  },
  {
   "bufferView": 25,
   "componentType": 5126,
   "count": 48,
   "type": "VEC2"
  },
  {
   "bufferView": 26,
   "componentType": 5123,
   "count": 72,
   "type": "SCALAR"
  }
 ],
 "bufferViews": [
  {
   "buffer": 0,
   "byteLength": 1344,
   "byteOffset": 0,
   "target": 34962
  },
  {
   "buffer": 0,
   "byteLength": 1344,
   "byteOffset": 1344,
   "target": 34962
  },
  {
   "buffer": 0,
   "byteLength": 896,
   "byteOffset": 2688,
   "target": 34962
  },
  {
   "buffer": 0,
   "byteLength": 528,
   "byteOffset": 3584,
   "target": 34963
  },
  {
   "buffer": 0,
   "byteLength": 9696,
   "byteOffset": 4112,
   "target": 34962
  },
  {
   "buffer": 0,
   "byteLength": 9696,
   "byteOffset": 13808,
   "target": 34962
  },
  {
   "buffer": 0,
   "byteLength": 6464,
   "byteOffset": 23504,
   "target": 34962
  },
  {
   "buffer": 0,
   "byteLength": 4680,
   "byteOffset": 29968,
   "target": 34963
  },
  {
   "buffer": 0,
   "byteLength": 10080,
   "byteOffset": 34648,
   "target": 34962
  },
  {
   "buffer": 0,
   "byteLength": 10080,
   "byteOffset": 44728,
   "target": 34962
  },
  {
   "buffer": 0,
   "byteLength": 6720,
   "byteOffset": 54808,
   "target": 34962
  },
  {
   "buffer": 0,
   "byteLength": 4680,
   "byteOffset": 61528,
   "target": 34963
  },
  {
   "buffer": 0,
   "byteLength": 1440,
   "byteOffset": 66208,
   "target": 34962
  },
  {
   "buffer": 0,
   "byteLength": 1440,
   "byteOffset": 67648,
   "target": 34962
  },
  {
   "buffer": 0,
   "byteLength": 960,
   "byteOffset": 69088,
   "target": 34962
  },
  {
   "buffer": 0,
   "byteLength": 648,
   "byteOffset": 70048,
   "target": 34963
  },
  {
   "buffer": 0,
   "byteLength": 48,
   "byteOffset": 70696,
   "target": 34962
  },
  {
   "buffer": 0,
   "byteLength": 48,
   "byteOffset": 70744,
   "target": 34962
  },
  {
   "buffer": 0,
   "byteLength": 32,
   "byteOffset": 70792,
   "target": 34962
  },
  {
   "buffer": 0,
   "byteLength": 12,
   "byteOffset": 70824,
   "target": 34963
  },
  {
   "buffer": 0,
   "byteLength": 1440,
   "byteOffset": 70836,
   "target": 34962
  },
  {
   "buffer": 0,
   "byteLength": 1440,
   "byteOffset": 72276,
   "target": 34962
  },
  {
   "buffer": 0,
   "byteLength": 960,
   "byteOffset": 73716,
   "target": 34962
  },
  {
   "buffer": 0,
   "byteLength": 576,
   "byteOffset": 74676,
   "target": 34962
  },
  {
   "buffer": 0,
   "byteLength": 576,
   "byteOffset": 75252,
   "target": 34962
  },
  {
   "buffer": 0,
   "byteLength": 384,
   "byteOffset": 75828,
   "target": 34962
  },
  {
   "buffer": 0,
   "byteLength": 144,
   "byteOffset": 76212,
   "target": 34963
  }
 ],
 "buffers": [
  {
   "byteLength": 76356,
   "uri": "pressure_gauge.bin"
  }
 ],
 "images": [
  {
   "uri": "../../textures/steel_bare/steel_bare_albedo.jpg"
  },
  {
   "uri": "../../textures/steel_bare/steel_bare_orm.jpg"
  },
  {
   "uri": "../../textures/steel_bare/steel_bare_normal.png"
  },
  {
   "uri": "../../textures/painted_metal/painted_metal_albedo.jpg"
  },
  {
   "uri": "../../textures/painted_metal/painted_metal_orm.jpg"
  },
  {
   "uri": "../../textures/painted_metal/painted_metal_normal.png"
  },
  {
   "uri": "../../textures/plastic_panel/plastic_panel_albedo.jpg"
  },
  {
   "uri": "../../textures/plastic_panel/plastic_panel_orm.jpg"
  },
  {
   "uri": "../../textures/plastic_panel/plastic_panel_normal.png"
  },
  {
   "uri": "../../textures/decals/instrument_faces.png"
  }
 ],
 "textures": [
  {
   "source": 0,
   "sampler": 0
  },
  {
   "source": 1,
   "sampler": 0
  },
  {
   "source": 2,
   "sampler": 0
  },
  {
   "source": 3,
   "sampler": 0
  },
  {
   "source": 4,
   "sampler": 0
  },
  {
   "source": 5,
   "sampler": 0
  },
  {
   "source": 6,
   "sampler": 0
  },
  {
   "source": 7,
   "sampler": 0
  },
  {
   "source": 8,
   "sampler": 0
  },
  {
   "source": 9,
   "sampler": 0
  }
 ],
 "samplers": [
  {
   "magFilter": 9729,
   "minFilter": 9987,
   "wrapS": 10497,
   "wrapT": 10497
  }
 ]
}
