# Generated by svg_to_godot3d
mtllib geometry.mtl
s off
o Floor_001_l_archive_a_floor_main
usemtl Floor
v -61.000000 -6.200000 -14.000000
v -41.000000 -6.200000 -14.000000
v -41.000000 -6.200000 0.500000
v -61.000000 -6.200000 0.500000
v -61.000000 -6.000000 -14.000000
v -41.000000 -6.000000 -14.000000
v -41.000000 -6.000000 0.500000
v -61.000000 -6.000000 0.500000
v -61.000000 -6.200000 -14.000000
v -41.000000 -6.200000 -14.000000
v -41.000000 -6.000000 -14.000000
v -61.000000 -6.000000 -14.000000
v -41.000000 -6.200000 -14.000000
v -41.000000 -6.200000 0.500000
v -41.000000 -6.000000 0.500000
v -41.000000 -6.000000 -14.000000
v -41.000000 -6.200000 0.500000
v -61.000000 -6.200000 0.500000
v -61.000000 -6.000000 0.500000
v -41.000000 -6.000000 0.500000
v -61.000000 -6.200000 0.500000
v -61.000000 -6.200000 -14.000000
v -61.000000 -6.000000 -14.000000
v -61.000000 -6.000000 0.500000
vn 0.000000 -1.000000 0.000000
vn 0.000000 -1.000000 0.000000
vn 0.000000 1.000000 0.000000
vn 0.000000 1.000000 -0.000000
vn 0.000000 0.000000 -1.000000
vn 0.000000 0.000000 -1.000000
vn 1.000000 0.000000 0.000000
vn 1.000000 0.000000 0.000000
vn 0.000000 0.000000 1.000000
vn 0.000000 -0.000000 1.000000
vn -1.000000 0.000000 0.000000
vn -1.000000 0.000000 0.000000
f 4//1 1//1 2//1
f 2//2 3//2 4//2
f 8//3 6//3 5//3
f 6//4 8//4 7//4
f 9//5 11//5 10//5
f 9//6 12//6 11//6
f 13//7 15//7 14//7
f 13//8 16//8 15//8
f 17//9 19//9 18//9
f 17//10 20//10 19//10
f 21//11 23//11 22//11
f 21//12 24//12 23//12
o Floor_002_l_archive_a_floor_passage
usemtl Floor
v -61.000000 -6.200000 0.500000
v -55.740000 -6.200000 0.500000
v -55.740000 -6.200000 13.000000
v -61.000000 -6.200000 13.000000
v -61.000000 -6.000000 0.500000
v -55.740000 -6.000000 0.500000
v -55.740000 -6.000000 13.000000
v -61.000000 -6.000000 13.000000
v -55.740000 -6.200000 0.500000
v -55.635000 -6.200000 0.500000
v -55.635000 -6.200000 6.000000
v -55.740000 -6.200000 6.000000
v -55.740000 -6.000000 0.500000
v -55.635000 -6.000000 0.500000
v -55.635000 -6.000000 6.000000
v -55.740000 -6.000000 6.000000
v -55.740000 -6.200000 6.000000
v -55.545000 -6.200000 6.000000
v -55.545000 -6.200000 13.000000
v -55.740000 -6.200000 13.000000
v -55.740000 -6.000000 6.000000
v -55.545000 -6.000000 6.000000
v -55.545000 -6.000000 13.000000
v -55.740000 -6.000000 13.000000
v -61.000000 -6.200000 0.500000
v -55.740000 -6.200000 0.500000
v -55.740000 -6.000000 0.500000
v -61.000000 -6.000000 0.500000
v -55.740000 -6.200000 13.000000
v -61.000000 -6.200000 13.000000
v -61.000000 -6.000000 13.000000
v -55.740000 -6.000000 13.000000
v -61.000000 -6.200000 13.000000
v -61.000000 -6.200000 0.500000
v -61.000000 -6.000000 0.500000
v -61.000000 -6.000000 13.000000
v -55.740000 -6.200000 0.500000
v -55.635000 -6.200000 0.500000
v -55.635000 -6.000000 0.500000
v -55.740000 -6.000000 0.500000
v -55.635000 -6.200000 0.500000
v -55.635000 -6.200000 6.000000
v -55.635000 -6.000000 6.000000
v -55.635000 -6.000000 0.500000
v -55.635000 -6.200000 6.000000
v -55.635000 -6.200000 6.000000
v -55.635000 -6.000000 6.000000
v -55.635000 -6.000000 6.000000
v -55.635000 -6.200000 6.000000
v -55.545000 -6.200000 6.000000
v -55.545000 -6.000000 6.000000
v -55.635000 -6.000000 6.000000
v -55.545000 -6.200000 6.000000
v -55.545000 -6.200000 13.000000
v -55.545000 -6.000000 13.000000
v -55.545000 -6.000000 6.000000
v -55.545000 -6.200000 13.000000
v -55.740000 -6.200000 13.000000
v -55.740000 -6.000000 13.000000
v -55.545000 -6.000000 13.000000
vn 0.000000 -1.000000 0.000000
vn 0.000000 -1.000000 0.000000
vn 0.000000 1.000000 0.000000
vn 0.000000 1.000000 -0.000000
vn 0.000000 -1.000000 0.000000
vn 0.000000 -1.000000 0.000000
vn 0.000000 1.000000 0.000000
vn 0.000000 1.000000 -0.000000
vn 0.000000 -1.000000 0.000000
vn 0.000000 -1.000000 0.000000
vn 0.000000 1.000000 0.000000
vn 0.000000 1.000000 -0.000000
vn 0.000000 0.000000 -1.000000
vn 0.000000 0.000000 -1.000000
vn 0.000000 0.000000 1.000000
vn 0.000000 -0.000000 1.000000
vn -1.000000 0.000000 0.000000
vn -1.000000 0.000000 0.000000
vn 0.000000 0.000000 -1.000000
vn 0.000000 0.000000 -1.000000
vn 1.000000 0.000000 0.000000
vn 1.000000 0.000000 0.000000
vn 0.000000 1.000000 0.000000
vn 0.000000 1.000000 0.000000
vn 0.000000 0.000000 -1.000000
vn 0.000000 0.000000 -1.000000
vn 1.000000 0.000000 0.000000
vn 1.000000 0.000000 0.000000
vn 0.000000 0.000000 1.000000
vn 0.000000 -0.000000 1.000000
f 28//13 25//13 26//13
f 26//14 27//14 28//14
f 32//15 30//15 29//15
f 30//16 32//16 31//16
f 36//17 33//17 34//17
f 34//18 35//18 36//18
f 40//19 38//19 37//19
f 38//20 40//20 39//20
f 44//21 41//21 42//21
f 42//22 43//22 44//22
f 48//23 46//23 45//23
f 46//24 48//24 47//24
f 49//25 51//25 50//25
f 49//26 52//26 51//26
f 53//27 55//27 54//27
f 53//28 56//28 55//28
f 57//29 59//29 58//29
f 57//30 60//30 59//30
f 61//31 63//31 62//31
f 61//32 64//32 63//32
f 65//33 67//33 66//33
f 65//34 68//34 67//34
f 69//35 71//35 70//35
f 69//36 72//36 71//36
f 73//37 75//37 74//37
f 73//38 76//38 75//38
f 77//39 79//39 78//39
f 77//40 80//40 79//40
f 81//41 83//41 82//41
f 81//42 84//42 83//42
o Floor_003_l_archive_a_floor_passage
usemtl Floor
v -55.635000 -6.200000 0.500000
v -55.545000 -6.200000 0.500000
v -55.545000 -6.200000 6.000000
v -55.635000 -6.200000 6.000000
v -55.635000 -6.000000 0.500000
v -55.545000 -6.000000 0.500000
v -55.545000 -6.000000 6.000000
v -55.635000 -6.000000 6.000000
v -55.635000 -6.200000 0.500000
v -55.545000 -6.200000 0.500000
v -55.545000 -6.000000 0.500000
v -55.635000 -6.000000 0.500000
v -55.545000 -6.200000 0.500000
v -55.545000 -6.200000 6.000000
v -55.545000 -6.000000 6.000000
v -55.545000 -6.000000 0.500000
v -55.545000 -6.200000 6.000000
v -55.635000 -6.200000 6.000000
v -55.635000 -6.000000 6.000000
v -55.545000 -6.000000 6.000000
v -55.635000 -6.200000 6.000000
v -55.635000 -6.200000 0.500000
v -55.635000 -6.000000 0.500000
v -55.635000 -6.000000 6.000000
vn 0.000000 -1.000000 0.000000
vn 0.000000 -1.000000 0.000000
vn 0.000000 1.000000 0.000000
vn 0.000000 1.000000 -0.000000
vn 0.000000 0.000000 -1.000000
vn 0.000000 0.000000 -1.000000
vn 1.000000 0.000000 0.000000
vn 1.000000 0.000000 0.000000
vn 0.000000 0.000000 1.000000
vn 0.000000 -0.000000 1.000000
vn -1.000000 0.000000 0.000000
vn -1.000000 0.000000 0.000000
f 88//43 85//43 86//43
f 86//44 87//44 88//44
f 92//45 90//45 89//45
f 90//46 92//46 91//46
f 93//47 95//47 94//47
f 93//48 96//48 95//48
f 97//49 99//49 98//49
f 97//50 100//50 99//50
f 101//51 103//51 102//51
f 101//52 104//52 103//52
f 105//53 107//53 106//53
f 105//54 108//54 107//54
o Floor_004_l_archive_a_floor_passage
usemtl Floor
v -55.545000 -6.200000 0.500000
v -55.500000 -6.200000 0.500000
v -55.500000 -6.200000 6.000000
v -55.545000 -6.200000 6.000000
v -55.545000 -6.000000 0.500000
v -55.500000 -6.000000 0.500000
v -55.500000 -6.000000 6.000000
v -55.545000 -6.000000 6.000000
v -55.545000 -6.200000 0.500000
v -55.500000 -6.200000 0.500000
v -55.500000 -6.000000 0.500000
v -55.545000 -6.000000 0.500000
v -55.500000 -6.200000 0.500000
v -55.500000 -6.200000 6.000000
v -55.500000 -6.000000 6.000000
v -55.500000 -6.000000 0.500000
v -55.500000 -6.200000 6.000000
v -55.545000 -6.200000 6.000000
v -55.545000 -6.000000 6.000000
v -55.500000 -6.000000 6.000000
v -55.545000 -6.200000 6.000000
v -55.545000 -6.200000 0.500000
v -55.545000 -6.000000 0.500000
v -55.545000 -6.000000 6.000000
vn 0.000000 -1.000000 0.000000
vn 0.000000 -1.000000 0.000000
vn 0.000000 1.000000 0.000000
vn 0.000000 1.000000 -0.000000
vn 0.000000 0.000000 -1.000000
vn 0.000000 0.000000 -1.000000
vn 1.000000 0.000000 0.000000
vn 1.000000 0.000000 0.000000
vn 0.000000 0.000000 1.000000
vn 0.000000 -0.000000 1.000000
vn -1.000000 0.000000 0.000000
vn -1.000000 0.000000 0.000000
f 112//55 109//55 110//55
f 110//56 111//56 112//56
f 116//57 114//57 113//57
f 114//58 116//58 115//58
f 117//59 119//59 118//59
f 117//60 120//60 119//60
f 121//61 123//61 122//61
f 121//62 124//62 123//62
f 125//63 127//63 126//63
f 125//64 128//64 127//64
f 129//65 131//65 130//65
f 129//66 132//66 131//66
o Floor_005_l_archive_a_floor_passage
usemtl Floor
v -55.545000 -6.200000 6.000000
v -55.500000 -6.200000 6.000000
v -55.500000 -6.200000 13.000000
v -55.545000 -6.200000 13.000000
v -55.545000 -6.000000 6.000000
v -55.500000 -6.000000 6.000000
v -55.500000 -6.000000 13.000000
v -55.545000 -6.000000 13.000000
v -55.545000 -6.200000 6.000000
v -55.500000 -6.200000 6.000000
v -55.500000 -6.000000 6.000000
v -55.545000 -6.000000 6.000000
v -55.500000 -6.200000 6.000000
v -55.500000 -6.200000 13.000000
v -55.500000 -6.000000 13.000000
v -55.500000 -6.000000 6.000000
v -55.500000 -6.200000 13.000000
v -55.545000 -6.200000 13.000000
v -55.545000 -6.000000 13.000000
v -55.500000 -6.000000 13.000000
v -55.545000 -6.200000 13.000000
v -55.545000 -6.200000 6.000000
v -55.545000 -6.000000 6.000000
v -55.545000 -6.000000 13.000000
vn 0.000000 -1.000000 0.000000
vn 0.000000 -1.000000 0.000000
vn 0.000000 1.000000 0.000000
vn 0.000000 1.000000 -0.000000
vn 0.000000 0.000000 -1.000000
vn 0.000000 0.000000 -1.000000
vn 1.000000 0.000000 0.000000
vn 1.000000 0.000000 0.000000
vn 0.000000 0.000000 1.000000
vn 0.000000 -0.000000 1.000000
vn -1.000000 0.000000 0.000000
vn -1.000000 0.000000 0.000000
f 136//67 133//67 134//67
f 134//68 135//68 136//68
f 140//69 138//69 137//69
f 138//70 140//70 139//70
f 141//71 143//71 142//71
f 141//72 144//72 143//72
f 145//73 147//73 146//73
f 145//74 148//74 147//74
f 149//75 151//75 150//75
f 149//76 152//76 151//76
f 153//77 155//77 154//77
f 153//78 156//78 155//78
o Floor_006_l_archive_a_floor_lobby
usemtl Floor
v -55.500000 -6.200000 0.500000
v -49.500000 -6.200000 0.500000
v -49.500000 -6.200000 6.000000
v -55.500000 -6.200000 6.000000
v -55.500000 -6.000000 0.500000
v -49.500000 -6.000000 0.500000
v -49.500000 -6.000000 6.000000
v -55.500000 -6.000000 6.000000
v -55.500000 -6.200000 0.500000
v -49.500000 -6.200000 0.500000
v -49.500000 -6.000000 0.500000
v -55.500000 -6.000000 0.500000
v -49.500000 -6.200000 0.500000
v -49.500000 -6.200000 6.000000
v -49.500000 -6.000000 6.000000
v -49.500000 -6.000000 0.500000
v -49.500000 -6.200000 6.000000
v -55.500000 -6.200000 6.000000
v -55.500000 -6.000000 6.000000
v -49.500000 -6.000000 6.000000
v -55.500000 -6.200000 6.000000
v -55.500000 -6.200000 0.500000
v -55.500000 -6.000000 0.500000
v -55.500000 -6.000000 6.000000
vn 0.000000 -1.000000 0.000000
vn 0.000000 -1.000000 0.000000
vn 0.000000 1.000000 0.000000
vn 0.000000 1.000000 -0.000000
vn 0.000000 0.000000 -1.000000
vn 0.000000 0.000000 -1.000000
vn 1.000000 0.000000 0.000000
vn 1.000000 0.000000 0.000000
vn 0.000000 0.000000 1.000000
vn 0.000000 -0.000000 1.000000
vn -1.000000 0.000000 0.000000
vn -1.000000 0.000000 0.000000
f 160//79 157//79 158//79
f 158//80 159//80 160//80
f 164//81 162//81 161//81
f 162//82 164//82 163//82
f 165//83 167//83 166//83
f 165//84 168//84 167//84
f 169//85 171//85 170//85
f 169//86 172//86 171//86
f 173//87 175//87 174//87
f 173//88 176//88 175//88
f 177//89 179//89 178//89
f 177//90 180//90 179//90
o Floor_007_l_archive_a_floor_stair
usemtl Floor
v -55.500000 -6.200000 6.000000
v -54.350000 -6.200000 6.000000
v -54.350000 -6.200000 13.000000
v -55.500000 -6.200000 13.000000
v -55.500000 -6.000000 6.000000
v -54.350000 -6.000000 6.000000
v -54.350000 -6.000000 13.000000
v -55.500000 -6.000000 13.000000
v -54.350000 -6.200000 6.250000
v -52.850000 -6.200000 6.250000
v -52.850000 -6.200000 13.000000
v -54.350000 -6.200000 13.000000
v -54.350000 -6.000000 6.250000
v -52.850000 -6.000000 6.250000
v -52.850000 -6.000000 13.000000
v -54.350000 -6.000000 13.000000
v -52.850000 -6.200000 6.000000
v -49.500000 -6.200000 6.000000
v -49.500000 -6.200000 13.000000
v -52.850000 -6.200000 13.000000
v -52.850000 -6.000000 6.000000
v -49.500000 -6.000000 6.000000
v -49.500000 -6.000000 13.000000
v -52.850000 -6.000000 13.000000
v -55.500000 -6.200000 6.000000
v -54.350000 -6.200000 6.000000
v -54.350000 -6.000000 6.000000
v -55.500000 -6.000000 6.000000
v -54.350000 -6.200000 6.000000
v -54.350000 -6.200000 6.250000
v -54.350000 -6.000000 6.250000
v -54.350000 -6.000000 6.000000
v -54.350000 -6.200000 6.250000
v -54.350000 -6.200000 6.250000
v -54.350000 -6.000000 6.250000
v -54.350000 -6.000000 6.250000
v -54.350000 -6.200000 13.000000
v -55.500000 -6.200000 13.000000
v -55.500000 -6.000000 13.000000
v -54.350000 -6.000000 13.000000
v -55.500000 -6.200000 13.000000
v -55.500000 -6.200000 6.000000
v -55.500000 -6.000000 6.000000
v -55.500000 -6.000000 13.000000
v -54.350000 -6.200000 6.250000
v -52.850000 -6.200000 6.250000
v -52.850000 -6.000000 6.250000
v -54.350000 -6.000000 6.250000
v -52.850000 -6.200000 13.000000
v -54.350000 -6.200000 13.000000
v -54.350000 -6.000000 13.000000
v -52.850000 -6.000000 13.000000
v -52.850000 -6.200000 6.000000
v -49.500000 -6.200000 6.000000
v -49.500000 -6.000000 6.000000
v -52.850000 -6.000000 6.000000
v -49.500000 -6.200000 6.000000
v -49.500000 -6.200000 13.000000
v -49.500000 -6.000000 13.000000
v -49.500000 -6.000000 6.000000
v -49.500000 -6.200000 13.000000
v -52.850000 -6.200000 13.000000
v -52.850000 -6.000000 13.000000
v -49.500000 -6.000000 13.000000
v -52.850000 -6.200000 6.250000
v -52.850000 -6.200000 6.250000
v -52.850000 -6.000000 6.250000
v -52.850000 -6.000000 6.250000
v -52.850000 -6.200000 6.250000
v -52.850000 -6.200000 6.000000
v -52.850000 -6.000000 6.000000
v -52.850000 -6.000000 6.250000
vn 0.000000 -1.000000 0.000000
vn 0.000000 -1.000000 0.000000
vn 0.000000 1.000000 0.000000
vn 0.000000 1.000000 -0.000000
vn 0.000000 -1.000000 0.000000
vn 0.000000 -1.000000 0.000000
vn 0.000000 1.000000 0.000000
vn 0.000000 1.000000 -0.000000
vn 0.000000 -1.000000 0.000000
vn 0.000000 -1.000000 0.000000
vn 0.000000 1.000000 0.000000
vn 0.000000 1.000000 -0.000000
vn 0.000000 0.000000 -1.000000
vn 0.000000 0.000000 -1.000000
vn 1.000000 0.000000 0.000000
vn 1.000000 0.000000 0.000000
vn 0.000000 1.000000 0.000000
vn 0.000000 1.000000 0.000000
vn 0.000000 0.000000 1.000000
vn 0.000000 -0.000000 1.000000
vn -1.000000 0.000000 0.000000
vn -1.000000 0.000000 0.000000
vn 0.000000 0.000000 -1.000000
vn 0.000000 0.000000 -1.000000
vn 0.000000 0.000000 1.000000
vn 0.000000 -0.000000 1.000000
vn 0.000000 0.000000 -1.000000
vn 0.000000 0.000000 -1.000000
vn 1.000000 0.000000 0.000000
vn 1.000000 0.000000 0.000000
vn 0.000000 0.000000 1.000000
vn 0.000000 -0.000000 1.000000
vn 0.000000 1.000000 0.000000
vn 0.000000 1.000000 0.000000
vn -1.000000 0.000000 0.000000
vn -1.000000 0.000000 0.000000
f 184//91 181//91 182//91
f 182//92 183//92 184//92
f 188//93 186//93 185//93
f 186//94 188//94 187//94
f 192//95 189//95 190//95
f 190//96 191//96 192//96
f 196//97 194//97 193//97
f 194//98 196//98 195//98
f 200//99 197//99 198//99
f 198//100 199//100 200//100
f 204//101 202//101 201//101
f 202//102 204//102 203//102
f 205//103 207//103 206//103
f 205//104 208//104 207//104
f 209//105 211//105 210//105
f 209//106 212//106 211//106
f 213//107 215//107 214//107
f 213//108 216//108 215//108
f 217//109 219//109 218//109
f 217//110 220//110 219//110
f 221//111 223//111 222//111
f 221//112 224//112 223//112
f 225//113 227//113 226//113
f 225//114 228//114 227//114
f 229//115 231//115 230//115
f 229//116 232//116 231//116
f 233//117 235//117 234//117
f 233//118 236//118 235//118
f 237//119 239//119 238//119
f 237//120 240//120 239//120
f 241//121 243//121 242//121
f 241//122 244//122 243//122
f 245//123 247//123 246//123
f 245//124 248//124 247//124
f 249//125 251//125 250//125
f 249//126 252//126 251//126
o Floor_008_l_archive_a_floor_partition
usemtl Floor
v -49.500000 -6.200000 0.500000
v -49.260000 -6.200000 0.500000
v -49.260000 -6.200000 6.000000
v -49.500000 -6.200000 6.000000
v -49.500000 -6.000000 0.500000
v -49.260000 -6.000000 0.500000
v -49.260000 -6.000000 6.000000
v -49.500000 -6.000000 6.000000
v -49.500000 -6.200000 13.045000
v -49.365000 -6.200000 13.045000
v -49.365000 -6.200000 15.000000
v -49.500000 -6.200000 15.000000
v -49.500000 -6.000000 13.045000
v -49.365000 -6.000000 13.045000
v -49.365000 -6.000000 15.000000
v -49.500000 -6.000000 15.000000
v -49.455000 -6.200000 6.000000
v -49.365000 -6.200000 6.000000
v -49.365000 -6.200000 13.045000
v -49.455000 -6.200000 13.045000
v -49.455000 -6.000000 6.000000
v -49.365000 -6.000000 6.000000
v -49.365000 -6.000000 13.045000
v -49.455000 -6.000000 13.045000
v -49.365000 -6.200000 6.000000
v -49.260000 -6.200000 6.000000
v -49.260000 -6.200000 15.000000
v -49.365000 -6.200000 15.000000
v -49.365000 -6.000000 6.000000
v -49.260000 -6.000000 6.000000
v -49.260000 -6.000000 15.000000
v -49.365000 -6.000000 15.000000
v -49.260000 -6.200000 0.500000
v -41.000000 -6.200000 0.500000
v -41.000000 -6.200000 15.000000
v -49.260000 -6.200000 15.000000
v -49.260000 -6.000000 0.500000
v -41.000000 -6.000000 0.500000
v -41.000000 -6.000000 15.000000
v -49.260000 -6.000000 15.000000
v -49.500000 -6.200000 0.500000
v -49.260000 -6.200000 0.500000
v -49.260000 -6.000000 0.500000
v -49.500000 -6.000000 0.500000
v -49.455000 -6.200000 6.000000
v -49.455000 -6.200000 6.000000
v -49.455000 -6.000000 6.000000
v -49.455000 -6.000000 6.000000
v -49.455000 -6.200000 6.000000
v -49.500000 -6.200000 6.000000
v -49.500000 -6.000000 6.000000
v -49.455000 -6.000000 6.000000
v -49.500000 -6.200000 6.000000
v -49.500000 -6.200000 0.500000
v -49.500000 -6.000000 0.500000
v -49.500000 -6.000000 6.000000
v -49.500000 -6.200000 13.045000
v -49.455000 -6.200000 13.045000
v -49.455000 -6.000000 13.045000
v -49.500000 -6.000000 13.045000
v -49.455000 -6.200000 13.045000
v -49.455000 -6.200000 13.045000
v -49.455000 -6.000000 13.045000
v -49.455000 -6.000000 13.045000
v -49.365000 -6.200000 15.000000
v -49.500000 -6.200000 15.000000
v -49.500000 -6.000000 15.000000
v -49.365000 -6.000000 15.000000
v -49.500000 -6.200000 15.000000
v -49.500000 -6.200000 13.045000
v -49.500000 -6.000000 13.045000
v -49.500000 -6.000000 15.000000
v -49.455000 -6.200000 13.045000
v -49.455000 -6.200000 6.000000
v -49.455000 -6.000000 6.000000
v -49.455000 -6.000000 13.045000
v -49.260000 -6.200000 15.000000
v -49.365000 -6.200000 15.000000
v -49.365000 -6.000000 15.000000
v -49.260000 -6.000000 15.000000
v -49.260000 -6.200000 0.500000
v -41.000000 -6.200000 0.500000
v -41.000000 -6.000000 0.500000
v -49.260000 -6.000000 0.500000
v -41.000000 -6.200000 0.500000
v -41.000000 -6.200000 15.000000
v -41.000000 -6.000000 15.000000
v -41.000000 -6.000000 0.500000
v -41.000000 -6.200000 15.000000
v -49.260000 -6.200000 15.000000
v -49.260000 -6.000000 15.000000
v -41.000000 -6.000000 15.000000
vn 0.000000 -1.000000 0.000000
vn 0.000000 -1.000000 0.000000
vn 0.000000 1.000000 0.000000
vn 0.000000 1.000000 -0.000000
vn 0.000000 -1.000000 0.000000
vn 0.000000 -1.000000 0.000000
vn 0.000000 1.000000 0.000000
vn 0.000000 1.000000 -0.000000
vn 0.000000 -1.000000 0.000000
vn 0.000000 -1.000000 0.000000
vn 0.000000 1.000000 0.000000
vn 0.000000 1.000000 -0.000000
vn 0.000000 -1.000000 0.000000
vn 0.000000 -1.000000 0.000000
vn 0.000000 1.000000 0.000000
vn 0.000000 1.000000 -0.000000
vn 0.000000 -1.000000 0.000000
vn 0.000000 -1.000000 0.000000
vn 0.000000 1.000000 0.000000
vn 0.000000 1.000000 -0.000000
vn 0.000000 0.000000 -1.000000
vn 0.000000 0.000000 -1.000000
vn 0.000000 1.000000 0.000000
vn 0.000000 1.000000 0.000000
vn 0.000000 0.000000 1.000000
vn 0.000000 -0.000000 1.000000
vn -1.000000 0.000000 0.000000
vn -1.000000 0.000000 0.000000
vn 0.000000 0.000000 -1.000000
vn 0.000000 0.000000 -1.000000
vn 0.000000 1.000000 0.000000
vn 0.000000 1.000000 0.000000
vn 0.000000 0.000000 1.000000
vn 0.000000 -0.000000 1.000000
vn -1.000000 0.000000 0.000000
vn -1.000000 0.000000 0.000000
vn -1.000000 0.000000 0.000000
vn -1.000000 0.000000 0.000000
vn 0.000000 0.000000 1.000000
vn 0.000000 -0.000000 1.000000
vn 0.000000 0.000000 -1.000000
vn 0.000000 0.000000 -1.000000
vn 1.000000 0.000000 0.000000
vn 1.000000 0.000000 0.000000
vn 0.000000 0.000000 1.000000
vn 0.000000 -0.000000 1.000000
f 256//127 253//127 254//127
f 254//128 255//128 256//128
f 260//129 258//129 257//129
f 258//130 260//130 259//130
f 264//131 261//131 262//131
f 262//132 263//132 264//132
f 268//133 266//133 265//133
f 266//134 268//134 267//134
f 272//135 269//135 270//135
f 270//136 271//136 272//136
f 276//137 274//137 273//137
f 274//138 276//138 275//138
f 280//139 277//139 278//139
f 278//140 279//140 280//140
f 284//141 282//141 281//141
f 282//142 284//142 283//142
f 288//143 285//143 286//143
f 286//144 287//144 288//144
f 292//145 290//145 289//145
f 290//146 292//146 291//146
f 293//147 295//147 294//147
f 293//148 296//148 295//148
f 297//149 299//149 298//149
f 297//150 300//150 299//150
f 301//151 303//151 302//151
f 301//152 304//152 303//152
f 305//153 307//153 306//153
f 305//154 308//154 307//154
f 309//155 311//155 310//155
f 309//156 312//156 311//156
f 313//157 315//157 314//157
f 313//158 316//158 315//158
f 317//159 319//159 318//159
f 317//160 320//160 319//160
f 321//161 323//161 322//161
f 321//162 324//162 323//162
f 325//163 327//163 326//163
f 325//164 328//164 327//164
f 329//165 331//165 330//165
f 329//166 332//166 331//166
f 333//167 335//167 334//167
f 333//168 336//168 335//168
f 337//169 339//169 338//169
f 337//170 340//170 339//170
f 341//171 343//171 342//171
f 341//172 344//172 343//172
o Floor_009_l_archive_a_floor_partition
usemtl Floor
v -49.500000 -6.200000 6.000000
v -49.455000 -6.200000 6.000000
v -49.455000 -6.200000 13.045000
v -49.500000 -6.200000 13.045000
v -49.500000 -6.000000 6.000000
v -49.455000 -6.000000 6.000000
v -49.455000 -6.000000 13.045000
v -49.500000 -6.000000 13.045000
v -49.500000 -6.200000 6.000000
v -49.455000 -6.200000 6.000000
v -49.455000 -6.000000 6.000000
v -49.500000 -6.000000 6.000000
v -49.455000 -6.200000 6.000000
v -49.455000 -6.200000 13.045000
v -49.455000 -6.000000 13.045000
v -49.455000 -6.000000 6.000000
v -49.455000 -6.200000 13.045000
v -49.500000 -6.200000 13.045000
v -49.500000 -6.000000 13.045000
v -49.455000 -6.000000 13.045000
v -49.500000 -6.200000 13.045000
v -49.500000 -6.200000 6.000000
v -49.500000 -6.000000 6.000000
v -49.500000 -6.000000 13.045000
vn 0.000000 -1.000000 0.000000
vn 0.000000 -1.000000 0.000000
vn 0.000000 1.000000 0.000000
vn 0.000000 1.000000 -0.000000
vn 0.000000 0.000000 -1.000000
vn 0.000000 0.000000 -1.000000
vn 1.000000 0.000000 0.000000
vn 1.000000 0.000000 0.000000
vn 0.000000 0.000000 1.000000
vn 0.000000 -0.000000 1.000000
vn -1.000000 0.000000 0.000000
vn -1.000000 0.000000 0.000000
f 348//173 345//173 346//173
f 346//174 347//174 348//174
f 352//175 350//175 349//175
f 350//176 352//176 351//176
f 353//177 355//177 354//177
f 353//178 356//178 355//178
f 357//179 359//179 358//179
f 357//180 360//180 359//180
f 361//181 363//181 362//181
f 361//182 364//182 363//182
f 365//183 367//183 366//183
f 365//184 368//184 367//184
