# Generated by svg_to_godot3d
mtllib geometry.mtl
s off
o Wall_1_w_afd28fdc8d
usemtl Wall
v -101.849500 -11.500000 20.350000
v -88.080000 -11.500000 20.350000
v -88.080000 -7.300000 20.350000
v -101.849500 -7.300000 20.350000
v -101.849500 -11.500000 20.650000
v -88.080000 -11.500000 20.650000
v -88.080000 -7.300000 20.650000
v -101.849500 -7.300000 20.650000
vn 0.000000 0.000000 -1.000000
vn 0.000000 0.000000 -1.000000
vn 0.000000 0.000000 1.000000
vn 0.000000 0.000000 1.000000
vn 0.000000 -1.000000 0.000000
vn 0.000000 -1.000000 0.000000
vn 0.000000 1.000000 0.000000
vn 0.000000 1.000000 0.000000
vn -1.000000 0.000000 0.000000
vn -1.000000 0.000000 0.000000
vn 1.000000 0.000000 0.000000
vn 1.000000 0.000000 0.000000
f 1//1 3//1 2//1
f 1//2 4//2 3//2
f 5//3 6//3 7//3
f 5//4 7//4 8//4
f 1//5 2//5 6//5
f 1//6 6//6 5//6
f 4//7 8//7 7//7
f 4//8 7//8 3//8
f 1//9 5//9 8//9
f 1//10 8//10 4//10
f 2//11 3//11 7//11
f 2//12 7//12 6//12
o Wall_2_w_afd28fdc8d
usemtl Wall
v -88.080000 -11.500000 20.350000
v -83.940000 -11.500000 20.350000
v -83.940000 -7.300000 20.350000
v -88.080000 -7.300000 20.350000
v -88.080000 -11.500000 20.650000
v -83.940000 -11.500000 20.650000
v -83.940000 -7.300000 20.650000
v -88.080000 -7.300000 20.650000
vn 0.000000 0.000000 -1.000000
vn 0.000000 0.000000 -1.000000
vn 0.000000 0.000000 1.000000
vn 0.000000 0.000000 1.000000
vn 0.000000 -1.000000 0.000000
vn 0.000000 -1.000000 0.000000
vn 0.000000 1.000000 0.000000
vn 0.000000 1.000000 0.000000
vn -1.000000 0.000000 0.000000
vn -1.000000 0.000000 0.000000
vn 1.000000 0.000000 0.000000
vn 1.000000 0.000000 0.000000
f 9//13 11//13 10//13
f 9//14 12//14 11//14
f 13//15 14//15 15//15
f 13//16 15//16 16//16
f 9//17 10//17 14//17
f 9//18 14//18 13//18
f 12//19 16//19 15//19
f 12//20 15//20 11//20
f 9//21 13//21 16//21
f 9//22 16//22 12//22
f 10//23 11//23 15//23
f 10//24 15//24 14//24
o Wall_3_w_afd28fdc8d
usemtl Wall
v -82.140000 -11.500000 20.350000
v -78.000000 -11.500000 20.350000
v -78.000000 -7.300000 20.350000
v -82.140000 -7.300000 20.350000
v -82.140000 -11.500000 20.650000
v -78.000000 -11.500000 20.650000
v -78.000000 -7.300000 20.650000
v -82.140000 -7.300000 20.650000
vn 0.000000 0.000000 -1.000000
vn 0.000000 0.000000 -1.000000
vn 0.000000 0.000000 1.000000
vn 0.000000 0.000000 1.000000
vn 0.000000 -1.000000 0.000000
vn 0.000000 -1.000000 0.000000
vn 0.000000 1.000000 0.000000
vn 0.000000 1.000000 0.000000
vn -1.000000 0.000000 0.000000
vn -1.000000 0.000000 0.000000
vn 1.000000 0.000000 0.000000
vn 1.000000 0.000000 0.000000
f 17//25 19//25 18//25
f 17//26 20//26 19//26
f 21//27 22//27 23//27
f 21//28 23//28 24//28
f 17//29 18//29 22//29
f 17//30 22//30 21//30
f 20//31 24//31 23//31
f 20//32 23//32 19//32
f 17//33 21//33 24//33
f 17//34 24//34 20//34
f 18//35 19//35 23//35
f 18//36 23//36 22//36
o Wall_4_w_afd28fdc8d
usemtl Wall
v -83.940000 -9.100000 20.350000
v -82.140000 -9.100000 20.350000
v -82.140000 -7.300000 20.350000
v -83.940000 -7.300000 20.350000
v -83.940000 -9.100000 20.650000
v -82.140000 -9.100000 20.650000
v -82.140000 -7.300000 20.650000
v -83.940000 -7.300000 20.650000
vn 0.000000 0.000000 -1.000000
vn 0.000000 0.000000 -1.000000
vn 0.000000 0.000000 1.000000
vn 0.000000 0.000000 1.000000
vn 0.000000 -1.000000 0.000000
vn 0.000000 -1.000000 0.000000
vn 0.000000 1.000000 0.000000
vn 0.000000 1.000000 0.000000
vn -1.000000 0.000000 0.000000
vn -1.000000 0.000000 0.000000
vn 1.000000 0.000000 0.000000
vn 1.000000 0.000000 0.000000
f 25//37 27//37 26//37
f 25//38 28//38 27//38
f 29//39 30//39 31//39
f 29//40 31//40 32//40
f 25//41 26//41 30//41
f 25//42 30//42 29//42
f 28//43 32//43 31//43
f 28//44 31//44 27//44
f 25//45 29//45 32//45
f 25//46 32//46 28//46
f 26//47 27//47 31//47
f 26//48 31//48 30//48
o Wall_5_w_9a2100c98e
usemtl Wall
v -101.849500 -11.500000 36.520000
v -95.940000 -11.500000 36.520000
v -95.940000 -7.300000 36.520000
v -101.849500 -7.300000 36.520000
v -101.849500 -11.500000 36.820000
v -95.940000 -11.500000 36.820000
v -95.940000 -7.300000 36.820000
v -101.849500 -7.300000 36.820000
vn 0.000000 0.000000 -1.000000
vn 0.000000 0.000000 -1.000000
vn 0.000000 0.000000 1.000000
vn 0.000000 0.000000 1.000000
vn 0.000000 -1.000000 0.000000
vn 0.000000 -1.000000 0.000000
vn 0.000000 1.000000 0.000000
vn 0.000000 1.000000 0.000000
vn -1.000000 0.000000 0.000000
vn -1.000000 0.000000 0.000000
vn 1.000000 0.000000 0.000000
vn 1.000000 0.000000 0.000000
f 33//49 35//49 34//49
f 33//50 36//50 35//50
f 37//51 38//51 39//51
f 37//52 39//52 40//52
f 33//53 34//53 38//53
f 33//54 38//54 37//54
f 36//55 40//55 39//55
f 36//56 39//56 35//56
f 33//57 37//57 40//57
f 33//58 40//58 36//58
f 34//59 35//59 39//59
f 34//60 39//60 38//60
o Wall_6_w_9a2100c98e
usemtl Wall
v -94.140000 -11.500000 36.520000
v -88.230500 -11.500000 36.520000
v -88.230500 -7.300000 36.520000
v -94.140000 -7.300000 36.520000
v -94.140000 -11.500000 36.820000
v -88.230500 -11.500000 36.820000
v -88.230500 -7.300000 36.820000
v -94.140000 -7.300000 36.820000
vn 0.000000 0.000000 -1.000000
vn 0.000000 0.000000 -1.000000
vn 0.000000 0.000000 1.000000
vn 0.000000 0.000000 1.000000
vn 0.000000 -1.000000 0.000000
vn 0.000000 -1.000000 0.000000
vn 0.000000 1.000000 0.000000
vn 0.000000 1.000000 0.000000
vn -1.000000 0.000000 0.000000
vn -1.000000 0.000000 0.000000
vn 1.000000 0.000000 0.000000
vn 1.000000 0.000000 0.000000
f 41//61 43//61 42//61
f 41//62 44//62 43//62
f 45//63 46//63 47//63
f 45//64 47//64 48//64
f 41//65 42//65 46//65
f 41//66 46//66 45//66
f 44//67 48//67 47//67
f 44//68 47//68 43//68
f 41//69 45//69 48//69
f 41//70 48//70 44//70
f 42//71 43//71 47//71
f 42//72 47//72 46//72
o Wall_7_w_9a2100c98e
usemtl Wall
v -95.940000 -8.700000 36.520000
v -94.140000 -8.700000 36.520000
v -94.140000 -7.300000 36.520000
v -95.940000 -7.300000 36.520000
v -95.940000 -8.700000 36.820000
v -94.140000 -8.700000 36.820000
v -94.140000 -7.300000 36.820000
v -95.940000 -7.300000 36.820000
vn 0.000000 0.000000 -1.000000
vn 0.000000 0.000000 -1.000000
vn 0.000000 0.000000 1.000000
vn 0.000000 0.000000 1.000000
vn 0.000000 -1.000000 0.000000
vn 0.000000 -1.000000 0.000000
vn 0.000000 1.000000 0.000000
vn 0.000000 1.000000 0.000000
vn -1.000000 0.000000 0.000000
vn -1.000000 0.000000 0.000000
vn 1.000000 0.000000 0.000000
vn 1.000000 0.000000 0.000000
f 49//73 51//73 50//73
f 49//74 52//74 51//74
f 53//75 54//75 55//75
f 53//76 55//76 56//76
f 49//77 50//77 54//77
f 49//78 54//78 53//78
f 52//79 56//79 55//79
f 52//80 55//80 51//80
f 49//81 53//81 56//81
f 49//82 56//82 52//82
f 50//83 51//83 55//83
f 50//84 55//84 54//84
o Wall_8_w_2ebb71e47d
usemtl Wall
v -88.080000 -11.500000 36.520000
v -78.150500 -11.500000 36.520000
v -78.150500 -8.100000 36.520000
v -88.080000 -8.100000 36.520000
v -88.080000 -11.500000 36.820000
v -78.150500 -11.500000 36.820000
v -78.150500 -8.100000 36.820000
v -88.080000 -8.100000 36.820000
vn 0.000000 0.000000 -1.000000
vn 0.000000 0.000000 -1.000000
vn 0.000000 0.000000 1.000000
vn 0.000000 0.000000 1.000000
vn 0.000000 -1.000000 0.000000
vn 0.000000 -1.000000 0.000000
vn 0.000000 1.000000 0.000000
vn 0.000000 1.000000 0.000000
vn -1.000000 0.000000 0.000000
vn -1.000000 0.000000 0.000000
vn 1.000000 0.000000 0.000000
vn 1.000000 0.000000 0.000000
f 57//85 59//85 58//85
f 57//86 60//86 59//86
f 61//87 62//87 63//87
f 61//88 63//88 64//88
f 57//89 58//89 62//89
f 57//90 62//90 61//90
f 60//91 64//91 63//91
f 60//92 63//92 59//92
f 57//93 61//93 64//93
f 57//94 64//94 60//94
f 58//95 59//95 63//95
f 58//96 63//96 62//96
o Wall_9_w_2cf49ee9be
usemtl Wall
v -101.850000 -11.500000 20.350000
v -101.850000 -11.500000 36.670000
v -101.850000 -7.300000 36.670000
v -101.850000 -7.300000 20.350000
v -102.150000 -11.500000 20.350000
v -102.150000 -11.500000 36.670000
v -102.150000 -7.300000 36.670000
v -102.150000 -7.300000 20.350000
vn 1.000000 0.000000 0.000000
vn 1.000000 0.000000 0.000000
vn -1.000000 0.000000 0.000000
vn -1.000000 0.000000 0.000000
vn 0.000000 -1.000000 0.000000
vn 0.000000 -1.000000 0.000000
vn 0.000000 1.000000 0.000000
vn 0.000000 1.000000 -0.000000
vn 0.000000 0.000000 -1.000000
vn 0.000000 0.000000 -1.000000
vn 0.000000 -0.000000 1.000000
vn 0.000000 0.000000 1.000000
f 65//97 67//97 66//97
f 65//98 68//98 67//98
f 69//99 70//99 71//99
f 69//100 71//100 72//100
f 65//101 66//101 70//101
f 65//102 70//102 69//102
f 68//103 72//103 71//103
f 68//104 71//104 67//104
f 65//105 69//105 72//105
f 65//106 72//106 68//106
f 66//107 67//107 71//107
f 66//108 71//108 70//108
o Wall_10_w_2cf49ee9be
usemtl Wall
v -101.850000 -11.500000 36.670000
v -101.850000 -11.500000 44.849500
v -101.850000 -7.300000 44.849500
v -101.850000 -7.300000 36.670000
v -102.150000 -11.500000 36.670000
v -102.150000 -11.500000 44.849500
v -102.150000 -7.300000 44.849500
v -102.150000 -7.300000 36.670000
vn 1.000000 0.000000 0.000000
vn 1.000000 0.000000 0.000000
vn -1.000000 0.000000 0.000000
vn -1.000000 0.000000 0.000000
vn 0.000000 -1.000000 0.000000
vn 0.000000 -1.000000 0.000000
vn 0.000000 1.000000 0.000000
vn 0.000000 1.000000 -0.000000
vn 0.000000 0.000000 -1.000000
vn 0.000000 0.000000 -1.000000
vn 0.000000 -0.000000 1.000000
vn 0.000000 0.000000 1.000000
f 73//109 75//109 74//109
f 73//110 76//110 75//110
f 77//111 78//111 79//111
f 77//112 79//112 80//112
f 73//113 74//113 78//113
f 73//114 78//114 77//114
f 76//115 80//115 79//115
f 76//116 79//116 75//116
f 73//117 77//117 80//117
f 73//118 80//118 76//118
f 74//119 75//119 79//119
f 74//120 79//120 78//120
o Wall_11_w_e9675a9000
usemtl Wall
v -87.930000 -11.500000 20.650500
v -87.930000 -11.500000 27.685000
v -87.930000 -7.300000 27.685000
v -87.930000 -7.300000 20.650500
v -88.230000 -11.500000 20.650500
v -88.230000 -11.500000 27.685000
v -88.230000 -7.300000 27.685000
v -88.230000 -7.300000 20.650500
vn 1.000000 0.000000 0.000000
vn 1.000000 0.000000 0.000000
vn -1.000000 0.000000 0.000000
vn -1.000000 0.000000 0.000000
vn 0.000000 -1.000000 0.000000
vn 0.000000 -1.000000 0.000000
vn 0.000000 1.000000 0.000000
vn 0.000000 1.000000 -0.000000
vn 0.000000 0.000000 -1.000000
vn 0.000000 0.000000 -1.000000
vn 0.000000 -0.000000 1.000000
vn 0.000000 0.000000 1.000000
f 81//121 83//121 82//121
f 81//122 84//122 83//122
f 85//123 86//123 87//123
f 85//124 87//124 88//124
f 81//125 82//125 86//125
f 81//126 86//126 85//126
f 84//127 88//127 87//127
f 84//128 87//128 83//128
f 81//129 85//129 88//129
f 81//130 88//130 84//130
f 82//131 83//131 87//131
f 82//132 87//132 86//132
o Wall_12_w_b917b2dc2a_w_e9675a9000
usemtl Wall
v -87.930000 -11.500000 29.485000
v -87.930000 -11.500000 36.670000
v -87.930000 -7.300000 36.670000
v -87.930000 -7.300000 29.485000
v -88.230000 -11.500000 29.485000
v -88.230000 -11.500000 36.670000
v -88.230000 -7.300000 36.670000
v -88.230000 -7.300000 29.485000
vn 1.000000 0.000000 0.000000
vn 1.000000 0.000000 0.000000
vn -1.000000 0.000000 0.000000
vn -1.000000 0.000000 0.000000
vn 0.000000 -1.000000 0.000000
vn 0.000000 -1.000000 0.000000
vn 0.000000 1.000000 0.000000
vn 0.000000 1.000000 -0.000000
vn 0.000000 0.000000 -1.000000
vn 0.000000 0.000000 -1.000000
vn 0.000000 -0.000000 1.000000
vn 0.000000 0.000000 1.000000
f 89//133 91//133 90//133
f 89//134 92//134 91//134
f 93//135 94//135 95//135
f 93//136 95//136 96//136
f 89//137 90//137 94//137
f 89//138 94//138 93//138
f 92//139 96//139 95//139
f 92//140 95//140 91//140
f 89//141 93//141 96//141
f 89//142 96//142 92//142
f 90//143 91//143 95//143
f 90//144 95//144 94//144
o Wall_13_w_b917b2dc2a_w_e9675a9000
usemtl Wall
v -87.930000 -11.500000 36.670000
v -87.930000 -11.500000 44.849500
v -87.930000 -7.300000 44.849500
v -87.930000 -7.300000 36.670000
v -88.230000 -11.500000 36.670000
v -88.230000 -11.500000 44.849500
v -88.230000 -7.300000 44.849500
v -88.230000 -7.300000 36.670000
vn 1.000000 0.000000 0.000000
vn 1.000000 0.000000 0.000000
vn -1.000000 0.000000 0.000000
vn -1.000000 0.000000 0.000000
vn 0.000000 -1.000000 0.000000
vn 0.000000 -1.000000 0.000000
vn 0.000000 1.000000 0.000000
vn 0.000000 1.000000 -0.000000
vn 0.000000 0.000000 -1.000000
vn 0.000000 0.000000 -1.000000
vn 0.000000 -0.000000 1.000000
vn 0.000000 0.000000 1.000000
f 97//145 99//145 98//145
f 97//146 100//146 99//146
f 101//147 102//147 103//147
f 101//148 103//148 104//148
f 97//149 98//149 102//149
f 97//150 102//150 101//150
f 100//151 104//151 103//151
f 100//152 103//152 99//152
f 97//153 101//153 104//153
f 97//154 104//154 100//154
f 98//155 99//155 103//155
f 98//156 103//156 102//156
o Wall_14_w_e9675a9000
usemtl Wall
v -87.930000 -8.700000 27.685000
v -87.930000 -8.700000 29.485000
v -87.930000 -7.300000 29.485000
v -87.930000 -7.300000 27.685000
v -88.230000 -8.700000 27.685000
v -88.230000 -8.700000 29.485000
v -88.230000 -7.300000 29.485000
v -88.230000 -7.300000 27.685000
vn 1.000000 0.000000 0.000000
vn 1.000000 0.000000 0.000000
vn -1.000000 0.000000 0.000000
vn -1.000000 0.000000 0.000000
vn 0.000000 -1.000000 0.000000
vn 0.000000 -1.000000 0.000000
vn 0.000000 1.000000 0.000000
vn 0.000000 1.000000 -0.000000
vn 0.000000 0.000000 -1.000000
vn 0.000000 0.000000 -1.000000
vn 0.000000 -0.000000 1.000000
vn 0.000000 0.000000 1.000000
f 105//157 107//157 106//157
f 105//158 108//158 107//158
f 109//159 110//159 111//159
f 109//160 111//160 112//160
f 105//161 106//161 110//161
f 105//162 110//162 109//162
f 108//163 112//163 111//163
f 108//164 111//164 107//164
f 105//165 109//165 112//165
f 105//166 112//166 108//166
f 106//167 107//167 111//167
f 106//168 111//168 110//168
o Wall_15_w_900afaaa2e
usemtl Wall
v -77.850000 -11.500000 20.500000
v -77.850000 -11.500000 36.820000
v -77.850000 -8.100000 36.820000
v -77.850000 -8.100000 20.500000
v -78.150000 -11.500000 20.500000
v -78.150000 -11.500000 36.820000
v -78.150000 -8.100000 36.820000
v -78.150000 -8.100000 20.500000
vn 1.000000 0.000000 0.000000
vn 1.000000 0.000000 0.000000
vn -1.000000 0.000000 0.000000
vn -1.000000 0.000000 0.000000
vn 0.000000 -1.000000 0.000000
vn 0.000000 -1.000000 0.000000
vn 0.000000 1.000000 0.000000
vn 0.000000 1.000000 -0.000000
vn 0.000000 0.000000 -1.000000
vn 0.000000 0.000000 -1.000000
vn 0.000000 -0.000000 1.000000
vn 0.000000 0.000000 1.000000
f 113//169 115//169 114//169
f 113//170 116//170 115//170
f 117//171 118//171 119//171
f 117//172 119//172 120//172
f 113//173 114//173 118//173
f 113//174 118//174 117//174
f 116//175 120//175 119//175
f 116//176 119//176 115//176
f 113//177 117//177 120//177
f 113//178 120//178 116//178
f 114//179 115//179 119//179
f 114//180 119//180 118//180
o Wall_16_w_4dba761c25
usemtl Wall
v -102.150000 -11.500000 44.850000
v -87.930000 -11.500000 44.850000
v -87.930000 -7.300000 44.850000
v -102.150000 -7.300000 44.850000
v -102.150000 -11.500000 45.150000
v -87.930000 -11.500000 45.150000
v -87.930000 -7.300000 45.150000
v -102.150000 -7.300000 45.150000
vn 0.000000 0.000000 -1.000000
vn 0.000000 0.000000 -1.000000
vn 0.000000 0.000000 1.000000
vn 0.000000 0.000000 1.000000
vn 0.000000 -1.000000 0.000000
vn 0.000000 -1.000000 0.000000
vn 0.000000 1.000000 0.000000
vn 0.000000 1.000000 0.000000
vn -1.000000 0.000000 0.000000
vn -1.000000 0.000000 0.000000
vn 1.000000 0.000000 0.000000
vn 1.000000 0.000000 0.000000
f 121//181 123//181 122//181
f 121//182 124//182 123//182
f 125//183 126//183 127//183
f 125//184 127//184 128//184
f 121//185 122//185 126//185
f 121//186 126//186 125//186
f 124//187 128//187 127//187
f 124//188 127//188 123//188
f 121//189 125//189 128//189
f 121//190 128//190 124//190
f 122//191 123//191 127//191
f 122//192 127//192 126//192
