{
 "asset": {
  "generator": "Khronos glTF Blender I/O v5.2.40",
  "version": "2.0"
 },
 "extensionsUsed": [
  "KHR_materials_emissive_strength"
 ],
 "scene": 0,
 "scenes": [
  {
   "name": "Scene",
   "nodes": [
    0,
    1,
    2
   ]
  }
 ],
 "nodes": [
  {
   "mesh": 0,
   "name": "Body"
  },
  {
   "mesh": 1,
   "name": "Screen",
   "translation": [
    -0.44999998807907104,
    0.921999990940094,
    0.10480000078678131
   ]
  },
  {
   "mesh": 2,
   "name": "Switch",
   "translation": [
    0.5799999833106995,
    0.9445005655288696,
    0.17165406048297882
   ]
  }
 ],
 "materials": [
  {
   "doubleSided": true,
   "name": "painted_metal",
   "pbrMetallicRoughness": {
    "baseColorFactor": [
     1,
     1,
     1,
     1
    ],
    "metallicFactor": 1.0,
    "roughnessFactor": 1.0,
    "baseColorTexture": {
     "index": 0
    },
    "metallicRoughnessTexture": {
     "index": 1
    }
   },
   "normalTexture": {
    "index": 2
   },
   "occlusionTexture": {
    "index": 1,
    "strength": 0.8
   }
  },
  {
   "doubleSided": true,
   "name": "steel_bare",
   "pbrMetallicRoughness": {
    "baseColorFactor": [
     1,
     1,
     1,
     1
    ],
    "metallicFactor": 1.0,
    "roughnessFactor": 1.0,
    "baseColorTexture": {
     "index": 3
    },
    "metallicRoughnessTexture": {
     "index": 4
    }
   },
   "normalTexture": {
    "index": 5
   },
   "occlusionTexture": {
    "index": 4,
    "strength": 0.8
   }
  },
  {
   "doubleSided": true,
   "name": "plastic_panel",
   "pbrMetallicRoughness": {
    "baseColorFactor": [
     1,
     1,
     1,
     1
    ],
    "metallicFactor": 1.0,
    "roughnessFactor": 1.0,
    "baseColorTexture": {
     "index": 6
    },
    "metallicRoughnessTexture": {
     "index": 7
    }
   },
   "normalTexture": {
    "index": 8
   },
   "occlusionTexture": {
    "index": 7,
    "strength": 0.8
   }
  },
  {
   "doubleSided": true,
   "emissiveFactor": [
    0.289156625857113,
    1,
    0.5060240907616461
   ],
   "extensions": {
    "KHR_materials_emissive_strength": {
     "emissiveStrength": 2.0749999582767487
    }
   },
   "name": "emit_led_green",
   "pbrMetallicRoughness": {
    "baseColorFactor": [
     0,
     0,
     0,
     1
    ],
    "metallicFactor": 0,
    "roughnessFactor": 0.5
   }
  },
  {
   "doubleSided": true,
   "emissiveFactor": [
    1,
    0.7032966673079079,
    0.1208791167404094
   ],
   "extensions": {
    "KHR_materials_emissive_strength": {
     "emissiveStrength": 2.2750000655651093
    }
   },
   "name": "emit_led_amber",
   "pbrMetallicRoughness": {
    "baseColorFactor": [
     0,
     0,
     0,
     1
    ],
    "metallicFactor": 0,
    "roughnessFactor": 0.5
   }
  },
  {
   "doubleSided": true,
   "name": "panel_labels",
   "pbrMetallicRoughness": {
    "baseColorFactor": [
     1,
     1,
     1,
     1
    ],
    "metallicFactor": 0.0,
    "roughnessFactor": 0.7,
    "baseColorTexture": {
     "index": 9
    }
   },
   "alphaMode": "BLEND"
  },
  {
   "doubleSided": true,
   "name": "signs_ru",
   "pbrMetallicRoughness": {
    "baseColorFactor": [
     1,
     1,
     1,
     1
    ],
    "metallicFactor": 0.0,
    "roughnessFactor": 0.7,
    "baseColorTexture": {
     "index": 10
    }
   },
   "alphaMode": "BLEND"
  },
  {
   "doubleSided": true,
   "name": "rubber_black",
   "pbrMetallicRoughness": {
    "baseColorFactor": [
     1,
     1,
     1,
     1
    ],
    "metallicFactor": 1.0,
    "roughnessFactor": 1.0,
    "baseColorTexture": {
     "index": 11
    },
    "metallicRoughnessTexture": {
     "index": 12
    }
   },
   "normalTexture": {
    "index": 13
   },
   "occlusionTexture": {
    "index": 12,
    "strength": 0.8
   }
  },
  {
   "doubleSided": true,
   "name": "screens",
   "pbrMetallicRoughness": {
    "baseColorFactor": [
     1,
     1,
     1,
     1
    ],
    "metallicFactor": 0.0,
    "roughnessFactor": 0.7,
    "baseColorTexture": {
     "index": 14
    }
   },
   "emissiveTexture": {
    "index": 14
   },
   "emissiveFactor": [
    1,
    1,
    1
   ],
   "extensions": {
    "KHR_materials_emissive_strength": {
     "emissiveStrength": 1.4
    }
   }
  }
 ],
 "meshes": [
  {
   "name": "Body",
   "primitives": [
    {
     "attributes": {
      "POSITION": 0,
      "NORMAL": 1,
      "TEXCOORD_0": 2
     },
     "indices": 3,
     "material": 0
    },
    {
     "attributes": {
      "POSITION": 4,
      "NORMAL": 5,
      "TEXCOORD_0": 6
     },
     "indices": 7,
     "material": 1
    },
    {
     "attributes": {
      "POSITION": 8,
      "NORMAL": 9,
      "TEXCOORD_0": 10
     },
     "indices": 11,
     "material": 2
    },
    {
     "attributes": {
      "POSITION": 12,
      "NORMAL": 13,
      "TEXCOORD_0": 14
     },
     "indices": 15,
     "material": 3
    },
    {
     "attributes": {
      "POSITION": 16,
      "NORMAL": 17,
      "TEXCOORD_0": 18
     },
     "indices": 19,
     "material": 4
    },
    {
     "attributes": {
      "POSITION": 20,
      "NORMAL": 21,
      "TEXCOORD_0": 22
     },
     "indices": 23,
     "material": 5
    },
    {
     "attributes": {
      "POSITION": 24,
      "NORMAL": 25,
      "TEXCOORD_0": 26
     },
     "indices": 27,
     "material": 6
    },
    {
     "attributes": {
      "POSITION": 28,
      "NORMAL": 29,
      "TEXCOORD_0": 30
     },
     "indices": 31,
     "material": 7
    }
   ]
  },
  {
   "name": "Screen",
   "primitives": [
    {
     "attributes": {
      "POSITION": 32,
      "NORMAL": 33,
      "TEXCOORD_0": 34
     },
     "indices": 27,
     "material": 8
    }
   ]
  },
  {
   "name": "Switch",
   "primitives": [
    {
     "attributes": {
      "POSITION": 35,
      "NORMAL": 36,
      "TEXCOORD_0": 37
     },
     "indices": 38,
     "material": 1
    },
    {
     "attributes": {
      "POSITION": 39,
      "NORMAL": 40,
      "TEXCOORD_0": 41
     },
     "indices": 42,
     "material": 7
    }
   ]
  }
 ],
 "accessors": [
  {
   "bufferView": 0,
   "componentType": 5126,
   "count": 286,
   "max": [
    0.8100000023841858,
    0.9700000286102295,
    0.4099999964237213
   ],
   "min": [
    -0.8100000023841858,
    0,
    -0.40000003576278687
   ],
   "type": "VEC3"
  },
  {
   "bufferView": 1,
   "componentType": 5126,
   "count": 286,
   "type": "VEC3"
  },
  {
   "bufferView": 2,
   "componentType": 5126,
   "count": 286,
   "type": "VEC2"
  },
  {
   "bufferView": 3,
   "componentType": 5123,
   "count": 600,
   "type": "SCALAR"
  },
  {
   "bufferView": 4,
   "componentType": 5126,
   "count": 1136,
   "max": [
    0.6800000071525574,
    0.9446494579315186,
    0.4129999876022339
   ],
   "min": [
    -0.5586602687835693,
    0.2900000214576721,
    0.07388303428888321
   ],
   "type": "VEC3"
  },
  {
   "bufferView": 5,
   "componentType": 5126,
   "count": 1136,
   "type": "VEC3"
  },
  {
   "bufferView": 6,
   "componentType": 5126,
   "count": 1136,
   "type": "VEC2"
  },
  {
   "bufferView": 7,
   "componentType": 5123,
   "count": 2532,
   "type": "SCALAR"
  },
  {
   "bufferView": 8,
   "componentType": 5126,
   "count": 676,
   "max": [
    0.6049999594688416,
    0.9681391716003418,
    0.343302845954895
   ],
   "min": [
    -0.7200000286102295,
    0.8438155055046082,
    -0.0039043128490448
   ],
   "type": "VEC3"
  },
  {
   "bufferView": 9,
   "componentType": 5126,
   "count": 676,
   "type": "VEC3"
  },
  {
   "bufferView": 10,
   "componentType": 5126,
   "count": 676,
   "type": "VEC2"
  },
  {
   "bufferView": 11,
   "componentType": 5123,
   "count": 1404,
   "type": "SCALAR"
  },
  {
   "bufferView": 12,
   "componentType": 5126,
   "count": 192,
   "max": [
    0.5492658615112305,
    0.8802515268325806,
    0.343302845954895
   ],
   "min": [
    -0.0042658476158976555,
    0.8438155055046082,
    0.2589075565338135
   ],
   "type": "VEC3"
  },
  {
   "bufferView": 13,
   "componentType": 5126,
   "count": 192,
   "type": "VEC3"
  },
  {
   "bufferView": 14,
   "componentType": 5126,
   "count": 192,
   "type": "VEC2"
  },
  {
   "bufferView": 15,
   "componentType": 5123,
   "count": 432,
   "type": "SCALAR"
  },
  {
   "bufferView": 16,
   "componentType": 5126,
   "count": 192,
   "max": [
    0.3992658257484436,
    0.8802515268325806,
    0.343302845954895
   ],
   "min": [
    -0.0042658476158976555,
    0.8438155055046082,
    0.2589075565338135
   ],
   "type": "VEC3"
  },
  {
   "bufferView": 17,
   "componentType": 5126,
   "count": 192,
   "type": "VEC3"
  },
  {
   "bufferView": 18,
   "componentType": 5126,
   "count": 192,
   "type": "VEC2"
  },
  {
   "bufferView": 19,
   "componentType": 5123,
   "count": 432,
   "type": "SCALAR"
  },
  {
   "bufferView": 20,
   "componentType": 5126,
   "count": 16,
   "max": [
    0.6000000238418579,
    0.8924002051353455,
    0.2277231514453888
   ],
   "min": [
    0.05999999865889549,
    0.8643998503684998,
    0.21695378422737122
   ],
   "type": "VEC3"
  },
  {
   "bufferView": 21,
   "componentType": 5126,
   "count": 16,
   "type": "VEC3"
  },
  {
   "bufferView": 22,
   "componentType": 5126,
   "count": 16,
   "type": "VEC2"
  },
  {
   "bufferView": 23,
   "componentType": 5123,
   "count": 24,
   "type": "SCALAR"
  },
  {
   "bufferView": 24,
   "componentType": 5126,
   "count": 4,
   "max": [
    -0.42500001192092896,
    0.6825000047683716,
    0.41100001335144043
   ],
   "min": [
    -0.675000011920929,
    0.5575000047683716,
    0.41100001335144043
   ],
   "type": "VEC3"
  },
  {
   "bufferView": 25,
   "componentType": 5126,
   "count": 4,
   "type": "VEC3"
  },
  {
   "bufferView": 26,
   "componentType": 5126,
   "count": 4,
   "type": "VEC2"
  },
  {
   "bufferView": 27,
   "componentType": 5123,
   "count": 6,
   "type": "SCALAR"
  },
  {
   "bufferView": 28,
   "componentType": 5126,
   "count": 56,
   "max": [
    0.6799999475479126,
    0.12999999523162842,
    -0.3400000035762787
   ],
   "min": [
    0.6200000047683716,
    0.07000000029802322,
    -0.41999998688697815
   ],
   "type": "VEC3"
  },
  {
   "bufferView": 29,
   "componentType": 5126,
   "count": 56,
   "type": "VEC3"
  },
  {
   "bufferView": 30,
   "componentType": 5126,
   "count": 56,
   "type": "VEC2"
  },
  {
   "bufferView": 31,
   "componentType": 5123,
   "count": 132,
   "type": "SCALAR"
  },
  {
   "bufferView": 32,
   "componentType": 5126,
   "count": 4,
   "max": [
    0.25,
    0.0857345461845398,
    0.05983637273311615
   ],
   "min": [
    -0.25,
    -0.10093450546264648,
    -0.011959455907344818
   ],
   "type": "VEC3"
  },
  {
   "bufferView": 33,
   "componentType": 5126,
   "count": 4,
   "type": "VEC3"
  },
  {
   "bufferView": 34,
   "componentType": 5126,
   "count": 4,
   "type": "VEC2"
  },
  {
   "bufferView": 35,
   "componentType": 5126,
   "count": 96,
   "max": [
    0.029999971389770508,
    0.09942591190338135,
    0.042458176612854004
   ],
   "min": [
    -0.029999971389770508,
    -0.015999972820281982,
    -0.0724581778049469
   ],
   "type": "VEC3"
  },
  {
   "bufferView": 36,
   "componentType": 5126,
   "count": 96,
   "type": "VEC3"
  },
  {
   "bufferView": 37,
   "componentType": 5126,
   "count": 96,
   "type": "VEC2"
  },
  {
   "bufferView": 38,
   "componentType": 5123,
   "count": 216,
   "type": "SCALAR"
  },
  {
   "bufferView": 39,
   "componentType": 5126,
   "count": 106,
   "max": [
    0.026000022888183594,
    0.14600002765655518,
    -0.019000008702278137
   ],
   "min": [
    -0.026000022888183594,
    0.09399998188018799,
    -0.07100000232458115
   ],
   "type": "VEC3"
  },
  {
   "bufferView": 40,
   "componentType": 5126,
   "count": 106,
   "type": "VEC3"
  },
  {
   "bufferView": 41,
   "componentType": 5126,
   "count": 106,
   "type": "VEC2"
  },
  {
   "bufferView": 42,
   "componentType": 5123,
   "count": 360,
   "type": "SCALAR"
  }
 ],
 "bufferViews": [
  {
   "buffer": 0,
   "byteLength": 3432,
   "byteOffset": 0,
   "target": 34962
  },
  {
   "buffer": 0,
   "byteLength": 3432,
   "byteOffset": 3432,
   "target": 34962
  },
  {
   "buffer": 0,
   "byteLength": 2288,
   "byteOffset": 6864,
   "target": 34962
  },
  {
   "buffer": 0,
   "byteLength": 1200,
   "byteOffset": 9152,
   "target": 34963
  },
  {
   "buffer": 0,
   "byteLength": 13632,
   "byteOffset": 10352,
   "target": 34962
  },
  {
   "buffer": 0,
   "byteLength": 13632,
   "byteOffset": 23984,
   "target": 34962
  },
  {
   "buffer": 0,
   "byteLength": 9088,
   "byteOffset": 37616,
   "target": 34962
  },
  {
   "buffer": 0,
   "byteLength": 5064,
   "byteOffset": 46704,
   "target": 34963
  },
  {
   "buffer": 0,
   "byteLength": 8112,
   "byteOffset": 51768,
   "target": 34962
  },
  {
   "buffer": 0,
   "byteLength": 8112,
   "byteOffset": 59880,
   "target": 34962
  },
  {
   "buffer": 0,
   "byteLength": 5408,
   "byteOffset": 67992,
   "target": 34962
  },
  {
   "buffer": 0,
   "byteLength": 2808,
   "byteOffset": 73400,
   "target": 34963
  },
  {
   "buffer": 0,
   "byteLength": 2304,
   "byteOffset": 76208,
   "target": 34962
  },
  {
   "buffer": 0,
   "byteLength": 2304,
   "byteOffset": 78512,
   "target": 34962
  },
  {
   "buffer": 0,
   "byteLength": 1536,
   "byteOffset": 80816,
   "target": 34962
  },
  {
   "buffer": 0,
   "byteLength": 864,
   "byteOffset": 82352,
   "target": 34963
  },
  {
   "buffer": 0,
   "byteLength": 2304,
   "byteOffset": 83216,
   "target": 34962
  },
  {
   "buffer": 0,
   "byteLength": 2304,
   "byteOffset": 85520,
   "target": 34962
  },
  {
   "buffer": 0,
   "byteLength": 1536,
   "byteOffset": 87824,
   "target": 34962
  },
  {
   "buffer": 0,
   "byteLength": 864,
   "byteOffset": 89360,
   "target": 34963
  },
  {
   "buffer": 0,
   "byteLength": 192,
   "byteOffset": 90224,
   "target": 34962
  },
  {
   "buffer": 0,
   "byteLength": 192,
   "byteOffset": 90416,
   "target": 34962
  },
  {
   "buffer": 0,
   "byteLength": 128,
   "byteOffset": 90608,
   "target": 34962
  },
  {
   "buffer": 0,
   "byteLength": 48,
   "byteOffset": 90736,
   "target": 34963
  },
  {
   "buffer": 0,
   "byteLength": 48,
   "byteOffset": 90784,
   "target": 34962
  },
  {
   "buffer": 0,
   "byteLength": 48,
   "byteOffset": 90832,
   "target": 34962
  },
  {
   "buffer": 0,
   "byteLength": 32,
   "byteOffset": 90880,
   "target": 34962
  },
  {
   "buffer": 0,
   "byteLength": 12,
   "byteOffset": 90912,
   "target": 34963
  },
  {
   "buffer": 0,
   "byteLength": 672,
   "byteOffset": 90924,
   "target": 34962
  },
  {
   "buffer": 0,
   "byteLength": 672,
   "byteOffset": 91596,
   "target": 34962
  },
  {
   "buffer": 0,
   "byteLength": 448,
   "byteOffset": 92268,
   "target": 34962
  },
  {
   "buffer": 0,
   "byteLength": 264,
   "byteOffset": 92716,
   "target": 34963
  },
  {
   "buffer": 0,
   "byteLength": 48,
   "byteOffset": 92980,
   "target": 34962
  },
  {
   "buffer": 0,
   "byteLength": 48,
   "byteOffset": 93028,
   "target": 34962
  },
  {
   "buffer": 0,
   "byteLength": 32,
   "byteOffset": 93076,
   "target": 34962
  },
  {
   "buffer": 0,
   "byteLength": 1152,
   "byteOffset": 93108,
   "target": 34962
  },
  {
   "buffer": 0,
   "byteLength": 1152,
   "byteOffset": 94260,
   "target": 34962
  },
  {
   "buffer": 0,
   "byteLength": 768,
   "byteOffset": 95412,
   "target": 34962
  },
  {
   "buffer": 0,
   "byteLength": 432,
   "byteOffset": 96180,
   "target": 34963
  },
  {
   "buffer": 0,
   "byteLength": 1272,
   "byteOffset": 96612,
   "target": 34962
  },
  {
   "buffer": 0,
   "byteLength": 1272,
   "byteOffset": 97884,
   "target": 34962
  },
  {
   "buffer": 0,
   "byteLength": 848,
   "byteOffset": 99156,
   "target": 34962
  },
  {
   "buffer": 0,
   "byteLength": 720,
   "byteOffset": 100004,
   "target": 34963
  }
 ],
 "buffers": [
  {
   "byteLength": 100724,
   "uri": "control_desk.bin"
  }
 ],
 "images": [
  {
   "uri": "../../textures/painted_metal/painted_metal_albedo.jpg"
  },
  {
   "uri": "../../textures/painted_metal/painted_metal_orm.jpg"
  },
  {
   "uri": "../../textures/painted_metal/painted_metal_normal.png"
  },
  {
   "uri": "../../textures/steel_bare/steel_bare_albedo.jpg"
  },
  {
   "uri": "../../textures/steel_bare/steel_bare_orm.jpg"
  },
  {
   "uri": "../../textures/steel_bare/steel_bare_normal.png"
  },
  {
   "uri": "../../textures/plastic_panel/plastic_panel_albedo.jpg"
  },
  {
   "uri": "../../textures/plastic_panel/plastic_panel_orm.jpg"
  },
  {
   "uri": "../../textures/plastic_panel/plastic_panel_normal.png"
  },
  {
   "uri": "../../textures/decals/panel_labels.png"
  },
  {
   "uri": "../../textures/decals/signs_ru.png"
  },
  {
   "uri": "../../textures/rubber_black/rubber_black_albedo.jpg"
  },
  {
   "uri": "../../textures/rubber_black/rubber_black_orm.jpg"
  },
  {
   "uri": "../../textures/rubber_black/rubber_black_normal.png"
  },
  {
   "uri": "../../textures/decals/screens.png"
  }
 ],
 "textures": [
  {
   "source": 0,
   "sampler": 0
  },
  {
   "source": 1,
   "sampler": 0
  },
  {
   "source": 2,
   "sampler": 0
  },
  {
   "source": 3,
   "sampler": 0
  },
  {
   "source": 4,
   "sampler": 0
  },
  {
   "source": 5,
   "sampler": 0
  },
  {
   "source": 6,
   "sampler": 0
  },
  {
   "source": 7,
   "sampler": 0
  },
  {
   "source": 8,
   "sampler": 0
  },
  {
   "source": 9,
   "sampler": 0
  },
  {
   "source": 10,
   "sampler": 0
  },
  {
   "source": 11,
   "sampler": 0
  },
  {
   "source": 12,
   "sampler": 0
  },
  {
   "source": 13,
   "sampler": 0
  },
  {
   "source": 14,
   "sampler": 0
  }
 ],
 "samplers": [
  {
   "magFilter": 9729,
   "minFilter": 9987,
   "wrapS": 10497,
   "wrapT": 10497
  }
 ]
}
