# Generated by svg_to_godot3d
mtllib geometry.mtl
s off
o Ceiling_001_c_3cc4599cc0
usemtl Ceiling
v 4.000000 -1.000000 27.000000
v 14.640000 -1.000000 27.000000
v 14.640000 -1.000000 36.240000
v 4.000000 -1.000000 36.240000
v 4.000000 -0.800000 27.000000
v 14.640000 -0.800000 27.000000
v 14.640000 -0.800000 36.240000
v 4.000000 -0.800000 36.240000
v 4.000000 -1.000000 27.000000
v 14.640000 -1.000000 27.000000
v 14.640000 -0.800000 27.000000
v 4.000000 -0.800000 27.000000
v 14.640000 -1.000000 27.000000
v 14.640000 -1.000000 36.240000
v 14.640000 -0.800000 36.240000
v 14.640000 -0.800000 27.000000
v 14.640000 -1.000000 36.240000
v 4.000000 -1.000000 36.240000
v 4.000000 -0.800000 36.240000
v 14.640000 -0.800000 36.240000
v 4.000000 -1.000000 36.240000
v 4.000000 -1.000000 27.000000
v 4.000000 -0.800000 27.000000
v 4.000000 -0.800000 36.240000
vn 0.000000 -1.000000 0.000000
vn 0.000000 -1.000000 0.000000
vn 0.000000 1.000000 0.000000
vn 0.000000 1.000000 -0.000000
vn 0.000000 0.000000 -1.000000
vn 0.000000 0.000000 -1.000000
vn 1.000000 0.000000 0.000000
vn 1.000000 0.000000 0.000000
vn 0.000000 0.000000 1.000000
vn 0.000000 -0.000000 1.000000
vn -1.000000 0.000000 0.000000
vn -1.000000 0.000000 0.000000
f 4//1 1//1 2//1
f 2//2 3//2 4//2
f 8//3 6//3 5//3
f 6//4 8//4 7//4
f 9//5 11//5 10//5
f 9//6 12//6 11//6
f 13//7 15//7 14//7
f 13//8 16//8 15//8
f 17//9 19//9 18//9
f 17//10 20//10 19//10
f 21//11 23//11 22//11
f 21//12 24//12 23//12
o Ceiling_002_c_442a1d7a06
usemtl Ceiling
v 4.000000 -1.000000 36.240000
v 9.040000 -1.000000 36.240000
v 9.040000 -1.000000 52.740000
v 4.000000 -1.000000 52.740000
v 4.000000 -0.800000 36.240000
v 9.040000 -0.800000 36.240000
v 9.040000 -0.800000 52.740000
v 4.000000 -0.800000 52.740000
v 4.000000 -1.000000 36.240000
v 9.040000 -1.000000 36.240000
v 9.040000 -0.800000 36.240000
v 4.000000 -0.800000 36.240000
v 9.040000 -1.000000 36.240000
v 9.040000 -1.000000 52.740000
v 9.040000 -0.800000 52.740000
v 9.040000 -0.800000 36.240000
v 9.040000 -1.000000 52.740000
v 4.000000 -1.000000 52.740000
v 4.000000 -0.800000 52.740000
v 9.040000 -0.800000 52.740000
v 4.000000 -1.000000 52.740000
v 4.000000 -1.000000 36.240000
v 4.000000 -0.800000 36.240000
v 4.000000 -0.800000 52.740000
vn 0.000000 -1.000000 0.000000
vn 0.000000 -1.000000 0.000000
vn 0.000000 1.000000 0.000000
vn 0.000000 1.000000 -0.000000
vn 0.000000 0.000000 -1.000000
vn 0.000000 0.000000 -1.000000
vn 1.000000 0.000000 0.000000
vn 1.000000 0.000000 0.000000
vn 0.000000 0.000000 1.000000
vn 0.000000 -0.000000 1.000000
vn -1.000000 0.000000 0.000000
vn -1.000000 0.000000 0.000000
f 28//13 25//13 26//13
f 26//14 27//14 28//14
f 32//15 30//15 29//15
f 30//16 32//16 31//16
f 33//17 35//17 34//17
f 33//18 36//18 35//18
f 37//19 39//19 38//19
f 37//20 40//20 39//20
f 41//21 43//21 42//21
f 41//22 44//22 43//22
f 45//23 47//23 46//23
f 45//24 48//24 47//24
o Ceiling_003_c_8f020003cb
usemtl Ceiling
v 9.040000 -1.000000 36.240000
v 32.000000 -1.000000 36.240000
v 32.000000 -1.000000 52.740000
v 9.040000 -1.000000 52.740000
v 9.040000 -0.800000 36.240000
v 32.000000 -0.800000 36.240000
v 32.000000 -0.800000 52.740000
v 9.040000 -0.800000 52.740000
v 9.040000 -1.000000 36.240000
v 32.000000 -1.000000 36.240000
v 32.000000 -0.800000 36.240000
v 9.040000 -0.800000 36.240000
v 32.000000 -1.000000 36.240000
v 32.000000 -1.000000 52.740000
v 32.000000 -0.800000 52.740000
v 32.000000 -0.800000 36.240000
v 32.000000 -1.000000 52.740000
v 9.040000 -1.000000 52.740000
v 9.040000 -0.800000 52.740000
v 32.000000 -0.800000 52.740000
v 9.040000 -1.000000 52.740000
v 9.040000 -1.000000 36.240000
v 9.040000 -0.800000 36.240000
v 9.040000 -0.800000 52.740000
vn 0.000000 -1.000000 0.000000
vn 0.000000 -1.000000 0.000000
vn 0.000000 1.000000 0.000000
vn 0.000000 1.000000 -0.000000
vn 0.000000 0.000000 -1.000000
vn 0.000000 0.000000 -1.000000
vn 1.000000 0.000000 0.000000
vn 1.000000 0.000000 0.000000
vn 0.000000 0.000000 1.000000
vn 0.000000 -0.000000 1.000000
vn -1.000000 0.000000 0.000000
vn -1.000000 0.000000 0.000000
f 52//25 49//25 50//25
f 50//26 51//26 52//26
f 56//27 54//27 53//27
f 54//28 56//28 55//28
f 57//29 59//29 58//29
f 57//30 60//30 59//30
f 61//31 63//31 62//31
f 61//32 64//32 63//32
f 65//33 67//33 66//33
f 65//34 68//34 67//34
f 69//35 71//35 70//35
f 69//36 72//36 71//36
o Ceiling_004_c_d511e49daf
usemtl Ceiling
v 14.640000 -1.000000 27.000000
v 22.890000 -1.000000 27.000000
v 22.890000 -1.000000 36.240000
v 14.640000 -1.000000 36.240000
v 14.640000 -0.800000 27.000000
v 22.890000 -0.800000 27.000000
v 22.890000 -0.800000 36.240000
v 14.640000 -0.800000 36.240000
v 14.640000 -1.000000 27.000000
v 22.890000 -1.000000 27.000000
v 22.890000 -0.800000 27.000000
v 14.640000 -0.800000 27.000000
v 22.890000 -1.000000 27.000000
v 22.890000 -1.000000 36.240000
v 22.890000 -0.800000 36.240000
v 22.890000 -0.800000 27.000000
v 22.890000 -1.000000 36.240000
v 14.640000 -1.000000 36.240000
v 14.640000 -0.800000 36.240000
v 22.890000 -0.800000 36.240000
v 14.640000 -1.000000 36.240000
v 14.640000 -1.000000 27.000000
v 14.640000 -0.800000 27.000000
v 14.640000 -0.800000 36.240000
vn 0.000000 -1.000000 0.000000
vn 0.000000 -1.000000 0.000000
vn 0.000000 1.000000 0.000000
vn 0.000000 1.000000 -0.000000
vn 0.000000 0.000000 -1.000000
vn 0.000000 0.000000 -1.000000
vn 1.000000 0.000000 0.000000
vn 1.000000 0.000000 0.000000
vn 0.000000 0.000000 1.000000
vn 0.000000 -0.000000 1.000000
vn -1.000000 0.000000 0.000000
vn -1.000000 0.000000 0.000000
f 76//37 73//37 74//37
f 74//38 75//38 76//38
f 80//39 78//39 77//39
f 78//40 80//40 79//40
f 81//41 83//41 82//41
f 81//42 84//42 83//42
f 85//43 87//43 86//43
f 85//44 88//44 87//44
f 89//45 91//45 90//45
f 89//46 92//46 91//46
f 93//47 95//47 94//47
f 93//48 96//48 95//48
o Ceiling_005_c_d511e49daf
usemtl Ceiling
v 22.890000 -1.000000 27.000000
v 23.040000 -1.000000 27.000000
v 23.040000 -1.000000 36.240000
v 22.890000 -1.000000 36.240000
v 22.890000 -0.800000 27.000000
v 23.040000 -0.800000 27.000000
v 23.040000 -0.800000 36.240000
v 22.890000 -0.800000 36.240000
v 22.890000 -1.000000 27.000000
v 23.040000 -1.000000 27.000000
v 23.040000 -0.800000 27.000000
v 22.890000 -0.800000 27.000000
v 23.040000 -1.000000 27.000000
v 23.040000 -1.000000 36.240000
v 23.040000 -0.800000 36.240000
v 23.040000 -0.800000 27.000000
v 23.040000 -1.000000 36.240000
v 22.890000 -1.000000 36.240000
v 22.890000 -0.800000 36.240000
v 23.040000 -0.800000 36.240000
v 22.890000 -1.000000 36.240000
v 22.890000 -1.000000 27.000000
v 22.890000 -0.800000 27.000000
v 22.890000 -0.800000 36.240000
vn 0.000000 -1.000000 0.000000
vn 0.000000 -1.000000 0.000000
vn 0.000000 1.000000 0.000000
vn 0.000000 1.000000 -0.000000
vn 0.000000 0.000000 -1.000000
vn 0.000000 0.000000 -1.000000
vn 1.000000 0.000000 0.000000
vn 1.000000 0.000000 0.000000
vn 0.000000 0.000000 1.000000
vn 0.000000 -0.000000 1.000000
vn -1.000000 0.000000 0.000000
vn -1.000000 0.000000 0.000000
f 100//49 97//49 98//49
f 98//50 99//50 100//50
f 104//51 102//51 101//51
f 102//52 104//52 103//52
f 105//53 107//53 106//53
f 105//54 108//54 107//54
f 109//55 111//55 110//55
f 109//56 112//56 111//56
f 113//57 115//57 114//57
f 113//58 116//58 115//58
f 117//59 119//59 118//59
f 117//60 120//60 119//60
o Ceiling_006_c_030f538a95
usemtl Ceiling
v 16.600000 -1.000000 52.740000
v 16.750000 -1.000000 52.740000
v 16.750000 -1.000000 60.000000
v 16.600000 -1.000000 60.000000
v 16.600000 -0.800000 52.740000
v 16.750000 -0.800000 52.740000
v 16.750000 -0.800000 60.000000
v 16.600000 -0.800000 60.000000
v 16.600000 -1.000000 52.740000
v 16.750000 -1.000000 52.740000
v 16.750000 -0.800000 52.740000
v 16.600000 -0.800000 52.740000
v 16.750000 -1.000000 52.740000
v 16.750000 -1.000000 60.000000
v 16.750000 -0.800000 60.000000
v 16.750000 -0.800000 52.740000
v 16.750000 -1.000000 60.000000
v 16.600000 -1.000000 60.000000
v 16.600000 -0.800000 60.000000
v 16.750000 -0.800000 60.000000
v 16.600000 -1.000000 60.000000
v 16.600000 -1.000000 52.740000
v 16.600000 -0.800000 52.740000
v 16.600000 -0.800000 60.000000
vn 0.000000 -1.000000 0.000000
vn 0.000000 -1.000000 0.000000
vn 0.000000 1.000000 0.000000
vn 0.000000 1.000000 -0.000000
vn 0.000000 0.000000 -1.000000
vn 0.000000 0.000000 -1.000000
vn 1.000000 0.000000 0.000000
vn 1.000000 0.000000 0.000000
vn 0.000000 0.000000 1.000000
vn 0.000000 -0.000000 1.000000
vn -1.000000 0.000000 0.000000
vn -1.000000 0.000000 0.000000
f 124//61 121//61 122//61
f 122//62 123//62 124//62
f 128//63 126//63 125//63
f 126//64 128//64 127//64
f 129//65 131//65 130//65
f 129//66 132//66 131//66
f 133//67 135//67 134//67
f 133//68 136//68 135//68
f 137//69 139//69 138//69
f 137//70 140//70 139//70
f 141//71 143//71 142//71
f 141//72 144//72 143//72
o Ceiling_007_c_030f538a95
usemtl Ceiling
v 16.750000 -1.000000 52.740000
v 26.810000 -1.000000 52.740000
v 26.810000 -1.000000 60.000000
v 16.750000 -1.000000 60.000000
v 16.750000 -0.800000 52.740000
v 26.810000 -0.800000 52.740000
v 26.810000 -0.800000 60.000000
v 16.750000 -0.800000 60.000000
v 16.750000 -1.000000 52.740000
v 26.810000 -1.000000 52.740000
v 26.810000 -0.800000 52.740000
v 16.750000 -0.800000 52.740000
v 26.810000 -1.000000 52.740000
v 26.810000 -1.000000 60.000000
v 26.810000 -0.800000 60.000000
v 26.810000 -0.800000 52.740000
v 26.810000 -1.000000 60.000000
v 16.750000 -1.000000 60.000000
v 16.750000 -0.800000 60.000000
v 26.810000 -0.800000 60.000000
v 16.750000 -1.000000 60.000000
v 16.750000 -1.000000 52.740000
v 16.750000 -0.800000 52.740000
v 16.750000 -0.800000 60.000000
vn 0.000000 -1.000000 0.000000
vn 0.000000 -1.000000 0.000000
vn 0.000000 1.000000 0.000000
vn 0.000000 1.000000 -0.000000
vn 0.000000 0.000000 -1.000000
vn 0.000000 0.000000 -1.000000
vn 1.000000 0.000000 0.000000
vn 1.000000 0.000000 0.000000
vn 0.000000 0.000000 1.000000
vn 0.000000 -0.000000 1.000000
vn -1.000000 0.000000 0.000000
vn -1.000000 0.000000 0.000000
f 148//73 145//73 146//73
f 146//74 147//74 148//74
f 152//75 150//75 149//75
f 150//76 152//76 151//76
f 153//77 155//77 154//77
f 153//78 156//78 155//78
f 157//79 159//79 158//79
f 157//80 160//80 159//80
f 161//81 163//81 162//81
f 161//82 164//82 163//82
f 165//83 167//83 166//83
f 165//84 168//84 167//84
o Ceiling_008_c_030f538a95
usemtl Ceiling
v 26.810000 -1.000000 52.740000
v 26.960000 -1.000000 52.740000
v 26.960000 -1.000000 60.000000
v 26.810000 -1.000000 60.000000
v 26.810000 -0.800000 52.740000
v 26.960000 -0.800000 52.740000
v 26.960000 -0.800000 60.000000
v 26.810000 -0.800000 60.000000
v 26.810000 -1.000000 52.740000
v 26.960000 -1.000000 52.740000
v 26.960000 -0.800000 52.740000
v 26.810000 -0.800000 52.740000
v 26.960000 -1.000000 52.740000
v 26.960000 -1.000000 60.000000
v 26.960000 -0.800000 60.000000
v 26.960000 -0.800000 52.740000
v 26.960000 -1.000000 60.000000
v 26.810000 -1.000000 60.000000
v 26.810000 -0.800000 60.000000
v 26.960000 -0.800000 60.000000
v 26.810000 -1.000000 60.000000
v 26.810000 -1.000000 52.740000
v 26.810000 -0.800000 52.740000
v 26.810000 -0.800000 60.000000
vn 0.000000 -1.000000 0.000000
vn 0.000000 -1.000000 0.000000
vn 0.000000 1.000000 0.000000
vn 0.000000 1.000000 -0.000000
vn 0.000000 0.000000 -1.000000
vn 0.000000 0.000000 -1.000000
vn 1.000000 0.000000 0.000000
vn 1.000000 0.000000 0.000000
vn 0.000000 0.000000 1.000000
vn 0.000000 -0.000000 1.000000
vn -1.000000 0.000000 0.000000
vn -1.000000 0.000000 0.000000
f 172//85 169//85 170//85
f 170//86 171//86 172//86
f 176//87 174//87 173//87
f 174//88 176//88 175//88
f 177//89 179//89 178//89
f 177//90 180//90 179//90
f 181//91 183//91 182//91
f 181//92 184//92 183//92
f 185//93 187//93 186//93
f 185//94 188//94 187//94
f 189//95 191//95 190//95
f 189//96 192//96 191//96
