# Generated by svg_to_godot3d
mtllib geometry.mtl
s off
o Ceiling_003_u_medbay_ceiling_clean_corridor
usemtl Ceiling
v -86.632000 3.400000 7.000000
v -86.482000 3.400000 7.000000
v -86.482000 3.400000 11.205000
v -86.632000 3.400000 11.205000
v -86.632000 3.600000 7.000000
v -86.482000 3.600000 7.000000
v -86.482000 3.600000 11.205000
v -86.632000 3.600000 11.205000
v -86.632000 3.400000 11.205000
v -86.482000 3.400000 11.205000
v -86.482000 3.400000 15.000000
v -86.632000 3.400000 15.000000
v -86.632000 3.600000 11.205000
v -86.482000 3.600000 11.205000
v -86.482000 3.600000 15.000000
v -86.632000 3.600000 15.000000
v -86.482000 3.400000 7.000000
v -84.448000 3.400000 7.000000
v -84.448000 3.400000 15.000000
v -86.482000 3.400000 15.000000
v -86.482000 3.600000 7.000000
v -84.448000 3.600000 7.000000
v -84.448000 3.600000 15.000000
v -86.482000 3.600000 15.000000
v -84.448000 3.400000 7.000000
v -84.298000 3.400000 7.000000
v -84.298000 3.400000 9.667000
v -84.448000 3.400000 9.667000
v -84.448000 3.600000 7.000000
v -84.298000 3.600000 7.000000
v -84.298000 3.600000 9.667000
v -84.448000 3.600000 9.667000
v -84.448000 3.400000 9.667000
v -84.298000 3.400000 9.667000
v -84.298000 3.400000 12.744000
v -84.448000 3.400000 12.744000
v -84.448000 3.600000 9.667000
v -84.298000 3.600000 9.667000
v -84.298000 3.600000 12.744000
v -84.448000 3.600000 12.744000
v -84.448000 3.400000 12.744000
v -84.298000 3.400000 12.744000
v -84.298000 3.400000 15.000000
v -84.448000 3.400000 15.000000
v -84.448000 3.600000 12.744000
v -84.298000 3.600000 12.744000
v -84.298000 3.600000 15.000000
v -84.448000 3.600000 15.000000
v -86.632000 3.400000 7.000000
v -86.482000 3.400000 7.000000
v -86.482000 3.600000 7.000000
v -86.632000 3.600000 7.000000
v -86.632000 3.400000 11.205000
v -86.632000 3.400000 7.000000
v -86.632000 3.600000 7.000000
v -86.632000 3.600000 11.205000
v -86.482000 3.400000 15.000000
v -86.632000 3.400000 15.000000
v -86.632000 3.600000 15.000000
v -86.482000 3.600000 15.000000
v -86.632000 3.400000 15.000000
v -86.632000 3.400000 11.205000
v -86.632000 3.600000 11.205000
v -86.632000 3.600000 15.000000
v -86.482000 3.400000 7.000000
v -84.448000 3.400000 7.000000
v -84.448000 3.600000 7.000000
v -86.482000 3.600000 7.000000
v -84.448000 3.400000 15.000000
v -86.482000 3.400000 15.000000
v -86.482000 3.600000 15.000000
v -84.448000 3.600000 15.000000
v -84.448000 3.400000 7.000000
v -84.298000 3.400000 7.000000
v -84.298000 3.600000 7.000000
v -84.448000 3.600000 7.000000
v -84.298000 3.400000 7.000000
v -84.298000 3.400000 9.667000
v -84.298000 3.600000 9.667000
v -84.298000 3.600000 7.000000
v -84.298000 3.400000 9.667000
v -84.298000 3.400000 12.744000
v -84.298000 3.600000 12.744000
v -84.298000 3.600000 9.667000
v -84.298000 3.400000 12.744000
v -84.298000 3.400000 15.000000
v -84.298000 3.600000 15.000000
v -84.298000 3.600000 12.744000
v -84.298000 3.400000 15.000000
v -84.448000 3.400000 15.000000
v -84.448000 3.600000 15.000000
v -84.298000 3.600000 15.000000
vn 0.000000 -1.000000 0.000000
vn 0.000000 -1.000000 0.000000
vn 0.000000 1.000000 0.000000
vn 0.000000 1.000000 -0.000000
vn 0.000000 -1.000000 0.000000
vn 0.000000 -1.000000 0.000000
vn 0.000000 1.000000 0.000000
vn 0.000000 1.000000 -0.000000
vn 0.000000 -1.000000 0.000000
vn 0.000000 -1.000000 0.000000
vn 0.000000 1.000000 0.000000
vn 0.000000 1.000000 -0.000000
vn 0.000000 -1.000000 0.000000
vn 0.000000 -1.000000 0.000000
vn 0.000000 1.000000 0.000000
vn 0.000000 1.000000 -0.000000
vn 0.000000 -1.000000 0.000000
vn 0.000000 -1.000000 0.000000
vn 0.000000 1.000000 0.000000
vn 0.000000 1.000000 -0.000000
vn 0.000000 -1.000000 0.000000
vn 0.000000 -1.000000 0.000000
vn 0.000000 1.000000 0.000000
vn 0.000000 1.000000 -0.000000
vn 0.000000 0.000000 -1.000000
vn 0.000000 0.000000 -1.000000
vn -1.000000 0.000000 0.000000
vn -1.000000 0.000000 0.000000
vn 0.000000 0.000000 1.000000
vn 0.000000 -0.000000 1.000000
vn -1.000000 0.000000 0.000000
vn -1.000000 0.000000 0.000000
vn 0.000000 0.000000 -1.000000
vn 0.000000 0.000000 -1.000000
vn 0.000000 0.000000 1.000000
vn 0.000000 -0.000000 1.000000
vn 0.000000 0.000000 -1.000000
vn 0.000000 0.000000 -1.000000
vn 1.000000 0.000000 0.000000
vn 1.000000 0.000000 0.000000
vn 1.000000 0.000000 0.000000
vn 1.000000 0.000000 0.000000
vn 1.000000 0.000000 0.000000
vn 1.000000 0.000000 0.000000
vn 0.000000 0.000000 1.000000
vn 0.000000 -0.000000 1.000000
f 4//1 1//1 2//1
f 2//2 3//2 4//2
f 8//3 6//3 5//3
f 6//4 8//4 7//4
f 12//5 9//5 10//5
f 10//6 11//6 12//6
f 16//7 14//7 13//7
f 14//8 16//8 15//8
f 20//9 17//9 18//9
f 18//10 19//10 20//10
f 24//11 22//11 21//11
f 22//12 24//12 23//12
f 28//13 25//13 26//13
f 26//14 27//14 28//14
f 32//15 30//15 29//15
f 30//16 32//16 31//16
f 36//17 33//17 34//17
f 34//18 35//18 36//18
f 40//19 38//19 37//19
f 38//20 40//20 39//20
f 44//21 41//21 42//21
f 42//22 43//22 44//22
f 48//23 46//23 45//23
f 46//24 48//24 47//24
f 49//25 51//25 50//25
f 49//26 52//26 51//26
f 53//27 55//27 54//27
f 53//28 56//28 55//28
f 57//29 59//29 58//29
f 57//30 60//30 59//30
f 61//31 63//31 62//31
f 61//32 64//32 63//32
f 65//33 67//33 66//33
f 65//34 68//34 67//34
f 69//35 71//35 70//35
f 69//36 72//36 71//36
f 73//37 75//37 74//37
f 73//38 76//38 75//38
f 77//39 79//39 78//39
f 77//40 80//40 79//40
f 81//41 83//41 82//41
f 81//42 84//42 83//42
f 85//43 87//43 86//43
f 85//44 88//44 87//44
f 89//45 91//45 90//45
f 89//46 92//46 91//46
