{
 "asset": {
  "generator": "Khronos glTF Blender I/O v5.2.40",
  "version": "2.0"
 },
 "scene": 0,
 "scenes": [
  {
   "name": "Scene",
   "nodes": [
    0,
    1
   ]
  }
 ],
 "nodes": [
  {
   "mesh": 0,
   "name": "Body"
  },
  {
   "mesh": 1,
   "name": "Fan",
   "translation": [
    0,
    0.7200000286102295,
    0.4950000047683716
   ]
  }
 ],
 "materials": [
  {
   "doubleSided": true,
   "name": "painted_metal",
   "pbrMetallicRoughness": {
    "baseColorFactor": [
     1,
     1,
     1,
     1
    ],
    "metallicFactor": 1.0,
    "roughnessFactor": 1.0,
    "baseColorTexture": {
     "index": 0
    },
    "metallicRoughnessTexture": {
     "index": 1
    }
   },
   "normalTexture": {
    "index": 2
   },
   "occlusionTexture": {
    "index": 1,
    "strength": 0.8
   }
  },
  {
   "doubleSided": true,
   "name": "steel_bare",
   "pbrMetallicRoughness": {
    "baseColorFactor": [
     1,
     1,
     1,
     1
    ],
    "metallicFactor": 1.0,
    "roughnessFactor": 1.0,
    "baseColorTexture": {
     "index": 3
    },
    "metallicRoughnessTexture": {
     "index": 4
    }
   },
   "normalTexture": {
    "index": 5
   },
   "occlusionTexture": {
    "index": 4,
    "strength": 0.8
   }
  },
  {
   "doubleSided": true,
   "name": "rubber_black",
   "pbrMetallicRoughness": {
    "baseColorFactor": [
     1,
     1,
     1,
     1
    ],
    "metallicFactor": 1.0,
    "roughnessFactor": 1.0,
    "baseColorTexture": {
     "index": 6
    },
    "metallicRoughnessTexture": {
     "index": 7
    }
   },
   "normalTexture": {
    "index": 8
   },
   "occlusionTexture": {
    "index": 7,
    "strength": 0.8
   }
  },
  {
   "doubleSided": true,
   "name": "plastic_panel",
   "pbrMetallicRoughness": {
    "baseColorFactor": [
     1,
     1,
     1,
     1
    ],
    "metallicFactor": 1.0,
    "roughnessFactor": 1.0,
    "baseColorTexture": {
     "index": 9
    },
    "metallicRoughnessTexture": {
     "index": 10
    }
   },
   "normalTexture": {
    "index": 11
   },
   "occlusionTexture": {
    "index": 10,
    "strength": 0.8
   }
  },
  {
   "doubleSided": true,
   "name": "panel_labels",
   "pbrMetallicRoughness": {
    "baseColorFactor": [
     1,
     1,
     1,
     1
    ],
    "metallicFactor": 0.0,
    "roughnessFactor": 0.7,
    "baseColorTexture": {
     "index": 12
    }
   },
   "alphaMode": "BLEND"
  },
  {
   "doubleSided": true,
   "name": "signs_ru",
   "pbrMetallicRoughness": {
    "baseColorFactor": [
     1,
     1,
     1,
     1
    ],
    "metallicFactor": 0.0,
    "roughnessFactor": 0.7,
    "baseColorTexture": {
     "index": 13
    }
   },
   "alphaMode": "BLEND"
  }
 ],
 "meshes": [
  {
   "name": "Body",
   "primitives": [
    {
     "attributes": {
      "POSITION": 0,
      "NORMAL": 1,
      "TEXCOORD_0": 2
     },
     "indices": 3,
     "material": 0
    },
    {
     "attributes": {
      "POSITION": 4,
      "NORMAL": 5,
      "TEXCOORD_0": 6
     },
     "indices": 7,
     "material": 1
    },
    {
     "attributes": {
      "POSITION": 8,
      "NORMAL": 9,
      "TEXCOORD_0": 10
     },
     "indices": 11,
     "material": 2
    },
    {
     "attributes": {
      "POSITION": 12,
      "NORMAL": 13,
      "TEXCOORD_0": 14
     },
     "indices": 15,
     "material": 3
    },
    {
     "attributes": {
      "POSITION": 16,
      "NORMAL": 17,
      "TEXCOORD_0": 18
     },
     "indices": 19,
     "material": 4
    },
    {
     "attributes": {
      "POSITION": 20,
      "NORMAL": 21,
      "TEXCOORD_0": 22
     },
     "indices": 19,
     "material": 5
    }
   ]
  },
  {
   "name": "Fan",
   "primitives": [
    {
     "attributes": {
      "POSITION": 23,
      "NORMAL": 24,
      "TEXCOORD_0": 25
     },
     "indices": 26,
     "material": 1
    }
   ]
  }
 ],
 "accessors": [
  {
   "bufferView": 0,
   "componentType": 5126,
   "count": 576,
   "max": [
    0.75,
    1.3200000524520874,
    0.42500001192092896
   ],
   "min": [
    -0.75,
    0,
    -0.429999977350235
   ],
   "type": "VEC3"
  },
  {
   "bufferView": 1,
   "componentType": 5126,
   "count": 576,
   "type": "VEC3"
  },
  {
   "bufferView": 2,
   "componentType": 5126,
   "count": 576,
   "type": "VEC2"
  },
  {
   "bufferView": 3,
   "componentType": 5123,
   "count": 1080,
   "type": "SCALAR"
  },
  {
   "bufferView": 4,
   "componentType": 5126,
   "count": 3778,
   "max": [
    0.730392336845398,
    1.3119999170303345,
    0.5750000476837158
   ],
   "min": [
    -0.730392336845398,
    0.18500003218650818,
    0.41999998688697815
   ],
   "type": "VEC3"
  },
  {
   "bufferView": 5,
   "componentType": 5126,
   "count": 3778,
   "type": "VEC3"
  },
  {
   "bufferView": 6,
   "componentType": 5126,
   "count": 3778,
   "type": "VEC2"
  },
  {
   "bufferView": 7,
   "componentType": 5123,
   "count": 9420,
   "type": "SCALAR"
  },
  {
   "bufferView": 8,
   "componentType": 5126,
   "count": 1248,
   "max": [
    0.4699999988079071,
    1.5,
    0.44300001859664917
   ],
   "min": [
    -0.5670000314712524,
    0.2500000298023224,
    -0.31700000166893005
   ],
   "type": "VEC3"
  },
  {
   "bufferView": 9,
   "componentType": 5126,
   "count": 1248,
   "type": "VEC3"
  },
  {
   "bufferView": 10,
   "componentType": 5126,
   "count": 1248,
   "type": "VEC2"
  },
  {
   "bufferView": 11,
   "componentType": 5123,
   "count": 3528,
   "type": "SCALAR"
  },
  {
   "bufferView": 12,
   "componentType": 5126,
   "count": 96,
   "max": [
    0.6499999761581421,
    0.45000001788139343,
    -0.15000000596046448
   ],
   "min": [
    0.3499999940395355,
    0.15000000596046448,
    -0.45000001788139343
   ],
   "type": "VEC3"
  },
  {
   "bufferView": 13,
   "componentType": 5126,
   "count": 96,
   "type": "VEC3"
  },
  {
   "bufferView": 14,
   "componentType": 5126,
   "count": 96,
   "type": "VEC2"
  },
  {
   "bufferView": 15,
   "componentType": 5123,
   "count": 180,
   "type": "SCALAR"
  },
  {
   "bufferView": 16,
   "componentType": 5126,
   "count": 4,
   "max": [
    0.7000000476837158,
    1.3075000047683716,
    0.4259999990463257
   ],
   "min": [
    0.4000000059604645,
    1.2324999570846558,
    0.4259999990463257
   ],
   "type": "VEC3"
  },
  {
   "bufferView": 17,
   "componentType": 5126,
   "count": 4,
   "type": "VEC3"
  },
  {
   "bufferView": 18,
   "componentType": 5126,
   "count": 4,
   "type": "VEC2"
  },
  {
   "bufferView": 19,
   "componentType": 5123,
   "count": 6,
   "type": "SCALAR"
  },
  {
   "bufferView": 20,
   "componentType": 5126,
   "count": 4,
   "max": [
    -0.4000000059604645,
    0.29500001668930054,
    0.4259999990463257
   ],
   "min": [
    -0.7000000476837158,
    0.14499999582767487,
    0.4259999990463257
   ],
   "type": "VEC3"
  },
  {
   "bufferView": 21,
   "componentType": 5126,
   "count": 4,
   "type": "VEC3"
  },
  {
   "bufferView": 22,
   "componentType": 5126,
   "count": 4,
   "type": "VEC2"
  },
  {
   "bufferView": 23,
   "componentType": 5126,
   "count": 1216,
   "max": [
    0.45000001788139343,
    0.45049500465393066,
    0.04000002145767212
   ],
   "min": [
    -0.42840033769607544,
    -0.45049506425857544,
    -0.03999999165534973
   ],
   "type": "VEC3"
  },
  {
   "bufferView": 24,
   "componentType": 5126,
   "count": 1216,
   "type": "VEC3"
  },
  {
   "bufferView": 25,
   "componentType": 5126,
   "count": 1216,
   "type": "VEC2"
  },
  {
   "bufferView": 26,
   "componentType": 5123,
   "count": 2760,
   "type": "SCALAR"
  }
 ],
 "bufferViews": [
  {
   "buffer": 0,
   "byteLength": 6912,
   "byteOffset": 0,
   "target": 34962
  },
  {
   "buffer": 0,
   "byteLength": 6912,
   "byteOffset": 6912,
   "target": 34962
  },
  {
   "buffer": 0,
   "byteLength": 4608,
   "byteOffset": 13824,
   "target": 34962
  },
  {
   "buffer": 0,
   "byteLength": 2160,
   "byteOffset": 18432,
   "target": 34963
  },
  {
   "buffer": 0,
   "byteLength": 45336,
   "byteOffset": 20592,
   "target": 34962
  },
  {
   "buffer": 0,
   "byteLength": 45336,
   "byteOffset": 65928,
   "target": 34962
  },
  {
   "buffer": 0,
   "byteLength": 30224,
   "byteOffset": 111264,
   "target": 34962
  },
  {
   "buffer": 0,
   "byteLength": 18840,
   "byteOffset": 141488,
   "target": 34963
  },
  {
   "buffer": 0,
   "byteLength": 14976,
   "byteOffset": 160328,
   "target": 34962
  },
  {
   "buffer": 0,
   "byteLength": 14976,
   "byteOffset": 175304,
   "target": 34962
  },
  {
   "buffer": 0,
   "byteLength": 9984,
   "byteOffset": 190280,
   "target": 34962
  },
  {
   "buffer": 0,
   "byteLength": 7056,
   "byteOffset": 200264,
   "target": 34963
  },
  {
   "buffer": 0,
   "byteLength": 1152,
   "byteOffset": 207320,
   "target": 34962
  },
  {
   "buffer": 0,
   "byteLength": 1152,
   "byteOffset": 208472,
   "target": 34962
  },
  {
   "buffer": 0,
   "byteLength": 768,
   "byteOffset": 209624,
   "target": 34962
  },
  {
   "buffer": 0,
   "byteLength": 360,
   "byteOffset": 210392,
   "target": 34963
  },
  {
   "buffer": 0,
   "byteLength": 48,
   "byteOffset": 210752,
   "target": 34962
  },
  {
   "buffer": 0,
   "byteLength": 48,
   "byteOffset": 210800,
   "target": 34962
  },
  {
   "buffer": 0,
   "byteLength": 32,
   "byteOffset": 210848,
   "target": 34962
  },
  {
   "buffer": 0,
   "byteLength": 12,
   "byteOffset": 210880,
   "target": 34963
  },
  {
   "buffer": 0,
   "byteLength": 48,
   "byteOffset": 210892,
   "target": 34962
  },
  {
   "buffer": 0,
   "byteLength": 48,
   "byteOffset": 210940,
   "target": 34962
  },
  {
   "buffer": 0,
   "byteLength": 32,
   "byteOffset": 210988,
   "target": 34962
  },
  {
   "buffer": 0,
   "byteLength": 14592,
   "byteOffset": 211020,
   "target": 34962
  },
  {
   "buffer": 0,
   "byteLength": 14592,
   "byteOffset": 225612,
   "target": 34962
  },
  {
   "buffer": 0,
   "byteLength": 9728,
   "byteOffset": 240204,
   "target": 34962
  },
  {
   "buffer": 0,
   "byteLength": 5520,
   "byteOffset": 249932,
   "target": 34963
  }
 ],
 "buffers": [
  {
   "byteLength": 255452,
   "uri": "ventilation_unit.bin"
  }
 ],
 "images": [
  {
   "uri": "../../textures/painted_metal/painted_metal_albedo.jpg"
  },
  {
   "uri": "../../textures/painted_metal/painted_metal_orm.jpg"
  },
  {
   "uri": "../../textures/painted_metal/painted_metal_normal.png"
  },
  {
   "uri": "../../textures/steel_bare/steel_bare_albedo.jpg"
  },
  {
   "uri": "../../textures/steel_bare/steel_bare_orm.jpg"
  },
  {
   "uri": "../../textures/steel_bare/steel_bare_normal.png"
  },
  {
   "uri": "../../textures/rubber_black/rubber_black_albedo.jpg"
  },
  {
   "uri": "../../textures/rubber_black/rubber_black_orm.jpg"
  },
  {
   "uri": "../../textures/rubber_black/rubber_black_normal.png"
  },
  {
   "uri": "../../textures/plastic_panel/plastic_panel_albedo.jpg"
  },
  {
   "uri": "../../textures/plastic_panel/plastic_panel_orm.jpg"
  },
  {
   "uri": "../../textures/plastic_panel/plastic_panel_normal.png"
  },
  {
   "uri": "../../textures/decals/panel_labels.png"
  },
  {
   "uri": "../../textures/decals/signs_ru.png"
  }
 ],
 "textures": [
  {
   "source": 0,
   "sampler": 0
  },
  {
   "source": 1,
   "sampler": 0
  },
  {
   "source": 2,
   "sampler": 0
  },
  {
   "source": 3,
   "sampler": 0
  },
  {
   "source": 4,
   "sampler": 0
  },
  {
   "source": 5,
   "sampler": 0
  },
  {
   "source": 6,
   "sampler": 0
  },
  {
   "source": 7,
   "sampler": 0
  },
  {
   "source": 8,
   "sampler": 0
  },
  {
   "source": 9,
   "sampler": 0
  },
  {
   "source": 10,
   "sampler": 0
  },
  {
   "source": 11,
   "sampler": 0
  },
  {
   "source": 12,
   "sampler": 0
  },
  {
   "source": 13,
   "sampler": 0
  }
 ],
 "samplers": [
  {
   "magFilter": 9729,
   "minFilter": 9987,
   "wrapS": 10497,
   "wrapT": 10497
  }
 ]
}
