# Generated by svg_to_godot3d
mtllib geometry.mtl
s off
o Ceiling_001_c_d9618581ea
usemtl Ceiling
v -110.000000 3.800000 -13.000000
v -85.000000 3.800000 -13.000000
v -85.000000 3.800000 6.000000
v -110.000000 3.800000 6.000000
v -110.000000 4.000000 -13.000000
v -85.000000 4.000000 -13.000000
v -85.000000 4.000000 6.000000
v -110.000000 4.000000 6.000000
v -110.000000 3.800000 -13.000000
v -85.000000 3.800000 -13.000000
v -85.000000 4.000000 -13.000000
v -110.000000 4.000000 -13.000000
v -85.000000 3.800000 -13.000000
v -85.000000 3.800000 6.000000
v -85.000000 4.000000 6.000000
v -85.000000 4.000000 -13.000000
v -85.000000 3.800000 6.000000
v -110.000000 3.800000 6.000000
v -110.000000 4.000000 6.000000
v -85.000000 4.000000 6.000000
v -110.000000 3.800000 6.000000
v -110.000000 3.800000 -13.000000
v -110.000000 4.000000 -13.000000
v -110.000000 4.000000 6.000000
vn 0.000000 -1.000000 0.000000
vn 0.000000 -1.000000 0.000000
vn 0.000000 1.000000 0.000000
vn 0.000000 1.000000 -0.000000
vn 0.000000 0.000000 -1.000000
vn 0.000000 0.000000 -1.000000
vn 1.000000 0.000000 0.000000
vn 1.000000 0.000000 0.000000
vn 0.000000 0.000000 1.000000
vn 0.000000 -0.000000 1.000000
vn -1.000000 0.000000 0.000000
vn -1.000000 0.000000 0.000000
f 4//1 1//1 2//1
f 2//2 3//2 4//2
f 8//3 6//3 5//3
f 6//4 8//4 7//4
f 9//5 11//5 10//5
f 9//6 12//6 11//6
f 13//7 15//7 14//7
f 13//8 16//8 15//8
f 17//9 19//9 18//9
f 17//10 20//10 19//10
f 21//11 23//11 22//11
f 21//12 24//12 23//12
o Ceiling_002_c_11b2c5d7f7
usemtl Ceiling
v -80.000000 3.800000 -8.500000
v -61.750000 3.800000 -8.500000
v -61.750000 3.800000 15.000000
v -80.000000 3.800000 15.000000
v -80.000000 4.000000 -8.500000
v -61.750000 4.000000 -8.500000
v -61.750000 4.000000 15.000000
v -80.000000 4.000000 15.000000
v -80.000000 3.800000 -8.500000
v -61.750000 3.800000 -8.500000
v -61.750000 4.000000 -8.500000
v -80.000000 4.000000 -8.500000
v -61.750000 3.800000 -8.500000
v -61.750000 3.800000 15.000000
v -61.750000 4.000000 15.000000
v -61.750000 4.000000 -8.500000
v -61.750000 3.800000 15.000000
v -80.000000 3.800000 15.000000
v -80.000000 4.000000 15.000000
v -61.750000 4.000000 15.000000
v -80.000000 3.800000 15.000000
v -80.000000 3.800000 -8.500000
v -80.000000 4.000000 -8.500000
v -80.000000 4.000000 15.000000
vn 0.000000 -1.000000 0.000000
vn 0.000000 -1.000000 0.000000
vn 0.000000 1.000000 0.000000
vn 0.000000 1.000000 -0.000000
vn 0.000000 0.000000 -1.000000
vn 0.000000 0.000000 -1.000000
vn 1.000000 0.000000 0.000000
vn 1.000000 0.000000 0.000000
vn 0.000000 0.000000 1.000000
vn 0.000000 -0.000000 1.000000
vn -1.000000 0.000000 0.000000
vn -1.000000 0.000000 0.000000
f 28//13 25//13 26//13
f 26//14 27//14 28//14
f 32//15 30//15 29//15
f 30//16 32//16 31//16
f 33//17 35//17 34//17
f 33//18 36//18 35//18
f 37//19 39//19 38//19
f 37//20 40//20 39//20
f 41//21 43//21 42//21
f 41//22 44//22 43//22
f 45//23 47//23 46//23
f 45//24 48//24 47//24
o Ceiling_003_c_452903e9ea
usemtl Ceiling
v -110.000000 3.400000 6.000000
v -102.000000 3.400000 6.000000
v -102.000000 3.400000 14.000000
v -110.000000 3.400000 14.000000
v -110.000000 3.600000 6.000000
v -102.000000 3.600000 6.000000
v -102.000000 3.600000 14.000000
v -110.000000 3.600000 14.000000
v -110.000000 3.400000 6.000000
v -102.000000 3.400000 6.000000
v -102.000000 3.600000 6.000000
v -110.000000 3.600000 6.000000
v -102.000000 3.400000 6.000000
v -102.000000 3.400000 14.000000
v -102.000000 3.600000 14.000000
v -102.000000 3.600000 6.000000
v -102.000000 3.400000 14.000000
v -110.000000 3.400000 14.000000
v -110.000000 3.600000 14.000000
v -102.000000 3.600000 14.000000
v -110.000000 3.400000 14.000000
v -110.000000 3.400000 6.000000
v -110.000000 3.600000 6.000000
v -110.000000 3.600000 14.000000
vn 0.000000 -1.000000 0.000000
vn 0.000000 -1.000000 0.000000
vn 0.000000 1.000000 0.000000
vn 0.000000 1.000000 -0.000000
vn 0.000000 0.000000 -1.000000
vn 0.000000 0.000000 -1.000000
vn 1.000000 0.000000 0.000000
vn 1.000000 0.000000 0.000000
vn 0.000000 0.000000 1.000000
vn 0.000000 -0.000000 1.000000
vn -1.000000 0.000000 0.000000
vn -1.000000 0.000000 0.000000
f 52//25 49//25 50//25
f 50//26 51//26 52//26
f 56//27 54//27 53//27
f 54//28 56//28 55//28
f 57//29 59//29 58//29
f 57//30 60//30 59//30
f 61//31 63//31 62//31
f 61//32 64//32 63//32
f 65//33 67//33 66//33
f 65//34 68//34 67//34
f 69//35 71//35 70//35
f 69//36 72//36 71//36
o Ceiling_004_c_5b02cce12d
usemtl Ceiling
v -85.000000 3.400000 -3.500000
v -80.000000 3.400000 -3.500000
v -80.000000 3.400000 1.500000
v -85.000000 3.400000 1.500000
v -85.000000 3.600000 -3.500000
v -80.000000 3.600000 -3.500000
v -80.000000 3.600000 1.500000
v -85.000000 3.600000 1.500000
v -85.000000 3.400000 -3.500000
v -80.000000 3.400000 -3.500000
v -80.000000 3.600000 -3.500000
v -85.000000 3.600000 -3.500000
v -80.000000 3.400000 -3.500000
v -80.000000 3.400000 1.500000
v -80.000000 3.600000 1.500000
v -80.000000 3.600000 -3.500000
v -80.000000 3.400000 1.500000
v -85.000000 3.400000 1.500000
v -85.000000 3.600000 1.500000
v -80.000000 3.600000 1.500000
v -85.000000 3.400000 1.500000
v -85.000000 3.400000 -3.500000
v -85.000000 3.600000 -3.500000
v -85.000000 3.600000 1.500000
vn 0.000000 -1.000000 0.000000
vn 0.000000 -1.000000 0.000000
vn 0.000000 1.000000 0.000000
vn 0.000000 1.000000 -0.000000
vn 0.000000 0.000000 -1.000000
vn 0.000000 0.000000 -1.000000
vn 1.000000 0.000000 0.000000
vn 1.000000 0.000000 0.000000
vn 0.000000 0.000000 1.000000
vn 0.000000 -0.000000 1.000000
vn -1.000000 0.000000 0.000000
vn -1.000000 0.000000 0.000000
f 76//37 73//37 74//37
f 74//38 75//38 76//38
f 80//39 78//39 77//39
f 78//40 80//40 79//40
f 81//41 83//41 82//41
f 81//42 84//42 83//42
f 85//43 87//43 86//43
f 85//44 88//44 87//44
f 89//45 91//45 90//45
f 89//46 92//46 91//46
f 93//47 95//47 94//47
f 93//48 96//48 95//48
