# Generated by svg_to_godot3d
mtllib geometry.mtl
s off
o Floor_001_f_d9618581ea
usemtl Floor
v -110.000000 -0.200000 -13.000000
v -85.150000 -0.200000 -13.000000
v -85.150000 -0.200000 6.000000
v -110.000000 -0.200000 6.000000
v -110.000000 0.000000 -13.000000
v -85.150000 0.000000 -13.000000
v -85.150000 0.000000 6.000000
v -110.000000 0.000000 6.000000
v -85.150000 -0.200000 -13.000000
v -85.000000 -0.200000 -13.000000
v -85.000000 -0.200000 -3.500000
v -85.150000 -0.200000 -3.500000
v -85.150000 0.000000 -13.000000
v -85.000000 0.000000 -13.000000
v -85.000000 0.000000 -3.500000
v -85.150000 0.000000 -3.500000
v -85.150000 -0.200000 -3.500000
v -85.000000 -0.200000 -3.500000
v -85.000000 -0.200000 1.500000
v -85.150000 -0.200000 1.500000
v -85.150000 0.000000 -3.500000
v -85.000000 0.000000 -3.500000
v -85.000000 0.000000 1.500000
v -85.150000 0.000000 1.500000
v -85.150000 -0.200000 1.500000
v -85.000000 -0.200000 1.500000
v -85.000000 -0.200000 6.000000
v -85.150000 -0.200000 6.000000
v -85.150000 0.000000 1.500000
v -85.000000 0.000000 1.500000
v -85.000000 0.000000 6.000000
v -85.150000 0.000000 6.000000
v -110.000000 -0.200000 -13.000000
v -85.150000 -0.200000 -13.000000
v -85.150000 0.000000 -13.000000
v -110.000000 0.000000 -13.000000
v -85.150000 -0.200000 6.000000
v -110.000000 -0.200000 6.000000
v -110.000000 0.000000 6.000000
v -85.150000 0.000000 6.000000
v -110.000000 -0.200000 6.000000
v -110.000000 -0.200000 -13.000000
v -110.000000 0.000000 -13.000000
v -110.000000 0.000000 6.000000
v -85.150000 -0.200000 -13.000000
v -85.000000 -0.200000 -13.000000
v -85.000000 0.000000 -13.000000
v -85.150000 0.000000 -13.000000
v -85.000000 -0.200000 -13.000000
v -85.000000 -0.200000 -3.500000
v -85.000000 0.000000 -3.500000
v -85.000000 0.000000 -13.000000
v -85.000000 -0.200000 -3.500000
v -85.000000 -0.200000 1.500000
v -85.000000 0.000000 1.500000
v -85.000000 0.000000 -3.500000
v -85.000000 -0.200000 1.500000
v -85.000000 -0.200000 6.000000
v -85.000000 0.000000 6.000000
v -85.000000 0.000000 1.500000
v -85.000000 -0.200000 6.000000
v -85.150000 -0.200000 6.000000
v -85.150000 0.000000 6.000000
v -85.000000 0.000000 6.000000
vn 0.000000 -1.000000 0.000000
vn 0.000000 -1.000000 0.000000
vn 0.000000 1.000000 0.000000
vn 0.000000 1.000000 -0.000000
vn 0.000000 -1.000000 0.000000
vn 0.000000 -1.000000 0.000000
vn 0.000000 1.000000 0.000000
vn 0.000000 1.000000 -0.000000
vn 0.000000 -1.000000 0.000000
vn 0.000000 -1.000000 0.000000
vn 0.000000 1.000000 0.000000
vn 0.000000 1.000000 -0.000000
vn 0.000000 -1.000000 0.000000
vn 0.000000 -1.000000 0.000000
vn 0.000000 1.000000 0.000000
vn 0.000000 1.000000 -0.000000
vn 0.000000 0.000000 -1.000000
vn 0.000000 0.000000 -1.000000
vn 0.000000 0.000000 1.000000
vn 0.000000 -0.000000 1.000000
vn -1.000000 0.000000 0.000000
vn -1.000000 0.000000 0.000000
vn 0.000000 0.000000 -1.000000
vn 0.000000 0.000000 -1.000000
vn 1.000000 0.000000 0.000000
vn 1.000000 0.000000 0.000000
vn 1.000000 0.000000 0.000000
vn 1.000000 0.000000 0.000000
vn 1.000000 0.000000 0.000000
vn 1.000000 0.000000 0.000000
vn 0.000000 0.000000 1.000000
vn 0.000000 -0.000000 1.000000
f 4//1 1//1 2//1
f 2//2 3//2 4//2
f 8//3 6//3 5//3
f 6//4 8//4 7//4
f 12//5 9//5 10//5
f 10//6 11//6 12//6
f 16//7 14//7 13//7
f 14//8 16//8 15//8
f 20//9 17//9 18//9
f 18//10 19//10 20//10
f 24//11 22//11 21//11
f 22//12 24//12 23//12
f 28//13 25//13 26//13
f 26//14 27//14 28//14
f 32//15 30//15 29//15
f 30//16 32//16 31//16
f 33//17 35//17 34//17
f 33//18 36//18 35//18
f 37//19 39//19 38//19
f 37//20 40//20 39//20
f 41//21 43//21 42//21
f 41//22 44//22 43//22
f 45//23 47//23 46//23
f 45//24 48//24 47//24
f 49//25 51//25 50//25
f 49//26 52//26 51//26
f 53//27 55//27 54//27
f 53//28 56//28 55//28
f 57//29 59//29 58//29
f 57//30 60//30 59//30
f 61//31 63//31 62//31
f 61//32 64//32 63//32
o Floor_002_f_452903e9ea
usemtl Floor
v -110.000000 -0.200000 6.000000
v -102.000000 -0.200000 6.000000
v -102.000000 -0.200000 14.000000
v -110.000000 -0.200000 14.000000
v -110.000000 0.000000 6.000000
v -102.000000 0.000000 6.000000
v -102.000000 0.000000 14.000000
v -110.000000 0.000000 14.000000
v -110.000000 -0.200000 6.000000
v -102.000000 -0.200000 6.000000
v -102.000000 0.000000 6.000000
v -110.000000 0.000000 6.000000
v -102.000000 -0.200000 6.000000
v -102.000000 -0.200000 14.000000
v -102.000000 0.000000 14.000000
v -102.000000 0.000000 6.000000
v -102.000000 -0.200000 14.000000
v -110.000000 -0.200000 14.000000
v -110.000000 0.000000 14.000000
v -102.000000 0.000000 14.000000
v -110.000000 -0.200000 14.000000
v -110.000000 -0.200000 6.000000
v -110.000000 0.000000 6.000000
v -110.000000 0.000000 14.000000
vn 0.000000 -1.000000 0.000000
vn 0.000000 -1.000000 0.000000
vn 0.000000 1.000000 0.000000
vn 0.000000 1.000000 -0.000000
vn 0.000000 0.000000 -1.000000
vn 0.000000 0.000000 -1.000000
vn 1.000000 0.000000 0.000000
vn 1.000000 0.000000 0.000000
vn 0.000000 0.000000 1.000000
vn 0.000000 -0.000000 1.000000
vn -1.000000 0.000000 0.000000
vn -1.000000 0.000000 0.000000
f 68//33 65//33 66//33
f 66//34 67//34 68//34
f 72//35 70//35 69//35
f 70//36 72//36 71//36
f 73//37 75//37 74//37
f 73//38 76//38 75//38
f 77//39 79//39 78//39
f 77//40 80//40 79//40
f 81//41 83//41 82//41
f 81//42 84//42 83//42
f 85//43 87//43 86//43
f 85//44 88//44 87//44
o Floor_003_f_5b02cce12d
usemtl Floor
v -85.000000 -0.200000 -3.500000
v -80.000000 -0.200000 -3.500000
v -80.000000 -0.200000 1.500000
v -85.000000 -0.200000 1.500000
v -85.000000 0.000000 -3.500000
v -80.000000 0.000000 -3.500000
v -80.000000 0.000000 1.500000
v -85.000000 0.000000 1.500000
v -85.000000 -0.200000 -3.500000
v -80.000000 -0.200000 -3.500000
v -80.000000 0.000000 -3.500000
v -85.000000 0.000000 -3.500000
v -80.000000 -0.200000 -3.500000
v -80.000000 -0.200000 1.500000
v -80.000000 0.000000 1.500000
v -80.000000 0.000000 -3.500000
v -80.000000 -0.200000 1.500000
v -85.000000 -0.200000 1.500000
v -85.000000 0.000000 1.500000
v -80.000000 0.000000 1.500000
v -85.000000 -0.200000 1.500000
v -85.000000 -0.200000 -3.500000
v -85.000000 0.000000 -3.500000
v -85.000000 0.000000 1.500000
vn 0.000000 -1.000000 0.000000
vn 0.000000 -1.000000 0.000000
vn 0.000000 1.000000 0.000000
vn 0.000000 1.000000 -0.000000
vn 0.000000 0.000000 -1.000000
vn 0.000000 0.000000 -1.000000
vn 1.000000 0.000000 0.000000
vn 1.000000 0.000000 0.000000
vn 0.000000 0.000000 1.000000
vn 0.000000 -0.000000 1.000000
vn -1.000000 0.000000 0.000000
vn -1.000000 0.000000 0.000000
f 92//45 89//45 90//45
f 90//46 91//46 92//46
f 96//47 94//47 93//47
f 94//48 96//48 95//48
f 97//49 99//49 98//49
f 97//50 100//50 99//50
f 101//51 103//51 102//51
f 101//52 104//52 103//52
f 105//53 107//53 106//53
f 105//54 108//54 107//54
f 109//55 111//55 110//55
f 109//56 112//56 111//56
o Floor_004_f_11b2c5d7f7
usemtl Floor
v -80.000000 -0.200000 -8.500000
v -79.850000 -0.200000 -8.500000
v -79.850000 -0.200000 -3.500000
v -80.000000 -0.200000 -3.500000
v -80.000000 0.000000 -8.500000
v -79.850000 0.000000 -8.500000
v -79.850000 0.000000 -3.500000
v -80.000000 0.000000 -3.500000
v -80.000000 -0.200000 -3.500000
v -79.850000 -0.200000 -3.500000
v -79.850000 -0.200000 1.500000
v -80.000000 -0.200000 1.500000
v -80.000000 0.000000 -3.500000
v -79.850000 0.000000 -3.500000
v -79.850000 0.000000 1.500000
v -80.000000 0.000000 1.500000
v -80.000000 -0.200000 1.500000
v -79.850000 -0.200000 1.500000
v -79.850000 -0.200000 15.000000
v -80.000000 -0.200000 15.000000
v -80.000000 0.000000 1.500000
v -79.850000 0.000000 1.500000
v -79.850000 0.000000 15.000000
v -80.000000 0.000000 15.000000
v -79.850000 -0.200000 -8.500000
v -61.750000 -0.200000 -8.500000
v -61.750000 -0.200000 15.000000
v -79.850000 -0.200000 15.000000
v -79.850000 0.000000 -8.500000
v -61.750000 0.000000 -8.500000
v -61.750000 0.000000 15.000000
v -79.850000 0.000000 15.000000
v -80.000000 -0.200000 -8.500000
v -79.850000 -0.200000 -8.500000
v -79.850000 0.000000 -8.500000
v -80.000000 0.000000 -8.500000
v -80.000000 -0.200000 -3.500000
v -80.000000 -0.200000 -8.500000
v -80.000000 0.000000 -8.500000
v -80.000000 0.000000 -3.500000
v -80.000000 -0.200000 1.500000
v -80.000000 -0.200000 -3.500000
v -80.000000 0.000000 -3.500000
v -80.000000 0.000000 1.500000
v -79.850000 -0.200000 15.000000
v -80.000000 -0.200000 15.000000
v -80.000000 0.000000 15.000000
v -79.850000 0.000000 15.000000
v -80.000000 -0.200000 15.000000
v -80.000000 -0.200000 1.500000
v -80.000000 0.000000 1.500000
v -80.000000 0.000000 15.000000
v -79.850000 -0.200000 -8.500000
v -61.750000 -0.200000 -8.500000
v -61.750000 0.000000 -8.500000
v -79.850000 0.000000 -8.500000
v -61.750000 -0.200000 -8.500000
v -61.750000 -0.200000 15.000000
v -61.750000 0.000000 15.000000
v -61.750000 0.000000 -8.500000
v -61.750000 -0.200000 15.000000
v -79.850000 -0.200000 15.000000
v -79.850000 0.000000 15.000000
v -61.750000 0.000000 15.000000
vn 0.000000 -1.000000 0.000000
vn 0.000000 -1.000000 0.000000
vn 0.000000 1.000000 0.000000
vn 0.000000 1.000000 -0.000000
vn 0.000000 -1.000000 0.000000
vn 0.000000 -1.000000 0.000000
vn 0.000000 1.000000 0.000000
vn 0.000000 1.000000 -0.000000
vn 0.000000 -1.000000 0.000000
vn 0.000000 -1.000000 0.000000
vn 0.000000 1.000000 0.000000
vn 0.000000 1.000000 -0.000000
vn 0.000000 -1.000000 0.000000
vn 0.000000 -1.000000 0.000000
vn 0.000000 1.000000 0.000000
vn 0.000000 1.000000 -0.000000
vn 0.000000 0.000000 -1.000000
vn 0.000000 0.000000 -1.000000
vn -1.000000 0.000000 0.000000
vn -1.000000 0.000000 0.000000
vn -1.000000 0.000000 0.000000
vn -1.000000 0.000000 0.000000
vn 0.000000 0.000000 1.000000
vn 0.000000 -0.000000 1.000000
vn -1.000000 0.000000 0.000000
vn -1.000000 0.000000 0.000000
vn 0.000000 0.000000 -1.000000
vn 0.000000 0.000000 -1.000000
vn 1.000000 0.000000 0.000000
vn 1.000000 0.000000 0.000000
vn 0.000000 0.000000 1.000000
vn 0.000000 -0.000000 1.000000
f 116//57 113//57 114//57
f 114//58 115//58 116//58
f 120//59 118//59 117//59
f 118//60 120//60 119//60
f 124//61 121//61 122//61
f 122//62 123//62 124//62
f 128//63 126//63 125//63
f 126//64 128//64 127//64
f 132//65 129//65 130//65
f 130//66 131//66 132//66
f 136//67 134//67 133//67
f 134//68 136//68 135//68
f 140//69 137//69 138//69
f 138//70 139//70 140//70
f 144//71 142//71 141//71
f 142//72 144//72 143//72
f 145//73 147//73 146//73
f 145//74 148//74 147//74
f 149//75 151//75 150//75
f 149//76 152//76 151//76
f 153//77 155//77 154//77
f 153//78 156//78 155//78
f 157//79 159//79 158//79
f 157//80 160//80 159//80
f 161//81 163//81 162//81
f 161//82 164//82 163//82
f 165//83 167//83 166//83
f 165//84 168//84 167//84
f 169//85 171//85 170//85
f 169//86 172//86 171//86
f 173//87 175//87 174//87
f 173//88 176//88 175//88
