{
 "asset": {
  "generator": "Khronos glTF Blender I/O v5.2.40",
  "version": "2.0"
 },
 "scene": 0,
 "scenes": [
  {
   "name": "Scene",
   "nodes": [
    0
   ]
  }
 ],
 "nodes": [
  {
   "mesh": 0,
   "name": "Body"
  }
 ],
 "materials": [
  {
   "doubleSided": true,
   "name": "painted_metal",
   "pbrMetallicRoughness": {
    "baseColorFactor": [
     1,
     1,
     1,
     1
    ],
    "metallicFactor": 1.0,
    "roughnessFactor": 1.0,
    "baseColorTexture": {
     "index": 0
    },
    "metallicRoughnessTexture": {
     "index": 1
    }
   },
   "normalTexture": {
    "index": 2
   },
   "occlusionTexture": {
    "index": 1,
    "strength": 0.8
   }
  },
  {
   "doubleSided": true,
   "name": "steel_bare",
   "pbrMetallicRoughness": {
    "baseColorFactor": [
     1,
     1,
     1,
     1
    ],
    "metallicFactor": 1.0,
    "roughnessFactor": 1.0,
    "baseColorTexture": {
     "index": 3
    },
    "metallicRoughnessTexture": {
     "index": 4
    }
   },
   "normalTexture": {
    "index": 5
   },
   "occlusionTexture": {
    "index": 4,
    "strength": 0.8
   }
  },
  {
   "doubleSided": true,
   "name": "rubber_black",
   "pbrMetallicRoughness": {
    "baseColorFactor": [
     1,
     1,
     1,
     1
    ],
    "metallicFactor": 1.0,
    "roughnessFactor": 1.0,
    "baseColorTexture": {
     "index": 6
    },
    "metallicRoughnessTexture": {
     "index": 7
    }
   },
   "normalTexture": {
    "index": 8
   },
   "occlusionTexture": {
    "index": 7,
    "strength": 0.8
   }
  },
  {
   "doubleSided": true,
   "name": "chrome_dull",
   "pbrMetallicRoughness": {
    "baseColorFactor": [
     0.550000011920929,
     0.5600000023841858,
     0.5799999833106995,
     1
    ],
    "roughnessFactor": 0.3499999940395355
   }
  }
 ],
 "meshes": [
  {
   "name": "Body",
   "primitives": [
    {
     "attributes": {
      "POSITION": 0,
      "NORMAL": 1,
      "TEXCOORD_0": 2
     },
     "indices": 3,
     "material": 0
    },
    {
     "attributes": {
      "POSITION": 4,
      "NORMAL": 5,
      "TEXCOORD_0": 6
     },
     "indices": 7,
     "material": 1
    },
    {
     "attributes": {
      "POSITION": 8,
      "NORMAL": 9,
      "TEXCOORD_0": 10
     },
     "indices": 11,
     "material": 2
    },
    {
     "attributes": {
      "POSITION": 12,
      "NORMAL": 13,
      "TEXCOORD_0": 14
     },
     "indices": 15,
     "material": 3
    }
   ]
  }
 ],
 "accessors": [
  {
   "bufferView": 0,
   "componentType": 5126,
   "count": 96,
   "max": [
    0.15000000596046448,
    0,
    0.05999999865889549
   ],
   "min": [
    -0.15000000596046448,
    -0.05000000074505806,
    -0.05999999865889549
   ],
   "type": "VEC3"
  },
  {
   "bufferView": 1,
   "componentType": 5126,
   "count": 96,
   "type": "VEC3"
  },
  {
   "bufferView": 2,
   "componentType": 5126,
   "count": 96,
   "type": "VEC2"
  },
  {
   "bufferView": 3,
   "componentType": 5123,
   "count": 180,
   "type": "SCALAR"
  },
  {
   "bufferView": 4,
   "componentType": 5126,
   "count": 72,
   "max": [
    0.11039230227470398,
    -0.04800000041723251,
    0.012000000104308128
   ],
   "min": [
    -0.11039230227470398,
    -0.0560000017285347,
    -0.012000000104308128
   ],
   "type": "VEC3"
  },
  {
   "bufferView": 5,
   "componentType": 5126,
   "count": 72,
   "type": "VEC3"
  },
  {
   "bufferView": 6,
   "componentType": 5126,
   "count": 72,
   "type": "VEC2"
  },
  {
   "bufferView": 7,
   "componentType": 5123,
   "count": 120,
   "type": "SCALAR"
  },
  {
   "bufferView": 8,
   "componentType": 5126,
   "count": 1056,
   "max": [
    0.1438971310853958,
    -0.030000001192092896,
    0.03999999910593033
   ],
   "min": [
    -0.21382109820842743,
    -1.5022310018539429,
    -0.042766351252794266
   ],
   "type": "VEC3"
  },
  {
   "bufferView": 9,
   "componentType": 5126,
   "count": 1056,
   "type": "VEC3"
  },
  {
   "bufferView": 10,
   "componentType": 5126,
   "count": 1056,
   "type": "VEC2"
  },
  {
   "bufferView": 11,
   "componentType": 5123,
   "count": 2988,
   "type": "SCALAR"
  },
  {
   "bufferView": 12,
   "componentType": 5126,
   "count": 144,
   "max": [
    0.14000000059604645,
    -0.8450000286102295,
    0.014233600348234177
   ],
   "min": [
    -0.21000000834465027,
    -1.5449999570846558,
    -0.038767728954553604
   ],
   "type": "VEC3"
  },
  {
   "bufferView": 13,
   "componentType": 5126,
   "count": 144,
   "type": "VEC3"
  },
  {
   "bufferView": 14,
   "componentType": 5126,
   "count": 144,
   "type": "VEC2"
  },
  {
   "bufferView": 15,
   "componentType": 5123,
   "count": 252,
   "type": "SCALAR"
  }
 ],
 "bufferViews": [
  {
   "buffer": 0,
   "byteLength": 1152,
   "byteOffset": 0,
   "target": 34962
  },
  {
   "buffer": 0,
   "byteLength": 1152,
   "byteOffset": 1152,
   "target": 34962
  },
  {
   "buffer": 0,
   "byteLength": 768,
   "byteOffset": 2304,
   "target": 34962
  },
  {
   "buffer": 0,
   "byteLength": 360,
   "byteOffset": 3072,
   "target": 34963
  },
  {
   "buffer": 0,
   "byteLength": 864,
   "byteOffset": 3432,
   "target": 34962
  },
  {
   "buffer": 0,
   "byteLength": 864,
   "byteOffset": 4296,
   "target": 34962
  },
  {
   "buffer": 0,
   "byteLength": 576,
   "byteOffset": 5160,
   "target": 34962
  },
  {
   "buffer": 0,
   "byteLength": 240,
   "byteOffset": 5736,
   "target": 34963
  },
  {
   "buffer": 0,
   "byteLength": 12672,
   "byteOffset": 5976,
   "target": 34962
  },
  {
   "buffer": 0,
   "byteLength": 12672,
   "byteOffset": 18648,
   "target": 34962
  },
  {
   "buffer": 0,
   "byteLength": 8448,
   "byteOffset": 31320,
   "target": 34962
  },
  {
   "buffer": 0,
   "byteLength": 5976,
   "byteOffset": 39768,
   "target": 34963
  },
  {
   "buffer": 0,
   "byteLength": 1728,
   "byteOffset": 45744,
   "target": 34962
  },
  {
   "buffer": 0,
   "byteLength": 1728,
   "byteOffset": 47472,
   "target": 34962
  },
  {
   "buffer": 0,
   "byteLength": 1152,
   "byteOffset": 49200,
   "target": 34962
  },
  {
   "buffer": 0,
   "byteLength": 504,
   "byteOffset": 50352,
   "target": 34963
  }
 ],
 "buffers": [
  {
   "byteLength": 50856,
   "uri": "cable_hang.bin"
  }
 ],
 "images": [
  {
   "uri": "../../textures/painted_metal/painted_metal_albedo.jpg"
  },
  {
   "uri": "../../textures/painted_metal/painted_metal_orm.jpg"
  },
  {
   "uri": "../../textures/painted_metal/painted_metal_normal.png"
  },
  {
   "uri": "../../textures/steel_bare/steel_bare_albedo.jpg"
  },
  {
   "uri": "../../textures/steel_bare/steel_bare_orm.jpg"
  },
  {
   "uri": "../../textures/steel_bare/steel_bare_normal.png"
  },
  {
   "uri": "../../textures/rubber_black/rubber_black_albedo.jpg"
  },
  {
   "uri": "../../textures/rubber_black/rubber_black_orm.jpg"
  },
  {
   "uri": "../../textures/rubber_black/rubber_black_normal.png"
  }
 ],
 "textures": [
  {
   "source": 0,
   "sampler": 0
  },
  {
   "source": 1,
   "sampler": 0
  },
  {
   "source": 2,
   "sampler": 0
  },
  {
   "source": 3,
   "sampler": 0
  },
  {
   "source": 4,
   "sampler": 0
  },
  {
   "source": 5,
   "sampler": 0
  },
  {
   "source": 6,
   "sampler": 0
  },
  {
   "source": 7,
   "sampler": 0
  },
  {
   "source": 8,
   "sampler": 0
  }
 ],
 "samplers": [
  {
   "magFilter": 9729,
   "minFilter": 9987,
   "wrapS": 10497,
   "wrapT": 10497
  }
 ]
}
