# Generated by svg_to_godot3d
mtllib geometry.mtl
s off
o Ceiling_001_u_circulation_ceiling_01
usemtl Ceiling
v -98.900000 5.000000 19.600000
v 31.100000 5.000000 19.600000
v 31.100000 5.000000 25.100000
v -98.900000 5.000000 25.100000
v -98.900000 5.200000 19.600000
v 31.100000 5.200000 19.600000
v 31.100000 5.200000 25.100000
v -98.900000 5.200000 25.100000
v -98.900000 5.000000 19.600000
v 31.100000 5.000000 19.600000
v 31.100000 5.200000 19.600000
v -98.900000 5.200000 19.600000
v 31.100000 5.000000 19.600000
v 31.100000 5.000000 25.100000
v 31.100000 5.200000 25.100000
v 31.100000 5.200000 19.600000
v 31.100000 5.000000 25.100000
v -98.900000 5.000000 25.100000
v -98.900000 5.200000 25.100000
v 31.100000 5.200000 25.100000
v -98.900000 5.000000 25.100000
v -98.900000 5.000000 19.600000
v -98.900000 5.200000 19.600000
v -98.900000 5.200000 25.100000
vn 0.000000 -1.000000 0.000000
vn 0.000000 -1.000000 0.000000
vn 0.000000 1.000000 0.000000
vn 0.000000 1.000000 -0.000000
vn 0.000000 0.000000 -1.000000
vn 0.000000 0.000000 -1.000000
vn 1.000000 0.000000 0.000000
vn 1.000000 0.000000 0.000000
vn 0.000000 0.000000 1.000000
vn 0.000000 -0.000000 1.000000
vn -1.000000 0.000000 0.000000
vn -1.000000 0.000000 0.000000
f 4//1 1//1 2//1
f 2//2 3//2 4//2
f 8//3 6//3 5//3
f 6//4 8//4 7//4
f 9//5 11//5 10//5
f 9//6 12//6 11//6
f 13//7 15//7 14//7
f 13//8 16//8 15//8
f 17//9 19//9 18//9
f 17//10 20//10 19//10
f 21//11 23//11 22//11
f 21//12 24//12 23//12
o Ceiling_002_u_circulation_ceiling_02
usemtl Ceiling
v -98.900000 5.000000 61.800000
v 29.900000 5.000000 61.800000
v 29.900000 5.000000 69.600000
v -98.900000 5.000000 69.600000
v -98.900000 5.200000 61.800000
v 29.900000 5.200000 61.800000
v 29.900000 5.200000 69.600000
v -98.900000 5.200000 69.600000
v -98.900000 5.000000 61.800000
v 29.900000 5.000000 61.800000
v 29.900000 5.200000 61.800000
v -98.900000 5.200000 61.800000
v 29.900000 5.000000 61.800000
v 29.900000 5.000000 69.600000
v 29.900000 5.200000 69.600000
v 29.900000 5.200000 61.800000
v 29.900000 5.000000 69.600000
v -98.900000 5.000000 69.600000
v -98.900000 5.200000 69.600000
v 29.900000 5.200000 69.600000
v -98.900000 5.000000 69.600000
v -98.900000 5.000000 61.800000
v -98.900000 5.200000 61.800000
v -98.900000 5.200000 69.600000
vn 0.000000 -1.000000 0.000000
vn 0.000000 -1.000000 0.000000
vn 0.000000 1.000000 0.000000
vn 0.000000 1.000000 -0.000000
vn 0.000000 0.000000 -1.000000
vn 0.000000 0.000000 -1.000000
vn 1.000000 0.000000 0.000000
vn 1.000000 0.000000 0.000000
vn 0.000000 0.000000 1.000000
vn 0.000000 -0.000000 1.000000
vn -1.000000 0.000000 0.000000
vn -1.000000 0.000000 0.000000
f 28//13 25//13 26//13
f 26//14 27//14 28//14
f 32//15 30//15 29//15
f 30//16 32//16 31//16
f 33//17 35//17 34//17
f 33//18 36//18 35//18
f 37//19 39//19 38//19
f 37//20 40//20 39//20
f 41//21 43//21 42//21
f 41//22 44//22 43//22
f 45//23 47//23 46//23
f 45//24 48//24 47//24
