o Flight_02_Left_Handrail
s off
v -0.025 -0.025 -3.276151
v -0.025 -0.025 3.276151
v -0.025 0.025 3.276151
v -0.025 0.025 -3.276151
v 0.025 -0.025 -3.276151
v 0.025 0.025 -3.276151
v 0.025 0.025 3.276151
v 0.025 -0.025 3.276151
v -0.025 -0.025 3.251151
v 0.025 -0.025 3.251151
v -0.025 -0.025 3.264348
v 0.025 -0.025 3.264348
v -0.025 0.025 -3.251151
v 0.025 0.025 -3.251151
v -0.025 0.025 -3.264348
v 0.025 0.025 -3.264348
f 1 2 3
f 1 3 4
f 5 6 7
f 5 7 8
f 9 1 5
f 9 5 10
f 11 9 10
f 11 10 12
f 13 3 7
f 13 7 14
f 15 13 14
f 15 14 16
