{
 "asset": {
  "generator": "Khronos glTF Blender I/O v5.2.40",
  "version": "2.0"
 },
 "extensionsUsed": [
  "KHR_materials_emissive_strength"
 ],
 "scene": 0,
 "scenes": [
  {
   "name": "Scene",
   "nodes": [
    0,
    1,
    2,
    3
   ]
  }
 ],
 "nodes": [
  {
   "mesh": 0,
   "name": "Body"
  },
  {
   "mesh": 1,
   "name": "Crystal",
   "translation": [
    0,
    1.7799999713897705,
    -0.11999999731779099
   ]
  },
  {
   "mesh": 2,
   "name": "Hoop1",
   "translation": [
    0,
    1.6200000047683716,
    -0.11999999731779099
   ]
  },
  {
   "mesh": 3,
   "name": "Hoop2",
   "translation": [
    0.36000001430511475,
    0.8999999761581421,
    0.20000000298023224
   ]
  }
 ],
 "materials": [
  {
   "doubleSided": true,
   "name": "painted_metal",
   "pbrMetallicRoughness": {
    "baseColorFactor": [
     1,
     1,
     1,
     1
    ],
    "metallicFactor": 1.0,
    "roughnessFactor": 1.0,
    "baseColorTexture": {
     "index": 0
    },
    "metallicRoughnessTexture": {
     "index": 1
    }
   },
   "normalTexture": {
    "index": 2
   },
   "occlusionTexture": {
    "index": 1,
    "strength": 0.8
   }
  },
  {
   "doubleSided": true,
   "name": "steel_bare",
   "pbrMetallicRoughness": {
    "baseColorFactor": [
     1,
     1,
     1,
     1
    ],
    "metallicFactor": 1.0,
    "roughnessFactor": 1.0,
    "baseColorTexture": {
     "index": 3
    },
    "metallicRoughnessTexture": {
     "index": 4
    }
   },
   "normalTexture": {
    "index": 5
   },
   "occlusionTexture": {
    "index": 4,
    "strength": 0.8
   }
  },
  {
   "doubleSided": true,
   "name": "vinyl_worn",
   "pbrMetallicRoughness": {
    "baseColorFactor": [
     1,
     1,
     1,
     1
    ],
    "metallicFactor": 1.0,
    "roughnessFactor": 1.0,
    "baseColorTexture": {
     "index": 6
    },
    "metallicRoughnessTexture": {
     "index": 7
    }
   },
   "normalTexture": {
    "index": 8
   },
   "occlusionTexture": {
    "index": 7,
    "strength": 0.8
   }
  },
  {
   "doubleSided": true,
   "name": "chrome_dull",
   "pbrMetallicRoughness": {
    "baseColorFactor": [
     0.550000011920929,
     0.5600000023841858,
     0.5799999833106995,
     1
    ],
    "roughnessFactor": 0.3499999940395355
   }
  },
  {
   "doubleSided": true,
   "name": "rubber_black",
   "pbrMetallicRoughness": {
    "baseColorFactor": [
     1,
     1,
     1,
     1
    ],
    "metallicFactor": 1.0,
    "roughnessFactor": 1.0,
    "baseColorTexture": {
     "index": 9
    },
    "metallicRoughnessTexture": {
     "index": 10
    }
   },
   "normalTexture": {
    "index": 11
   },
   "occlusionTexture": {
    "index": 10,
    "strength": 0.8
   }
  },
  {
   "doubleSided": true,
   "name": "hazard_stripes",
   "pbrMetallicRoughness": {
    "baseColorFactor": [
     1,
     1,
     1,
     1
    ],
    "metallicFactor": 0.0,
    "roughnessFactor": 0.7,
    "baseColorTexture": {
     "index": 12
    }
   },
   "alphaMode": "BLEND"
  },
  {
   "alphaMode": "BLEND",
   "doubleSided": true,
   "emissiveFactor": [
    0.30000001192092896,
    0.6000000238418579,
    1
   ],
   "extensions": {
    "KHR_materials_emissive_strength": {
     "emissiveStrength": 2
    }
   },
   "name": "crystal_core",
   "pbrMetallicRoughness": {
    "baseColorFactor": [
     0.3499999940395355,
     0.6499999761581421,
     0.949999988079071,
     0.75
    ],
    "metallicFactor": 0,
    "roughnessFactor": 0.10000000149011612
   }
  }
 ],
 "meshes": [
  {
   "name": "Body",
   "primitives": [
    {
     "attributes": {
      "POSITION": 0,
      "NORMAL": 1,
      "TEXCOORD_0": 2
     },
     "indices": 3,
     "material": 0
    },
    {
     "attributes": {
      "POSITION": 4,
      "NORMAL": 5,
      "TEXCOORD_0": 6
     },
     "indices": 7,
     "material": 1
    },
    {
     "attributes": {
      "POSITION": 8,
      "NORMAL": 9,
      "TEXCOORD_0": 10
     },
     "indices": 11,
     "material": 2
    },
    {
     "attributes": {
      "POSITION": 12,
      "NORMAL": 13,
      "TEXCOORD_0": 14
     },
     "indices": 15,
     "material": 3
    },
    {
     "attributes": {
      "POSITION": 16,
      "NORMAL": 17,
      "TEXCOORD_0": 18
     },
     "indices": 19,
     "material": 4
    },
    {
     "attributes": {
      "POSITION": 20,
      "NORMAL": 21,
      "TEXCOORD_0": 22
     },
     "indices": 23,
     "material": 5
    }
   ]
  },
  {
   "name": "Crystal",
   "primitives": [
    {
     "attributes": {
      "POSITION": 24,
      "NORMAL": 25,
      "TEXCOORD_0": 26
     },
     "indices": 27,
     "material": 6
    }
   ]
  },
  {
   "name": "Hoop1",
   "primitives": [
    {
     "attributes": {
      "POSITION": 28,
      "NORMAL": 29,
      "TEXCOORD_0": 30
     },
     "indices": 31,
     "material": 3
    }
   ]
  },
  {
   "name": "Hoop2",
   "primitives": [
    {
     "attributes": {
      "POSITION": 32,
      "NORMAL": 33,
      "TEXCOORD_0": 34
     },
     "indices": 35,
     "material": 3
    }
   ]
  }
 ],
 "accessors": [
  {
   "bufferView": 0,
   "componentType": 5126,
   "count": 1784,
   "max": [
    0.5,
    2.1599998474121094,
    0.5199999809265137
   ],
   "min": [
    -0.5,
    -1.862645149230957e-08,
    -0.5199999809265137
   ],
   "type": "VEC3"
  },
  {
   "bufferView": 1,
   "componentType": 5126,
   "count": 1784,
   "type": "VEC3"
  },
  {
   "bufferView": 2,
   "componentType": 5126,
   "count": 1784,
   "type": "VEC2"
  },
  {
   "bufferView": 3,
   "componentType": 5123,
   "count": 4140,
   "type": "SCALAR"
  },
  {
   "bufferView": 4,
   "componentType": 5126,
   "count": 360,
   "max": [
    0.42000001668930054,
    0.8449999690055847,
    0.3700000047683716
   ],
   "min": [
    -0.42000001668930054,
    0.0950000137090683,
    -0.07000000774860382
   ],
   "type": "VEC3"
  },
  {
   "bufferView": 5,
   "componentType": 5126,
   "count": 360,
   "type": "VEC3"
  },
  {
   "bufferView": 6,
   "componentType": 5126,
   "count": 360,
   "type": "VEC2"
  },
  {
   "bufferView": 7,
   "componentType": 5123,
   "count": 720,
   "type": "SCALAR"
  },
  {
   "bufferView": 8,
   "componentType": 5126,
   "count": 480,
   "max": [
    0.39000001549720764,
    1.550277829170227,
    0.33000001311302185
   ],
   "min": [
    -0.39000001549720764,
    0.45499998331069946,
    -0.33865898847579956
   ],
   "type": "VEC3"
  },
  {
   "bufferView": 9,
   "componentType": 5126,
   "count": 480,
   "type": "VEC3"
  },
  {
   "bufferView": 10,
   "componentType": 5126,
   "count": 480,
   "type": "VEC2"
  },
  {
   "bufferView": 11,
   "componentType": 5123,
   "count": 900,
   "type": "SCALAR"
  },
  {
   "bufferView": 12,
   "componentType": 5126,
   "count": 64,
   "max": [
    0.05849567428231239,
    2.0799999237060547,
    -0.059999994933605194
   ],
   "min": [
    -0.05849567428231239,
    1.899999976158142,
    -0.18000000715255737
   ],
   "type": "VEC3"
  },
  {
   "bufferView": 13,
   "componentType": 5126,
   "count": 64,
   "type": "VEC3"
  },
  {
   "bufferView": 14,
   "componentType": 5126,
   "count": 64,
   "type": "VEC2"
  },
  {
   "bufferView": 15,
   "componentType": 5123,
   "count": 156,
   "type": "SCALAR"
  },
  {
   "bufferView": 16,
   "componentType": 5126,
   "count": 192,
   "max": [
    0.48497065901756287,
    1.9060633182525635,
    -0.07898300886154175
   ],
   "min": [
    -0.48497065901756287,
    0.08618666231632233,
    -0.5749596953392029
   ],
   "type": "VEC3"
  },
  {
   "bufferView": 17,
   "componentType": 5126,
   "count": 192,
   "type": "VEC3"
  },
  {
   "bufferView": 18,
   "componentType": 5126,
   "count": 192,
   "type": "VEC2"
  },
  {
   "bufferView": 19,
   "componentType": 5123,
   "count": 456,
   "type": "SCALAR"
  },
  {
   "bufferView": 20,
   "componentType": 5126,
   "count": 4,
   "max": [
    0.25,
    2.129999876022339,
    -0.375
   ],
   "min": [
    -0.25,
    2.0299999713897705,
    -0.375
   ],
   "type": "VEC3"
  },
  {
   "bufferView": 21,
   "componentType": 5126,
   "count": 4,
   "type": "VEC3"
  },
  {
   "bufferView": 22,
   "componentType": 5126,
   "count": 4,
   "type": "VEC2"
  },
  {
   "bufferView": 23,
   "componentType": 5123,
   "count": 6,
   "type": "SCALAR"
  },
  {
   "bufferView": 24,
   "componentType": 5126,
   "count": 248,
   "max": [
    0.20915615558624268,
    0.1799999475479126,
    0.1530575156211853
   ],
   "min": [
    -0.17442651093006134,
    -0.18000006675720215,
    -0.22146156430244446
   ],
   "type": "VEC3"
  },
  {
   "bufferView": 25,
   "componentType": 5126,
   "count": 248,
   "type": "VEC3"
  },
  {
   "bufferView": 26,
   "componentType": 5126,
   "count": 248,
   "type": "VEC2"
  },
  {
   "bufferView": 27,
   "componentType": 5123,
   "count": 720,
   "type": "SCALAR"
  },
  {
   "bufferView": 28,
   "componentType": 5126,
   "count": 552,
   "max": [
    0.2139325886964798,
    0.2999999523162842,
    0.21400000154972076
   ],
   "min": [
    -0.21400000154972076,
    -0.0140000581741333,
    -0.21399998664855957
   ],
   "type": "VEC3"
  },
  {
   "bufferView": 29,
   "componentType": 5126,
   "count": 552,
   "type": "VEC3"
  },
  {
   "bufferView": 30,
   "componentType": 5126,
   "count": 552,
   "type": "VEC2"
  },
  {
   "bufferView": 31,
   "componentType": 5123,
   "count": 1572,
   "type": "SCALAR"
  },
  {
   "bufferView": 32,
   "componentType": 5126,
   "count": 336,
   "max": [
    0.0818522572517395,
    0.0820000171661377,
    0.01199999451637268
   ],
   "min": [
    -0.08199998736381531,
    -0.0820000171661377,
    -0.01199999451637268
   ],
   "type": "VEC3"
  },
  {
   "bufferView": 33,
   "componentType": 5126,
   "count": 336,
   "type": "VEC3"
  },
  {
   "bufferView": 34,
   "componentType": 5126,
   "count": 336,
   "type": "VEC2"
  },
  {
   "bufferView": 35,
   "componentType": 5123,
   "count": 960,
   "type": "SCALAR"
  }
 ],
 "bufferViews": [
  {
   "buffer": 0,
   "byteLength": 21408,
   "byteOffset": 0,
   "target": 34962
  },
  {
   "buffer": 0,
   "byteLength": 21408,
   "byteOffset": 21408,
   "target": 34962
  },
  {
   "buffer": 0,
   "byteLength": 14272,
   "byteOffset": 42816,
   "target": 34962
  },
  {
   "buffer": 0,
   "byteLength": 8280,
   "byteOffset": 57088,
   "target": 34963
  },
  {
   "buffer": 0,
   "byteLength": 4320,
   "byteOffset": 65368,
   "target": 34962
  },
  {
   "buffer": 0,
   "byteLength": 4320,
   "byteOffset": 69688,
   "target": 34962
  },
  {
   "buffer": 0,
   "byteLength": 2880,
   "byteOffset": 74008,
   "target": 34962
  },
  {
   "buffer": 0,
   "byteLength": 1440,
   "byteOffset": 76888,
   "target": 34963
  },
  {
   "buffer": 0,
   "byteLength": 5760,
   "byteOffset": 78328,
   "target": 34962
  },
  {
   "buffer": 0,
   "byteLength": 5760,
   "byteOffset": 84088,
   "target": 34962
  },
  {
   "buffer": 0,
   "byteLength": 3840,
   "byteOffset": 89848,
   "target": 34962
  },
  {
   "buffer": 0,
   "byteLength": 1800,
   "byteOffset": 93688,
   "target": 34963
  },
  {
   "buffer": 0,
   "byteLength": 768,
   "byteOffset": 95488,
   "target": 34962
  },
  {
   "buffer": 0,
   "byteLength": 768,
   "byteOffset": 96256,
   "target": 34962
  },
  {
   "buffer": 0,
   "byteLength": 512,
   "byteOffset": 97024,
   "target": 34962
  },
  {
   "buffer": 0,
   "byteLength": 312,
   "byteOffset": 97536,
   "target": 34963
  },
  {
   "buffer": 0,
   "byteLength": 2304,
   "byteOffset": 97848,
   "target": 34962
  },
  {
   "buffer": 0,
   "byteLength": 2304,
   "byteOffset": 100152,
   "target": 34962
  },
  {
   "buffer": 0,
   "byteLength": 1536,
   "byteOffset": 102456,
   "target": 34962
  },
  {
   "buffer": 0,
   "byteLength": 912,
   "byteOffset": 103992,
   "target": 34963
  },
  {
   "buffer": 0,
   "byteLength": 48,
   "byteOffset": 104904,
   "target": 34962
  },
  {
   "buffer": 0,
   "byteLength": 48,
   "byteOffset": 104952,
   "target": 34962
  },
  {
   "buffer": 0,
   "byteLength": 32,
   "byteOffset": 105000,
   "target": 34962
  },
  {
   "buffer": 0,
   "byteLength": 12,
   "byteOffset": 105032,
   "target": 34963
  },
  {
   "buffer": 0,
   "byteLength": 2976,
   "byteOffset": 105044,
   "target": 34962
  },
  {
   "buffer": 0,
   "byteLength": 2976,
   "byteOffset": 108020,
   "target": 34962
  },
  {
   "buffer": 0,
   "byteLength": 1984,
   "byteOffset": 110996,
   "target": 34962
  },
  {
   "buffer": 0,
   "byteLength": 1440,
   "byteOffset": 112980,
   "target": 34963
  },
  {
   "buffer": 0,
   "byteLength": 6624,
   "byteOffset": 114420,
   "target": 34962
  },
  {
   "buffer": 0,
   "byteLength": 6624,
   "byteOffset": 121044,
   "target": 34962
  },
  {
   "buffer": 0,
   "byteLength": 4416,
   "byteOffset": 127668,
   "target": 34962
  },
  {
   "buffer": 0,
   "byteLength": 3144,
   "byteOffset": 132084,
   "target": 34963
  },
  {
   "buffer": 0,
   "byteLength": 4032,
   "byteOffset": 135228,
   "target": 34962
  },
  {
   "buffer": 0,
   "byteLength": 4032,
   "byteOffset": 139260,
   "target": 34962
  },
  {
   "buffer": 0,
   "byteLength": 2688,
   "byteOffset": 143292,
   "target": 34962
  },
  {
   "buffer": 0,
   "byteLength": 1920,
   "byteOffset": 145980,
   "target": 34963
  }
 ],
 "buffers": [
  {
   "byteLength": 147900,
   "uri": "immersion_chair.bin"
  }
 ],
 "images": [
  {
   "uri": "../../textures/painted_metal/painted_metal_albedo.jpg"
  },
  {
   "uri": "../../textures/painted_metal/painted_metal_orm.jpg"
  },
  {
   "uri": "../../textures/painted_metal/painted_metal_normal.png"
  },
  {
   "uri": "../../textures/steel_bare/steel_bare_albedo.jpg"
  },
  {
   "uri": "../../textures/steel_bare/steel_bare_orm.jpg"
  },
  {
   "uri": "../../textures/steel_bare/steel_bare_normal.png"
  },
  {
   "uri": "../../textures/vinyl_worn/vinyl_worn_albedo.jpg"
  },
  {
   "uri": "../../textures/vinyl_worn/vinyl_worn_orm.jpg"
  },
  {
   "uri": "../../textures/vinyl_worn/vinyl_worn_normal.png"
  },
  {
   "uri": "../../textures/rubber_black/rubber_black_albedo.jpg"
  },
  {
   "uri": "../../textures/rubber_black/rubber_black_orm.jpg"
  },
  {
   "uri": "../../textures/rubber_black/rubber_black_normal.png"
  },
  {
   "uri": "../../textures/decals/hazard_stripes.png"
  }
 ],
 "textures": [
  {
   "source": 0,
   "sampler": 0
  },
  {
   "source": 1,
   "sampler": 0
  },
  {
   "source": 2,
   "sampler": 0
  },
  {
   "source": 3,
   "sampler": 0
  },
  {
   "source": 4,
   "sampler": 0
  },
  {
   "source": 5,
   "sampler": 0
  },
  {
   "source": 6,
   "sampler": 0
  },
  {
   "source": 7,
   "sampler": 0
  },
  {
   "source": 8,
   "sampler": 0
  },
  {
   "source": 9,
   "sampler": 0
  },
  {
   "source": 10,
   "sampler": 0
  },
  {
   "source": 11,
   "sampler": 0
  },
  {
   "source": 12,
   "sampler": 0
  }
 ],
 "samplers": [
  {
   "magFilter": 9729,
   "minFilter": 9987,
   "wrapS": 10497,
   "wrapT": 10497
  }
 ]
}
