# Generated by svg_to_godot3d
mtllib geometry.mtl
s off
o Ceiling_001_u_medbay_ceiling_procedure_room
usemtl Ceiling
v -94.000000 3.400000 7.000000
v -86.632000 3.400000 7.000000
v -86.632000 3.400000 11.205000
v -94.000000 3.400000 11.205000
v -94.000000 3.600000 7.000000
v -86.632000 3.600000 7.000000
v -86.632000 3.600000 11.205000
v -94.000000 3.600000 11.205000
v -94.000000 3.400000 7.000000
v -86.632000 3.400000 7.000000
v -86.632000 3.600000 7.000000
v -94.000000 3.600000 7.000000
v -86.632000 3.400000 7.000000
v -86.632000 3.400000 11.205000
v -86.632000 3.600000 11.205000
v -86.632000 3.600000 7.000000
v -86.632000 3.400000 11.205000
v -94.000000 3.400000 11.205000
v -94.000000 3.600000 11.205000
v -86.632000 3.600000 11.205000
v -94.000000 3.400000 11.205000
v -94.000000 3.400000 7.000000
v -94.000000 3.600000 7.000000
v -94.000000 3.600000 11.205000
vn 0.000000 -1.000000 0.000000
vn 0.000000 -1.000000 0.000000
vn 0.000000 1.000000 0.000000
vn 0.000000 1.000000 -0.000000
vn 0.000000 0.000000 -1.000000
vn 0.000000 0.000000 -1.000000
vn 1.000000 0.000000 0.000000
vn 1.000000 0.000000 0.000000
vn 0.000000 0.000000 1.000000
vn 0.000000 -0.000000 1.000000
vn -1.000000 0.000000 0.000000
vn -1.000000 0.000000 0.000000
f 4//1 1//1 2//1
f 2//2 3//2 4//2
f 8//3 6//3 5//3
f 6//4 8//4 7//4
f 9//5 11//5 10//5
f 9//6 12//6 11//6
f 13//7 15//7 14//7
f 13//8 16//8 15//8
f 17//9 19//9 18//9
f 17//10 20//10 19//10
f 21//11 23//11 22//11
f 21//12 24//12 23//12
o Ceiling_002_u_medbay_ceiling_observation_ward
usemtl Ceiling
v -94.000000 3.400000 11.205000
v -86.632000 3.400000 11.205000
v -86.632000 3.400000 15.000000
v -94.000000 3.400000 15.000000
v -94.000000 3.600000 11.205000
v -86.632000 3.600000 11.205000
v -86.632000 3.600000 15.000000
v -94.000000 3.600000 15.000000
v -94.000000 3.400000 11.205000
v -86.632000 3.400000 11.205000
v -86.632000 3.600000 11.205000
v -94.000000 3.600000 11.205000
v -86.632000 3.400000 11.205000
v -86.632000 3.400000 15.000000
v -86.632000 3.600000 15.000000
v -86.632000 3.600000 11.205000
v -86.632000 3.400000 15.000000
v -94.000000 3.400000 15.000000
v -94.000000 3.600000 15.000000
v -86.632000 3.600000 15.000000
v -94.000000 3.400000 15.000000
v -94.000000 3.400000 11.205000
v -94.000000 3.600000 11.205000
v -94.000000 3.600000 15.000000
vn 0.000000 -1.000000 0.000000
vn 0.000000 -1.000000 0.000000
vn 0.000000 1.000000 0.000000
vn 0.000000 1.000000 -0.000000
vn 0.000000 0.000000 -1.000000
vn 0.000000 0.000000 -1.000000
vn 1.000000 0.000000 0.000000
vn 1.000000 0.000000 0.000000
vn 0.000000 0.000000 1.000000
vn 0.000000 -0.000000 1.000000
vn -1.000000 0.000000 0.000000
vn -1.000000 0.000000 0.000000
f 28//13 25//13 26//13
f 26//14 27//14 28//14
f 32//15 30//15 29//15
f 30//16 32//16 31//16
f 33//17 35//17 34//17
f 33//18 36//18 35//18
f 37//19 39//19 38//19
f 37//20 40//20 39//20
f 41//21 43//21 42//21
f 41//22 44//22 43//22
f 45//23 47//23 46//23
f 45//24 48//24 47//24
o Ceiling_003_u_medbay_ceiling_clean_corridor
usemtl Ceiling
v -86.632000 3.400000 7.000000
v -86.482000 3.400000 7.000000
v -86.482000 3.400000 11.205000
v -86.632000 3.400000 11.205000
v -86.632000 3.600000 7.000000
v -86.482000 3.600000 7.000000
v -86.482000 3.600000 11.205000
v -86.632000 3.600000 11.205000
v -86.632000 3.400000 11.205000
v -86.482000 3.400000 11.205000
v -86.482000 3.400000 15.000000
v -86.632000 3.400000 15.000000
v -86.632000 3.600000 11.205000
v -86.482000 3.600000 11.205000
v -86.482000 3.600000 15.000000
v -86.632000 3.600000 15.000000
v -86.482000 3.400000 7.000000
v -84.448000 3.400000 7.000000
v -84.448000 3.400000 15.000000
v -86.482000 3.400000 15.000000
v -86.482000 3.600000 7.000000
v -84.448000 3.600000 7.000000
v -84.448000 3.600000 15.000000
v -86.482000 3.600000 15.000000
v -84.448000 3.400000 7.000000
v -84.298000 3.400000 7.000000
v -84.298000 3.400000 9.667000
v -84.448000 3.400000 9.667000
v -84.448000 3.600000 7.000000
v -84.298000 3.600000 7.000000
v -84.298000 3.600000 9.667000
v -84.448000 3.600000 9.667000
v -84.448000 3.400000 9.667000
v -84.298000 3.400000 9.667000
v -84.298000 3.400000 12.744000
v -84.448000 3.400000 12.744000
v -84.448000 3.600000 9.667000
v -84.298000 3.600000 9.667000
v -84.298000 3.600000 12.744000
v -84.448000 3.600000 12.744000
v -84.448000 3.400000 12.744000
v -84.298000 3.400000 12.744000
v -84.298000 3.400000 15.000000
v -84.448000 3.400000 15.000000
v -84.448000 3.600000 12.744000
v -84.298000 3.600000 12.744000
v -84.298000 3.600000 15.000000
v -84.448000 3.600000 15.000000
v -86.632000 3.400000 7.000000
v -86.482000 3.400000 7.000000
v -86.482000 3.600000 7.000000
v -86.632000 3.600000 7.000000
v -86.632000 3.400000 11.205000
v -86.632000 3.400000 7.000000
v -86.632000 3.600000 7.000000
v -86.632000 3.600000 11.205000
v -86.482000 3.400000 15.000000
v -86.632000 3.400000 15.000000
v -86.632000 3.600000 15.000000
v -86.482000 3.600000 15.000000
v -86.632000 3.400000 15.000000
v -86.632000 3.400000 11.205000
v -86.632000 3.600000 11.205000
v -86.632000 3.600000 15.000000
v -86.482000 3.400000 7.000000
v -84.448000 3.400000 7.000000
v -84.448000 3.600000 7.000000
v -86.482000 3.600000 7.000000
v -84.448000 3.400000 15.000000
v -86.482000 3.400000 15.000000
v -86.482000 3.600000 15.000000
v -84.448000 3.600000 15.000000
v -84.448000 3.400000 7.000000
v -84.298000 3.400000 7.000000
v -84.298000 3.600000 7.000000
v -84.448000 3.600000 7.000000
v -84.298000 3.400000 7.000000
v -84.298000 3.400000 9.667000
v -84.298000 3.600000 9.667000
v -84.298000 3.600000 7.000000
v -84.298000 3.400000 9.667000
v -84.298000 3.400000 12.744000
v -84.298000 3.600000 12.744000
v -84.298000 3.600000 9.667000
v -84.298000 3.400000 12.744000
v -84.298000 3.400000 15.000000
v -84.298000 3.600000 15.000000
v -84.298000 3.600000 12.744000
v -84.298000 3.400000 15.000000
v -84.448000 3.400000 15.000000
v -84.448000 3.600000 15.000000
v -84.298000 3.600000 15.000000
vn 0.000000 -1.000000 0.000000
vn 0.000000 -1.000000 0.000000
vn 0.000000 1.000000 0.000000
vn 0.000000 1.000000 -0.000000
vn 0.000000 -1.000000 0.000000
vn 0.000000 -1.000000 0.000000
vn 0.000000 1.000000 0.000000
vn 0.000000 1.000000 -0.000000
vn 0.000000 -1.000000 0.000000
vn 0.000000 -1.000000 0.000000
vn 0.000000 1.000000 0.000000
vn 0.000000 1.000000 -0.000000
vn 0.000000 -1.000000 0.000000
vn 0.000000 -1.000000 0.000000
vn 0.000000 1.000000 0.000000
vn 0.000000 1.000000 -0.000000
vn 0.000000 -1.000000 0.000000
vn 0.000000 -1.000000 0.000000
vn 0.000000 1.000000 0.000000
vn 0.000000 1.000000 -0.000000
vn 0.000000 -1.000000 0.000000
vn 0.000000 -1.000000 0.000000
vn 0.000000 1.000000 0.000000
vn 0.000000 1.000000 -0.000000
vn 0.000000 0.000000 -1.000000
vn 0.000000 0.000000 -1.000000
vn -1.000000 0.000000 0.000000
vn -1.000000 0.000000 0.000000
vn 0.000000 0.000000 1.000000
vn 0.000000 -0.000000 1.000000
vn -1.000000 0.000000 0.000000
vn -1.000000 0.000000 0.000000
vn 0.000000 0.000000 -1.000000
vn 0.000000 0.000000 -1.000000
vn 0.000000 0.000000 1.000000
vn 0.000000 -0.000000 1.000000
vn 0.000000 0.000000 -1.000000
vn 0.000000 0.000000 -1.000000
vn 1.000000 0.000000 0.000000
vn 1.000000 0.000000 0.000000
vn 1.000000 0.000000 0.000000
vn 1.000000 0.000000 0.000000
vn 1.000000 0.000000 0.000000
vn 1.000000 0.000000 0.000000
vn 0.000000 0.000000 1.000000
vn 0.000000 -0.000000 1.000000
f 52//25 49//25 50//25
f 50//26 51//26 52//26
f 56//27 54//27 53//27
f 54//28 56//28 55//28
f 60//29 57//29 58//29
f 58//30 59//30 60//30
f 64//31 62//31 61//31
f 62//32 64//32 63//32
f 68//33 65//33 66//33
f 66//34 67//34 68//34
f 72//35 70//35 69//35
f 70//36 72//36 71//36
f 76//37 73//37 74//37
f 74//38 75//38 76//38
f 80//39 78//39 77//39
f 78//40 80//40 79//40
f 84//41 81//41 82//41
f 82//42 83//42 84//42
f 88//43 86//43 85//43
f 86//44 88//44 87//44
f 92//45 89//45 90//45
f 90//46 91//46 92//46
f 96//47 94//47 93//47
f 94//48 96//48 95//48
f 97//49 99//49 98//49
f 97//50 100//50 99//50
f 101//51 103//51 102//51
f 101//52 104//52 103//52
f 105//53 107//53 106//53
f 105//54 108//54 107//54
f 109//55 111//55 110//55
f 109//56 112//56 111//56
f 113//57 115//57 114//57
f 113//58 116//58 115//58
f 117//59 119//59 118//59
f 117//60 120//60 119//60
f 121//61 123//61 122//61
f 121//62 124//62 123//62
f 125//63 127//63 126//63
f 125//64 128//64 127//64
f 129//65 131//65 130//65
f 129//66 132//66 131//66
f 133//67 135//67 134//67
f 133//68 136//68 135//68
f 137//69 139//69 138//69
f 137//70 140//70 139//70
o Ceiling_004_u_medbay_ceiling_clean_store
usemtl Ceiling
v -84.298000 3.400000 7.000000
v -82.088000 3.400000 7.000000
v -82.088000 3.400000 9.667000
v -84.298000 3.400000 9.667000
v -84.298000 3.600000 7.000000
v -82.088000 3.600000 7.000000
v -82.088000 3.600000 9.667000
v -84.298000 3.600000 9.667000
v -84.298000 3.400000 7.000000
v -82.088000 3.400000 7.000000
v -82.088000 3.600000 7.000000
v -84.298000 3.600000 7.000000
v -82.088000 3.400000 7.000000
v -82.088000 3.400000 9.667000
v -82.088000 3.600000 9.667000
v -82.088000 3.600000 7.000000
v -82.088000 3.400000 9.667000
v -84.298000 3.400000 9.667000
v -84.298000 3.600000 9.667000
v -82.088000 3.600000 9.667000
v -84.298000 3.400000 9.667000
v -84.298000 3.400000 7.000000
v -84.298000 3.600000 7.000000
v -84.298000 3.600000 9.667000
vn 0.000000 -1.000000 0.000000
vn 0.000000 -1.000000 0.000000
vn 0.000000 1.000000 0.000000
vn 0.000000 1.000000 -0.000000
vn 0.000000 0.000000 -1.000000
vn 0.000000 0.000000 -1.000000
vn 1.000000 0.000000 0.000000
vn 1.000000 0.000000 0.000000
vn 0.000000 0.000000 1.000000
vn 0.000000 -0.000000 1.000000
vn -1.000000 0.000000 0.000000
vn -1.000000 0.000000 0.000000
f 144//71 141//71 142//71
f 142//72 143//72 144//72
f 148//73 146//73 145//73
f 146//74 148//74 147//74
f 149//75 151//75 150//75
f 149//76 152//76 151//76
f 153//77 155//77 154//77
f 153//78 156//78 155//78
f 157//79 159//79 158//79
f 157//80 160//80 159//80
f 161//81 163//81 162//81
f 161//82 164//82 163//82
o Ceiling_005_u_medbay_ceiling_triage
usemtl Ceiling
v -84.298000 3.400000 9.667000
v -80.000000 3.400000 9.667000
v -80.000000 3.400000 12.744000
v -84.298000 3.400000 12.744000
v -84.298000 3.600000 9.667000
v -80.000000 3.600000 9.667000
v -80.000000 3.600000 12.744000
v -84.298000 3.600000 12.744000
v -84.298000 3.400000 9.667000
v -80.000000 3.400000 9.667000
v -80.000000 3.600000 9.667000
v -84.298000 3.600000 9.667000
v -80.000000 3.400000 9.667000
v -80.000000 3.400000 12.744000
v -80.000000 3.600000 12.744000
v -80.000000 3.600000 9.667000
v -80.000000 3.400000 12.744000
v -84.298000 3.400000 12.744000
v -84.298000 3.600000 12.744000
v -80.000000 3.600000 12.744000
v -84.298000 3.400000 12.744000
v -84.298000 3.400000 9.667000
v -84.298000 3.600000 9.667000
v -84.298000 3.600000 12.744000
vn 0.000000 -1.000000 0.000000
vn 0.000000 -1.000000 0.000000
vn 0.000000 1.000000 0.000000
vn 0.000000 1.000000 -0.000000
vn 0.000000 0.000000 -1.000000
vn 0.000000 0.000000 -1.000000
vn 1.000000 0.000000 0.000000
vn 1.000000 0.000000 0.000000
vn 0.000000 0.000000 1.000000
vn 0.000000 -0.000000 1.000000
vn -1.000000 0.000000 0.000000
vn -1.000000 0.000000 0.000000
f 168//83 165//83 166//83
f 166//84 167//84 168//84
f 172//85 170//85 169//85
f 170//86 172//86 171//86
f 173//87 175//87 174//87
f 173//88 176//88 175//88
f 177//89 179//89 178//89
f 177//90 180//90 179//90
f 181//91 183//91 182//91
f 181//92 184//92 183//92
f 185//93 187//93 186//93
f 185//94 188//94 187//94
o Ceiling_006_u_medbay_ceiling_medical_post
usemtl Ceiling
v -84.298000 3.400000 12.744000
v -80.000000 3.400000 12.744000
v -80.000000 3.400000 15.000000
v -84.298000 3.400000 15.000000
v -84.298000 3.600000 12.744000
v -80.000000 3.600000 12.744000
v -80.000000 3.600000 15.000000
v -84.298000 3.600000 15.000000
v -84.298000 3.400000 12.744000
v -80.000000 3.400000 12.744000
v -80.000000 3.600000 12.744000
v -84.298000 3.600000 12.744000
v -80.000000 3.400000 12.744000
v -80.000000 3.400000 15.000000
v -80.000000 3.600000 15.000000
v -80.000000 3.600000 12.744000
v -80.000000 3.400000 15.000000
v -84.298000 3.400000 15.000000
v -84.298000 3.600000 15.000000
v -80.000000 3.600000 15.000000
v -84.298000 3.400000 15.000000
v -84.298000 3.400000 12.744000
v -84.298000 3.600000 12.744000
v -84.298000 3.600000 15.000000
vn 0.000000 -1.000000 0.000000
vn 0.000000 -1.000000 0.000000
vn 0.000000 1.000000 0.000000
vn 0.000000 1.000000 -0.000000
vn 0.000000 0.000000 -1.000000
vn 0.000000 0.000000 -1.000000
vn 1.000000 0.000000 0.000000
vn 1.000000 0.000000 0.000000
vn 0.000000 0.000000 1.000000
vn 0.000000 -0.000000 1.000000
vn -1.000000 0.000000 0.000000
vn -1.000000 0.000000 0.000000
f 192//95 189//95 190//95
f 190//96 191//96 192//96
f 196//97 194//97 193//97
f 194//98 196//98 195//98
f 197//99 199//99 198//99
f 197//100 200//100 199//100
f 201//101 203//101 202//101
f 201//102 204//102 203//102
f 205//103 207//103 206//103
f 205//104 208//104 207//104
f 209//105 211//105 210//105
f 209//106 212//106 211//106
o Ceiling_007_u_medbay_ceiling_sanitary_airlock
usemtl Ceiling
v -82.088000 3.400000 7.000000
v -80.000000 3.400000 7.000000
v -80.000000 3.400000 9.667000
v -82.088000 3.400000 9.667000
v -82.088000 3.600000 7.000000
v -80.000000 3.600000 7.000000
v -80.000000 3.600000 9.667000
v -82.088000 3.600000 9.667000
v -82.088000 3.400000 7.000000
v -80.000000 3.400000 7.000000
v -80.000000 3.600000 7.000000
v -82.088000 3.600000 7.000000
v -80.000000 3.400000 7.000000
v -80.000000 3.400000 9.667000
v -80.000000 3.600000 9.667000
v -80.000000 3.600000 7.000000
v -80.000000 3.400000 9.667000
v -82.088000 3.400000 9.667000
v -82.088000 3.600000 9.667000
v -80.000000 3.600000 9.667000
v -82.088000 3.400000 9.667000
v -82.088000 3.400000 7.000000
v -82.088000 3.600000 7.000000
v -82.088000 3.600000 9.667000
vn 0.000000 -1.000000 0.000000
vn 0.000000 -1.000000 0.000000
vn 0.000000 1.000000 0.000000
vn 0.000000 1.000000 -0.000000
vn 0.000000 0.000000 -1.000000
vn 0.000000 0.000000 -1.000000
vn 1.000000 0.000000 0.000000
vn 1.000000 0.000000 0.000000
vn 0.000000 0.000000 1.000000
vn 0.000000 -0.000000 1.000000
vn -1.000000 0.000000 0.000000
vn -1.000000 0.000000 0.000000
f 216//107 213//107 214//107
f 214//108 215//108 216//108
f 220//109 218//109 217//109
f 218//110 220//110 219//110
f 221//111 223//111 222//111
f 221//112 224//112 223//112
f 225//113 227//113 226//113
f 225//114 228//114 227//114
f 229//115 231//115 230//115
f 229//116 232//116 231//116
f 233//117 235//117 234//117
f 233//118 236//118 235//118
