# Generated by svg_to_godot3d
mtllib geometry.mtl
s off
o Ceiling_001_c_dee8836045
usemtl Ceiling
v -32.000000 3.400000 31.000000
v -23.350000 3.400000 31.000000
v -23.350000 3.400000 38.300000
v -32.000000 3.400000 38.300000
v -32.000000 3.600000 31.000000
v -23.350000 3.600000 31.000000
v -23.350000 3.600000 38.300000
v -32.000000 3.600000 38.300000
v -32.000000 3.400000 31.000000
v -23.350000 3.400000 31.000000
v -23.350000 3.600000 31.000000
v -32.000000 3.600000 31.000000
v -23.350000 3.400000 31.000000
v -23.350000 3.400000 38.300000
v -23.350000 3.600000 38.300000
v -23.350000 3.600000 31.000000
v -23.350000 3.400000 38.300000
v -32.000000 3.400000 38.300000
v -32.000000 3.600000 38.300000
v -23.350000 3.600000 38.300000
v -32.000000 3.400000 38.300000
v -32.000000 3.400000 31.000000
v -32.000000 3.600000 31.000000
v -32.000000 3.600000 38.300000
vn 0.000000 -1.000000 0.000000
vn 0.000000 -1.000000 0.000000
vn 0.000000 1.000000 0.000000
vn 0.000000 1.000000 -0.000000
vn 0.000000 0.000000 -1.000000
vn 0.000000 0.000000 -1.000000
vn 1.000000 0.000000 0.000000
vn 1.000000 0.000000 0.000000
vn 0.000000 0.000000 1.000000
vn 0.000000 -0.000000 1.000000
vn -1.000000 0.000000 0.000000
vn -1.000000 0.000000 0.000000
f 4//1 1//1 2//1
f 2//2 3//2 4//2
f 8//3 6//3 5//3
f 6//4 8//4 7//4
f 9//5 11//5 10//5
f 9//6 12//6 11//6
f 13//7 15//7 14//7
f 13//8 16//8 15//8
f 17//9 19//9 18//9
f 17//10 20//10 19//10
f 21//11 23//11 22//11
f 21//12 24//12 23//12
o Ceiling_002_c_dee8836045
usemtl Ceiling
v -23.350000 3.400000 31.000000
v -23.200000 3.400000 31.000000
v -23.200000 3.400000 38.300000
v -23.350000 3.400000 38.300000
v -23.350000 3.600000 31.000000
v -23.200000 3.600000 31.000000
v -23.200000 3.600000 38.300000
v -23.350000 3.600000 38.300000
v -23.350000 3.400000 31.000000
v -23.200000 3.400000 31.000000
v -23.200000 3.600000 31.000000
v -23.350000 3.600000 31.000000
v -23.200000 3.400000 31.000000
v -23.200000 3.400000 38.300000
v -23.200000 3.600000 38.300000
v -23.200000 3.600000 31.000000
v -23.200000 3.400000 38.300000
v -23.350000 3.400000 38.300000
v -23.350000 3.600000 38.300000
v -23.200000 3.600000 38.300000
v -23.350000 3.400000 38.300000
v -23.350000 3.400000 31.000000
v -23.350000 3.600000 31.000000
v -23.350000 3.600000 38.300000
vn 0.000000 -1.000000 0.000000
vn 0.000000 -1.000000 0.000000
vn 0.000000 1.000000 0.000000
vn 0.000000 1.000000 -0.000000
vn 0.000000 0.000000 -1.000000
vn 0.000000 0.000000 -1.000000
vn 1.000000 0.000000 0.000000
vn 1.000000 0.000000 0.000000
vn 0.000000 0.000000 1.000000
vn 0.000000 -0.000000 1.000000
vn -1.000000 0.000000 0.000000
vn -1.000000 0.000000 0.000000
f 28//13 25//13 26//13
f 26//14 27//14 28//14
f 32//15 30//15 29//15
f 30//16 32//16 31//16
f 33//17 35//17 34//17
f 33//18 36//18 35//18
f 37//19 39//19 38//19
f 37//20 40//20 39//20
f 41//21 43//21 42//21
f 41//22 44//22 43//22
f 45//23 47//23 46//23
f 45//24 48//24 47//24
o Ceiling_003_c_53c1972e1f
usemtl Ceiling
v -32.000000 3.400000 38.300000
v -23.350000 3.400000 38.300000
v -23.350000 3.400000 46.500000
v -32.000000 3.400000 46.500000
v -32.000000 3.600000 38.300000
v -23.350000 3.600000 38.300000
v -23.350000 3.600000 46.500000
v -32.000000 3.600000 46.500000
v -32.000000 3.400000 38.300000
v -23.350000 3.400000 38.300000
v -23.350000 3.600000 38.300000
v -32.000000 3.600000 38.300000
v -23.350000 3.400000 38.300000
v -23.350000 3.400000 46.500000
v -23.350000 3.600000 46.500000
v -23.350000 3.600000 38.300000
v -23.350000 3.400000 46.500000
v -32.000000 3.400000 46.500000
v -32.000000 3.600000 46.500000
v -23.350000 3.600000 46.500000
v -32.000000 3.400000 46.500000
v -32.000000 3.400000 38.300000
v -32.000000 3.600000 38.300000
v -32.000000 3.600000 46.500000
vn 0.000000 -1.000000 0.000000
vn 0.000000 -1.000000 0.000000
vn 0.000000 1.000000 0.000000
vn 0.000000 1.000000 -0.000000
vn 0.000000 0.000000 -1.000000
vn 0.000000 0.000000 -1.000000
vn 1.000000 0.000000 0.000000
vn 1.000000 0.000000 0.000000
vn 0.000000 0.000000 1.000000
vn 0.000000 -0.000000 1.000000
vn -1.000000 0.000000 0.000000
vn -1.000000 0.000000 0.000000
f 52//25 49//25 50//25
f 50//26 51//26 52//26
f 56//27 54//27 53//27
f 54//28 56//28 55//28
f 57//29 59//29 58//29
f 57//30 60//30 59//30
f 61//31 63//31 62//31
f 61//32 64//32 63//32
f 65//33 67//33 66//33
f 65//34 68//34 67//34
f 69//35 71//35 70//35
f 69//36 72//36 71//36
o Ceiling_004_c_53c1972e1f
usemtl Ceiling
v -23.350000 3.400000 38.300000
v -23.200000 3.400000 38.300000
v -23.200000 3.400000 46.500000
v -23.350000 3.400000 46.500000
v -23.350000 3.600000 38.300000
v -23.200000 3.600000 38.300000
v -23.200000 3.600000 46.500000
v -23.350000 3.600000 46.500000
v -23.350000 3.400000 38.300000
v -23.200000 3.400000 38.300000
v -23.200000 3.600000 38.300000
v -23.350000 3.600000 38.300000
v -23.200000 3.400000 38.300000
v -23.200000 3.400000 46.500000
v -23.200000 3.600000 46.500000
v -23.200000 3.600000 38.300000
v -23.200000 3.400000 46.500000
v -23.350000 3.400000 46.500000
v -23.350000 3.600000 46.500000
v -23.200000 3.600000 46.500000
v -23.350000 3.400000 46.500000
v -23.350000 3.400000 38.300000
v -23.350000 3.600000 38.300000
v -23.350000 3.600000 46.500000
vn 0.000000 -1.000000 0.000000
vn 0.000000 -1.000000 0.000000
vn 0.000000 1.000000 0.000000
vn 0.000000 1.000000 -0.000000
vn 0.000000 0.000000 -1.000000
vn 0.000000 0.000000 -1.000000
vn 1.000000 0.000000 0.000000
vn 1.000000 0.000000 0.000000
vn 0.000000 0.000000 1.000000
vn 0.000000 -0.000000 1.000000
vn -1.000000 0.000000 0.000000
vn -1.000000 0.000000 0.000000
f 76//37 73//37 74//37
f 74//38 75//38 76//38
f 80//39 78//39 77//39
f 78//40 80//40 79//40
f 81//41 83//41 82//41
f 81//42 84//42 83//42
f 85//43 87//43 86//43
f 85//44 88//44 87//44
f 89//45 91//45 90//45
f 89//46 92//46 91//46
f 93//47 95//47 94//47
f 93//48 96//48 95//48
o Ceiling_005_c_4c05fe0b5b
usemtl Ceiling
v -23.200000 3.400000 31.000000
v -23.050000 3.400000 31.000000
v -23.050000 3.400000 38.300000
v -23.200000 3.400000 38.300000
v -23.200000 3.600000 31.000000
v -23.050000 3.600000 31.000000
v -23.050000 3.600000 38.300000
v -23.200000 3.600000 38.300000
v -23.200000 3.400000 31.000000
v -23.050000 3.400000 31.000000
v -23.050000 3.600000 31.000000
v -23.200000 3.600000 31.000000
v -23.050000 3.400000 31.000000
v -23.050000 3.400000 38.300000
v -23.050000 3.600000 38.300000
v -23.050000 3.600000 31.000000
v -23.050000 3.400000 38.300000
v -23.200000 3.400000 38.300000
v -23.200000 3.600000 38.300000
v -23.050000 3.600000 38.300000
v -23.200000 3.400000 38.300000
v -23.200000 3.400000 31.000000
v -23.200000 3.600000 31.000000
v -23.200000 3.600000 38.300000
vn 0.000000 -1.000000 0.000000
vn 0.000000 -1.000000 0.000000
vn 0.000000 1.000000 0.000000
vn 0.000000 1.000000 -0.000000
vn 0.000000 0.000000 -1.000000
vn 0.000000 0.000000 -1.000000
vn 1.000000 0.000000 0.000000
vn 1.000000 0.000000 0.000000
vn 0.000000 0.000000 1.000000
vn 0.000000 -0.000000 1.000000
vn -1.000000 0.000000 0.000000
vn -1.000000 0.000000 0.000000
f 100//49 97//49 98//49
f 98//50 99//50 100//50
f 104//51 102//51 101//51
f 102//52 104//52 103//52
f 105//53 107//53 106//53
f 105//54 108//54 107//54
f 109//55 111//55 110//55
f 109//56 112//56 111//56
f 113//57 115//57 114//57
f 113//58 116//58 115//58
f 117//59 119//59 118//59
f 117//60 120//60 119//60
o Ceiling_006_c_4c05fe0b5b
usemtl Ceiling
v -23.050000 3.400000 31.000000
v -13.150000 3.400000 31.000000
v -13.150000 3.400000 38.300000
v -23.050000 3.400000 38.300000
v -23.050000 3.600000 31.000000
v -13.150000 3.600000 31.000000
v -13.150000 3.600000 38.300000
v -23.050000 3.600000 38.300000
v -13.150000 3.400000 31.000000
v -13.000000 3.400000 31.000000
v -13.000000 3.400000 34.000000
v -13.150000 3.400000 34.000000
v -13.150000 3.600000 31.000000
v -13.000000 3.600000 31.000000
v -13.000000 3.600000 34.000000
v -13.150000 3.600000 34.000000
v -13.150000 3.400000 34.000000
v -13.000000 3.400000 34.000000
v -13.000000 3.400000 38.300000
v -13.150000 3.400000 38.300000
v -13.150000 3.600000 34.000000
v -13.000000 3.600000 34.000000
v -13.000000 3.600000 38.300000
v -13.150000 3.600000 38.300000
v -23.050000 3.400000 31.000000
v -13.150000 3.400000 31.000000
v -13.150000 3.600000 31.000000
v -23.050000 3.600000 31.000000
v -13.150000 3.400000 38.300000
v -23.050000 3.400000 38.300000
v -23.050000 3.600000 38.300000
v -13.150000 3.600000 38.300000
v -23.050000 3.400000 38.300000
v -23.050000 3.400000 31.000000
v -23.050000 3.600000 31.000000
v -23.050000 3.600000 38.300000
v -13.150000 3.400000 31.000000
v -13.000000 3.400000 31.000000
v -13.000000 3.600000 31.000000
v -13.150000 3.600000 31.000000
v -13.000000 3.400000 31.000000
v -13.000000 3.400000 34.000000
v -13.000000 3.600000 34.000000
v -13.000000 3.600000 31.000000
v -13.000000 3.400000 34.000000
v -13.000000 3.400000 38.300000
v -13.000000 3.600000 38.300000
v -13.000000 3.600000 34.000000
v -13.000000 3.400000 38.300000
v -13.150000 3.400000 38.300000
v -13.150000 3.600000 38.300000
v -13.000000 3.600000 38.300000
vn 0.000000 -1.000000 0.000000
vn 0.000000 -1.000000 0.000000
vn 0.000000 1.000000 0.000000
vn 0.000000 1.000000 -0.000000
vn 0.000000 -1.000000 0.000000
vn 0.000000 -1.000000 0.000000
vn 0.000000 1.000000 0.000000
vn 0.000000 1.000000 -0.000000
vn 0.000000 -1.000000 0.000000
vn 0.000000 -1.000000 0.000000
vn 0.000000 1.000000 0.000000
vn 0.000000 1.000000 -0.000000
vn 0.000000 0.000000 -1.000000
vn 0.000000 0.000000 -1.000000
vn 0.000000 0.000000 1.000000
vn 0.000000 -0.000000 1.000000
vn -1.000000 0.000000 0.000000
vn -1.000000 0.000000 0.000000
vn 0.000000 0.000000 -1.000000
vn 0.000000 0.000000 -1.000000
vn 1.000000 0.000000 0.000000
vn 1.000000 0.000000 0.000000
vn 1.000000 0.000000 0.000000
vn 1.000000 0.000000 0.000000
vn 0.000000 0.000000 1.000000
vn 0.000000 -0.000000 1.000000
f 124//61 121//61 122//61
f 122//62 123//62 124//62
f 128//63 126//63 125//63
f 126//64 128//64 127//64
f 132//65 129//65 130//65
f 130//66 131//66 132//66
f 136//67 134//67 133//67
f 134//68 136//68 135//68
f 140//69 137//69 138//69
f 138//70 139//70 140//70
f 144//71 142//71 141//71
f 142//72 144//72 143//72
f 145//73 147//73 146//73
f 145//74 148//74 147//74
f 149//75 151//75 150//75
f 149//76 152//76 151//76
f 153//77 155//77 154//77
f 153//78 156//78 155//78
f 157//79 159//79 158//79
f 157//80 160//80 159//80
f 161//81 163//81 162//81
f 161//82 164//82 163//82
f 165//83 167//83 166//83
f 165//84 168//84 167//84
f 169//85 171//85 170//85
f 169//86 172//86 171//86
o Ceiling_007_c_ccf68701d7
usemtl Ceiling
v -23.200000 3.400000 38.300000
v -23.050000 3.400000 38.300000
v -23.050000 3.400000 46.500000
v -23.200000 3.400000 46.500000
v -23.200000 3.600000 38.300000
v -23.050000 3.600000 38.300000
v -23.050000 3.600000 46.500000
v -23.200000 3.600000 46.500000
v -23.200000 3.400000 38.300000
v -23.050000 3.400000 38.300000
v -23.050000 3.600000 38.300000
v -23.200000 3.600000 38.300000
v -23.050000 3.400000 38.300000
v -23.050000 3.400000 46.500000
v -23.050000 3.600000 46.500000
v -23.050000 3.600000 38.300000
v -23.050000 3.400000 46.500000
v -23.200000 3.400000 46.500000
v -23.200000 3.600000 46.500000
v -23.050000 3.600000 46.500000
v -23.200000 3.400000 46.500000
v -23.200000 3.400000 38.300000
v -23.200000 3.600000 38.300000
v -23.200000 3.600000 46.500000
vn 0.000000 -1.000000 0.000000
vn 0.000000 -1.000000 0.000000
vn 0.000000 1.000000 0.000000
vn 0.000000 1.000000 -0.000000
vn 0.000000 0.000000 -1.000000
vn 0.000000 0.000000 -1.000000
vn 1.000000 0.000000 0.000000
vn 1.000000 0.000000 0.000000
vn 0.000000 0.000000 1.000000
vn 0.000000 -0.000000 1.000000
vn -1.000000 0.000000 0.000000
vn -1.000000 0.000000 0.000000
f 176//87 173//87 174//87
f 174//88 175//88 176//88
f 180//89 178//89 177//89
f 178//90 180//90 179//90
f 181//91 183//91 182//91
f 181//92 184//92 183//92
f 185//93 187//93 186//93
f 185//94 188//94 187//94
f 189//95 191//95 190//95
f 189//96 192//96 191//96
f 193//97 195//97 194//97
f 193//98 196//98 195//98
o Ceiling_008_c_ccf68701d7
usemtl Ceiling
v -23.050000 3.400000 38.300000
v -13.000000 3.400000 38.300000
v -13.000000 3.400000 46.500000
v -23.050000 3.400000 46.500000
v -23.050000 3.600000 38.300000
v -13.000000 3.600000 38.300000
v -13.000000 3.600000 46.500000
v -23.050000 3.600000 46.500000
v -23.050000 3.400000 38.300000
v -13.000000 3.400000 38.300000
v -13.000000 3.600000 38.300000
v -23.050000 3.600000 38.300000
v -13.000000 3.400000 38.300000
v -13.000000 3.400000 46.500000
v -13.000000 3.600000 46.500000
v -13.000000 3.600000 38.300000
v -13.000000 3.400000 46.500000
v -23.050000 3.400000 46.500000
v -23.050000 3.600000 46.500000
v -13.000000 3.600000 46.500000
v -23.050000 3.400000 46.500000
v -23.050000 3.400000 38.300000
v -23.050000 3.600000 38.300000
v -23.050000 3.600000 46.500000
vn 0.000000 -1.000000 0.000000
vn 0.000000 -1.000000 0.000000
vn 0.000000 1.000000 0.000000
vn 0.000000 1.000000 -0.000000
vn 0.000000 0.000000 -1.000000
vn 0.000000 0.000000 -1.000000
vn 1.000000 0.000000 0.000000
vn 1.000000 0.000000 0.000000
vn 0.000000 0.000000 1.000000
vn 0.000000 -0.000000 1.000000
vn -1.000000 0.000000 0.000000
vn -1.000000 0.000000 0.000000
f 200//99 197//99 198//99
f 198//100 199//100 200//100
f 204//101 202//101 201//101
f 202//102 204//102 203//102
f 205//103 207//103 206//103
f 205//104 208//104 207//104
f 209//105 211//105 210//105
f 209//106 212//106 211//106
f 213//107 215//107 214//107
f 213//108 216//108 215//108
f 217//109 219//109 218//109
f 217//110 220//110 219//110
o Ceiling_009_c_d8cf168257
usemtl Ceiling
v -13.000000 3.400000 34.000000
v -6.800000 3.400000 34.000000
v -6.800000 3.400000 38.300000
v -13.000000 3.400000 38.300000
v -13.000000 3.600000 34.000000
v -6.800000 3.600000 34.000000
v -6.800000 3.600000 38.300000
v -13.000000 3.600000 38.300000
v -13.000000 3.400000 34.000000
v -6.800000 3.400000 34.000000
v -6.800000 3.600000 34.000000
v -13.000000 3.600000 34.000000
v -6.800000 3.400000 34.000000
v -6.800000 3.400000 38.300000
v -6.800000 3.600000 38.300000
v -6.800000 3.600000 34.000000
v -6.800000 3.400000 38.300000
v -13.000000 3.400000 38.300000
v -13.000000 3.600000 38.300000
v -6.800000 3.600000 38.300000
v -13.000000 3.400000 38.300000
v -13.000000 3.400000 34.000000
v -13.000000 3.600000 34.000000
v -13.000000 3.600000 38.300000
vn 0.000000 -1.000000 0.000000
vn 0.000000 -1.000000 0.000000
vn 0.000000 1.000000 0.000000
vn 0.000000 1.000000 -0.000000
vn 0.000000 0.000000 -1.000000
vn 0.000000 0.000000 -1.000000
vn 1.000000 0.000000 0.000000
vn 1.000000 0.000000 0.000000
vn 0.000000 0.000000 1.000000
vn 0.000000 -0.000000 1.000000
vn -1.000000 0.000000 0.000000
vn -1.000000 0.000000 0.000000
f 224//111 221//111 222//111
f 222//112 223//112 224//112
f 228//113 226//113 225//113
f 226//114 228//114 227//114
f 229//115 231//115 230//115
f 229//116 232//116 231//116
f 233//117 235//117 234//117
f 233//118 236//118 235//118
f 237//119 239//119 238//119
f 237//120 240//120 239//120
f 241//121 243//121 242//121
f 241//122 244//122 243//122
o Ceiling_010_c_1f79c6a541
usemtl Ceiling
v -6.800000 3.400000 31.000000
v -6.650000 3.400000 31.000000
v -6.650000 3.400000 34.000000
v -6.800000 3.400000 34.000000
v -6.800000 3.600000 31.000000
v -6.650000 3.600000 31.000000
v -6.650000 3.600000 34.000000
v -6.800000 3.600000 34.000000
v -6.800000 3.400000 34.000000
v -6.650000 3.400000 34.000000
v -6.650000 3.400000 38.300000
v -6.800000 3.400000 38.300000
v -6.800000 3.600000 34.000000
v -6.650000 3.600000 34.000000
v -6.650000 3.600000 38.300000
v -6.800000 3.600000 38.300000
v -6.800000 3.400000 38.300000
v -6.650000 3.400000 38.300000
v -6.650000 3.400000 52.000000
v -6.800000 3.400000 52.000000
v -6.800000 3.600000 38.300000
v -6.650000 3.600000 38.300000
v -6.650000 3.600000 52.000000
v -6.800000 3.600000 52.000000
v -6.650000 3.400000 31.000000
v -3.800000 3.400000 31.000000
v -3.800000 3.400000 52.000000
v -6.650000 3.400000 52.000000
v -6.650000 3.600000 31.000000
v -3.800000 3.600000 31.000000
v -3.800000 3.600000 52.000000
v -6.650000 3.600000 52.000000
v -6.800000 3.400000 31.000000
v -6.650000 3.400000 31.000000
v -6.650000 3.600000 31.000000
v -6.800000 3.600000 31.000000
v -6.800000 3.400000 34.000000
v -6.800000 3.400000 31.000000
v -6.800000 3.600000 31.000000
v -6.800000 3.600000 34.000000
v -6.800000 3.400000 38.300000
v -6.800000 3.400000 34.000000
v -6.800000 3.600000 34.000000
v -6.800000 3.600000 38.300000
v -6.650000 3.400000 52.000000
v -6.800000 3.400000 52.000000
v -6.800000 3.600000 52.000000
v -6.650000 3.600000 52.000000
v -6.800000 3.400000 52.000000
v -6.800000 3.400000 38.300000
v -6.800000 3.600000 38.300000
v -6.800000 3.600000 52.000000
v -6.650000 3.400000 31.000000
v -3.800000 3.400000 31.000000
v -3.800000 3.600000 31.000000
v -6.650000 3.600000 31.000000
v -3.800000 3.400000 31.000000
v -3.800000 3.400000 52.000000
v -3.800000 3.600000 52.000000
v -3.800000 3.600000 31.000000
v -3.800000 3.400000 52.000000
v -6.650000 3.400000 52.000000
v -6.650000 3.600000 52.000000
v -3.800000 3.600000 52.000000
vn 0.000000 -1.000000 0.000000
vn 0.000000 -1.000000 0.000000
vn 0.000000 1.000000 0.000000
vn 0.000000 1.000000 -0.000000
vn 0.000000 -1.000000 0.000000
vn 0.000000 -1.000000 0.000000
vn 0.000000 1.000000 0.000000
vn 0.000000 1.000000 -0.000000
vn 0.000000 -1.000000 0.000000
vn 0.000000 -1.000000 0.000000
vn 0.000000 1.000000 0.000000
vn 0.000000 1.000000 -0.000000
vn 0.000000 -1.000000 0.000000
vn 0.000000 -1.000000 0.000000
vn 0.000000 1.000000 0.000000
vn 0.000000 1.000000 -0.000000
vn 0.000000 0.000000 -1.000000
vn 0.000000 0.000000 -1.000000
vn -1.000000 0.000000 0.000000
vn -1.000000 0.000000 0.000000
vn -1.000000 0.000000 0.000000
vn -1.000000 0.000000 0.000000
vn 0.000000 0.000000 1.000000
vn 0.000000 -0.000000 1.000000
vn -1.000000 0.000000 0.000000
vn -1.000000 0.000000 0.000000
vn 0.000000 0.000000 -1.000000
vn 0.000000 0.000000 -1.000000
vn 1.000000 0.000000 0.000000
vn 1.000000 0.000000 0.000000
vn 0.000000 0.000000 1.000000
vn 0.000000 -0.000000 1.000000
f 248//123 245//123 246//123
f 246//124 247//124 248//124
f 252//125 250//125 249//125
f 250//126 252//126 251//126
f 256//127 253//127 254//127
f 254//128 255//128 256//128
f 260//129 258//129 257//129
f 258//130 260//130 259//130
f 264//131 261//131 262//131
f 262//132 263//132 264//132
f 268//133 266//133 265//133
f 266//134 268//134 267//134
f 272//135 269//135 270//135
f 270//136 271//136 272//136
f 276//137 274//137 273//137
f 274//138 276//138 275//138
f 277//139 279//139 278//139
f 277//140 280//140 279//140
f 281//141 283//141 282//141
f 281//142 284//142 283//142
f 285//143 287//143 286//143
f 285//144 288//144 287//144
f 289//145 291//145 290//145
f 289//146 292//146 291//146
f 293//147 295//147 294//147
f 293//148 296//148 295//148
f 297//149 299//149 298//149
f 297//150 300//150 299//150
f 301//151 303//151 302//151
f 301//152 304//152 303//152
f 305//153 307//153 306//153
f 305//154 308//154 307//154
