# Generated by svg_to_godot3d
mtllib geometry.mtl
s off
o Floor_010_f_1f79c6a541
usemtl Floor
v -6.800000 -0.200000 31.000000
v -6.650000 -0.200000 31.000000
v -6.650000 -0.200000 34.000000
v -6.800000 -0.200000 34.000000
v -6.800000 0.000000 31.000000
v -6.650000 0.000000 31.000000
v -6.650000 0.000000 34.000000
v -6.800000 0.000000 34.000000
v -6.800000 -0.200000 34.000000
v -6.650000 -0.200000 34.000000
v -6.650000 -0.200000 38.300000
v -6.800000 -0.200000 38.300000
v -6.800000 0.000000 34.000000
v -6.650000 0.000000 34.000000
v -6.650000 0.000000 38.300000
v -6.800000 0.000000 38.300000
v -6.800000 -0.200000 38.300000
v -6.650000 -0.200000 38.300000
v -6.650000 -0.200000 52.000000
v -6.800000 -0.200000 52.000000
v -6.800000 0.000000 38.300000
v -6.650000 0.000000 38.300000
v -6.650000 0.000000 52.000000
v -6.800000 0.000000 52.000000
v -6.650000 -0.200000 31.000000
v -3.800000 -0.200000 31.000000
v -3.800000 -0.200000 52.000000
v -6.650000 -0.200000 52.000000
v -6.650000 0.000000 31.000000
v -3.800000 0.000000 31.000000
v -3.800000 0.000000 52.000000
v -6.650000 0.000000 52.000000
v -6.800000 -0.200000 31.000000
v -6.650000 -0.200000 31.000000
v -6.650000 0.000000 31.000000
v -6.800000 0.000000 31.000000
v -6.800000 -0.200000 34.000000
v -6.800000 -0.200000 31.000000
v -6.800000 0.000000 31.000000
v -6.800000 0.000000 34.000000
v -6.800000 -0.200000 38.300000
v -6.800000 -0.200000 34.000000
v -6.800000 0.000000 34.000000
v -6.800000 0.000000 38.300000
v -6.650000 -0.200000 52.000000
v -6.800000 -0.200000 52.000000
v -6.800000 0.000000 52.000000
v -6.650000 0.000000 52.000000
v -6.800000 -0.200000 52.000000
v -6.800000 -0.200000 38.300000
v -6.800000 0.000000 38.300000
v -6.800000 0.000000 52.000000
v -6.650000 -0.200000 31.000000
v -3.800000 -0.200000 31.000000
v -3.800000 0.000000 31.000000
v -6.650000 0.000000 31.000000
v -3.800000 -0.200000 31.000000
v -3.800000 -0.200000 52.000000
v -3.800000 0.000000 52.000000
v -3.800000 0.000000 31.000000
v -3.800000 -0.200000 52.000000
v -6.650000 -0.200000 52.000000
v -6.650000 0.000000 52.000000
v -3.800000 0.000000 52.000000
vn 0.000000 -1.000000 0.000000
vn 0.000000 -1.000000 0.000000
vn 0.000000 1.000000 0.000000
vn 0.000000 1.000000 -0.000000
vn 0.000000 -1.000000 0.000000
vn 0.000000 -1.000000 0.000000
vn 0.000000 1.000000 0.000000
vn 0.000000 1.000000 -0.000000
vn 0.000000 -1.000000 0.000000
vn 0.000000 -1.000000 0.000000
vn 0.000000 1.000000 0.000000
vn 0.000000 1.000000 -0.000000
vn 0.000000 -1.000000 0.000000
vn 0.000000 -1.000000 0.000000
vn 0.000000 1.000000 0.000000
vn 0.000000 1.000000 -0.000000
vn 0.000000 0.000000 -1.000000
vn 0.000000 0.000000 -1.000000
vn -1.000000 0.000000 0.000000
vn -1.000000 0.000000 0.000000
vn -1.000000 0.000000 0.000000
vn -1.000000 0.000000 0.000000
vn 0.000000 0.000000 1.000000
vn 0.000000 -0.000000 1.000000
vn -1.000000 0.000000 0.000000
vn -1.000000 0.000000 0.000000
vn 0.000000 0.000000 -1.000000
vn 0.000000 0.000000 -1.000000
vn 1.000000 0.000000 0.000000
vn 1.000000 0.000000 0.000000
vn 0.000000 0.000000 1.000000
vn 0.000000 -0.000000 1.000000
f 4//1 1//1 2//1
f 2//2 3//2 4//2
f 8//3 6//3 5//3
f 6//4 8//4 7//4
f 12//5 9//5 10//5
f 10//6 11//6 12//6
f 16//7 14//7 13//7
f 14//8 16//8 15//8
f 20//9 17//9 18//9
f 18//10 19//10 20//10
f 24//11 22//11 21//11
f 22//12 24//12 23//12
f 28//13 25//13 26//13
f 26//14 27//14 28//14
f 32//15 30//15 29//15
f 30//16 32//16 31//16
f 33//17 35//17 34//17
f 33//18 36//18 35//18
f 37//19 39//19 38//19
f 37//20 40//20 39//20
f 41//21 43//21 42//21
f 41//22 44//22 43//22
f 45//23 47//23 46//23
f 45//24 48//24 47//24
f 49//25 51//25 50//25
f 49//26 52//26 51//26
f 53//27 55//27 54//27
f 53//28 56//28 55//28
f 57//29 59//29 58//29
f 57//30 60//30 59//30
f 61//31 63//31 62//31
f 61//32 64//32 63//32
