{
 "asset": {
  "generator": "Khronos glTF Blender I/O v5.2.40",
  "version": "2.0"
 },
 "extensionsUsed": [
  "KHR_materials_emissive_strength"
 ],
 "scene": 0,
 "scenes": [
  {
   "name": "Scene",
   "nodes": [
    0,
    1,
    2,
    3,
    4,
    5,
    6,
    7,
    8,
    9,
    10,
    11,
    12,
    13,
    14,
    15,
    16
   ]
  }
 ],
 "nodes": [
  {
   "mesh": 0,
   "name": "Body"
  },
  {
   "mesh": 1,
   "name": "Breaker1",
   "translation": [
    0.17000000178813934,
    0.550000011920929,
    0.052000001072883606
   ]
  },
  {
   "mesh": 2,
   "name": "Breaker2",
   "translation": [
    0.2800000011920929,
    0.550000011920929,
    0.052000001072883606
   ]
  },
  {
   "mesh": 3,
   "name": "Breaker3",
   "translation": [
    0.38999998569488525,
    0.550000011920929,
    0.052000001072883606
   ]
  },
  {
   "mesh": 4,
   "name": "Breaker4",
   "translation": [
    0.5,
    0.550000011920929,
    0.052000001072883606
   ]
  },
  {
   "mesh": 5,
   "name": "Breaker5",
   "translation": [
    0.17000000178813934,
    0.75,
    0.052000001072883606
   ]
  },
  {
   "mesh": 6,
   "name": "Breaker6",
   "translation": [
    0.2800000011920929,
    0.75,
    0.052000001072883606
   ]
  },
  {
   "mesh": 7,
   "name": "Breaker7",
   "translation": [
    0.38999998569488525,
    0.75,
    0.052000001072883606
   ]
  },
  {
   "mesh": 8,
   "name": "Breaker8",
   "translation": [
    0.5,
    0.75,
    0.052000001072883606
   ]
  },
  {
   "mesh": 9,
   "name": "Breaker9",
   "translation": [
    0.17000000178813934,
    0.949999988079071,
    0.052000001072883606
   ]
  },
  {
   "mesh": 10,
   "name": "Breaker10",
   "translation": [
    0.2800000011920929,
    0.949999988079071,
    0.052000001072883606
   ]
  },
  {
   "mesh": 11,
   "name": "Breaker11",
   "translation": [
    0.38999998569488525,
    0.949999988079071,
    0.052000001072883606
   ]
  },
  {
   "mesh": 12,
   "name": "Breaker12",
   "translation": [
    0.5,
    0.949999988079071,
    0.052000001072883606
   ]
  },
  {
   "mesh": 13,
   "name": "Breaker13",
   "translation": [
    0.17000000178813934,
    1.149999976158142,
    0.052000001072883606
   ]
  },
  {
   "mesh": 14,
   "name": "Breaker14",
   "translation": [
    0.2800000011920929,
    1.149999976158142,
    0.052000001072883606
   ]
  },
  {
   "mesh": 15,
   "name": "Breaker15",
   "translation": [
    0.38999998569488525,
    1.149999976158142,
    0.052000001072883606
   ]
  },
  {
   "mesh": 16,
   "name": "Breaker16",
   "translation": [
    0.5,
    1.149999976158142,
    0.052000001072883606
   ]
  }
 ],
 "materials": [
  {
   "doubleSided": true,
   "name": "painted_metal",
   "pbrMetallicRoughness": {
    "baseColorFactor": [
     1,
     1,
     1,
     1
    ],
    "metallicFactor": 1.0,
    "roughnessFactor": 1.0,
    "baseColorTexture": {
     "index": 0
    },
    "metallicRoughnessTexture": {
     "index": 1
    }
   },
   "normalTexture": {
    "index": 2
   },
   "occlusionTexture": {
    "index": 1,
    "strength": 0.8
   }
  },
  {
   "doubleSided": true,
   "name": "plastic_panel",
   "pbrMetallicRoughness": {
    "baseColorFactor": [
     1,
     1,
     1,
     1
    ],
    "metallicFactor": 1.0,
    "roughnessFactor": 1.0,
    "baseColorTexture": {
     "index": 3
    },
    "metallicRoughnessTexture": {
     "index": 4
    }
   },
   "normalTexture": {
    "index": 5
   },
   "occlusionTexture": {
    "index": 4,
    "strength": 0.8
   }
  },
  {
   "doubleSided": true,
   "name": "instrument_faces",
   "pbrMetallicRoughness": {
    "baseColorFactor": [
     1,
     1,
     1,
     1
    ],
    "metallicFactor": 0.0,
    "roughnessFactor": 0.7,
    "baseColorTexture": {
     "index": 6
    }
   },
   "alphaMode": "BLEND"
  },
  {
   "alphaMode": "BLEND",
   "doubleSided": true,
   "name": "glass_dirty",
   "pbrMetallicRoughness": {
    "baseColorFactor": [
     0.07999999821186066,
     0.10000000149011612,
     0.10999999940395355,
     0.2800000011920929
    ],
    "metallicFactor": 0,
    "roughnessFactor": 0.25
   }
  },
  {
   "doubleSided": true,
   "name": "panel_labels",
   "pbrMetallicRoughness": {
    "baseColorFactor": [
     1,
     1,
     1,
     1
    ],
    "metallicFactor": 0.0,
    "roughnessFactor": 0.7,
    "baseColorTexture": {
     "index": 7
    }
   },
   "alphaMode": "BLEND"
  },
  {
   "doubleSided": true,
   "emissiveFactor": [
    0.289156625857113,
    1,
    0.5060240907616461
   ],
   "extensions": {
    "KHR_materials_emissive_strength": {
     "emissiveStrength": 2.0749999582767487
    }
   },
   "name": "emit_led_green",
   "pbrMetallicRoughness": {
    "baseColorFactor": [
     0,
     0,
     0,
     1
    ],
    "metallicFactor": 0,
    "roughnessFactor": 0.5
   }
  },
  {
   "doubleSided": true,
   "emissiveFactor": [
    1,
    0.7032966673079079,
    0.1208791167404094
   ],
   "extensions": {
    "KHR_materials_emissive_strength": {
     "emissiveStrength": 2.2750000655651093
    }
   },
   "name": "emit_led_amber",
   "pbrMetallicRoughness": {
    "baseColorFactor": [
     0,
     0,
     0,
     1
    ],
    "metallicFactor": 0,
    "roughnessFactor": 0.5
   }
  },
  {
   "doubleSided": true,
   "emissiveFactor": [
    1,
    0.23529411455339222,
    0.14117646347280213
   ],
   "extensions": {
    "KHR_materials_emissive_strength": {
     "emissiveStrength": 2.5500000715255737
    }
   },
   "name": "emit_led_red",
   "pbrMetallicRoughness": {
    "baseColorFactor": [
     0,
     0,
     0,
     1
    ],
    "metallicFactor": 0,
    "roughnessFactor": 0.5
   }
  },
  {
   "doubleSided": true,
   "name": "steel_bare",
   "pbrMetallicRoughness": {
    "baseColorFactor": [
     1,
     1,
     1,
     1
    ],
    "metallicFactor": 1.0,
    "roughnessFactor": 1.0,
    "baseColorTexture": {
     "index": 8
    },
    "metallicRoughnessTexture": {
     "index": 9
    }
   },
   "normalTexture": {
    "index": 10
   },
   "occlusionTexture": {
    "index": 9,
    "strength": 0.8
   }
  },
  {
   "doubleSided": true,
   "name": "vinyl_worn",
   "pbrMetallicRoughness": {
    "baseColorFactor": [
     1,
     1,
     1,
     1
    ],
    "metallicFactor": 1.0,
    "roughnessFactor": 1.0,
    "baseColorTexture": {
     "index": 11
    },
    "metallicRoughnessTexture": {
     "index": 12
    }
   },
   "normalTexture": {
    "index": 13
   },
   "occlusionTexture": {
    "index": 12,
    "strength": 0.8
   }
  },
  {
   "doubleSided": true,
   "name": "paper_aged",
   "pbrMetallicRoughness": {
    "baseColorFactor": [
     1,
     1,
     1,
     1
    ],
    "metallicFactor": 1.0,
    "roughnessFactor": 1.0,
    "baseColorTexture": {
     "index": 14
    },
    "metallicRoughnessTexture": {
     "index": 15
    }
   },
   "normalTexture": {
    "index": 16
   },
   "occlusionTexture": {
    "index": 15,
    "strength": 0.8
   }
  },
  {
   "doubleSided": true,
   "name": "hazard_stripes",
   "pbrMetallicRoughness": {
    "baseColorFactor": [
     1,
     1,
     1,
     1
    ],
    "metallicFactor": 0.0,
    "roughnessFactor": 0.7,
    "baseColorTexture": {
     "index": 17
    }
   },
   "alphaMode": "BLEND"
  },
  {
   "doubleSided": true,
   "name": "signs_ru",
   "pbrMetallicRoughness": {
    "baseColorFactor": [
     1,
     1,
     1,
     1
    ],
    "metallicFactor": 0.0,
    "roughnessFactor": 0.7,
    "baseColorTexture": {
     "index": 18
    }
   },
   "alphaMode": "BLEND"
  },
  {
   "doubleSided": true,
   "name": "rubber_black",
   "pbrMetallicRoughness": {
    "baseColorFactor": [
     1,
     1,
     1,
     1
    ],
    "metallicFactor": 1.0,
    "roughnessFactor": 1.0,
    "baseColorTexture": {
     "index": 19
    },
    "metallicRoughnessTexture": {
     "index": 20
    }
   },
   "normalTexture": {
    "index": 21
   },
   "occlusionTexture": {
    "index": 20,
    "strength": 0.8
   }
  }
 ],
 "meshes": [
  {
   "name": "Body",
   "primitives": [
    {
     "attributes": {
      "POSITION": 0,
      "NORMAL": 1,
      "TEXCOORD_0": 2
     },
     "indices": 3,
     "material": 0
    },
    {
     "attributes": {
      "POSITION": 4,
      "NORMAL": 5,
      "TEXCOORD_0": 6
     },
     "indices": 7,
     "material": 1
    },
    {
     "attributes": {
      "POSITION": 8,
      "NORMAL": 9,
      "TEXCOORD_0": 10
     },
     "indices": 11,
     "material": 2
    },
    {
     "attributes": {
      "POSITION": 12,
      "NORMAL": 13,
      "TEXCOORD_0": 14
     },
     "indices": 15,
     "material": 3
    },
    {
     "attributes": {
      "POSITION": 16,
      "NORMAL": 17,
      "TEXCOORD_0": 18
     },
     "indices": 11,
     "material": 4
    },
    {
     "attributes": {
      "POSITION": 19,
      "NORMAL": 20,
      "TEXCOORD_0": 21
     },
     "indices": 22,
     "material": 5
    },
    {
     "attributes": {
      "POSITION": 23,
      "NORMAL": 24,
      "TEXCOORD_0": 25
     },
     "indices": 26,
     "material": 6
    },
    {
     "attributes": {
      "POSITION": 27,
      "NORMAL": 28,
      "TEXCOORD_0": 29
     },
     "indices": 26,
     "material": 7
    },
    {
     "attributes": {
      "POSITION": 30,
      "NORMAL": 31,
      "TEXCOORD_0": 32
     },
     "indices": 33,
     "material": 8
    },
    {
     "attributes": {
      "POSITION": 34,
      "NORMAL": 35,
      "TEXCOORD_0": 36
     },
     "indices": 37,
     "material": 9
    },
    {
     "attributes": {
      "POSITION": 38,
      "NORMAL": 39,
      "TEXCOORD_0": 40
     },
     "indices": 41,
     "material": 10
    },
    {
     "attributes": {
      "POSITION": 42,
      "NORMAL": 43,
      "TEXCOORD_0": 44
     },
     "indices": 45,
     "material": 11
    },
    {
     "attributes": {
      "POSITION": 46,
      "NORMAL": 47,
      "TEXCOORD_0": 48
     },
     "indices": 45,
     "material": 12
    },
    {
     "attributes": {
      "POSITION": 49,
      "NORMAL": 50,
      "TEXCOORD_0": 51
     },
     "indices": 52,
     "material": 13
    }
   ]
  },
  {
   "name": "Breaker1",
   "primitives": [
    {
     "attributes": {
      "POSITION": 53,
      "NORMAL": 54,
      "TEXCOORD_0": 55
     },
     "indices": 56,
     "material": 8
    }
   ]
  },
  {
   "name": "Breaker2",
   "primitives": [
    {
     "attributes": {
      "POSITION": 57,
      "NORMAL": 58,
      "TEXCOORD_0": 59
     },
     "indices": 56,
     "material": 8
    }
   ]
  },
  {
   "name": "Breaker3",
   "primitives": [
    {
     "attributes": {
      "POSITION": 60,
      "NORMAL": 61,
      "TEXCOORD_0": 62
     },
     "indices": 56,
     "material": 8
    }
   ]
  },
  {
   "name": "Breaker4",
   "primitives": [
    {
     "attributes": {
      "POSITION": 63,
      "NORMAL": 64,
      "TEXCOORD_0": 65
     },
     "indices": 56,
     "material": 8
    }
   ]
  },
  {
   "name": "Breaker5",
   "primitives": [
    {
     "attributes": {
      "POSITION": 66,
      "NORMAL": 67,
      "TEXCOORD_0": 68
     },
     "indices": 56,
     "material": 8
    }
   ]
  },
  {
   "name": "Breaker6",
   "primitives": [
    {
     "attributes": {
      "POSITION": 69,
      "NORMAL": 70,
      "TEXCOORD_0": 71
     },
     "indices": 56,
     "material": 8
    }
   ]
  },
  {
   "name": "Breaker7",
   "primitives": [
    {
     "attributes": {
      "POSITION": 72,
      "NORMAL": 73,
      "TEXCOORD_0": 74
     },
     "indices": 56,
     "material": 8
    }
   ]
  },
  {
   "name": "Breaker8",
   "primitives": [
    {
     "attributes": {
      "POSITION": 75,
      "NORMAL": 76,
      "TEXCOORD_0": 77
     },
     "indices": 56,
     "material": 8
    }
   ]
  },
  {
   "name": "Breaker9",
   "primitives": [
    {
     "attributes": {
      "POSITION": 78,
      "NORMAL": 79,
      "TEXCOORD_0": 80
     },
     "indices": 56,
     "material": 8
    }
   ]
  },
  {
   "name": "Breaker10",
   "primitives": [
    {
     "attributes": {
      "POSITION": 81,
      "NORMAL": 82,
      "TEXCOORD_0": 83
     },
     "indices": 56,
     "material": 8
    }
   ]
  },
  {
   "name": "Breaker11",
   "primitives": [
    {
     "attributes": {
      "POSITION": 84,
      "NORMAL": 85,
      "TEXCOORD_0": 86
     },
     "indices": 56,
     "material": 8
    }
   ]
  },
  {
   "name": "Breaker12",
   "primitives": [
    {
     "attributes": {
      "POSITION": 87,
      "NORMAL": 88,
      "TEXCOORD_0": 89
     },
     "indices": 56,
     "material": 8
    }
   ]
  },
  {
   "name": "Breaker13",
   "primitives": [
    {
     "attributes": {
      "POSITION": 90,
      "NORMAL": 91,
      "TEXCOORD_0": 92
     },
     "indices": 56,
     "material": 8
    }
   ]
  },
  {
   "name": "Breaker14",
   "primitives": [
    {
     "attributes": {
      "POSITION": 93,
      "NORMAL": 94,
      "TEXCOORD_0": 95
     },
     "indices": 56,
     "material": 8
    }
   ]
  },
  {
   "name": "Breaker15",
   "primitives": [
    {
     "attributes": {
      "POSITION": 96,
      "NORMAL": 97,
      "TEXCOORD_0": 98
     },
     "indices": 56,
     "material": 8
    }
   ]
  },
  {
   "name": "Breaker16",
   "primitives": [
    {
     "attributes": {
      "POSITION": 99,
      "NORMAL": 100,
      "TEXCOORD_0": 101
     },
     "indices": 56,
     "material": 8
    }
   ]
  }
 ],
 "accessors": [
  {
   "bufferView": 0,
   "componentType": 5126,
   "count": 3616,
   "max": [
    0.6000000238418579,
    1.7999999523162842,
    0.15000000596046448
   ],
   "min": [
    -0.6000000238418579,
    0,
    -0.15000000596046448
   ],
   "type": "VEC3"
  },
  {
   "bufferView": 1,
   "componentType": 5126,
   "count": 3616,
   "type": "VEC3"
  },
  {
   "bufferView": 2,
   "componentType": 5126,
   "count": 3616,
   "type": "VEC2"
  },
  {
   "bufferView": 3,
   "componentType": 5123,
   "count": 9456,
   "type": "SCALAR"
  },
  {
   "bufferView": 4,
   "componentType": 5126,
   "count": 2160,
   "max": [
    0.5375000238418579,
    1.6799999475479126,
    0.052000001072883606
   ],
   "min": [
    -0.550000011920929,
    0.49000000953674316,
    0.017999999225139618
   ],
   "type": "VEC3"
  },
  {
   "bufferView": 5,
   "componentType": 5126,
   "count": 2160,
   "type": "VEC3"
  },
  {
   "bufferView": 6,
   "componentType": 5126,
   "count": 2160,
   "type": "VEC2"
  },
  {
   "bufferView": 7,
   "componentType": 5123,
   "count": 4452,
   "type": "SCALAR"
  },
  {
   "bufferView": 8,
   "componentType": 5126,
   "count": 16,
   "max": [
    -0.0949999988079071,
    1.5750000476837158,
    0.05249999836087227
   ],
   "min": [
    -0.5049999952316284,
    1.0749999284744263,
    0.05249999836087227
   ],
   "type": "VEC3"
  },
  {
   "bufferView": 9,
   "componentType": 5126,
   "count": 16,
   "type": "VEC3"
  },
  {
   "bufferView": 10,
   "componentType": 5126,
   "count": 16,
   "type": "VEC2"
  },
  {
   "bufferView": 11,
   "componentType": 5123,
   "count": 24,
   "type": "SCALAR"
  },
  {
   "bufferView": 12,
   "componentType": 5126,
   "count": 416,
   "max": [
    -0.09200000017881393,
    1.5779999494552612,
    0.05700000002980232
   ],
   "min": [
    -0.5080000162124634,
    1.0720000267028809,
    0.05400000140070915
   ],
   "type": "VEC3"
  },
  {
   "bufferView": 13,
   "componentType": 5126,
   "count": 416,
   "type": "VEC3"
  },
  {
   "bufferView": 14,
   "componentType": 5126,
   "count": 416,
   "type": "VEC2"
  },
  {
   "bufferView": 15,
   "componentType": 5123,
   "count": 1104,
   "type": "SCALAR"
  },
  {
   "bufferView": 16,
   "componentType": 5126,
   "count": 16,
   "max": [
    0.5300000309944153,
    1.5449999570846558,
    0.0215000007301569
   ],
   "min": [
    -0.5099999904632568,
    0.4050000011920929,
    0.020999999716877937
   ],
   "type": "VEC3"
  },
  {
   "bufferView": 17,
   "componentType": 5126,
   "count": 16,
   "type": "VEC3"
  },
  {
   "bufferView": 18,
   "componentType": 5126,
   "count": 16,
   "type": "VEC2"
  },
  {
   "bufferView": 19,
   "componentType": 5126,
   "count": 96,
   "max": [
    -0.19048944115638733,
    0.6299999952316284,
    0.030000001192092896
   ],
   "min": [
    -0.5095105767250061,
    0.6100000143051147,
    0.019999999552965164
   ],
   "type": "VEC3"
  },
  {
   "bufferView": 20,
   "componentType": 5126,
   "count": 96,
   "type": "VEC3"
  },
  {
   "bufferView": 21,
   "componentType": 5126,
   "count": 96,
   "type": "VEC2"
  },
  {
   "bufferView": 22,
   "componentType": 5123,
   "count": 216,
   "type": "SCALAR"
  },
  {
   "bufferView": 23,
   "componentType": 5126,
   "count": 48,
   "max": [
    -0.3904894292354584,
    0.6299999952316284,
    0.030000001192092896
   ],
   "min": [
    -0.4095105826854706,
    0.6100000143051147,
    0.019999999552965164
   ],
   "type": "VEC3"
  },
  {
   "bufferView": 24,
   "componentType": 5126,
   "count": 48,
   "type": "VEC3"
  },
  {
   "bufferView": 25,
   "componentType": 5126,
   "count": 48,
   "type": "VEC2"
  },
  {
   "bufferView": 26,
   "componentType": 5123,
   "count": 108,
   "type": "SCALAR"
  },
  {
   "bufferView": 27,
   "componentType": 5126,
   "count": 48,
   "max": [
    -0.29048943519592285,
    0.6299999952316284,
    0.030000001192092896
   ],
   "min": [
    -0.30951058864593506,
    0.6100000143051147,
    0.019999999552965164
   ],
   "type": "VEC3"
  },
  {
   "bufferView": 28,
   "componentType": 5126,
   "count": 48,
   "type": "VEC3"
  },
  {
   "bufferView": 29,
   "componentType": 5126,
   "count": 48,
   "type": "VEC2"
  },
  {
   "bufferView": 30,
   "componentType": 5126,
   "count": 48,
   "max": [
    -0.07400000095367432,
    1.7060000896453857,
    0.044999998062849045
   ],
   "min": [
    -0.085999995470047,
    1.694000005722046,
    0.014999999664723873
   ],
   "type": "VEC3"
  },
  {
   "bufferView": 31,
   "componentType": 5126,
   "count": 48,
   "type": "VEC3"
  },
  {
   "bufferView": 32,
   "componentType": 5126,
   "count": 48,
   "type": "VEC2"
  },
  {
   "bufferView": 33,
   "componentType": 5123,
   "count": 84,
   "type": "SCALAR"
  },
  {
   "bufferView": 34,
   "componentType": 5126,
   "count": 96,
   "max": [
    0.020000003278255463,
    1.6999999284744263,
    0.04600000008940697
   ],
   "min": [
    -0.18000000715255737,
    1.4199999570846558,
    0.03399999812245369
   ],
   "type": "VEC3"
  },
  {
   "bufferView": 35,
   "componentType": 5126,
   "count": 96,
   "type": "VEC3"
  },
  {
   "bufferView": 36,
   "componentType": 5126,
   "count": 96,
   "type": "VEC2"
  },
  {
   "bufferView": 37,
   "componentType": 5123,
   "count": 180,
   "type": "SCALAR"
  },
  {
   "bufferView": 38,
   "componentType": 5126,
   "count": 24,
   "max": [
    0.01000000536441803,
    1.6899999380111694,
    0.05049999803304672
   ],
   "min": [
    -0.17000000178813934,
    1.4299999475479126,
    0.04450000077486038
   ],
   "type": "VEC3"
  },
  {
   "bufferView": 39,
   "componentType": 5126,
   "count": 24,
   "type": "VEC3"
  },
  {
   "bufferView": 40,
   "componentType": 5126,
   "count": 24,
   "type": "VEC2"
  },
  {
   "bufferView": 41,
   "componentType": 5123,
   "count": 36,
   "type": "SCALAR"
  },
  {
   "bufferView": 42,
   "componentType": 5126,
   "count": 4,
   "max": [
    0.550000011920929,
    0.20999999344348907,
    0.15000000596046448
   ],
   "min": [
    -0.550000011920929,
    0.10999999940395355,
    0.15000000596046448
   ],
   "type": "VEC3"
  },
  {
   "bufferView": 43,
   "componentType": 5126,
   "count": 4,
   "type": "VEC3"
  },
  {
   "bufferView": 44,
   "componentType": 5126,
   "count": 4,
   "type": "VEC2"
  },
  {
   "bufferView": 45,
   "componentType": 5123,
   "count": 6,
   "type": "SCALAR"
  },
  {
   "bufferView": 46,
   "componentType": 5126,
   "count": 4,
   "max": [
    0.4300000071525574,
    1.75,
    0.020999999716877937
   ],
   "min": [
    0.23000001907348633,
    1.6500000953674316,
    0.020999999716877937
   ],
   "type": "VEC3"
  },
  {
   "bufferView": 47,
   "componentType": 5126,
   "count": 4,
   "type": "VEC3"
  },
  {
   "bufferView": 48,
   "componentType": 5126,
   "count": 4,
   "type": "VEC2"
  },
  {
   "bufferView": 49,
   "componentType": 5126,
   "count": 56,
   "max": [
    0.5199999809265137,
    1.7999999523162842,
    -0.049999989569187164
   ],
   "min": [
    0.3799999952316284,
    1.2999999523162842,
    -0.1899999976158142
   ],
   "type": "VEC3"
  },
  {
   "bufferView": 50,
   "componentType": 5126,
   "count": 56,
   "type": "VEC3"
  },
  {
   "bufferView": 51,
   "componentType": 5126,
   "count": 56,
   "type": "VEC2"
  },
  {
   "bufferView": 52,
   "componentType": 5123,
   "count": 132,
   "type": "SCALAR"
  },
  {
   "bufferView": 53,
   "componentType": 5126,
   "count": 96,
   "max": [
    0.01000000536441803,
    0.04016697406768799,
    0.021931298077106476
   ],
   "min": [
    -0.01000000536441803,
    -0.01016700267791748,
    -0.005931299179792404
   ],
   "type": "VEC3"
  },
  {
   "bufferView": 54,
   "componentType": 5126,
   "count": 96,
   "type": "VEC3"
  },
  {
   "bufferView": 55,
   "componentType": 5126,
   "count": 96,
   "type": "VEC2"
  },
  {
   "bufferView": 56,
   "componentType": 5123,
   "count": 180,
   "type": "SCALAR"
  },
  {
   "bufferView": 57,
   "componentType": 5126,
   "count": 96,
   "max": [
    0.009999990463256836,
    0.04016697406768799,
    0.021931298077106476
   ],
   "min": [
    -0.009999990463256836,
    -0.01016700267791748,
    -0.005931299179792404
   ],
   "type": "VEC3"
  },
  {
   "bufferView": 58,
   "componentType": 5126,
   "count": 96,
   "type": "VEC3"
  },
  {
   "bufferView": 59,
   "componentType": 5126,
   "count": 96,
   "type": "VEC2"
  },
  {
   "bufferView": 60,
   "componentType": 5126,
   "count": 96,
   "max": [
    0.009999990463256836,
    0.04016697406768799,
    0.021931298077106476
   ],
   "min": [
    -0.009999990463256836,
    -0.01016700267791748,
    -0.005931299179792404
   ],
   "type": "VEC3"
  },
  {
   "bufferView": 61,
   "componentType": 5126,
   "count": 96,
   "type": "VEC3"
  },
  {
   "bufferView": 62,
   "componentType": 5126,
   "count": 96,
   "type": "VEC2"
  },
  {
   "bufferView": 63,
   "componentType": 5126,
   "count": 96,
   "max": [
    0.009999990463256836,
    0.04016697406768799,
    0.021931298077106476
   ],
   "min": [
    -0.009999990463256836,
    -0.01016700267791748,
    -0.005931299179792404
   ],
   "type": "VEC3"
  },
  {
   "bufferView": 64,
   "componentType": 5126,
   "count": 96,
   "type": "VEC3"
  },
  {
   "bufferView": 65,
   "componentType": 5126,
   "count": 96,
   "type": "VEC2"
  },
  {
   "bufferView": 66,
   "componentType": 5126,
   "count": 96,
   "max": [
    0.01000000536441803,
    0.04016697406768799,
    0.021931298077106476
   ],
   "min": [
    -0.01000000536441803,
    -0.01016700267791748,
    -0.005931299179792404
   ],
   "type": "VEC3"
  },
  {
   "bufferView": 67,
   "componentType": 5126,
   "count": 96,
   "type": "VEC3"
  },
  {
   "bufferView": 68,
   "componentType": 5126,
   "count": 96,
   "type": "VEC2"
  },
  {
   "bufferView": 69,
   "componentType": 5126,
   "count": 96,
   "max": [
    0.009999990463256836,
    0.04016697406768799,
    0.021931298077106476
   ],
   "min": [
    -0.009999990463256836,
    -0.01016700267791748,
    -0.005931299179792404
   ],
   "type": "VEC3"
  },
  {
   "bufferView": 70,
   "componentType": 5126,
   "count": 96,
   "type": "VEC3"
  },
  {
   "bufferView": 71,
   "componentType": 5126,
   "count": 96,
   "type": "VEC2"
  },
  {
   "bufferView": 72,
   "componentType": 5126,
   "count": 96,
   "max": [
    0.009999990463256836,
    0.04016697406768799,
    0.021931298077106476
   ],
   "min": [
    -0.009999990463256836,
    -0.01016700267791748,
    -0.005931299179792404
   ],
   "type": "VEC3"
  },
  {
   "bufferView": 73,
   "componentType": 5126,
   "count": 96,
   "type": "VEC3"
  },
  {
   "bufferView": 74,
   "componentType": 5126,
   "count": 96,
   "type": "VEC2"
  },
  {
   "bufferView": 75,
   "componentType": 5126,
   "count": 96,
   "max": [
    0.009999990463256836,
    0.04016697406768799,
    0.021931298077106476
   ],
   "min": [
    -0.009999990463256836,
    -0.01016700267791748,
    -0.005931299179792404
   ],
   "type": "VEC3"
  },
  {
   "bufferView": 76,
   "componentType": 5126,
   "count": 96,
   "type": "VEC3"
  },
  {
   "bufferView": 77,
   "componentType": 5126,
   "count": 96,
   "type": "VEC2"
  },
  {
   "bufferView": 78,
   "componentType": 5126,
   "count": 96,
   "max": [
    0.01000000536441803,
    0.04016697406768799,
    0.021931298077106476
   ],
   "min": [
    -0.01000000536441803,
    -0.01016700267791748,
    -0.005931299179792404
   ],
   "type": "VEC3"
  },
  {
   "bufferView": 79,
   "componentType": 5126,
   "count": 96,
   "type": "VEC3"
  },
  {
   "bufferView": 80,
   "componentType": 5126,
   "count": 96,
   "type": "VEC2"
  },
  {
   "bufferView": 81,
   "componentType": 5126,
   "count": 96,
   "max": [
    0.009999990463256836,
    0.04016697406768799,
    0.021931298077106476
   ],
   "min": [
    -0.009999990463256836,
    -0.01016700267791748,
    -0.005931299179792404
   ],
   "type": "VEC3"
  },
  {
   "bufferView": 82,
   "componentType": 5126,
   "count": 96,
   "type": "VEC3"
  },
  {
   "bufferView": 83,
   "componentType": 5126,
   "count": 96,
   "type": "VEC2"
  },
  {
   "bufferView": 84,
   "componentType": 5126,
   "count": 96,
   "max": [
    0.009999990463256836,
    0.04016697406768799,
    0.021931298077106476
   ],
   "min": [
    -0.009999990463256836,
    -0.01016700267791748,
    -0.005931299179792404
   ],
   "type": "VEC3"
  },
  {
   "bufferView": 85,
   "componentType": 5126,
   "count": 96,
   "type": "VEC3"
  },
  {
   "bufferView": 86,
   "componentType": 5126,
   "count": 96,
   "type": "VEC2"
  },
  {
   "bufferView": 87,
   "componentType": 5126,
   "count": 96,
   "max": [
    0.009999990463256836,
    0.04016697406768799,
    0.021931298077106476
   ],
   "min": [
    -0.009999990463256836,
    -0.01016700267791748,
    -0.005931299179792404
   ],
   "type": "VEC3"
  },
  {
   "bufferView": 88,
   "componentType": 5126,
   "count": 96,
   "type": "VEC3"
  },
  {
   "bufferView": 89,
   "componentType": 5126,
   "count": 96,
   "type": "VEC2"
  },
  {
   "bufferView": 90,
   "componentType": 5126,
   "count": 96,
   "max": [
    0.01000000536441803,
    0.04016697406768799,
    0.021931298077106476
   ],
   "min": [
    -0.01000000536441803,
    -0.01016700267791748,
    -0.005931299179792404
   ],
   "type": "VEC3"
  },
  {
   "bufferView": 91,
   "componentType": 5126,
   "count": 96,
   "type": "VEC3"
  },
  {
   "bufferView": 92,
   "componentType": 5126,
   "count": 96,
   "type": "VEC2"
  },
  {
   "bufferView": 93,
   "componentType": 5126,
   "count": 96,
   "max": [
    0.009999990463256836,
    0.04016697406768799,
    0.021931298077106476
   ],
   "min": [
    -0.009999990463256836,
    -0.01016700267791748,
    -0.005931299179792404
   ],
   "type": "VEC3"
  },
  {
   "bufferView": 94,
   "componentType": 5126,
   "count": 96,
   "type": "VEC3"
  },
  {
   "bufferView": 95,
   "componentType": 5126,
   "count": 96,
   "type": "VEC2"
  },
  {
   "bufferView": 96,
   "componentType": 5126,
   "count": 96,
   "max": [
    0.009999990463256836,
    0.04016697406768799,
    0.021931298077106476
   ],
   "min": [
    -0.009999990463256836,
    -0.01016700267791748,
    -0.005931299179792404
   ],
   "type": "VEC3"
  },
  {
   "bufferView": 97,
   "componentType": 5126,
   "count": 96,
   "type": "VEC3"
  },
  {
   "bufferView": 98,
   "componentType": 5126,
   "count": 96,
   "type": "VEC2"
  },
  {
   "bufferView": 99,
   "componentType": 5126,
   "count": 96,
   "max": [
    0.009999990463256836,
    0.04016697406768799,
    0.021931298077106476
   ],
   "min": [
    -0.009999990463256836,
    -0.01016700267791748,
    -0.005931299179792404
   ],
   "type": "VEC3"
  },
  {
   "bufferView": 100,
   "componentType": 5126,
   "count": 96,
   "type": "VEC3"
  },
  {
   "bufferView": 101,
   "componentType": 5126,
   "count": 96,
   "type": "VEC2"
  }
 ],
 "bufferViews": [
  {
   "buffer": 0,
   "byteLength": 43392,
   "byteOffset": 0,
   "target": 34962
  },
  {
   "buffer": 0,
   "byteLength": 43392,
   "byteOffset": 43392,
   "target": 34962
  },
  {
   "buffer": 0,
   "byteLength": 28928,
   "byteOffset": 86784,
   "target": 34962
  },
  {
   "buffer": 0,
   "byteLength": 18912,
   "byteOffset": 115712,
   "target": 34963
  },
  {
   "buffer": 0,
   "byteLength": 25920,
   "byteOffset": 134624,
   "target": 34962
  },
  {
   "buffer": 0,
   "byteLength": 25920,
   "byteOffset": 160544,
   "target": 34962
  },
  {
   "buffer": 0,
   "byteLength": 17280,
   "byteOffset": 186464,
   "target": 34962
  },
  {
   "buffer": 0,
   "byteLength": 8904,
   "byteOffset": 203744,
   "target": 34963
  },
  {
   "buffer": 0,
   "byteLength": 192,
   "byteOffset": 212648,
   "target": 34962
  },
  {
   "buffer": 0,
   "byteLength": 192,
   "byteOffset": 212840,
   "target": 34962
  },
  {
   "buffer": 0,
   "byteLength": 128,
   "byteOffset": 213032,
   "target": 34962
  },
  {
   "buffer": 0,
   "byteLength": 48,
   "byteOffset": 213160,
   "target": 34963
  },
  {
   "buffer": 0,
   "byteLength": 4992,
   "byteOffset": 213208,
   "target": 34962
  },
  {
   "buffer": 0,
   "byteLength": 4992,
   "byteOffset": 218200,
   "target": 34962
  },
  {
   "buffer": 0,
   "byteLength": 3328,
   "byteOffset": 223192,
   "target": 34962
  },
  {
   "buffer": 0,
   "byteLength": 2208,
   "byteOffset": 226520,
   "target": 34963
  },
  {
   "buffer": 0,
   "byteLength": 192,
   "byteOffset": 228728,
   "target": 34962
  },
  {
   "buffer": 0,
   "byteLength": 192,
   "byteOffset": 228920,
   "target": 34962
  },
  {
   "buffer": 0,
   "byteLength": 128,
   "byteOffset": 229112,
   "target": 34962
  },
  {
   "buffer": 0,
   "byteLength": 1152,
   "byteOffset": 229240,
   "target": 34962
  },
  {
   "buffer": 0,
   "byteLength": 1152,
   "byteOffset": 230392,
   "target": 34962
  },
  {
   "buffer": 0,
   "byteLength": 768,
   "byteOffset": 231544,
   "target": 34962
  },
  {
   "buffer": 0,
   "byteLength": 432,
   "byteOffset": 232312,
   "target": 34963
  },
  {
   "buffer": 0,
   "byteLength": 576,
   "byteOffset": 232744,
   "target": 34962
  },
  {
   "buffer": 0,
   "byteLength": 576,
   "byteOffset": 233320,
   "target": 34962
  },
  {
   "buffer": 0,
   "byteLength": 384,
   "byteOffset": 233896,
   "target": 34962
  },
  {
   "buffer": 0,
   "byteLength": 216,
   "byteOffset": 234280,
   "target": 34963
  },
  {
   "buffer": 0,
   "byteLength": 576,
   "byteOffset": 234496,
   "target": 34962
  },
  {
   "buffer": 0,
   "byteLength": 576,
   "byteOffset": 235072,
   "target": 34962
  },
  {
   "buffer": 0,
   "byteLength": 384,
   "byteOffset": 235648,
   "target": 34962
  },
  {
   "buffer": 0,
   "byteLength": 576,
   "byteOffset": 236032,
   "target": 34962
  },
  {
   "buffer": 0,
   "byteLength": 576,
   "byteOffset": 236608,
   "target": 34962
  },
  {
   "buffer": 0,
   "byteLength": 384,
   "byteOffset": 237184,
   "target": 34962
  },
  {
   "buffer": 0,
   "byteLength": 168,
   "byteOffset": 237568,
   "target": 34963
  },
  {
   "buffer": 0,
   "byteLength": 1152,
   "byteOffset": 237736,
   "target": 34962
  },
  {
   "buffer": 0,
   "byteLength": 1152,
   "byteOffset": 238888,
   "target": 34962
  },
  {
   "buffer": 0,
   "byteLength": 768,
   "byteOffset": 240040,
   "target": 34962
  },
  {
   "buffer": 0,
   "byteLength": 360,
   "byteOffset": 240808,
   "target": 34963
  },
  {
   "buffer": 0,
   "byteLength": 288,
   "byteOffset": 241168,
   "target": 34962
  },
  {
   "buffer": 0,
   "byteLength": 288,
   "byteOffset": 241456,
   "target": 34962
  },
  {
   "buffer": 0,
   "byteLength": 192,
   "byteOffset": 241744,
   "target": 34962
  },
  {
   "buffer": 0,
   "byteLength": 72,
   "byteOffset": 241936,
   "target": 34963
  },
  {
   "buffer": 0,
   "byteLength": 48,
   "byteOffset": 242008,
   "target": 34962
  },
  {
   "buffer": 0,
   "byteLength": 48,
   "byteOffset": 242056,
   "target": 34962
  },
  {
   "buffer": 0,
   "byteLength": 32,
   "byteOffset": 242104,
   "target": 34962
  },
  {
   "buffer": 0,
   "byteLength": 12,
   "byteOffset": 242136,
   "target": 34963
  },
  {
   "buffer": 0,
   "byteLength": 48,
   "byteOffset": 242148,
   "target": 34962
  },
  {
   "buffer": 0,
   "byteLength": 48,
   "byteOffset": 242196,
   "target": 34962
  },
  {
   "buffer": 0,
   "byteLength": 32,
   "byteOffset": 242244,
   "target": 34962
  },
  {
   "buffer": 0,
   "byteLength": 672,
   "byteOffset": 242276,
   "target": 34962
  },
  {
   "buffer": 0,
   "byteLength": 672,
   "byteOffset": 242948,
   "target": 34962
  },
  {
   "buffer": 0,
   "byteLength": 448,
   "byteOffset": 243620,
   "target": 34962
  },
  {
   "buffer": 0,
   "byteLength": 264,
   "byteOffset": 244068,
   "target": 34963
  },
  {
   "buffer": 0,
   "byteLength": 1152,
   "byteOffset": 244332,
   "target": 34962
  },
  {
   "buffer": 0,
   "byteLength": 1152,
   "byteOffset": 245484,
   "target": 34962
  },
  {
   "buffer": 0,
   "byteLength": 768,
   "byteOffset": 246636,
   "target": 34962
  },
  {
   "buffer": 0,
   "byteLength": 360,
   "byteOffset": 247404,
   "target": 34963
  },
  {
   "buffer": 0,
   "byteLength": 1152,
   "byteOffset": 247764,
   "target": 34962
  },
  {
   "buffer": 0,
   "byteLength": 1152,
   "byteOffset": 248916,
   "target": 34962
  },
  {
   "buffer": 0,
   "byteLength": 768,
   "byteOffset": 250068,
   "target": 34962
  },
  {
   "buffer": 0,
   "byteLength": 1152,
   "byteOffset": 250836,
   "target": 34962
  },
  {
   "buffer": 0,
   "byteLength": 1152,
   "byteOffset": 251988,
   "target": 34962
  },
  {
   "buffer": 0,
   "byteLength": 768,
   "byteOffset": 253140,
   "target": 34962
  },
  {
   "buffer": 0,
   "byteLength": 1152,
   "byteOffset": 253908,
   "target": 34962
  },
  {
   "buffer": 0,
   "byteLength": 1152,
   "byteOffset": 255060,
   "target": 34962
  },
  {
   "buffer": 0,
   "byteLength": 768,
   "byteOffset": 256212,
   "target": 34962
  },
  {
   "buffer": 0,
   "byteLength": 1152,
   "byteOffset": 256980,
   "target": 34962
  },
  {
   "buffer": 0,
   "byteLength": 1152,
   "byteOffset": 258132,
   "target": 34962
  },
  {
   "buffer": 0,
   "byteLength": 768,
   "byteOffset": 259284,
   "target": 34962
  },
  {
   "buffer": 0,
   "byteLength": 1152,
   "byteOffset": 260052,
   "target": 34962
  },
  {
   "buffer": 0,
   "byteLength": 1152,
   "byteOffset": 261204,
   "target": 34962
  },
  {
   "buffer": 0,
   "byteLength": 768,
   "byteOffset": 262356,
   "target": 34962
  },
  {
   "buffer": 0,
   "byteLength": 1152,
   "byteOffset": 263124,
   "target": 34962
  },
  {
   "buffer": 0,
   "byteLength": 1152,
   "byteOffset": 264276,
   "target": 34962
  },
  {
   "buffer": 0,
   "byteLength": 768,
   "byteOffset": 265428,
   "target": 34962
  },
  {
   "buffer": 0,
   "byteLength": 1152,
   "byteOffset": 266196,
   "target": 34962
  },
  {
   "buffer": 0,
   "byteLength": 1152,
   "byteOffset": 267348,
   "target": 34962
  },
  {
   "buffer": 0,
   "byteLength": 768,
   "byteOffset": 268500,
   "target": 34962
  },
  {
   "buffer": 0,
   "byteLength": 1152,
   "byteOffset": 269268,
   "target": 34962
  },
  {
   "buffer": 0,
   "byteLength": 1152,
   "byteOffset": 270420,
   "target": 34962
  },
  {
   "buffer": 0,
   "byteLength": 768,
   "byteOffset": 271572,
   "target": 34962
  },
  {
   "buffer": 0,
   "byteLength": 1152,
   "byteOffset": 272340,
   "target": 34962
  },
  {
   "buffer": 0,
   "byteLength": 1152,
   "byteOffset": 273492,
   "target": 34962
  },
  {
   "buffer": 0,
   "byteLength": 768,
   "byteOffset": 274644,
   "target": 34962
  },
  {
   "buffer": 0,
   "byteLength": 1152,
   "byteOffset": 275412,
   "target": 34962
  },
  {
   "buffer": 0,
   "byteLength": 1152,
   "byteOffset": 276564,
   "target": 34962
  },
  {
   "buffer": 0,
   "byteLength": 768,
   "byteOffset": 277716,
   "target": 34962
  },
  {
   "buffer": 0,
   "byteLength": 1152,
   "byteOffset": 278484,
   "target": 34962
  },
  {
   "buffer": 0,
   "byteLength": 1152,
   "byteOffset": 279636,
   "target": 34962
  },
  {
   "buffer": 0,
   "byteLength": 768,
   "byteOffset": 280788,
   "target": 34962
  },
  {
   "buffer": 0,
   "byteLength": 1152,
   "byteOffset": 281556,
   "target": 34962
  },
  {
   "buffer": 0,
   "byteLength": 1152,
   "byteOffset": 282708,
   "target": 34962
  },
  {
   "buffer": 0,
   "byteLength": 768,
   "byteOffset": 283860,
   "target": 34962
  },
  {
   "buffer": 0,
   "byteLength": 1152,
   "byteOffset": 284628,
   "target": 34962
  },
  {
   "buffer": 0,
   "byteLength": 1152,
   "byteOffset": 285780,
   "target": 34962
  },
  {
   "buffer": 0,
   "byteLength": 768,
   "byteOffset": 286932,
   "target": 34962
  },
  {
   "buffer": 0,
   "byteLength": 1152,
   "byteOffset": 287700,
   "target": 34962
  },
  {
   "buffer": 0,
   "byteLength": 1152,
   "byteOffset": 288852,
   "target": 34962
  },
  {
   "buffer": 0,
   "byteLength": 768,
   "byteOffset": 290004,
   "target": 34962
  },
  {
   "buffer": 0,
   "byteLength": 1152,
   "byteOffset": 290772,
   "target": 34962
  },
  {
   "buffer": 0,
   "byteLength": 1152,
   "byteOffset": 291924,
   "target": 34962
  },
  {
   "buffer": 0,
   "byteLength": 768,
   "byteOffset": 293076,
   "target": 34962
  }
 ],
 "buffers": [
  {
   "byteLength": 293844,
   "uri": "generator_panel.bin"
  }
 ],
 "images": [
  {
   "uri": "../../textures/painted_metal/painted_metal_albedo.jpg"
  },
  {
   "uri": "../../textures/painted_metal/painted_metal_orm.jpg"
  },
  {
   "uri": "../../textures/painted_metal/painted_metal_normal.png"
  },
  {
   "uri": "../../textures/plastic_panel/plastic_panel_albedo.jpg"
  },
  {
   "uri": "../../textures/plastic_panel/plastic_panel_orm.jpg"
  },
  {
   "uri": "../../textures/plastic_panel/plastic_panel_normal.png"
  },
  {
   "uri": "../../textures/decals/instrument_faces.png"
  },
  {
   "uri": "../../textures/decals/panel_labels.png"
  },
  {
   "uri": "../../textures/steel_bare/steel_bare_albedo.jpg"
  },
  {
   "uri": "../../textures/steel_bare/steel_bare_orm.jpg"
  },
  {
   "uri": "../../textures/steel_bare/steel_bare_normal.png"
  },
  {
   "uri": "../../textures/vinyl_worn/vinyl_worn_albedo.jpg"
  },
  {
   "uri": "../../textures/vinyl_worn/vinyl_worn_orm.jpg"
  },
  {
   "uri": "../../textures/vinyl_worn/vinyl_worn_normal.png"
  },
  {
   "uri": "../../textures/paper_aged/paper_aged_albedo.jpg"
  },
  {
   "uri": "../../textures/paper_aged/paper_aged_orm.jpg"
  },
  {
   "uri": "../../textures/paper_aged/paper_aged_normal.png"
  },
  {
   "uri": "../../textures/decals/hazard_stripes.png"
  },
  {
   "uri": "../../textures/decals/signs_ru.png"
  },
  {
   "uri": "../../textures/rubber_black/rubber_black_albedo.jpg"
  },
  {
   "uri": "../../textures/rubber_black/rubber_black_orm.jpg"
  },
  {
   "uri": "../../textures/rubber_black/rubber_black_normal.png"
  }
 ],
 "textures": [
  {
   "source": 0,
   "sampler": 0
  },
  {
   "source": 1,
   "sampler": 0
  },
  {
   "source": 2,
   "sampler": 0
  },
  {
   "source": 3,
   "sampler": 0
  },
  {
   "source": 4,
   "sampler": 0
  },
  {
   "source": 5,
   "sampler": 0
  },
  {
   "source": 6,
   "sampler": 0
  },
  {
   "source": 7,
   "sampler": 0
  },
  {
   "source": 8,
   "sampler": 0
  },
  {
   "source": 9,
   "sampler": 0
  },
  {
   "source": 10,
   "sampler": 0
  },
  {
   "source": 11,
   "sampler": 0
  },
  {
   "source": 12,
   "sampler": 0
  },
  {
   "source": 13,
   "sampler": 0
  },
  {
   "source": 14,
   "sampler": 0
  },
  {
   "source": 15,
   "sampler": 0
  },
  {
   "source": 16,
   "sampler": 0
  },
  {
   "source": 17,
   "sampler": 0
  },
  {
   "source": 18,
   "sampler": 0
  },
  {
   "source": 19,
   "sampler": 0
  },
  {
   "source": 20,
   "sampler": 0
  },
  {
   "source": 21,
   "sampler": 0
  }
 ],
 "samplers": [
  {
   "magFilter": 9729,
   "minFilter": 9987,
   "wrapS": 10497,
   "wrapT": 10497
  }
 ]
}
