# Generated by svg_to_godot3d
mtllib geometry.mtl
s off
o Ceiling_001_l_old_core_ceiling_08
usemtl Ceiling
v -102.200000 -2.600000 28.400000
v -92.350000 -2.600000 28.400000
v -92.350000 -2.600000 41.800000
v -102.200000 -2.600000 41.800000
v -102.200000 -2.400000 28.400000
v -92.350000 -2.400000 28.400000
v -92.350000 -2.400000 41.800000
v -102.200000 -2.400000 41.800000
v -92.350000 -2.600000 28.400000
v -92.200000 -2.600000 28.400000
v -92.200000 -2.600000 30.700000
v -92.350000 -2.600000 30.700000
v -92.350000 -2.400000 28.400000
v -92.200000 -2.400000 28.400000
v -92.200000 -2.400000 30.700000
v -92.350000 -2.400000 30.700000
v -92.350000 -2.600000 30.700000
v -92.200000 -2.600000 30.700000
v -92.200000 -2.600000 39.600000
v -92.350000 -2.600000 39.600000
v -92.350000 -2.400000 30.700000
v -92.200000 -2.400000 30.700000
v -92.200000 -2.400000 39.600000
v -92.350000 -2.400000 39.600000
v -92.350000 -2.600000 39.600000
v -92.200000 -2.600000 39.600000
v -92.200000 -2.600000 41.800000
v -92.350000 -2.600000 41.800000
v -92.350000 -2.400000 39.600000
v -92.200000 -2.400000 39.600000
v -92.200000 -2.400000 41.800000
v -92.350000 -2.400000 41.800000
v -102.200000 -2.600000 28.400000
v -92.350000 -2.600000 28.400000
v -92.350000 -2.400000 28.400000
v -102.200000 -2.400000 28.400000
v -92.350000 -2.600000 41.800000
v -102.200000 -2.600000 41.800000
v -102.200000 -2.400000 41.800000
v -92.350000 -2.400000 41.800000
v -102.200000 -2.600000 41.800000
v -102.200000 -2.600000 28.400000
v -102.200000 -2.400000 28.400000
v -102.200000 -2.400000 41.800000
v -92.350000 -2.600000 28.400000
v -92.200000 -2.600000 28.400000
v -92.200000 -2.400000 28.400000
v -92.350000 -2.400000 28.400000
v -92.200000 -2.600000 28.400000
v -92.200000 -2.600000 30.700000
v -92.200000 -2.400000 30.700000
v -92.200000 -2.400000 28.400000
v -92.200000 -2.600000 30.700000
v -92.200000 -2.600000 39.600000
v -92.200000 -2.400000 39.600000
v -92.200000 -2.400000 30.700000
v -92.200000 -2.600000 39.600000
v -92.200000 -2.600000 41.800000
v -92.200000 -2.400000 41.800000
v -92.200000 -2.400000 39.600000
v -92.200000 -2.600000 41.800000
v -92.350000 -2.600000 41.800000
v -92.350000 -2.400000 41.800000
v -92.200000 -2.400000 41.800000
vn 0.000000 -1.000000 0.000000
vn 0.000000 -1.000000 0.000000
vn 0.000000 1.000000 0.000000
vn 0.000000 1.000000 -0.000000
vn 0.000000 -1.000000 0.000000
vn 0.000000 -1.000000 0.000000
vn 0.000000 1.000000 0.000000
vn 0.000000 1.000000 -0.000000
vn 0.000000 -1.000000 0.000000
vn 0.000000 -1.000000 0.000000
vn 0.000000 1.000000 0.000000
vn 0.000000 1.000000 -0.000000
vn 0.000000 -1.000000 0.000000
vn 0.000000 -1.000000 0.000000
vn 0.000000 1.000000 0.000000
vn 0.000000 1.000000 -0.000000
vn 0.000000 0.000000 -1.000000
vn 0.000000 0.000000 -1.000000
vn 0.000000 0.000000 1.000000
vn 0.000000 -0.000000 1.000000
vn -1.000000 0.000000 0.000000
vn -1.000000 0.000000 0.000000
vn 0.000000 0.000000 -1.000000
vn 0.000000 0.000000 -1.000000
vn 1.000000 0.000000 0.000000
vn 1.000000 0.000000 0.000000
vn 1.000000 0.000000 0.000000
vn 1.000000 0.000000 0.000000
vn 1.000000 0.000000 0.000000
vn 1.000000 0.000000 0.000000
vn 0.000000 0.000000 1.000000
vn 0.000000 -0.000000 1.000000
f 4//1 1//1 2//1
f 2//2 3//2 4//2
f 8//3 6//3 5//3
f 6//4 8//4 7//4
f 12//5 9//5 10//5
f 10//6 11//6 12//6
f 16//7 14//7 13//7
f 14//8 16//8 15//8
f 20//9 17//9 18//9
f 18//10 19//10 20//10
f 24//11 22//11 21//11
f 22//12 24//12 23//12
f 28//13 25//13 26//13
f 26//14 27//14 28//14
f 32//15 30//15 29//15
f 30//16 32//16 31//16
f 33//17 35//17 34//17
f 33//18 36//18 35//18
f 37//19 39//19 38//19
f 37//20 40//20 39//20
f 41//21 43//21 42//21
f 41//22 44//22 43//22
f 45//23 47//23 46//23
f 45//24 48//24 47//24
f 49//25 51//25 50//25
f 49//26 52//26 51//26
f 53//27 55//27 54//27
f 53//28 56//28 55//28
f 57//29 59//29 58//29
f 57//30 60//30 59//30
f 61//31 63//31 62//31
f 61//32 64//32 63//32
o Ceiling_002_l_old_core_ceiling_07
usemtl Ceiling
v -92.200000 -2.600000 30.700000
v -88.900000 -2.600000 30.700000
v -88.900000 -2.600000 39.600000
v -92.200000 -2.600000 39.600000
v -92.200000 -2.400000 30.700000
v -88.900000 -2.400000 30.700000
v -88.900000 -2.400000 39.600000
v -92.200000 -2.400000 39.600000
v -92.200000 -2.600000 30.700000
v -88.900000 -2.600000 30.700000
v -88.900000 -2.400000 30.700000
v -92.200000 -2.400000 30.700000
v -88.900000 -2.600000 30.700000
v -88.900000 -2.600000 39.600000
v -88.900000 -2.400000 39.600000
v -88.900000 -2.400000 30.700000
v -88.900000 -2.600000 39.600000
v -92.200000 -2.600000 39.600000
v -92.200000 -2.400000 39.600000
v -88.900000 -2.400000 39.600000
v -92.200000 -2.600000 39.600000
v -92.200000 -2.600000 30.700000
v -92.200000 -2.400000 30.700000
v -92.200000 -2.400000 39.600000
vn 0.000000 -1.000000 0.000000
vn 0.000000 -1.000000 0.000000
vn 0.000000 1.000000 0.000000
vn 0.000000 1.000000 -0.000000
vn 0.000000 0.000000 -1.000000
vn 0.000000 0.000000 -1.000000
vn 1.000000 0.000000 0.000000
vn 1.000000 0.000000 0.000000
vn 0.000000 0.000000 1.000000
vn 0.000000 -0.000000 1.000000
vn -1.000000 0.000000 0.000000
vn -1.000000 0.000000 0.000000
f 68//33 65//33 66//33
f 66//34 67//34 68//34
f 72//35 70//35 69//35
f 70//36 72//36 71//36
f 73//37 75//37 74//37
f 73//38 76//38 75//38
f 77//39 79//39 78//39
f 77//40 80//40 79//40
f 81//41 83//41 82//41
f 81//42 84//42 83//42
f 85//43 87//43 86//43
f 85//44 88//44 87//44
o Ceiling_003_l_old_core_ceiling_06
usemtl Ceiling
v -88.900000 -2.600000 15.050000
v -88.750000 -2.600000 15.050000
v -88.750000 -2.600000 30.700000
v -88.900000 -2.600000 30.700000
v -88.900000 -2.400000 15.050000
v -88.750000 -2.400000 15.050000
v -88.750000 -2.400000 30.700000
v -88.900000 -2.400000 30.700000
v -88.900000 -2.600000 30.700000
v -88.750000 -2.600000 30.700000
v -88.750000 -2.600000 39.600000
v -88.900000 -2.600000 39.600000
v -88.900000 -2.400000 30.700000
v -88.750000 -2.400000 30.700000
v -88.750000 -2.400000 39.600000
v -88.900000 -2.400000 39.600000
v -88.900000 -2.600000 39.600000
v -88.750000 -2.600000 39.600000
v -88.750000 -2.600000 48.400000
v -88.900000 -2.600000 48.400000
v -88.900000 -2.400000 39.600000
v -88.750000 -2.400000 39.600000
v -88.750000 -2.400000 48.400000
v -88.900000 -2.400000 48.400000
v -88.750000 -2.600000 15.050000
v -81.256000 -2.600000 15.050000
v -81.256000 -2.600000 48.400000
v -88.750000 -2.600000 48.400000
v -88.750000 -2.400000 15.050000
v -81.256000 -2.400000 15.050000
v -81.256000 -2.400000 48.400000
v -88.750000 -2.400000 48.400000
v -81.256000 -2.600000 15.050000
v -81.106000 -2.600000 15.050000
v -81.106000 -2.600000 25.111000
v -81.256000 -2.600000 25.111000
v -81.256000 -2.400000 15.050000
v -81.106000 -2.400000 15.050000
v -81.106000 -2.400000 25.111000
v -81.256000 -2.400000 25.111000
v -81.256000 -2.600000 25.111000
v -81.106000 -2.600000 25.111000
v -81.106000 -2.600000 48.400000
v -81.256000 -2.600000 48.400000
v -81.256000 -2.400000 25.111000
v -81.106000 -2.400000 25.111000
v -81.106000 -2.400000 48.400000
v -81.256000 -2.400000 48.400000
v -88.900000 -2.600000 15.050000
v -88.750000 -2.600000 15.050000
v -88.750000 -2.400000 15.050000
v -88.900000 -2.400000 15.050000
v -88.900000 -2.600000 30.700000
v -88.900000 -2.600000 15.050000
v -88.900000 -2.400000 15.050000
v -88.900000 -2.400000 30.700000
v -88.900000 -2.600000 39.600000
v -88.900000 -2.600000 30.700000
v -88.900000 -2.400000 30.700000
v -88.900000 -2.400000 39.600000
v -88.750000 -2.600000 48.400000
v -88.900000 -2.600000 48.400000
v -88.900000 -2.400000 48.400000
v -88.750000 -2.400000 48.400000
v -88.900000 -2.600000 48.400000
v -88.900000 -2.600000 39.600000
v -88.900000 -2.400000 39.600000
v -88.900000 -2.400000 48.400000
v -88.750000 -2.600000 15.050000
v -81.256000 -2.600000 15.050000
v -81.256000 -2.400000 15.050000
v -88.750000 -2.400000 15.050000
v -81.256000 -2.600000 48.400000
v -88.750000 -2.600000 48.400000
v -88.750000 -2.400000 48.400000
v -81.256000 -2.400000 48.400000
v -81.256000 -2.600000 15.050000
v -81.106000 -2.600000 15.050000
v -81.106000 -2.400000 15.050000
v -81.256000 -2.400000 15.050000
v -81.106000 -2.600000 15.050000
v -81.106000 -2.600000 25.111000
v -81.106000 -2.400000 25.111000
v -81.106000 -2.400000 15.050000
v -81.106000 -2.600000 25.111000
v -81.106000 -2.600000 48.400000
v -81.106000 -2.400000 48.400000
v -81.106000 -2.400000 25.111000
v -81.106000 -2.600000 48.400000
v -81.256000 -2.600000 48.400000
v -81.256000 -2.400000 48.400000
v -81.106000 -2.400000 48.400000
vn 0.000000 -1.000000 0.000000
vn 0.000000 -1.000000 0.000000
vn 0.000000 1.000000 0.000000
vn 0.000000 1.000000 -0.000000
vn 0.000000 -1.000000 0.000000
vn 0.000000 -1.000000 0.000000
vn 0.000000 1.000000 0.000000
vn 0.000000 1.000000 -0.000000
vn 0.000000 -1.000000 0.000000
vn 0.000000 -1.000000 0.000000
vn 0.000000 1.000000 0.000000
vn 0.000000 1.000000 -0.000000
vn 0.000000 -1.000000 0.000000
vn 0.000000 -1.000000 0.000000
vn 0.000000 1.000000 0.000000
vn 0.000000 1.000000 -0.000000
vn 0.000000 -1.000000 0.000000
vn 0.000000 -1.000000 0.000000
vn 0.000000 1.000000 0.000000
vn 0.000000 1.000000 -0.000000
vn 0.000000 -1.000000 0.000000
vn 0.000000 -1.000000 0.000000
vn 0.000000 1.000000 0.000000
vn 0.000000 1.000000 -0.000000
vn 0.000000 0.000000 -1.000000
vn 0.000000 0.000000 -1.000000
vn -1.000000 0.000000 0.000000
vn -1.000000 0.000000 0.000000
vn -1.000000 0.000000 0.000000
vn -1.000000 0.000000 0.000000
vn 0.000000 0.000000 1.000000
vn 0.000000 -0.000000 1.000000
vn -1.000000 0.000000 0.000000
vn -1.000000 0.000000 0.000000
vn 0.000000 0.000000 -1.000000
vn 0.000000 0.000000 -1.000000
vn 0.000000 0.000000 1.000000
vn 0.000000 -0.000000 1.000000
vn 0.000000 0.000000 -1.000000
vn 0.000000 0.000000 -1.000000
vn 1.000000 0.000000 0.000000
vn 1.000000 0.000000 0.000000
vn 1.000000 0.000000 0.000000
vn 1.000000 0.000000 0.000000
vn 0.000000 0.000000 1.000000
vn 0.000000 -0.000000 1.000000
f 92//45 89//45 90//45
f 90//46 91//46 92//46
f 96//47 94//47 93//47
f 94//48 96//48 95//48
f 100//49 97//49 98//49
f 98//50 99//50 100//50
f 104//51 102//51 101//51
f 102//52 104//52 103//52
f 108//53 105//53 106//53
f 106//54 107//54 108//54
f 112//55 110//55 109//55
f 110//56 112//56 111//56
f 116//57 113//57 114//57
f 114//58 115//58 116//58
f 120//59 118//59 117//59
f 118//60 120//60 119//60
f 124//61 121//61 122//61
f 122//62 123//62 124//62
f 128//63 126//63 125//63
f 126//64 128//64 127//64
f 132//65 129//65 130//65
f 130//66 131//66 132//66
f 136//67 134//67 133//67
f 134//68 136//68 135//68
f 137//69 139//69 138//69
f 137//70 140//70 139//70
f 141//71 143//71 142//71
f 141//72 144//72 143//72
f 145//73 147//73 146//73
f 145//74 148//74 147//74
f 149//75 151//75 150//75
f 149//76 152//76 151//76
f 153//77 155//77 154//77
f 153//78 156//78 155//78
f 157//79 159//79 158//79
f 157//80 160//80 159//80
f 161//81 163//81 162//81
f 161//82 164//82 163//82
f 165//83 167//83 166//83
f 165//84 168//84 167//84
f 169//85 171//85 170//85
f 169//86 172//86 171//86
f 173//87 175//87 174//87
f 173//88 176//88 175//88
f 177//89 179//89 178//89
f 177//90 180//90 179//90
o Ceiling_004_l_old_core_ceiling_05
usemtl Ceiling
v -81.106000 -2.600000 6.741000
v -80.956000 -2.600000 6.741000
v -80.956000 -2.600000 15.050000
v -81.106000 -2.600000 15.050000
v -81.106000 -2.400000 6.741000
v -80.956000 -2.400000 6.741000
v -80.956000 -2.400000 15.050000
v -81.106000 -2.400000 15.050000
v -81.106000 -2.600000 15.050000
v -80.956000 -2.600000 15.050000
v -80.956000 -2.600000 25.111000
v -81.106000 -2.600000 25.111000
v -81.106000 -2.400000 15.050000
v -80.956000 -2.400000 15.050000
v -80.956000 -2.400000 25.111000
v -81.106000 -2.400000 25.111000
v -80.956000 -2.600000 6.741000
v -61.261000 -2.600000 6.741000
v -61.261000 -2.600000 25.111000
v -80.956000 -2.600000 25.111000
v -80.956000 -2.400000 6.741000
v -61.261000 -2.400000 6.741000
v -61.261000 -2.400000 25.111000
v -80.956000 -2.400000 25.111000
v -81.106000 -2.600000 6.741000
v -80.956000 -2.600000 6.741000
v -80.956000 -2.400000 6.741000
v -81.106000 -2.400000 6.741000
v -81.106000 -2.600000 15.050000
v -81.106000 -2.600000 6.741000
v -81.106000 -2.400000 6.741000
v -81.106000 -2.400000 15.050000
v -80.956000 -2.600000 25.111000
v -81.106000 -2.600000 25.111000
v -81.106000 -2.400000 25.111000
v -80.956000 -2.400000 25.111000
v -81.106000 -2.600000 25.111000
v -81.106000 -2.600000 15.050000
v -81.106000 -2.400000 15.050000
v -81.106000 -2.400000 25.111000
v -80.956000 -2.600000 6.741000
v -61.261000 -2.600000 6.741000
v -61.261000 -2.400000 6.741000
v -80.956000 -2.400000 6.741000
v -61.261000 -2.600000 6.741000
v -61.261000 -2.600000 25.111000
v -61.261000 -2.400000 25.111000
v -61.261000 -2.400000 6.741000
v -61.261000 -2.600000 25.111000
v -80.956000 -2.600000 25.111000
v -80.956000 -2.400000 25.111000
v -61.261000 -2.400000 25.111000
vn 0.000000 -1.000000 0.000000
vn 0.000000 -1.000000 0.000000
vn 0.000000 1.000000 0.000000
vn 0.000000 1.000000 -0.000000
vn 0.000000 -1.000000 0.000000
vn 0.000000 -1.000000 0.000000
vn 0.000000 1.000000 0.000000
vn 0.000000 1.000000 -0.000000
vn 0.000000 -1.000000 0.000000
vn 0.000000 -1.000000 0.000000
vn 0.000000 1.000000 0.000000
vn 0.000000 1.000000 -0.000000
vn 0.000000 0.000000 -1.000000
vn 0.000000 0.000000 -1.000000
vn -1.000000 0.000000 0.000000
vn -1.000000 0.000000 0.000000
vn 0.000000 0.000000 1.000000
vn 0.000000 -0.000000 1.000000
vn -1.000000 0.000000 0.000000
vn -1.000000 0.000000 0.000000
vn 0.000000 0.000000 -1.000000
vn 0.000000 0.000000 -1.000000
vn 1.000000 0.000000 0.000000
vn 1.000000 0.000000 0.000000
vn 0.000000 0.000000 1.000000
vn 0.000000 -0.000000 1.000000
f 184//91 181//91 182//91
f 182//92 183//92 184//92
f 188//93 186//93 185//93
f 186//94 188//94 187//94
f 192//95 189//95 190//95
f 190//96 191//96 192//96
f 196//97 194//97 193//97
f 194//98 196//98 195//98
f 200//99 197//99 198//99
f 198//100 199//100 200//100
f 204//101 202//101 201//101
f 202//102 204//102 203//102
f 205//103 207//103 206//103
f 205//104 208//104 207//104
f 209//105 211//105 210//105
f 209//106 212//106 211//106
f 213//107 215//107 214//107
f 213//108 216//108 215//108
f 217//109 219//109 218//109
f 217//110 220//110 219//110
f 221//111 223//111 222//111
f 221//112 224//112 223//112
f 225//113 227//113 226//113
f 225//114 228//114 227//114
f 229//115 231//115 230//115
f 229//116 232//116 231//116
o Ceiling_005_l_old_core_ceiling_05
usemtl Ceiling
v -61.261000 -2.600000 6.741000
v -61.111000 -2.600000 6.741000
v -61.111000 -2.600000 10.700000
v -61.261000 -2.600000 10.700000
v -61.261000 -2.400000 6.741000
v -61.111000 -2.400000 6.741000
v -61.111000 -2.400000 10.700000
v -61.261000 -2.400000 10.700000
v -61.261000 -2.600000 6.741000
v -61.111000 -2.600000 6.741000
v -61.111000 -2.400000 6.741000
v -61.261000 -2.400000 6.741000
v -61.111000 -2.600000 6.741000
v -61.111000 -2.600000 10.700000
v -61.111000 -2.400000 10.700000
v -61.111000 -2.400000 6.741000
v -61.111000 -2.600000 10.700000
v -61.261000 -2.600000 10.700000
v -61.261000 -2.400000 10.700000
v -61.111000 -2.400000 10.700000
v -61.261000 -2.600000 10.700000
v -61.261000 -2.600000 6.741000
v -61.261000 -2.400000 6.741000
v -61.261000 -2.400000 10.700000
vn 0.000000 -1.000000 0.000000
vn 0.000000 -1.000000 0.000000
vn 0.000000 1.000000 0.000000
vn 0.000000 1.000000 -0.000000
vn 0.000000 0.000000 -1.000000
vn 0.000000 0.000000 -1.000000
vn 1.000000 0.000000 0.000000
vn 1.000000 0.000000 0.000000
vn 0.000000 0.000000 1.000000
vn 0.000000 -0.000000 1.000000
vn -1.000000 0.000000 0.000000
vn -1.000000 0.000000 0.000000
f 236//117 233//117 234//117
f 234//118 235//118 236//118
f 240//119 238//119 237//119
f 238//120 240//120 239//120
f 241//121 243//121 242//121
f 241//122 244//122 243//122
f 245//123 247//123 246//123
f 245//124 248//124 247//124
f 249//125 251//125 250//125
f 249//126 252//126 251//126
f 253//127 255//127 254//127
f 253//128 256//128 255//128
o Ceiling_006_l_old_core_ceiling_05
usemtl Ceiling
v -61.261000 -2.600000 10.700000
v -61.111000 -2.600000 10.700000
v -61.111000 -2.600000 15.050000
v -61.261000 -2.600000 15.050000
v -61.261000 -2.400000 10.700000
v -61.111000 -2.400000 10.700000
v -61.111000 -2.400000 15.050000
v -61.261000 -2.400000 15.050000
v -61.261000 -2.600000 10.700000
v -61.111000 -2.600000 10.700000
v -61.111000 -2.400000 10.700000
v -61.261000 -2.400000 10.700000
v -61.111000 -2.600000 10.700000
v -61.111000 -2.600000 15.050000
v -61.111000 -2.400000 15.050000
v -61.111000 -2.400000 10.700000
v -61.111000 -2.600000 15.050000
v -61.261000 -2.600000 15.050000
v -61.261000 -2.400000 15.050000
v -61.111000 -2.400000 15.050000
v -61.261000 -2.600000 15.050000
v -61.261000 -2.600000 10.700000
v -61.261000 -2.400000 10.700000
v -61.261000 -2.400000 15.050000
vn 0.000000 -1.000000 0.000000
vn 0.000000 -1.000000 0.000000
vn 0.000000 1.000000 0.000000
vn 0.000000 1.000000 -0.000000
vn 0.000000 0.000000 -1.000000
vn 0.000000 0.000000 -1.000000
vn 1.000000 0.000000 0.000000
vn 1.000000 0.000000 0.000000
vn 0.000000 0.000000 1.000000
vn 0.000000 -0.000000 1.000000
vn -1.000000 0.000000 0.000000
vn -1.000000 0.000000 0.000000
f 260//129 257//129 258//129
f 258//130 259//130 260//130
f 264//131 262//131 261//131
f 262//132 264//132 263//132
f 265//133 267//133 266//133
f 265//134 268//134 267//134
f 269//135 271//135 270//135
f 269//136 272//136 271//136
f 273//137 275//137 274//137
f 273//138 276//138 275//138
f 277//139 279//139 278//139
f 277//140 280//140 279//140
o Ceiling_007_l_old_core_ceiling_05
usemtl Ceiling
v -61.261000 -2.600000 15.050000
v -61.111000 -2.600000 15.050000
v -61.111000 -2.600000 25.111000
v -61.261000 -2.600000 25.111000
v -61.261000 -2.400000 15.050000
v -61.111000 -2.400000 15.050000
v -61.111000 -2.400000 25.111000
v -61.261000 -2.400000 25.111000
v -61.261000 -2.600000 15.050000
v -61.111000 -2.600000 15.050000
v -61.111000 -2.400000 15.050000
v -61.261000 -2.400000 15.050000
v -61.111000 -2.600000 15.050000
v -61.111000 -2.600000 25.111000
v -61.111000 -2.400000 25.111000
v -61.111000 -2.400000 15.050000
v -61.111000 -2.600000 25.111000
v -61.261000 -2.600000 25.111000
v -61.261000 -2.400000 25.111000
v -61.111000 -2.400000 25.111000
v -61.261000 -2.600000 25.111000
v -61.261000 -2.600000 15.050000
v -61.261000 -2.400000 15.050000
v -61.261000 -2.400000 25.111000
vn 0.000000 -1.000000 0.000000
vn 0.000000 -1.000000 0.000000
vn 0.000000 1.000000 0.000000
vn 0.000000 1.000000 -0.000000
vn 0.000000 0.000000 -1.000000
vn 0.000000 0.000000 -1.000000
vn 1.000000 0.000000 0.000000
vn 1.000000 0.000000 0.000000
vn 0.000000 0.000000 1.000000
vn 0.000000 -0.000000 1.000000
vn -1.000000 0.000000 0.000000
vn -1.000000 0.000000 0.000000
f 284//141 281//141 282//141
f 282//142 283//142 284//142
f 288//143 286//143 285//143
f 286//144 288//144 287//144
f 289//145 291//145 290//145
f 289//146 292//146 291//146
f 293//147 295//147 294//147
f 293//148 296//148 295//148
f 297//149 299//149 298//149
f 297//150 300//150 299//150
f 301//151 303//151 302//151
f 301//152 304//152 303//152
o Ceiling_008_l_old_core_ceiling_01
usemtl Ceiling
v -78.333000 -2.600000 -9.333000
v -66.817000 -2.600000 -9.333000
v -66.817000 -2.600000 2.804000
v -78.333000 -2.600000 2.804000
v -78.333000 -2.400000 -9.333000
v -66.817000 -2.400000 -9.333000
v -66.817000 -2.400000 2.804000
v -78.333000 -2.400000 2.804000
v -66.817000 -2.600000 -9.333000
v -66.667000 -2.600000 -9.333000
v -66.667000 -2.600000 -2.772000
v -66.817000 -2.600000 -2.772000
v -66.817000 -2.400000 -9.333000
v -66.667000 -2.400000 -9.333000
v -66.667000 -2.400000 -2.772000
v -66.817000 -2.400000 -2.772000
v -66.817000 -2.600000 -2.772000
v -66.667000 -2.600000 -2.772000
v -66.667000 -2.600000 2.804000
v -66.817000 -2.600000 2.804000
v -66.817000 -2.400000 -2.772000
v -66.667000 -2.400000 -2.772000
v -66.667000 -2.400000 2.804000
v -66.817000 -2.400000 2.804000
v -78.333000 -2.600000 -9.333000
v -66.817000 -2.600000 -9.333000
v -66.817000 -2.400000 -9.333000
v -78.333000 -2.400000 -9.333000
v -66.817000 -2.600000 2.804000
v -78.333000 -2.600000 2.804000
v -78.333000 -2.400000 2.804000
v -66.817000 -2.400000 2.804000
v -78.333000 -2.600000 2.804000
v -78.333000 -2.600000 -9.333000
v -78.333000 -2.400000 -9.333000
v -78.333000 -2.400000 2.804000
v -66.817000 -2.600000 -9.333000
v -66.667000 -2.600000 -9.333000
v -66.667000 -2.400000 -9.333000
v -66.817000 -2.400000 -9.333000
v -66.667000 -2.600000 -9.333000
v -66.667000 -2.600000 -2.772000
v -66.667000 -2.400000 -2.772000
v -66.667000 -2.400000 -9.333000
v -66.667000 -2.600000 -2.772000
v -66.667000 -2.600000 2.804000
v -66.667000 -2.400000 2.804000
v -66.667000 -2.400000 -2.772000
v -66.667000 -2.600000 2.804000
v -66.817000 -2.600000 2.804000
v -66.817000 -2.400000 2.804000
v -66.667000 -2.400000 2.804000
vn 0.000000 -1.000000 0.000000
vn 0.000000 -1.000000 0.000000
vn 0.000000 1.000000 0.000000
vn 0.000000 1.000000 -0.000000
vn 0.000000 -1.000000 0.000000
vn 0.000000 -1.000000 0.000000
vn 0.000000 1.000000 0.000000
vn 0.000000 1.000000 -0.000000
vn 0.000000 -1.000000 0.000000
vn 0.000000 -1.000000 0.000000
vn 0.000000 1.000000 0.000000
vn 0.000000 1.000000 -0.000000
vn 0.000000 0.000000 -1.000000
vn 0.000000 0.000000 -1.000000
vn 0.000000 0.000000 1.000000
vn 0.000000 -0.000000 1.000000
vn -1.000000 0.000000 0.000000
vn -1.000000 0.000000 0.000000
vn 0.000000 0.000000 -1.000000
vn 0.000000 0.000000 -1.000000
vn 1.000000 0.000000 0.000000
vn 1.000000 0.000000 0.000000
vn 1.000000 0.000000 0.000000
vn 1.000000 0.000000 0.000000
vn 0.000000 0.000000 1.000000
vn 0.000000 -0.000000 1.000000
f 308//153 305//153 306//153
f 306//154 307//154 308//154
f 312//155 310//155 309//155
f 310//156 312//156 311//156
f 316//157 313//157 314//157
f 314//158 315//158 316//158
f 320//159 318//159 317//159
f 318//160 320//160 319//160
f 324//161 321//161 322//161
f 322//162 323//162 324//162
f 328//163 326//163 325//163
f 326//164 328//164 327//164
f 329//165 331//165 330//165
f 329//166 332//166 331//166
f 333//167 335//167 334//167
f 333//168 336//168 335//168
f 337//169 339//169 338//169
f 337//170 340//170 339//170
f 341//171 343//171 342//171
f 341//172 344//172 343//172
f 345//173 347//173 346//173
f 345//174 348//174 347//174
f 349//175 351//175 350//175
f 349//176 352//176 351//176
f 353//177 355//177 354//177
f 353//178 356//178 355//178
o Ceiling_009_l_old_core_ceiling_04
usemtl Ceiling
v -72.778000 -2.600000 2.804000
v -67.222000 -2.600000 2.804000
v -67.222000 -2.600000 6.741000
v -72.778000 -2.600000 6.741000
v -72.778000 -2.400000 2.804000
v -67.222000 -2.400000 2.804000
v -67.222000 -2.400000 6.741000
v -72.778000 -2.400000 6.741000
v -72.778000 -2.600000 2.804000
v -67.222000 -2.600000 2.804000
v -67.222000 -2.400000 2.804000
v -72.778000 -2.400000 2.804000
v -67.222000 -2.600000 2.804000
v -67.222000 -2.600000 6.741000
v -67.222000 -2.400000 6.741000
v -67.222000 -2.400000 2.804000
v -67.222000 -2.600000 6.741000
v -72.778000 -2.600000 6.741000
v -72.778000 -2.400000 6.741000
v -67.222000 -2.400000 6.741000
v -72.778000 -2.600000 6.741000
v -72.778000 -2.600000 2.804000
v -72.778000 -2.400000 2.804000
v -72.778000 -2.400000 6.741000
vn 0.000000 -1.000000 0.000000
vn 0.000000 -1.000000 0.000000
vn 0.000000 1.000000 0.000000
vn 0.000000 1.000000 -0.000000
vn 0.000000 0.000000 -1.000000
vn 0.000000 0.000000 -1.000000
vn 1.000000 0.000000 0.000000
vn 1.000000 0.000000 0.000000
vn 0.000000 0.000000 1.000000
vn 0.000000 -0.000000 1.000000
vn -1.000000 0.000000 0.000000
vn -1.000000 0.000000 0.000000
f 360//179 357//179 358//179
f 358//180 359//180 360//180
f 364//181 362//181 361//181
f 362//182 364//182 363//182
f 365//183 367//183 366//183
f 365//184 368//184 367//184
f 369//185 371//185 370//185
f 369//186 372//186 371//186
f 373//187 375//187 374//187
f 373//188 376//188 375//188
f 377//189 379//189 378//189
f 377//190 380//190 379//190
o Ceiling_010_l_old_core_ceiling_02
usemtl Ceiling
v -66.667000 -2.600000 -9.333000
v -61.667000 -2.600000 -9.333000
v -61.667000 -2.600000 -2.772000
v -66.667000 -2.600000 -2.772000
v -66.667000 -2.400000 -9.333000
v -61.667000 -2.400000 -9.333000
v -61.667000 -2.400000 -2.772000
v -66.667000 -2.400000 -2.772000
v -66.667000 -2.600000 -9.333000
v -61.667000 -2.600000 -9.333000
v -61.667000 -2.400000 -9.333000
v -66.667000 -2.400000 -9.333000
v -61.667000 -2.600000 -9.333000
v -61.667000 -2.600000 -2.772000
v -61.667000 -2.400000 -2.772000
v -61.667000 -2.400000 -9.333000
v -61.667000 -2.600000 -2.772000
v -66.667000 -2.600000 -2.772000
v -66.667000 -2.400000 -2.772000
v -61.667000 -2.400000 -2.772000
v -66.667000 -2.600000 -2.772000
v -66.667000 -2.600000 -9.333000
v -66.667000 -2.400000 -9.333000
v -66.667000 -2.400000 -2.772000
vn 0.000000 -1.000000 0.000000
vn 0.000000 -1.000000 0.000000
vn 0.000000 1.000000 0.000000
vn 0.000000 1.000000 -0.000000
vn 0.000000 0.000000 -1.000000
vn 0.000000 0.000000 -1.000000
vn 1.000000 0.000000 0.000000
vn 1.000000 0.000000 0.000000
vn 0.000000 0.000000 1.000000
vn 0.000000 -0.000000 1.000000
vn -1.000000 0.000000 0.000000
vn -1.000000 0.000000 0.000000
f 384//191 381//191 382//191
f 382//192 383//192 384//192
f 388//193 386//193 385//193
f 386//194 388//194 387//194
f 389//195 391//195 390//195
f 389//196 392//196 391//196
f 393//197 395//197 394//197
f 393//198 396//198 395//198
f 397//199 399//199 398//199
f 397//200 400//200 399//200
f 401//201 403//201 402//201
f 401//202 404//202 403//202
o Ceiling_011_l_old_core_ceiling_03
usemtl Ceiling
v -66.667000 -2.600000 -2.772000
v -61.667000 -2.600000 -2.772000
v -61.667000 -2.600000 2.804000
v -66.667000 -2.600000 2.804000
v -66.667000 -2.400000 -2.772000
v -61.667000 -2.400000 -2.772000
v -61.667000 -2.400000 2.804000
v -66.667000 -2.400000 2.804000
v -66.667000 -2.600000 -2.772000
v -61.667000 -2.600000 -2.772000
v -61.667000 -2.400000 -2.772000
v -66.667000 -2.400000 -2.772000
v -61.667000 -2.600000 -2.772000
v -61.667000 -2.600000 2.804000
v -61.667000 -2.400000 2.804000
v -61.667000 -2.400000 -2.772000
v -61.667000 -2.600000 2.804000
v -66.667000 -2.600000 2.804000
v -66.667000 -2.400000 2.804000
v -61.667000 -2.400000 2.804000
v -66.667000 -2.600000 2.804000
v -66.667000 -2.600000 -2.772000
v -66.667000 -2.400000 -2.772000
v -66.667000 -2.400000 2.804000
vn 0.000000 -1.000000 0.000000
vn 0.000000 -1.000000 0.000000
vn 0.000000 1.000000 0.000000
vn 0.000000 1.000000 -0.000000
vn 0.000000 0.000000 -1.000000
vn 0.000000 0.000000 -1.000000
vn 1.000000 0.000000 0.000000
vn 1.000000 0.000000 0.000000
vn 0.000000 0.000000 1.000000
vn 0.000000 -0.000000 1.000000
vn -1.000000 0.000000 0.000000
vn -1.000000 0.000000 0.000000
f 408//203 405//203 406//203
f 406//204 407//204 408//204
f 412//205 410//205 409//205
f 410//206 412//206 411//206
f 413//207 415//207 414//207
f 413//208 416//208 415//208
f 417//209 419//209 418//209
f 417//210 420//210 419//210
f 421//211 423//211 422//211
f 421//212 424//212 423//212
f 425//213 427//213 426//213
f 425//214 428//214 427//214
o Ceiling_012_l_old_core_ceiling_09
usemtl Ceiling
v -61.111000 -2.600000 10.700000
v -60.961000 -2.600000 10.700000
v -60.961000 -2.600000 15.050000
v -61.111000 -2.600000 15.050000
v -61.111000 -2.400000 10.700000
v -60.961000 -2.400000 10.700000
v -60.961000 -2.400000 15.050000
v -61.111000 -2.400000 15.050000
v -61.111000 -2.600000 10.700000
v -60.961000 -2.600000 10.700000
v -60.961000 -2.400000 10.700000
v -61.111000 -2.400000 10.700000
v -60.961000 -2.600000 10.700000
v -60.961000 -2.600000 15.050000
v -60.961000 -2.400000 15.050000
v -60.961000 -2.400000 10.700000
v -60.961000 -2.600000 15.050000
v -61.111000 -2.600000 15.050000
v -61.111000 -2.400000 15.050000
v -60.961000 -2.400000 15.050000
v -61.111000 -2.600000 15.050000
v -61.111000 -2.600000 10.700000
v -61.111000 -2.400000 10.700000
v -61.111000 -2.400000 15.050000
vn 0.000000 -1.000000 0.000000
vn 0.000000 -1.000000 0.000000
vn 0.000000 1.000000 0.000000
vn 0.000000 1.000000 -0.000000
vn 0.000000 0.000000 -1.000000
vn 0.000000 0.000000 -1.000000
vn 1.000000 0.000000 0.000000
vn 1.000000 0.000000 0.000000
vn 0.000000 0.000000 1.000000
vn 0.000000 -0.000000 1.000000
vn -1.000000 0.000000 0.000000
vn -1.000000 0.000000 0.000000
f 432//215 429//215 430//215
f 430//216 431//216 432//216
f 436//217 434//217 433//217
f 434//218 436//218 435//218
f 437//219 439//219 438//219
f 437//220 440//220 439//220
f 441//221 443//221 442//221
f 441//222 444//222 443//222
f 445//223 447//223 446//223
f 445//224 448//224 447//224
f 449//225 451//225 450//225
f 449//226 452//226 451//226
o Ceiling_013_l_old_core_ceiling_09
usemtl Ceiling
v -60.961000 -2.600000 10.700000
v -58.890000 -2.600000 10.700000
v -58.890000 -2.600000 15.050000
v -60.961000 -2.600000 15.050000
v -60.961000 -2.400000 10.700000
v -58.890000 -2.400000 10.700000
v -58.890000 -2.400000 15.050000
v -60.961000 -2.400000 15.050000
v -60.961000 -2.600000 10.700000
v -58.890000 -2.600000 10.700000
v -58.890000 -2.400000 10.700000
v -60.961000 -2.400000 10.700000
v -58.890000 -2.600000 10.700000
v -58.890000 -2.600000 15.050000
v -58.890000 -2.400000 15.050000
v -58.890000 -2.400000 10.700000
v -58.890000 -2.600000 15.050000
v -60.961000 -2.600000 15.050000
v -60.961000 -2.400000 15.050000
v -58.890000 -2.400000 15.050000
v -60.961000 -2.600000 15.050000
v -60.961000 -2.600000 10.700000
v -60.961000 -2.400000 10.700000
v -60.961000 -2.400000 15.050000
vn 0.000000 -1.000000 0.000000
vn 0.000000 -1.000000 0.000000
vn 0.000000 1.000000 0.000000
vn 0.000000 1.000000 -0.000000
vn 0.000000 0.000000 -1.000000
vn 0.000000 0.000000 -1.000000
vn 1.000000 0.000000 0.000000
vn 1.000000 0.000000 0.000000
vn 0.000000 0.000000 1.000000
vn 0.000000 -0.000000 1.000000
vn -1.000000 0.000000 0.000000
vn -1.000000 0.000000 0.000000
f 456//227 453//227 454//227
f 454//228 455//228 456//228
f 460//229 458//229 457//229
f 458//230 460//230 459//230
f 461//231 463//231 462//231
f 461//232 464//232 463//232
f 465//233 467//233 466//233
f 465//234 468//234 467//234
f 469//235 471//235 470//235
f 469//236 472//236 471//236
f 473//237 475//237 474//237
f 473//238 476//238 475//238
