# Generated by svg_to_godot3d
mtllib geometry.mtl
s off
o Floor_001_l_old_core_floor_08
usemtl Floor
v -102.200000 -6.200000 28.400000
v -102.000000 -6.200000 28.400000
v -102.000000 -6.200000 41.800000
v -102.200000 -6.200000 41.800000
v -102.200000 -6.000000 28.400000
v -102.000000 -6.000000 28.400000
v -102.000000 -6.000000 41.800000
v -102.200000 -6.000000 41.800000
v -102.000000 -6.200000 28.400000
v -94.000000 -6.200000 28.400000
v -94.000000 -6.200000 31.000000
v -102.000000 -6.200000 31.000000
v -102.000000 -6.000000 28.400000
v -94.000000 -6.000000 28.400000
v -94.000000 -6.000000 31.000000
v -102.000000 -6.000000 31.000000
v -102.000000 -6.200000 35.200000
v -94.000000 -6.200000 35.200000
v -94.000000 -6.200000 41.800000
v -102.000000 -6.200000 41.800000
v -102.000000 -6.000000 35.200000
v -94.000000 -6.000000 35.200000
v -94.000000 -6.000000 41.800000
v -102.000000 -6.000000 41.800000
v -94.000000 -6.200000 28.400000
v -92.350000 -6.200000 28.400000
v -92.350000 -6.200000 41.800000
v -94.000000 -6.200000 41.800000
v -94.000000 -6.000000 28.400000
v -92.350000 -6.000000 28.400000
v -92.350000 -6.000000 41.800000
v -94.000000 -6.000000 41.800000
v -92.350000 -6.200000 28.400000
v -92.200000 -6.200000 28.400000
v -92.200000 -6.200000 30.700000
v -92.350000 -6.200000 30.700000
v -92.350000 -6.000000 28.400000
v -92.200000 -6.000000 28.400000
v -92.200000 -6.000000 30.700000
v -92.350000 -6.000000 30.700000
v -92.350000 -6.200000 30.700000
v -92.200000 -6.200000 30.700000
v -92.200000 -6.200000 39.600000
v -92.350000 -6.200000 39.600000
v -92.350000 -6.000000 30.700000
v -92.200000 -6.000000 30.700000
v -92.200000 -6.000000 39.600000
v -92.350000 -6.000000 39.600000
v -92.350000 -6.200000 39.600000
v -92.200000 -6.200000 39.600000
v -92.200000 -6.200000 41.800000
v -92.350000 -6.200000 41.800000
v -92.350000 -6.000000 39.600000
v -92.200000 -6.000000 39.600000
v -92.200000 -6.000000 41.800000
v -92.350000 -6.000000 41.800000
v -102.200000 -6.200000 28.400000
v -102.000000 -6.200000 28.400000
v -102.000000 -6.000000 28.400000
v -102.200000 -6.000000 28.400000
v -102.000000 -6.200000 31.000000
v -102.000000 -6.200000 31.000000
v -102.000000 -6.000000 31.000000
v -102.000000 -6.000000 31.000000
v -102.000000 -6.200000 31.000000
v -102.000000 -6.200000 35.200000
v -102.000000 -6.000000 35.200000
v -102.000000 -6.000000 31.000000
v -102.000000 -6.200000 35.200000
v -102.000000 -6.200000 35.200000
v -102.000000 -6.000000 35.200000
v -102.000000 -6.000000 35.200000
v -102.000000 -6.200000 41.800000
v -102.200000 -6.200000 41.800000
v -102.200000 -6.000000 41.800000
v -102.000000 -6.000000 41.800000
v -102.200000 -6.200000 41.800000
v -102.200000 -6.200000 28.400000
v -102.200000 -6.000000 28.400000
v -102.200000 -6.000000 41.800000
v -102.000000 -6.200000 28.400000
v -94.000000 -6.200000 28.400000
v -94.000000 -6.000000 28.400000
v -102.000000 -6.000000 28.400000
v -94.000000 -6.200000 31.000000
v -102.000000 -6.200000 31.000000
v -102.000000 -6.000000 31.000000
v -94.000000 -6.000000 31.000000
v -102.000000 -6.200000 35.200000
v -94.000000 -6.200000 35.200000
v -94.000000 -6.000000 35.200000
v -102.000000 -6.000000 35.200000
v -94.000000 -6.200000 41.800000
v -102.000000 -6.200000 41.800000
v -102.000000 -6.000000 41.800000
v -94.000000 -6.000000 41.800000
v -94.000000 -6.200000 28.400000
v -92.350000 -6.200000 28.400000
v -92.350000 -6.000000 28.400000
v -94.000000 -6.000000 28.400000
v -92.350000 -6.200000 41.800000
v -94.000000 -6.200000 41.800000
v -94.000000 -6.000000 41.800000
v -92.350000 -6.000000 41.800000
v -94.000000 -6.200000 35.200000
v -94.000000 -6.200000 35.200000
v -94.000000 -6.000000 35.200000
v -94.000000 -6.000000 35.200000
v -94.000000 -6.200000 35.200000
v -94.000000 -6.200000 31.000000
v -94.000000 -6.000000 31.000000
v -94.000000 -6.000000 35.200000
v -94.000000 -6.200000 31.000000
v -94.000000 -6.200000 31.000000
v -94.000000 -6.000000 31.000000
v -94.000000 -6.000000 31.000000
v -92.350000 -6.200000 28.400000
v -92.200000 -6.200000 28.400000
v -92.200000 -6.000000 28.400000
v -92.350000 -6.000000 28.400000
v -92.200000 -6.200000 28.400000
v -92.200000 -6.200000 30.700000
v -92.200000 -6.000000 30.700000
v -92.200000 -6.000000 28.400000
v -92.200000 -6.200000 30.700000
v -92.200000 -6.200000 39.600000
v -92.200000 -6.000000 39.600000
v -92.200000 -6.000000 30.700000
v -92.200000 -6.200000 39.600000
v -92.200000 -6.200000 41.800000
v -92.200000 -6.000000 41.800000
v -92.200000 -6.000000 39.600000
v -92.200000 -6.200000 41.800000
v -92.350000 -6.200000 41.800000
v -92.350000 -6.000000 41.800000
v -92.200000 -6.000000 41.800000
vn 0.000000 -1.000000 0.000000
vn 0.000000 -1.000000 0.000000
vn 0.000000 1.000000 0.000000
vn 0.000000 1.000000 -0.000000
vn 0.000000 -1.000000 0.000000
vn 0.000000 -1.000000 0.000000
vn 0.000000 1.000000 0.000000
vn 0.000000 1.000000 -0.000000
vn 0.000000 -1.000000 0.000000
vn 0.000000 -1.000000 0.000000
vn 0.000000 1.000000 0.000000
vn 0.000000 1.000000 -0.000000
vn 0.000000 -1.000000 0.000000
vn 0.000000 -1.000000 0.000000
vn 0.000000 1.000000 0.000000
vn 0.000000 1.000000 -0.000000
vn 0.000000 -1.000000 0.000000
vn 0.000000 -1.000000 0.000000
vn 0.000000 1.000000 0.000000
vn 0.000000 1.000000 -0.000000
vn 0.000000 -1.000000 0.000000
vn 0.000000 -1.000000 0.000000
vn 0.000000 1.000000 0.000000
vn 0.000000 1.000000 -0.000000
vn 0.000000 -1.000000 0.000000
vn 0.000000 -1.000000 0.000000
vn 0.000000 1.000000 0.000000
vn 0.000000 1.000000 -0.000000
vn 0.000000 0.000000 -1.000000
vn 0.000000 0.000000 -1.000000
vn 0.000000 1.000000 0.000000
vn 0.000000 1.000000 0.000000
vn 1.000000 0.000000 0.000000
vn 1.000000 0.000000 0.000000
vn 0.000000 1.000000 0.000000
vn 0.000000 1.000000 0.000000
vn 0.000000 0.000000 1.000000
vn 0.000000 -0.000000 1.000000
vn -1.000000 0.000000 0.000000
vn -1.000000 0.000000 0.000000
vn 0.000000 0.000000 -1.000000
vn 0.000000 0.000000 -1.000000
vn 0.000000 0.000000 1.000000
vn 0.000000 -0.000000 1.000000
vn 0.000000 0.000000 -1.000000
vn 0.000000 0.000000 -1.000000
vn 0.000000 0.000000 1.000000
vn 0.000000 -0.000000 1.000000
vn 0.000000 0.000000 -1.000000
vn 0.000000 0.000000 -1.000000
vn 0.000000 0.000000 1.000000
vn 0.000000 -0.000000 1.000000
vn 0.000000 1.000000 0.000000
vn 0.000000 1.000000 0.000000
vn -1.000000 0.000000 0.000000
vn -1.000000 0.000000 0.000000
vn 0.000000 1.000000 0.000000
vn 0.000000 1.000000 0.000000
vn 0.000000 0.000000 -1.000000
vn 0.000000 0.000000 -1.000000
vn 1.000000 0.000000 0.000000
vn 1.000000 0.000000 0.000000
vn 1.000000 0.000000 0.000000
vn 1.000000 0.000000 0.000000
vn 1.000000 0.000000 0.000000
vn 1.000000 0.000000 0.000000
vn 0.000000 0.000000 1.000000
vn 0.000000 -0.000000 1.000000
f 4//1 1//1 2//1
f 2//2 3//2 4//2
f 8//3 6//3 5//3
f 6//4 8//4 7//4
f 12//5 9//5 10//5
f 10//6 11//6 12//6
f 16//7 14//7 13//7
f 14//8 16//8 15//8
f 20//9 17//9 18//9
f 18//10 19//10 20//10
f 24//11 22//11 21//11
f 22//12 24//12 23//12
f 28//13 25//13 26//13
f 26//14 27//14 28//14
f 32//15 30//15 29//15
f 30//16 32//16 31//16
f 36//17 33//17 34//17
f 34//18 35//18 36//18
f 40//19 38//19 37//19
f 38//20 40//20 39//20
f 44//21 41//21 42//21
f 42//22 43//22 44//22
f 48//23 46//23 45//23
f 46//24 48//24 47//24
f 52//25 49//25 50//25
f 50//26 51//26 52//26
f 56//27 54//27 53//27
f 54//28 56//28 55//28
f 57//29 59//29 58//29
f 57//30 60//30 59//30
f 61//31 63//31 62//31
f 61//32 64//32 63//32
f 65//33 67//33 66//33
f 65//34 68//34 67//34
f 69//35 71//35 70//35
f 69//36 72//36 71//36
f 73//37 75//37 74//37
f 73//38 76//38 75//38
f 77//39 79//39 78//39
f 77//40 80//40 79//40
f 81//41 83//41 82//41
f 81//42 84//42 83//42
f 85//43 87//43 86//43
f 85//44 88//44 87//44
f 89//45 91//45 90//45
f 89//46 92//46 91//46
f 93//47 95//47 94//47
f 93//48 96//48 95//48
f 97//49 99//49 98//49
f 97//50 100//50 99//50
f 101//51 103//51 102//51
f 101//52 104//52 103//52
f 105//53 107//53 106//53
f 105//54 108//54 107//54
f 109//55 111//55 110//55
f 109//56 112//56 111//56
f 113//57 115//57 114//57
f 113//58 116//58 115//58
f 117//59 119//59 118//59
f 117//60 120//60 119//60
f 121//61 123//61 122//61
f 121//62 124//62 123//62
f 125//63 127//63 126//63
f 125//64 128//64 127//64
f 129//65 131//65 130//65
f 129//66 132//66 131//66
f 133//67 135//67 134//67
f 133//68 136//68 135//68
o Floor_002_l_old_core_floor_07
usemtl Floor
v -92.200000 -6.200000 30.700000
v -88.900000 -6.200000 30.700000
v -88.900000 -6.200000 39.600000
v -92.200000 -6.200000 39.600000
v -92.200000 -6.000000 30.700000
v -88.900000 -6.000000 30.700000
v -88.900000 -6.000000 39.600000
v -92.200000 -6.000000 39.600000
v -92.200000 -6.200000 30.700000
v -88.900000 -6.200000 30.700000
v -88.900000 -6.000000 30.700000
v -92.200000 -6.000000 30.700000
v -88.900000 -6.200000 30.700000
v -88.900000 -6.200000 39.600000
v -88.900000 -6.000000 39.600000
v -88.900000 -6.000000 30.700000
v -88.900000 -6.200000 39.600000
v -92.200000 -6.200000 39.600000
v -92.200000 -6.000000 39.600000
v -88.900000 -6.000000 39.600000
v -92.200000 -6.200000 39.600000
v -92.200000 -6.200000 30.700000
v -92.200000 -6.000000 30.700000
v -92.200000 -6.000000 39.600000
vn 0.000000 -1.000000 0.000000
vn 0.000000 -1.000000 0.000000
vn 0.000000 1.000000 0.000000
vn 0.000000 1.000000 -0.000000
vn 0.000000 0.000000 -1.000000
vn 0.000000 0.000000 -1.000000
vn 1.000000 0.000000 0.000000
vn 1.000000 0.000000 0.000000
vn 0.000000 0.000000 1.000000
vn 0.000000 -0.000000 1.000000
vn -1.000000 0.000000 0.000000
vn -1.000000 0.000000 0.000000
f 140//69 137//69 138//69
f 138//70 139//70 140//70
f 144//71 142//71 141//71
f 142//72 144//72 143//72
f 145//73 147//73 146//73
f 145//74 148//74 147//74
f 149//75 151//75 150//75
f 149//76 152//76 151//76
f 153//77 155//77 154//77
f 153//78 156//78 155//78
f 157//79 159//79 158//79
f 157//80 160//80 159//80
o Floor_003_l_old_core_floor_06
usemtl Floor
v -88.900000 -6.200000 15.050000
v -88.750000 -6.200000 15.050000
v -88.750000 -6.200000 30.700000
v -88.900000 -6.200000 30.700000
v -88.900000 -6.000000 15.050000
v -88.750000 -6.000000 15.050000
v -88.750000 -6.000000 30.700000
v -88.900000 -6.000000 30.700000
v -88.900000 -6.200000 30.700000
v -88.750000 -6.200000 30.700000
v -88.750000 -6.200000 39.600000
v -88.900000 -6.200000 39.600000
v -88.900000 -6.000000 30.700000
v -88.750000 -6.000000 30.700000
v -88.750000 -6.000000 39.600000
v -88.900000 -6.000000 39.600000
v -88.900000 -6.200000 39.600000
v -88.750000 -6.200000 39.600000
v -88.750000 -6.200000 48.400000
v -88.900000 -6.200000 48.400000
v -88.900000 -6.000000 39.600000
v -88.750000 -6.000000 39.600000
v -88.750000 -6.000000 48.400000
v -88.900000 -6.000000 48.400000
v -88.750000 -6.200000 15.050000
v -81.256000 -6.200000 15.050000
v -81.256000 -6.200000 48.400000
v -88.750000 -6.200000 48.400000
v -88.750000 -6.000000 15.050000
v -81.256000 -6.000000 15.050000
v -81.256000 -6.000000 48.400000
v -88.750000 -6.000000 48.400000
v -81.256000 -6.200000 15.050000
v -81.106000 -6.200000 15.050000
v -81.106000 -6.200000 25.111000
v -81.256000 -6.200000 25.111000
v -81.256000 -6.000000 15.050000
v -81.106000 -6.000000 15.050000
v -81.106000 -6.000000 25.111000
v -81.256000 -6.000000 25.111000
v -81.256000 -6.200000 25.111000
v -81.106000 -6.200000 25.111000
v -81.106000 -6.200000 48.400000
v -81.256000 -6.200000 48.400000
v -81.256000 -6.000000 25.111000
v -81.106000 -6.000000 25.111000
v -81.106000 -6.000000 48.400000
v -81.256000 -6.000000 48.400000
v -88.900000 -6.200000 15.050000
v -88.750000 -6.200000 15.050000
v -88.750000 -6.000000 15.050000
v -88.900000 -6.000000 15.050000
v -88.900000 -6.200000 30.700000
v -88.900000 -6.200000 15.050000
v -88.900000 -6.000000 15.050000
v -88.900000 -6.000000 30.700000
v -88.900000 -6.200000 39.600000
v -88.900000 -6.200000 30.700000
v -88.900000 -6.000000 30.700000
v -88.900000 -6.000000 39.600000
v -88.750000 -6.200000 48.400000
v -88.900000 -6.200000 48.400000
v -88.900000 -6.000000 48.400000
v -88.750000 -6.000000 48.400000
v -88.900000 -6.200000 48.400000
v -88.900000 -6.200000 39.600000
v -88.900000 -6.000000 39.600000
v -88.900000 -6.000000 48.400000
v -88.750000 -6.200000 15.050000
v -81.256000 -6.200000 15.050000
v -81.256000 -6.000000 15.050000
v -88.750000 -6.000000 15.050000
v -81.256000 -6.200000 48.400000
v -88.750000 -6.200000 48.400000
v -88.750000 -6.000000 48.400000
v -81.256000 -6.000000 48.400000
v -81.256000 -6.200000 15.050000
v -81.106000 -6.200000 15.050000
v -81.106000 -6.000000 15.050000
v -81.256000 -6.000000 15.050000
v -81.106000 -6.200000 15.050000
v -81.106000 -6.200000 25.111000
v -81.106000 -6.000000 25.111000
v -81.106000 -6.000000 15.050000
v -81.106000 -6.200000 25.111000
v -81.106000 -6.200000 48.400000
v -81.106000 -6.000000 48.400000
v -81.106000 -6.000000 25.111000
v -81.106000 -6.200000 48.400000
v -81.256000 -6.200000 48.400000
v -81.256000 -6.000000 48.400000
v -81.106000 -6.000000 48.400000
vn 0.000000 -1.000000 0.000000
vn 0.000000 -1.000000 0.000000
vn 0.000000 1.000000 0.000000
vn 0.000000 1.000000 -0.000000
vn 0.000000 -1.000000 0.000000
vn 0.000000 -1.000000 0.000000
vn 0.000000 1.000000 0.000000
vn 0.000000 1.000000 -0.000000
vn 0.000000 -1.000000 0.000000
vn 0.000000 -1.000000 0.000000
vn 0.000000 1.000000 0.000000
vn 0.000000 1.000000 -0.000000
vn 0.000000 -1.000000 0.000000
vn 0.000000 -1.000000 0.000000
vn 0.000000 1.000000 0.000000
vn 0.000000 1.000000 -0.000000
vn 0.000000 -1.000000 0.000000
vn 0.000000 -1.000000 0.000000
vn 0.000000 1.000000 0.000000
vn 0.000000 1.000000 -0.000000
vn 0.000000 -1.000000 0.000000
vn 0.000000 -1.000000 0.000000
vn 0.000000 1.000000 0.000000
vn 0.000000 1.000000 -0.000000
vn 0.000000 0.000000 -1.000000
vn 0.000000 0.000000 -1.000000
vn -1.000000 0.000000 0.000000
vn -1.000000 0.000000 0.000000
vn -1.000000 0.000000 0.000000
vn -1.000000 0.000000 0.000000
vn 0.000000 0.000000 1.000000
vn 0.000000 -0.000000 1.000000
vn -1.000000 0.000000 0.000000
vn -1.000000 0.000000 0.000000
vn 0.000000 0.000000 -1.000000
vn 0.000000 0.000000 -1.000000
vn 0.000000 0.000000 1.000000
vn 0.000000 -0.000000 1.000000
vn 0.000000 0.000000 -1.000000
vn 0.000000 0.000000 -1.000000
vn 1.000000 0.000000 0.000000
vn 1.000000 0.000000 0.000000
vn 1.000000 0.000000 0.000000
vn 1.000000 0.000000 0.000000
vn 0.000000 0.000000 1.000000
vn 0.000000 -0.000000 1.000000
f 164//81 161//81 162//81
f 162//82 163//82 164//82
f 168//83 166//83 165//83
f 166//84 168//84 167//84
f 172//85 169//85 170//85
f 170//86 171//86 172//86
f 176//87 174//87 173//87
f 174//88 176//88 175//88
f 180//89 177//89 178//89
f 178//90 179//90 180//90
f 184//91 182//91 181//91
f 182//92 184//92 183//92
f 188//93 185//93 186//93
f 186//94 187//94 188//94
f 192//95 190//95 189//95
f 190//96 192//96 191//96
f 196//97 193//97 194//97
f 194//98 195//98 196//98
f 200//99 198//99 197//99
f 198//100 200//100 199//100
f 204//101 201//101 202//101
f 202//102 203//102 204//102
f 208//103 206//103 205//103
f 206//104 208//104 207//104
f 209//105 211//105 210//105
f 209//106 212//106 211//106
f 213//107 215//107 214//107
f 213//108 216//108 215//108
f 217//109 219//109 218//109
f 217//110 220//110 219//110
f 221//111 223//111 222//111
f 221//112 224//112 223//112
f 225//113 227//113 226//113
f 225//114 228//114 227//114
f 229//115 231//115 230//115
f 229//116 232//116 231//116
f 233//117 235//117 234//117
f 233//118 236//118 235//118
f 237//119 239//119 238//119
f 237//120 240//120 239//120
f 241//121 243//121 242//121
f 241//122 244//122 243//122
f 245//123 247//123 246//123
f 245//124 248//124 247//124
f 249//125 251//125 250//125
f 249//126 252//126 251//126
o Floor_004_l_old_core_floor_05
usemtl Floor
v -81.106000 -6.200000 6.741000
v -80.956000 -6.200000 6.741000
v -80.956000 -6.200000 15.050000
v -81.106000 -6.200000 15.050000
v -81.106000 -6.000000 6.741000
v -80.956000 -6.000000 6.741000
v -80.956000 -6.000000 15.050000
v -81.106000 -6.000000 15.050000
v -81.106000 -6.200000 15.050000
v -80.956000 -6.200000 15.050000
v -80.956000 -6.200000 25.111000
v -81.106000 -6.200000 25.111000
v -81.106000 -6.000000 15.050000
v -80.956000 -6.000000 15.050000
v -80.956000 -6.000000 25.111000
v -81.106000 -6.000000 25.111000
v -80.956000 -6.200000 6.741000
v -61.261000 -6.200000 6.741000
v -61.261000 -6.200000 25.111000
v -80.956000 -6.200000 25.111000
v -80.956000 -6.000000 6.741000
v -61.261000 -6.000000 6.741000
v -61.261000 -6.000000 25.111000
v -80.956000 -6.000000 25.111000
v -81.106000 -6.200000 6.741000
v -80.956000 -6.200000 6.741000
v -80.956000 -6.000000 6.741000
v -81.106000 -6.000000 6.741000
v -81.106000 -6.200000 15.050000
v -81.106000 -6.200000 6.741000
v -81.106000 -6.000000 6.741000
v -81.106000 -6.000000 15.050000
v -80.956000 -6.200000 25.111000
v -81.106000 -6.200000 25.111000
v -81.106000 -6.000000 25.111000
v -80.956000 -6.000000 25.111000
v -81.106000 -6.200000 25.111000
v -81.106000 -6.200000 15.050000
v -81.106000 -6.000000 15.050000
v -81.106000 -6.000000 25.111000
v -80.956000 -6.200000 6.741000
v -61.261000 -6.200000 6.741000
v -61.261000 -6.000000 6.741000
v -80.956000 -6.000000 6.741000
v -61.261000 -6.200000 6.741000
v -61.261000 -6.200000 25.111000
v -61.261000 -6.000000 25.111000
v -61.261000 -6.000000 6.741000
v -61.261000 -6.200000 25.111000
v -80.956000 -6.200000 25.111000
v -80.956000 -6.000000 25.111000
v -61.261000 -6.000000 25.111000
vn 0.000000 -1.000000 0.000000
vn 0.000000 -1.000000 0.000000
vn 0.000000 1.000000 0.000000
vn 0.000000 1.000000 -0.000000
vn 0.000000 -1.000000 0.000000
vn 0.000000 -1.000000 0.000000
vn 0.000000 1.000000 0.000000
vn 0.000000 1.000000 -0.000000
vn 0.000000 -1.000000 0.000000
vn 0.000000 -1.000000 0.000000
vn 0.000000 1.000000 0.000000
vn 0.000000 1.000000 -0.000000
vn 0.000000 0.000000 -1.000000
vn 0.000000 0.000000 -1.000000
vn -1.000000 0.000000 0.000000
vn -1.000000 0.000000 0.000000
vn 0.000000 0.000000 1.000000
vn 0.000000 -0.000000 1.000000
vn -1.000000 0.000000 0.000000
vn -1.000000 0.000000 0.000000
vn 0.000000 0.000000 -1.000000
vn 0.000000 0.000000 -1.000000
vn 1.000000 0.000000 0.000000
vn 1.000000 0.000000 0.000000
vn 0.000000 0.000000 1.000000
vn 0.000000 -0.000000 1.000000
f 256//127 253//127 254//127
f 254//128 255//128 256//128
f 260//129 258//129 257//129
f 258//130 260//130 259//130
f 264//131 261//131 262//131
f 262//132 263//132 264//132
f 268//133 266//133 265//133
f 266//134 268//134 267//134
f 272//135 269//135 270//135
f 270//136 271//136 272//136
f 276//137 274//137 273//137
f 274//138 276//138 275//138
f 277//139 279//139 278//139
f 277//140 280//140 279//140
f 281//141 283//141 282//141
f 281//142 284//142 283//142
f 285//143 287//143 286//143
f 285//144 288//144 287//144
f 289//145 291//145 290//145
f 289//146 292//146 291//146
f 293//147 295//147 294//147
f 293//148 296//148 295//148
f 297//149 299//149 298//149
f 297//150 300//150 299//150
f 301//151 303//151 302//151
f 301//152 304//152 303//152
o Floor_005_l_old_core_floor_05
usemtl Floor
v -61.261000 -6.200000 6.741000
v -61.111000 -6.200000 6.741000
v -61.111000 -6.200000 10.700000
v -61.261000 -6.200000 10.700000
v -61.261000 -6.000000 6.741000
v -61.111000 -6.000000 6.741000
v -61.111000 -6.000000 10.700000
v -61.261000 -6.000000 10.700000
v -61.261000 -6.200000 6.741000
v -61.111000 -6.200000 6.741000
v -61.111000 -6.000000 6.741000
v -61.261000 -6.000000 6.741000
v -61.111000 -6.200000 6.741000
v -61.111000 -6.200000 10.700000
v -61.111000 -6.000000 10.700000
v -61.111000 -6.000000 6.741000
v -61.111000 -6.200000 10.700000
v -61.261000 -6.200000 10.700000
v -61.261000 -6.000000 10.700000
v -61.111000 -6.000000 10.700000
v -61.261000 -6.200000 10.700000
v -61.261000 -6.200000 6.741000
v -61.261000 -6.000000 6.741000
v -61.261000 -6.000000 10.700000
vn 0.000000 -1.000000 0.000000
vn 0.000000 -1.000000 0.000000
vn 0.000000 1.000000 0.000000
vn 0.000000 1.000000 -0.000000
vn 0.000000 0.000000 -1.000000
vn 0.000000 0.000000 -1.000000
vn 1.000000 0.000000 0.000000
vn 1.000000 0.000000 0.000000
vn 0.000000 0.000000 1.000000
vn 0.000000 -0.000000 1.000000
vn -1.000000 0.000000 0.000000
vn -1.000000 0.000000 0.000000
f 308//153 305//153 306//153
f 306//154 307//154 308//154
f 312//155 310//155 309//155
f 310//156 312//156 311//156
f 313//157 315//157 314//157
f 313//158 316//158 315//158
f 317//159 319//159 318//159
f 317//160 320//160 319//160
f 321//161 323//161 322//161
f 321//162 324//162 323//162
f 325//163 327//163 326//163
f 325//164 328//164 327//164
o Floor_006_l_old_core_floor_05
usemtl Floor
v -61.261000 -6.200000 10.700000
v -61.111000 -6.200000 10.700000
v -61.111000 -6.200000 15.050000
v -61.261000 -6.200000 15.050000
v -61.261000 -6.000000 10.700000
v -61.111000 -6.000000 10.700000
v -61.111000 -6.000000 15.050000
v -61.261000 -6.000000 15.050000
v -61.261000 -6.200000 10.700000
v -61.111000 -6.200000 10.700000
v -61.111000 -6.000000 10.700000
v -61.261000 -6.000000 10.700000
v -61.111000 -6.200000 10.700000
v -61.111000 -6.200000 15.050000
v -61.111000 -6.000000 15.050000
v -61.111000 -6.000000 10.700000
v -61.111000 -6.200000 15.050000
v -61.261000 -6.200000 15.050000
v -61.261000 -6.000000 15.050000
v -61.111000 -6.000000 15.050000
v -61.261000 -6.200000 15.050000
v -61.261000 -6.200000 10.700000
v -61.261000 -6.000000 10.700000
v -61.261000 -6.000000 15.050000
vn 0.000000 -1.000000 0.000000
vn 0.000000 -1.000000 0.000000
vn 0.000000 1.000000 0.000000
vn 0.000000 1.000000 -0.000000
vn 0.000000 0.000000 -1.000000
vn 0.000000 0.000000 -1.000000
vn 1.000000 0.000000 0.000000
vn 1.000000 0.000000 0.000000
vn 0.000000 0.000000 1.000000
vn 0.000000 -0.000000 1.000000
vn -1.000000 0.000000 0.000000
vn -1.000000 0.000000 0.000000
f 332//165 329//165 330//165
f 330//166 331//166 332//166
f 336//167 334//167 333//167
f 334//168 336//168 335//168
f 337//169 339//169 338//169
f 337//170 340//170 339//170
f 341//171 343//171 342//171
f 341//172 344//172 343//172
f 345//173 347//173 346//173
f 345//174 348//174 347//174
f 349//175 351//175 350//175
f 349//176 352//176 351//176
o Floor_007_l_old_core_floor_05
usemtl Floor
v -61.261000 -6.200000 15.050000
v -61.111000 -6.200000 15.050000
v -61.111000 -6.200000 25.111000
v -61.261000 -6.200000 25.111000
v -61.261000 -6.000000 15.050000
v -61.111000 -6.000000 15.050000
v -61.111000 -6.000000 25.111000
v -61.261000 -6.000000 25.111000
v -61.261000 -6.200000 15.050000
v -61.111000 -6.200000 15.050000
v -61.111000 -6.000000 15.050000
v -61.261000 -6.000000 15.050000
v -61.111000 -6.200000 15.050000
v -61.111000 -6.200000 25.111000
v -61.111000 -6.000000 25.111000
v -61.111000 -6.000000 15.050000
v -61.111000 -6.200000 25.111000
v -61.261000 -6.200000 25.111000
v -61.261000 -6.000000 25.111000
v -61.111000 -6.000000 25.111000
v -61.261000 -6.200000 25.111000
v -61.261000 -6.200000 15.050000
v -61.261000 -6.000000 15.050000
v -61.261000 -6.000000 25.111000
vn 0.000000 -1.000000 0.000000
vn 0.000000 -1.000000 0.000000
vn 0.000000 1.000000 0.000000
vn 0.000000 1.000000 -0.000000
vn 0.000000 0.000000 -1.000000
vn 0.000000 0.000000 -1.000000
vn 1.000000 0.000000 0.000000
vn 1.000000 0.000000 0.000000
vn 0.000000 0.000000 1.000000
vn 0.000000 -0.000000 1.000000
vn -1.000000 0.000000 0.000000
vn -1.000000 0.000000 0.000000
f 356//177 353//177 354//177
f 354//178 355//178 356//178
f 360//179 358//179 357//179
f 358//180 360//180 359//180
f 361//181 363//181 362//181
f 361//182 364//182 363//182
f 365//183 367//183 366//183
f 365//184 368//184 367//184
f 369//185 371//185 370//185
f 369//186 372//186 371//186
f 373//187 375//187 374//187
f 373//188 376//188 375//188
o Floor_008_l_old_core_floor_01
usemtl Floor
v -78.333000 -6.200000 -9.333000
v -66.817000 -6.200000 -9.333000
v -66.817000 -6.200000 2.804000
v -78.333000 -6.200000 2.804000
v -78.333000 -6.000000 -9.333000
v -66.817000 -6.000000 -9.333000
v -66.817000 -6.000000 2.804000
v -78.333000 -6.000000 2.804000
v -66.817000 -6.200000 -9.333000
v -66.667000 -6.200000 -9.333000
v -66.667000 -6.200000 -2.772000
v -66.817000 -6.200000 -2.772000
v -66.817000 -6.000000 -9.333000
v -66.667000 -6.000000 -9.333000
v -66.667000 -6.000000 -2.772000
v -66.817000 -6.000000 -2.772000
v -66.817000 -6.200000 -2.772000
v -66.667000 -6.200000 -2.772000
v -66.667000 -6.200000 2.804000
v -66.817000 -6.200000 2.804000
v -66.817000 -6.000000 -2.772000
v -66.667000 -6.000000 -2.772000
v -66.667000 -6.000000 2.804000
v -66.817000 -6.000000 2.804000
v -78.333000 -6.200000 -9.333000
v -66.817000 -6.200000 -9.333000
v -66.817000 -6.000000 -9.333000
v -78.333000 -6.000000 -9.333000
v -66.817000 -6.200000 2.804000
v -78.333000 -6.200000 2.804000
v -78.333000 -6.000000 2.804000
v -66.817000 -6.000000 2.804000
v -78.333000 -6.200000 2.804000
v -78.333000 -6.200000 -9.333000
v -78.333000 -6.000000 -9.333000
v -78.333000 -6.000000 2.804000
v -66.817000 -6.200000 -9.333000
v -66.667000 -6.200000 -9.333000
v -66.667000 -6.000000 -9.333000
v -66.817000 -6.000000 -9.333000
v -66.667000 -6.200000 -9.333000
v -66.667000 -6.200000 -2.772000
v -66.667000 -6.000000 -2.772000
v -66.667000 -6.000000 -9.333000
v -66.667000 -6.200000 -2.772000
v -66.667000 -6.200000 2.804000
v -66.667000 -6.000000 2.804000
v -66.667000 -6.000000 -2.772000
v -66.667000 -6.200000 2.804000
v -66.817000 -6.200000 2.804000
v -66.817000 -6.000000 2.804000
v -66.667000 -6.000000 2.804000
vn 0.000000 -1.000000 0.000000
vn 0.000000 -1.000000 0.000000
vn 0.000000 1.000000 0.000000
vn 0.000000 1.000000 -0.000000
vn 0.000000 -1.000000 0.000000
vn 0.000000 -1.000000 0.000000
vn 0.000000 1.000000 0.000000
vn 0.000000 1.000000 -0.000000
vn 0.000000 -1.000000 0.000000
vn 0.000000 -1.000000 0.000000
vn 0.000000 1.000000 0.000000
vn 0.000000 1.000000 -0.000000
vn 0.000000 0.000000 -1.000000
vn 0.000000 0.000000 -1.000000
vn 0.000000 0.000000 1.000000
vn 0.000000 -0.000000 1.000000
vn -1.000000 0.000000 0.000000
vn -1.000000 0.000000 0.000000
vn 0.000000 0.000000 -1.000000
vn 0.000000 0.000000 -1.000000
vn 1.000000 0.000000 0.000000
vn 1.000000 0.000000 0.000000
vn 1.000000 0.000000 0.000000
vn 1.000000 0.000000 0.000000
vn 0.000000 0.000000 1.000000
vn 0.000000 -0.000000 1.000000
f 380//189 377//189 378//189
f 378//190 379//190 380//190
f 384//191 382//191 381//191
f 382//192 384//192 383//192
f 388//193 385//193 386//193
f 386//194 387//194 388//194
f 392//195 390//195 389//195
f 390//196 392//196 391//196
f 396//197 393//197 394//197
f 394//198 395//198 396//198
f 400//199 398//199 397//199
f 398//200 400//200 399//200
f 401//201 403//201 402//201
f 401//202 404//202 403//202
f 405//203 407//203 406//203
f 405//204 408//204 407//204
f 409//205 411//205 410//205
f 409//206 412//206 411//206
f 413//207 415//207 414//207
f 413//208 416//208 415//208
f 417//209 419//209 418//209
f 417//210 420//210 419//210
f 421//211 423//211 422//211
f 421//212 424//212 423//212
f 425//213 427//213 426//213
f 425//214 428//214 427//214
o Floor_009_l_old_core_floor_04
usemtl Floor
v -72.778000 -6.200000 2.804000
v -67.222000 -6.200000 2.804000
v -67.222000 -6.200000 6.741000
v -72.778000 -6.200000 6.741000
v -72.778000 -6.000000 2.804000
v -67.222000 -6.000000 2.804000
v -67.222000 -6.000000 6.741000
v -72.778000 -6.000000 6.741000
v -72.778000 -6.200000 2.804000
v -67.222000 -6.200000 2.804000
v -67.222000 -6.000000 2.804000
v -72.778000 -6.000000 2.804000
v -67.222000 -6.200000 2.804000
v -67.222000 -6.200000 6.741000
v -67.222000 -6.000000 6.741000
v -67.222000 -6.000000 2.804000
v -67.222000 -6.200000 6.741000
v -72.778000 -6.200000 6.741000
v -72.778000 -6.000000 6.741000
v -67.222000 -6.000000 6.741000
v -72.778000 -6.200000 6.741000
v -72.778000 -6.200000 2.804000
v -72.778000 -6.000000 2.804000
v -72.778000 -6.000000 6.741000
vn 0.000000 -1.000000 0.000000
vn 0.000000 -1.000000 0.000000
vn 0.000000 1.000000 0.000000
vn 0.000000 1.000000 -0.000000
vn 0.000000 0.000000 -1.000000
vn 0.000000 0.000000 -1.000000
vn 1.000000 0.000000 0.000000
vn 1.000000 0.000000 0.000000
vn 0.000000 0.000000 1.000000
vn 0.000000 -0.000000 1.000000
vn -1.000000 0.000000 0.000000
vn -1.000000 0.000000 0.000000
f 432//215 429//215 430//215
f 430//216 431//216 432//216
f 436//217 434//217 433//217
f 434//218 436//218 435//218
f 437//219 439//219 438//219
f 437//220 440//220 439//220
f 441//221 443//221 442//221
f 441//222 444//222 443//222
f 445//223 447//223 446//223
f 445//224 448//224 447//224
f 449//225 451//225 450//225
f 449//226 452//226 451//226
o Floor_010_l_old_core_floor_02
usemtl Floor
v -66.667000 -6.200000 -9.333000
v -61.667000 -6.200000 -9.333000
v -61.667000 -6.200000 -2.772000
v -66.667000 -6.200000 -2.772000
v -66.667000 -6.000000 -9.333000
v -61.667000 -6.000000 -9.333000
v -61.667000 -6.000000 -2.772000
v -66.667000 -6.000000 -2.772000
v -66.667000 -6.200000 -9.333000
v -61.667000 -6.200000 -9.333000
v -61.667000 -6.000000 -9.333000
v -66.667000 -6.000000 -9.333000
v -61.667000 -6.200000 -9.333000
v -61.667000 -6.200000 -2.772000
v -61.667000 -6.000000 -2.772000
v -61.667000 -6.000000 -9.333000
v -61.667000 -6.200000 -2.772000
v -66.667000 -6.200000 -2.772000
v -66.667000 -6.000000 -2.772000
v -61.667000 -6.000000 -2.772000
v -66.667000 -6.200000 -2.772000
v -66.667000 -6.200000 -9.333000
v -66.667000 -6.000000 -9.333000
v -66.667000 -6.000000 -2.772000
vn 0.000000 -1.000000 0.000000
vn 0.000000 -1.000000 0.000000
vn 0.000000 1.000000 0.000000
vn 0.000000 1.000000 -0.000000
vn 0.000000 0.000000 -1.000000
vn 0.000000 0.000000 -1.000000
vn 1.000000 0.000000 0.000000
vn 1.000000 0.000000 0.000000
vn 0.000000 0.000000 1.000000
vn 0.000000 -0.000000 1.000000
vn -1.000000 0.000000 0.000000
vn -1.000000 0.000000 0.000000
f 456//227 453//227 454//227
f 454//228 455//228 456//228
f 460//229 458//229 457//229
f 458//230 460//230 459//230
f 461//231 463//231 462//231
f 461//232 464//232 463//232
f 465//233 467//233 466//233
f 465//234 468//234 467//234
f 469//235 471//235 470//235
f 469//236 472//236 471//236
f 473//237 475//237 474//237
f 473//238 476//238 475//238
o Floor_011_l_old_core_floor_03
usemtl Floor
v -66.667000 -6.200000 -2.772000
v -61.667000 -6.200000 -2.772000
v -61.667000 -6.200000 2.804000
v -66.667000 -6.200000 2.804000
v -66.667000 -6.000000 -2.772000
v -61.667000 -6.000000 -2.772000
v -61.667000 -6.000000 2.804000
v -66.667000 -6.000000 2.804000
v -66.667000 -6.200000 -2.772000
v -61.667000 -6.200000 -2.772000
v -61.667000 -6.000000 -2.772000
v -66.667000 -6.000000 -2.772000
v -61.667000 -6.200000 -2.772000
v -61.667000 -6.200000 2.804000
v -61.667000 -6.000000 2.804000
v -61.667000 -6.000000 -2.772000
v -61.667000 -6.200000 2.804000
v -66.667000 -6.200000 2.804000
v -66.667000 -6.000000 2.804000
v -61.667000 -6.000000 2.804000
v -66.667000 -6.200000 2.804000
v -66.667000 -6.200000 -2.772000
v -66.667000 -6.000000 -2.772000
v -66.667000 -6.000000 2.804000
vn 0.000000 -1.000000 0.000000
vn 0.000000 -1.000000 0.000000
vn 0.000000 1.000000 0.000000
vn 0.000000 1.000000 -0.000000
vn 0.000000 0.000000 -1.000000
vn 0.000000 0.000000 -1.000000
vn 1.000000 0.000000 0.000000
vn 1.000000 0.000000 0.000000
vn 0.000000 0.000000 1.000000
vn 0.000000 -0.000000 1.000000
vn -1.000000 0.000000 0.000000
vn -1.000000 0.000000 0.000000
f 480//239 477//239 478//239
f 478//240 479//240 480//240
f 484//241 482//241 481//241
f 482//242 484//242 483//242
f 485//243 487//243 486//243
f 485//244 488//244 487//244
f 489//245 491//245 490//245
f 489//246 492//246 491//246
f 493//247 495//247 494//247
f 493//248 496//248 495//248
f 497//249 499//249 498//249
f 497//250 500//250 499//250
o Floor_012_l_old_core_floor_09
usemtl Floor
v -61.111000 -6.200000 10.700000
v -60.961000 -6.200000 10.700000
v -60.961000 -6.200000 15.050000
v -61.111000 -6.200000 15.050000
v -61.111000 -6.000000 10.700000
v -60.961000 -6.000000 10.700000
v -60.961000 -6.000000 15.050000
v -61.111000 -6.000000 15.050000
v -61.111000 -6.200000 10.700000
v -60.961000 -6.200000 10.700000
v -60.961000 -6.000000 10.700000
v -61.111000 -6.000000 10.700000
v -60.961000 -6.200000 10.700000
v -60.961000 -6.200000 15.050000
v -60.961000 -6.000000 15.050000
v -60.961000 -6.000000 10.700000
v -60.961000 -6.200000 15.050000
v -61.111000 -6.200000 15.050000
v -61.111000 -6.000000 15.050000
v -60.961000 -6.000000 15.050000
v -61.111000 -6.200000 15.050000
v -61.111000 -6.200000 10.700000
v -61.111000 -6.000000 10.700000
v -61.111000 -6.000000 15.050000
vn 0.000000 -1.000000 0.000000
vn 0.000000 -1.000000 0.000000
vn 0.000000 1.000000 0.000000
vn 0.000000 1.000000 -0.000000
vn 0.000000 0.000000 -1.000000
vn 0.000000 0.000000 -1.000000
vn 1.000000 0.000000 0.000000
vn 1.000000 0.000000 0.000000
vn 0.000000 0.000000 1.000000
vn 0.000000 -0.000000 1.000000
vn -1.000000 0.000000 0.000000
vn -1.000000 0.000000 0.000000
f 504//251 501//251 502//251
f 502//252 503//252 504//252
f 508//253 506//253 505//253
f 506//254 508//254 507//254
f 509//255 511//255 510//255
f 509//256 512//256 511//256
f 513//257 515//257 514//257
f 513//258 516//258 515//258
f 517//259 519//259 518//259
f 517//260 520//260 519//260
f 521//261 523//261 522//261
f 521//262 524//262 523//262
o Floor_013_l_old_core_floor_09
usemtl Floor
v -60.961000 -6.200000 10.700000
v -58.890000 -6.200000 10.700000
v -58.890000 -6.200000 15.050000
v -60.961000 -6.200000 15.050000
v -60.961000 -6.000000 10.700000
v -58.890000 -6.000000 10.700000
v -58.890000 -6.000000 15.050000
v -60.961000 -6.000000 15.050000
v -60.961000 -6.200000 10.700000
v -58.890000 -6.200000 10.700000
v -58.890000 -6.000000 10.700000
v -60.961000 -6.000000 10.700000
v -58.890000 -6.200000 10.700000
v -58.890000 -6.200000 15.050000
v -58.890000 -6.000000 15.050000
v -58.890000 -6.000000 10.700000
v -58.890000 -6.200000 15.050000
v -60.961000 -6.200000 15.050000
v -60.961000 -6.000000 15.050000
v -58.890000 -6.000000 15.050000
v -60.961000 -6.200000 15.050000
v -60.961000 -6.200000 10.700000
v -60.961000 -6.000000 10.700000
v -60.961000 -6.000000 15.050000
vn 0.000000 -1.000000 0.000000
vn 0.000000 -1.000000 0.000000
vn 0.000000 1.000000 0.000000
vn 0.000000 1.000000 -0.000000
vn 0.000000 0.000000 -1.000000
vn 0.000000 0.000000 -1.000000
vn 1.000000 0.000000 0.000000
vn 1.000000 0.000000 0.000000
vn 0.000000 0.000000 1.000000
vn 0.000000 -0.000000 1.000000
vn -1.000000 0.000000 0.000000
vn -1.000000 0.000000 0.000000
f 528//263 525//263 526//263
f 526//264 527//264 528//264
f 532//265 530//265 529//265
f 530//266 532//266 531//266
f 533//267 535//267 534//267
f 533//268 536//268 535//268
f 537//269 539//269 538//269
f 537//270 540//270 539//270
f 541//271 543//271 542//271
f 541//272 544//272 543//272
f 545//273 547//273 546//273
f 545//274 548//274 547//274
