# Generated by svg_to_godot3d
mtllib geometry.mtl
s off
o Wall_10_w_b9b87c8299
usemtl Wall
v 24.350000 -3.200000 11.175000
v 24.350000 -3.200000 12.975000
v 24.350000 -2.200000 12.975000
v 24.350000 -2.200000 11.175000
v 24.050000 -3.200000 11.175000
v 24.050000 -3.200000 12.975000
v 24.050000 -2.200000 12.975000
v 24.050000 -2.200000 11.175000
vn 1.000000 0.000000 0.000000
vn 1.000000 0.000000 0.000000
vn -1.000000 0.000000 0.000000
vn -1.000000 0.000000 0.000000
vn 0.000000 -1.000000 0.000000
vn 0.000000 -1.000000 0.000000
vn 0.000000 1.000000 0.000000
vn 0.000000 1.000000 -0.000000
vn 0.000000 0.000000 -1.000000
vn 0.000000 0.000000 -1.000000
vn 0.000000 -0.000000 1.000000
vn 0.000000 0.000000 1.000000
f 1//1 3//1 2//1
f 1//2 4//2 3//2
f 5//3 6//3 7//3
f 5//4 7//4 8//4
f 1//5 2//5 6//5
f 1//6 6//6 5//6
f 4//7 8//7 7//7
f 4//8 7//8 3//8
f 1//9 5//9 8//9
f 1//10 8//10 4//10
f 2//11 3//11 7//11
f 2//12 7//12 6//12
