o Landing_01_East_01_Midrail
s off
v -0.0175 -0.0175 1.377174
v 0.0175 -0.0175 1.377174
v 0.0175 0.0175 1.377174
v -0.0175 0.0175 1.377174
v -0.0175 -0.0175 -1.377174
v -0.0175 -0.0175 1.342174
v -0.0175 0.0175 1.342174
v -0.0175 0.0175 -1.377174
v 0.0175 -0.0175 -1.377174
v 0.0175 0.0175 -1.377174
v -0.0175 0.0175 -1.356174
v 0.0175 0.0175 -1.356174
v -0.0175 0.0175 -1.367479
v 0.0175 0.0175 -1.367479
f 1 2 3
f 1 3 4
f 5 6 7
f 5 7 8
f 9 10 3
f 9 3 2
f 5 9 2
f 5 2 1
f 11 4 3
f 11 3 12
f 13 11 12
f 13 12 14
