o Landing_01_South_01_Handrail_Transition_02
s off
v -0.025 -0.025 0.053462
v 0.025 -0.025 0.053462
v 0.025 0.025 0.053462
v -0.025 0.025 0.053462
v -0.025 -0.025 -0.053462
v -0.025 -0.025 0.003462
v -0.025 0.025 0.003462
v -0.025 0.025 -0.053462
v 0.025 -0.025 -0.053462
v 0.025 0.025 -0.053462
v -0.025 0.025 -0.023462
v 0.025 0.025 -0.023462
v -0.025 0.025 -0.039613
v 0.025 0.025 -0.039613
f 1 2 3
f 1 3 4
f 5 6 7
f 5 7 8
f 9 10 3
f 9 3 2
f 5 9 2
f 5 2 1
f 11 4 3
f 11 3 12
f 13 11 12
f 13 12 14
