o Landing_01_South_01_Midrail_Transition_01
s off
v -0.0175 -0.0175 0.037424
v 0.0175 -0.0175 0.037424
v 0.0175 0.0175 0.037424
v -0.0175 0.0175 0.037424
v -0.0175 -0.0175 -0.037424
v -0.0175 0.0175 -0.037424
v 0.0175 -0.0175 0.002424
v 0.0175 -0.0175 -0.037424
v 0.0175 0.0175 -0.037424
v 0.0175 0.0175 0.002424
v -0.0175 -0.0175 -0.016424
v 0.0175 -0.0175 -0.016424
v -0.0175 -0.0175 -0.027729
v 0.0175 -0.0175 -0.027729
f 1 2 3
f 1 3 4
f 5 1 4
f 5 4 6
f 7 8 9
f 7 9 10
f 11 12 2
f 11 2 1
f 11 13 14
f 11 14 12
f 6 4 3
f 6 3 9
