# Generated by svg_to_godot3d
mtllib geometry.mtl
s off
o Ceiling_001_l_chamber_2_ceiling_04
usemtl Ceiling
v -75.020000 -1.000000 48.440000
v -72.200000 -1.000000 48.440000
v -72.200000 -1.000000 54.010000
v -75.020000 -1.000000 54.010000
v -75.020000 -0.800000 48.440000
v -72.200000 -0.800000 48.440000
v -72.200000 -0.800000 54.010000
v -75.020000 -0.800000 54.010000
v -75.020000 -1.000000 48.440000
v -72.200000 -1.000000 48.440000
v -72.200000 -0.800000 48.440000
v -75.020000 -0.800000 48.440000
v -72.200000 -1.000000 48.440000
v -72.200000 -1.000000 54.010000
v -72.200000 -0.800000 54.010000
v -72.200000 -0.800000 48.440000
v -72.200000 -1.000000 54.010000
v -75.020000 -1.000000 54.010000
v -75.020000 -0.800000 54.010000
v -72.200000 -0.800000 54.010000
v -75.020000 -1.000000 54.010000
v -75.020000 -1.000000 48.440000
v -75.020000 -0.800000 48.440000
v -75.020000 -0.800000 54.010000
vn 0.000000 -1.000000 0.000000
vn 0.000000 -1.000000 0.000000
vn 0.000000 1.000000 0.000000
vn 0.000000 1.000000 -0.000000
vn 0.000000 0.000000 -1.000000
vn 0.000000 0.000000 -1.000000
vn 1.000000 0.000000 0.000000
vn 1.000000 0.000000 0.000000
vn 0.000000 0.000000 1.000000
vn 0.000000 -0.000000 1.000000
vn -1.000000 0.000000 0.000000
vn -1.000000 0.000000 0.000000
f 4//1 1//1 2//1
f 2//2 3//2 4//2
f 8//3 6//3 5//3
f 6//4 8//4 7//4
f 9//5 11//5 10//5
f 9//6 12//6 11//6
f 13//7 15//7 14//7
f 13//8 16//8 15//8
f 17//9 19//9 18//9
f 17//10 20//10 19//10
f 21//11 23//11 22//11
f 21//12 24//12 23//12
o Ceiling_002_l_chamber_2_ceiling_03
usemtl Ceiling
v -72.200000 -1.000000 40.610000
v -72.050000 -1.000000 40.610000
v -72.050000 -1.000000 48.440000
v -72.200000 -1.000000 48.440000
v -72.200000 -0.800000 40.610000
v -72.050000 -0.800000 40.610000
v -72.050000 -0.800000 48.440000
v -72.200000 -0.800000 48.440000
v -72.200000 -1.000000 48.440000
v -72.050000 -1.000000 48.440000
v -72.050000 -1.000000 54.010000
v -72.200000 -1.000000 54.010000
v -72.200000 -0.800000 48.440000
v -72.050000 -0.800000 48.440000
v -72.050000 -0.800000 54.010000
v -72.200000 -0.800000 54.010000
v -72.050000 -1.000000 40.610000
v -68.894000 -1.000000 40.610000
v -68.894000 -1.000000 54.010000
v -72.050000 -1.000000 54.010000
v -72.050000 -0.800000 40.610000
v -68.894000 -0.800000 40.610000
v -68.894000 -0.800000 54.010000
v -72.050000 -0.800000 54.010000
v -72.200000 -1.000000 40.610000
v -72.050000 -1.000000 40.610000
v -72.050000 -0.800000 40.610000
v -72.200000 -0.800000 40.610000
v -72.200000 -1.000000 48.440000
v -72.200000 -1.000000 40.610000
v -72.200000 -0.800000 40.610000
v -72.200000 -0.800000 48.440000
v -72.050000 -1.000000 54.010000
v -72.200000 -1.000000 54.010000
v -72.200000 -0.800000 54.010000
v -72.050000 -0.800000 54.010000
v -72.200000 -1.000000 54.010000
v -72.200000 -1.000000 48.440000
v -72.200000 -0.800000 48.440000
v -72.200000 -0.800000 54.010000
v -72.050000 -1.000000 40.610000
v -68.894000 -1.000000 40.610000
v -68.894000 -0.800000 40.610000
v -72.050000 -0.800000 40.610000
v -68.894000 -1.000000 40.610000
v -68.894000 -1.000000 54.010000
v -68.894000 -0.800000 54.010000
v -68.894000 -0.800000 40.610000
v -68.894000 -1.000000 54.010000
v -72.050000 -1.000000 54.010000
v -72.050000 -0.800000 54.010000
v -68.894000 -0.800000 54.010000
vn 0.000000 -1.000000 0.000000
vn 0.000000 -1.000000 0.000000
vn 0.000000 1.000000 0.000000
vn 0.000000 1.000000 -0.000000
vn 0.000000 -1.000000 0.000000
vn 0.000000 -1.000000 0.000000
vn 0.000000 1.000000 0.000000
vn 0.000000 1.000000 -0.000000
vn 0.000000 -1.000000 0.000000
vn 0.000000 -1.000000 0.000000
vn 0.000000 1.000000 0.000000
vn 0.000000 1.000000 -0.000000
vn 0.000000 0.000000 -1.000000
vn 0.000000 0.000000 -1.000000
vn -1.000000 0.000000 0.000000
vn -1.000000 0.000000 0.000000
vn 0.000000 0.000000 1.000000
vn 0.000000 -0.000000 1.000000
vn -1.000000 0.000000 0.000000
vn -1.000000 0.000000 0.000000
vn 0.000000 0.000000 -1.000000
vn 0.000000 0.000000 -1.000000
vn 1.000000 0.000000 0.000000
vn 1.000000 0.000000 0.000000
vn 0.000000 0.000000 1.000000
vn 0.000000 -0.000000 1.000000
f 28//13 25//13 26//13
f 26//14 27//14 28//14
f 32//15 30//15 29//15
f 30//16 32//16 31//16
f 36//17 33//17 34//17
f 34//18 35//18 36//18
f 40//19 38//19 37//19
f 38//20 40//20 39//20
f 44//21 41//21 42//21
f 42//22 43//22 44//22
f 48//23 46//23 45//23
f 46//24 48//24 47//24
f 49//25 51//25 50//25
f 49//26 52//26 51//26
f 53//27 55//27 54//27
f 53//28 56//28 55//28
f 57//29 59//29 58//29
f 57//30 60//30 59//30
f 61//31 63//31 62//31
f 61//32 64//32 63//32
f 65//33 67//33 66//33
f 65//34 68//34 67//34
f 69//35 71//35 70//35
f 69//36 72//36 71//36
f 73//37 75//37 74//37
f 73//38 76//38 75//38
o Ceiling_003_l_chamber_2_ceiling_02
usemtl Ceiling
v -68.894000 -1.000000 36.221000
v -68.744000 -1.000000 36.221000
v -68.744000 -1.000000 40.610000
v -68.894000 -1.000000 40.610000
v -68.894000 -0.800000 36.221000
v -68.744000 -0.800000 36.221000
v -68.744000 -0.800000 40.610000
v -68.894000 -0.800000 40.610000
v -68.894000 -1.000000 40.610000
v -68.744000 -1.000000 40.610000
v -68.744000 -1.000000 54.010000
v -68.894000 -1.000000 54.010000
v -68.894000 -0.800000 40.610000
v -68.744000 -0.800000 40.610000
v -68.744000 -0.800000 54.010000
v -68.894000 -0.800000 54.010000
v -68.894000 -1.000000 54.010000
v -68.744000 -1.000000 54.010000
v -68.744000 -1.000000 56.221000
v -68.894000 -1.000000 56.221000
v -68.894000 -0.800000 54.010000
v -68.744000 -0.800000 54.010000
v -68.744000 -0.800000 56.221000
v -68.894000 -0.800000 56.221000
v -68.744000 -1.000000 36.221000
v -47.778000 -1.000000 36.221000
v -47.778000 -1.000000 56.221000
v -68.744000 -1.000000 56.221000
v -68.744000 -0.800000 36.221000
v -47.778000 -0.800000 36.221000
v -47.778000 -0.800000 56.221000
v -68.744000 -0.800000 56.221000
v -68.894000 -1.000000 36.221000
v -68.744000 -1.000000 36.221000
v -68.744000 -0.800000 36.221000
v -68.894000 -0.800000 36.221000
v -68.894000 -1.000000 40.610000
v -68.894000 -1.000000 36.221000
v -68.894000 -0.800000 36.221000
v -68.894000 -0.800000 40.610000
v -68.894000 -1.000000 54.010000
v -68.894000 -1.000000 40.610000
v -68.894000 -0.800000 40.610000
v -68.894000 -0.800000 54.010000
v -68.744000 -1.000000 56.221000
v -68.894000 -1.000000 56.221000
v -68.894000 -0.800000 56.221000
v -68.744000 -0.800000 56.221000
v -68.894000 -1.000000 56.221000
v -68.894000 -1.000000 54.010000
v -68.894000 -0.800000 54.010000
v -68.894000 -0.800000 56.221000
v -68.744000 -1.000000 36.221000
v -47.778000 -1.000000 36.221000
v -47.778000 -0.800000 36.221000
v -68.744000 -0.800000 36.221000
v -47.778000 -1.000000 36.221000
v -47.778000 -1.000000 56.221000
v -47.778000 -0.800000 56.221000
v -47.778000 -0.800000 36.221000
v -47.778000 -1.000000 56.221000
v -68.744000 -1.000000 56.221000
v -68.744000 -0.800000 56.221000
v -47.778000 -0.800000 56.221000
vn 0.000000 -1.000000 0.000000
vn 0.000000 -1.000000 0.000000
vn 0.000000 1.000000 0.000000
vn 0.000000 1.000000 -0.000000
vn 0.000000 -1.000000 0.000000
vn 0.000000 -1.000000 0.000000
vn 0.000000 1.000000 0.000000
vn 0.000000 1.000000 -0.000000
vn 0.000000 -1.000000 0.000000
vn 0.000000 -1.000000 0.000000
vn 0.000000 1.000000 0.000000
vn 0.000000 1.000000 -0.000000
vn 0.000000 -1.000000 0.000000
vn 0.000000 -1.000000 0.000000
vn 0.000000 1.000000 0.000000
vn 0.000000 1.000000 -0.000000
vn 0.000000 0.000000 -1.000000
vn 0.000000 0.000000 -1.000000
vn -1.000000 0.000000 0.000000
vn -1.000000 0.000000 0.000000
vn -1.000000 0.000000 0.000000
vn -1.000000 0.000000 0.000000
vn 0.000000 0.000000 1.000000
vn 0.000000 -0.000000 1.000000
vn -1.000000 0.000000 0.000000
vn -1.000000 0.000000 0.000000
vn 0.000000 0.000000 -1.000000
vn 0.000000 0.000000 -1.000000
vn 1.000000 0.000000 0.000000
vn 1.000000 0.000000 0.000000
vn 0.000000 0.000000 1.000000
vn 0.000000 -0.000000 1.000000
f 80//39 77//39 78//39
f 78//40 79//40 80//40
f 84//41 82//41 81//41
f 82//42 84//42 83//42
f 88//43 85//43 86//43
f 86//44 87//44 88//44
f 92//45 90//45 89//45
f 90//46 92//46 91//46
f 96//47 93//47 94//47
f 94//48 95//48 96//48
f 100//49 98//49 97//49
f 98//50 100//50 99//50
f 104//51 101//51 102//51
f 102//52 103//52 104//52
f 108//53 106//53 105//53
f 106//54 108//54 107//54
f 109//55 111//55 110//55
f 109//56 112//56 111//56
f 113//57 115//57 114//57
f 113//58 116//58 115//58
f 117//59 119//59 118//59
f 117//60 120//60 119//60
f 121//61 123//61 122//61
f 121//62 124//62 123//62
f 125//63 127//63 126//63
f 125//64 128//64 127//64
f 129//65 131//65 130//65
f 129//66 132//66 131//66
f 133//67 135//67 134//67
f 133//68 136//68 135//68
f 137//69 139//69 138//69
f 137//70 140//70 139//70
o Ceiling_004_l_chamber_2_ceiling_07
usemtl Ceiling
v -65.830000 -1.000000 25.050000
v -61.430000 -1.000000 25.050000
v -61.430000 -1.000000 30.620000
v -65.830000 -1.000000 30.620000
v -65.830000 -0.800000 25.050000
v -61.430000 -0.800000 25.050000
v -61.430000 -0.800000 30.620000
v -65.830000 -0.800000 30.620000
v -65.830000 -1.000000 25.050000
v -61.430000 -1.000000 25.050000
v -61.430000 -0.800000 25.050000
v -65.830000 -0.800000 25.050000
v -61.430000 -1.000000 25.050000
v -61.430000 -1.000000 30.620000
v -61.430000 -0.800000 30.620000
v -61.430000 -0.800000 25.050000
v -61.430000 -1.000000 30.620000
v -65.830000 -1.000000 30.620000
v -65.830000 -0.800000 30.620000
v -61.430000 -0.800000 30.620000
v -65.830000 -1.000000 30.620000
v -65.830000 -1.000000 25.050000
v -65.830000 -0.800000 25.050000
v -65.830000 -0.800000 30.620000
vn 0.000000 -1.000000 0.000000
vn 0.000000 -1.000000 0.000000
vn 0.000000 1.000000 0.000000
vn 0.000000 1.000000 -0.000000
vn 0.000000 0.000000 -1.000000
vn 0.000000 0.000000 -1.000000
vn 1.000000 0.000000 0.000000
vn 1.000000 0.000000 0.000000
vn 0.000000 0.000000 1.000000
vn 0.000000 -0.000000 1.000000
vn -1.000000 0.000000 0.000000
vn -1.000000 0.000000 0.000000
f 144//71 141//71 142//71
f 142//72 143//72 144//72
f 148//73 146//73 145//73
f 146//74 148//74 147//74
f 149//75 151//75 150//75
f 149//76 152//76 151//76
f 153//77 155//77 154//77
f 153//78 156//78 155//78
f 157//79 159//79 158//79
f 157//80 160//80 159//80
f 161//81 163//81 162//81
f 161//82 164//82 163//82
o Ceiling_005_l_chamber_2_ceiling_01
usemtl Ceiling
v -65.830000 -1.000000 30.620000
v -57.830000 -1.000000 30.620000
v -57.830000 -1.000000 36.221000
v -65.830000 -1.000000 36.221000
v -65.830000 -0.800000 30.620000
v -57.830000 -0.800000 30.620000
v -57.830000 -0.800000 36.221000
v -65.830000 -0.800000 36.221000
v -65.830000 -1.000000 30.620000
v -57.830000 -1.000000 30.620000
v -57.830000 -0.800000 30.620000
v -65.830000 -0.800000 30.620000
v -57.830000 -1.000000 30.620000
v -57.830000 -1.000000 36.221000
v -57.830000 -0.800000 36.221000
v -57.830000 -0.800000 30.620000
v -57.830000 -1.000000 36.221000
v -65.830000 -1.000000 36.221000
v -65.830000 -0.800000 36.221000
v -57.830000 -0.800000 36.221000
v -65.830000 -1.000000 36.221000
v -65.830000 -1.000000 30.620000
v -65.830000 -0.800000 30.620000
v -65.830000 -0.800000 36.221000
vn 0.000000 -1.000000 0.000000
vn 0.000000 -1.000000 0.000000
vn 0.000000 1.000000 0.000000
vn 0.000000 1.000000 -0.000000
vn 0.000000 0.000000 -1.000000
vn 0.000000 0.000000 -1.000000
vn 1.000000 0.000000 0.000000
vn 1.000000 0.000000 0.000000
vn 0.000000 0.000000 1.000000
vn 0.000000 -0.000000 1.000000
vn -1.000000 0.000000 0.000000
vn -1.000000 0.000000 0.000000
f 168//83 165//83 166//83
f 166//84 167//84 168//84
f 172//85 170//85 169//85
f 170//86 172//86 171//86
f 173//87 175//87 174//87
f 173//88 176//88 175//88
f 177//89 179//89 178//89
f 177//90 180//90 179//90
f 181//91 183//91 182//91
f 181//92 184//92 183//92
f 185//93 187//93 186//93
f 185//94 188//94 187//94
o Ceiling_006_l_chamber_2_ceiling_05
usemtl Ceiling
v -65.830000 -1.000000 56.221000
v -52.430000 -1.000000 56.221000
v -52.430000 -1.000000 61.820000
v -65.830000 -1.000000 61.820000
v -65.830000 -0.800000 56.221000
v -52.430000 -0.800000 56.221000
v -52.430000 -0.800000 61.820000
v -65.830000 -0.800000 61.820000
v -65.830000 -1.000000 56.221000
v -52.430000 -1.000000 56.221000
v -52.430000 -0.800000 56.221000
v -65.830000 -0.800000 56.221000
v -52.430000 -1.000000 56.221000
v -52.430000 -1.000000 61.820000
v -52.430000 -0.800000 61.820000
v -52.430000 -0.800000 56.221000
v -52.430000 -1.000000 61.820000
v -65.830000 -1.000000 61.820000
v -65.830000 -0.800000 61.820000
v -52.430000 -0.800000 61.820000
v -65.830000 -1.000000 61.820000
v -65.830000 -1.000000 56.221000
v -65.830000 -0.800000 56.221000
v -65.830000 -0.800000 61.820000
vn 0.000000 -1.000000 0.000000
vn 0.000000 -1.000000 0.000000
vn 0.000000 1.000000 0.000000
vn 0.000000 1.000000 -0.000000
vn 0.000000 0.000000 -1.000000
vn 0.000000 0.000000 -1.000000
vn 1.000000 0.000000 0.000000
vn 1.000000 0.000000 0.000000
vn 0.000000 0.000000 1.000000
vn 0.000000 -0.000000 1.000000
vn -1.000000 0.000000 0.000000
vn -1.000000 0.000000 0.000000
f 192//95 189//95 190//95
f 190//96 191//96 192//96
f 196//97 194//97 193//97
f 194//98 196//98 195//98
f 197//99 199//99 198//99
f 197//100 200//100 199//100
f 201//101 203//101 202//101
f 201//102 204//102 203//102
f 205//103 207//103 206//103
f 205//104 208//104 207//104
f 209//105 211//105 210//105
f 209//106 212//106 211//106
o Ceiling_007_l_chamber_2_ceiling_06
usemtl Ceiling
v -57.830000 -1.000000 30.620000
v -52.430000 -1.000000 30.620000
v -52.430000 -1.000000 36.221000
v -57.830000 -1.000000 36.221000
v -57.830000 -0.800000 30.620000
v -52.430000 -0.800000 30.620000
v -52.430000 -0.800000 36.221000
v -57.830000 -0.800000 36.221000
v -57.830000 -1.000000 30.620000
v -52.430000 -1.000000 30.620000
v -52.430000 -0.800000 30.620000
v -57.830000 -0.800000 30.620000
v -52.430000 -1.000000 30.620000
v -52.430000 -1.000000 36.221000
v -52.430000 -0.800000 36.221000
v -52.430000 -0.800000 30.620000
v -52.430000 -1.000000 36.221000
v -57.830000 -1.000000 36.221000
v -57.830000 -0.800000 36.221000
v -52.430000 -0.800000 36.221000
v -57.830000 -1.000000 36.221000
v -57.830000 -1.000000 30.620000
v -57.830000 -0.800000 30.620000
v -57.830000 -0.800000 36.221000
vn 0.000000 -1.000000 0.000000
vn 0.000000 -1.000000 0.000000
vn 0.000000 1.000000 0.000000
vn 0.000000 1.000000 -0.000000
vn 0.000000 0.000000 -1.000000
vn 0.000000 0.000000 -1.000000
vn 1.000000 0.000000 0.000000
vn 1.000000 0.000000 0.000000
vn 0.000000 0.000000 1.000000
vn 0.000000 -0.000000 1.000000
vn -1.000000 0.000000 0.000000
vn -1.000000 0.000000 0.000000
f 216//107 213//107 214//107
f 214//108 215//108 216//108
f 220//109 218//109 217//109
f 218//110 220//110 219//110
f 221//111 223//111 222//111
f 221//112 224//112 223//112
f 225//113 227//113 226//113
f 225//114 228//114 227//114
f 229//115 231//115 230//115
f 229//116 232//116 231//116
f 233//117 235//117 234//117
f 233//118 236//118 235//118
