# Generated by svg_to_godot3d
mtllib geometry.mtl
s off
o Floor_001_f_ab45724127
usemtl Floor
v -110.000000 -6.200000 -8.000000
v -92.470000 -6.200000 -8.000000
v -92.470000 -6.200000 15.000000
v -110.000000 -6.200000 15.000000
v -110.000000 -6.000000 -8.000000
v -92.470000 -6.000000 -8.000000
v -92.470000 -6.000000 15.000000
v -110.000000 -6.000000 15.000000
v -92.470000 -6.200000 -8.000000
v -92.320000 -6.200000 -8.000000
v -92.320000 -6.200000 2.350000
v -92.470000 -6.200000 2.350000
v -92.470000 -6.000000 -8.000000
v -92.320000 -6.000000 -8.000000
v -92.320000 -6.000000 2.350000
v -92.470000 -6.000000 2.350000
v -92.470000 -6.200000 2.350000
v -92.320000 -6.200000 2.350000
v -92.320000 -6.200000 15.000000
v -92.470000 -6.200000 15.000000
v -92.470000 -6.000000 2.350000
v -92.320000 -6.000000 2.350000
v -92.320000 -6.000000 15.000000
v -92.470000 -6.000000 15.000000
v -110.000000 -6.200000 -8.000000
v -92.470000 -6.200000 -8.000000
v -92.470000 -6.000000 -8.000000
v -110.000000 -6.000000 -8.000000
v -92.470000 -6.200000 15.000000
v -110.000000 -6.200000 15.000000
v -110.000000 -6.000000 15.000000
v -92.470000 -6.000000 15.000000
v -110.000000 -6.200000 15.000000
v -110.000000 -6.200000 -8.000000
v -110.000000 -6.000000 -8.000000
v -110.000000 -6.000000 15.000000
v -92.470000 -6.200000 -8.000000
v -92.320000 -6.200000 -8.000000
v -92.320000 -6.000000 -8.000000
v -92.470000 -6.000000 -8.000000
v -92.320000 -6.200000 -8.000000
v -92.320000 -6.200000 2.350000
v -92.320000 -6.000000 2.350000
v -92.320000 -6.000000 -8.000000
v -92.320000 -6.200000 2.350000
v -92.320000 -6.200000 15.000000
v -92.320000 -6.000000 15.000000
v -92.320000 -6.000000 2.350000
v -92.320000 -6.200000 15.000000
v -92.470000 -6.200000 15.000000
v -92.470000 -6.000000 15.000000
v -92.320000 -6.000000 15.000000
vn 0.000000 -1.000000 0.000000
vn 0.000000 -1.000000 0.000000
vn 0.000000 1.000000 0.000000
vn 0.000000 1.000000 -0.000000
vn 0.000000 -1.000000 0.000000
vn 0.000000 -1.000000 0.000000
vn 0.000000 1.000000 0.000000
vn 0.000000 1.000000 -0.000000
vn 0.000000 -1.000000 0.000000
vn 0.000000 -1.000000 0.000000
vn 0.000000 1.000000 0.000000
vn 0.000000 1.000000 -0.000000
vn 0.000000 0.000000 -1.000000
vn 0.000000 0.000000 -1.000000
vn 0.000000 0.000000 1.000000
vn 0.000000 -0.000000 1.000000
vn -1.000000 0.000000 0.000000
vn -1.000000 0.000000 0.000000
vn 0.000000 0.000000 -1.000000
vn 0.000000 0.000000 -1.000000
vn 1.000000 0.000000 0.000000
vn 1.000000 0.000000 0.000000
vn 1.000000 0.000000 0.000000
vn 1.000000 0.000000 0.000000
vn 0.000000 0.000000 1.000000
vn 0.000000 -0.000000 1.000000
f 4//1 1//1 2//1
f 2//2 3//2 4//2
f 8//3 6//3 5//3
f 6//4 8//4 7//4
f 12//5 9//5 10//5
f 10//6 11//6 12//6
f 16//7 14//7 13//7
f 14//8 16//8 15//8
f 20//9 17//9 18//9
f 18//10 19//10 20//10
f 24//11 22//11 21//11
f 22//12 24//12 23//12
f 25//13 27//13 26//13
f 25//14 28//14 27//14
f 29//15 31//15 30//15
f 29//16 32//16 31//16
f 33//17 35//17 34//17
f 33//18 36//18 35//18
f 37//19 39//19 38//19
f 37//20 40//20 39//20
f 41//21 43//21 42//21
f 41//22 44//22 43//22
f 45//23 47//23 46//23
f 45//24 48//24 47//24
f 49//25 51//25 50//25
f 49//26 52//26 51//26
o Floor_002_f_a279f46b87
usemtl Floor
v -92.320000 -6.200000 -8.000000
v -84.000000 -6.200000 -8.000000
v -84.000000 -6.200000 2.350000
v -92.320000 -6.200000 2.350000
v -92.320000 -6.000000 -8.000000
v -84.000000 -6.000000 -8.000000
v -84.000000 -6.000000 2.350000
v -92.320000 -6.000000 2.350000
v -92.320000 -6.200000 -8.000000
v -84.000000 -6.200000 -8.000000
v -84.000000 -6.000000 -8.000000
v -92.320000 -6.000000 -8.000000
v -84.000000 -6.200000 -8.000000
v -84.000000 -6.200000 2.350000
v -84.000000 -6.000000 2.350000
v -84.000000 -6.000000 -8.000000
v -84.000000 -6.200000 2.350000
v -92.320000 -6.200000 2.350000
v -92.320000 -6.000000 2.350000
v -84.000000 -6.000000 2.350000
v -92.320000 -6.200000 2.350000
v -92.320000 -6.200000 -8.000000
v -92.320000 -6.000000 -8.000000
v -92.320000 -6.000000 2.350000
vn 0.000000 -1.000000 0.000000
vn 0.000000 -1.000000 0.000000
vn 0.000000 1.000000 0.000000
vn 0.000000 1.000000 -0.000000
vn 0.000000 0.000000 -1.000000
vn 0.000000 0.000000 -1.000000
vn 1.000000 0.000000 0.000000
vn 1.000000 0.000000 0.000000
vn 0.000000 0.000000 1.000000
vn 0.000000 -0.000000 1.000000
vn -1.000000 0.000000 0.000000
vn -1.000000 0.000000 0.000000
f 56//27 53//27 54//27
f 54//28 55//28 56//28
f 60//29 58//29 57//29
f 58//30 60//30 59//30
f 61//31 63//31 62//31
f 61//32 64//32 63//32
f 65//33 67//33 66//33
f 65//34 68//34 67//34
f 69//35 71//35 70//35
f 69//36 72//36 71//36
f 73//37 75//37 74//37
f 73//38 76//38 75//38
o Floor_003_f_9cb64ad9f6
usemtl Floor
v -92.320000 -6.200000 2.350000
v -84.000000 -6.200000 2.350000
v -84.000000 -6.200000 15.000000
v -92.320000 -6.200000 15.000000
v -92.320000 -6.000000 2.350000
v -84.000000 -6.000000 2.350000
v -84.000000 -6.000000 15.000000
v -92.320000 -6.000000 15.000000
v -92.320000 -6.200000 2.350000
v -84.000000 -6.200000 2.350000
v -84.000000 -6.000000 2.350000
v -92.320000 -6.000000 2.350000
v -84.000000 -6.200000 2.350000
v -84.000000 -6.200000 15.000000
v -84.000000 -6.000000 15.000000
v -84.000000 -6.000000 2.350000
v -84.000000 -6.200000 15.000000
v -92.320000 -6.200000 15.000000
v -92.320000 -6.000000 15.000000
v -84.000000 -6.000000 15.000000
v -92.320000 -6.200000 15.000000
v -92.320000 -6.200000 2.350000
v -92.320000 -6.000000 2.350000
v -92.320000 -6.000000 15.000000
vn 0.000000 -1.000000 0.000000
vn 0.000000 -1.000000 0.000000
vn 0.000000 1.000000 0.000000
vn 0.000000 1.000000 -0.000000
vn 0.000000 0.000000 -1.000000
vn 0.000000 0.000000 -1.000000
vn 1.000000 0.000000 0.000000
vn 1.000000 0.000000 0.000000
vn 0.000000 0.000000 1.000000
vn 0.000000 -0.000000 1.000000
vn -1.000000 0.000000 0.000000
vn -1.000000 0.000000 0.000000
f 80//39 77//39 78//39
f 78//40 79//40 80//40
f 84//41 82//41 81//41
f 82//42 84//42 83//42
f 85//43 87//43 86//43
f 85//44 88//44 87//44
f 89//45 91//45 90//45
f 89//46 92//46 91//46
f 93//47 95//47 94//47
f 93//48 96//48 95//48
f 97//49 99//49 98//49
f 97//50 100//50 99//50
